<?xml version="1.0" standalone="no"?>
<!DOCTYPE svg PUBLIC "-//W3C//DTD SVG 1.1//EN" "http://www.w3.org/Graphics/SVG/1.1/DTD/svg11.dtd" >
<svg>
<metadata>
Created by FontForge 20090914 at Mon Jun  8 14:30:36 2020
 By www-data
Copyright (c) 2015 by Fontfabric LLC. All rights reserved.
</metadata>
<defs>
<font id="MullerLight" horiz-adv-x="582" >
  <font-face 
    font-family="Muller Light"
    font-weight="300"
    font-stretch="normal"
    units-per-em="1000"
    panose-1="0 0 0 0 0 0 0 0 0 0"
    ascent="780"
    descent="-220"
    x-height="480"
    cap-height="700"
    bbox="-158 -234.001 1230 946"
    underline-thickness="50"
    underline-position="-175"
    unicode-range="U+0020-U+25CA"
  />
<missing-glyph horiz-adv-x="257" 
 />
    <glyph glyph-name="f_f" unicode="ff" horiz-adv-x="678" 
d="M700 646c-30.667 15.333 -65.667 23 -105 23c-79.333 0 -119 -37.667 -119 -113v-76h194v-53h-194v-427h-56v427h-254v-427h-56v427h-87v53h87v55c0 52 16.667 92.167 50 120.5s76 42.5 128 42.5c54.667 0 106.334 -15 155.001 -45c27.333 45.333 73.666 68 138.999 68
c44 0 83.333 -7.33301 118 -22v-53zM166 480h253v78c0 16 1.66699 32.333 5 49c-39.333 25.333 -84 38 -134 38c-37.333 0 -67.333 -9.33301 -90 -28s-34 -46 -34 -82v-55z" />
    <glyph glyph-name="f_f_i" unicode="ffi" horiz-adv-x="859" 
d="M166 0h-56.002v427h-87v53h87v55c0 52 16.833 92.167 50.5 120.5s77.167 42.5 130.5 42.5c52.667 0 105.334 -15.667 158.001 -47c30.667 44.667 80.334 67 149.001 67c50 0 100 -13 150 -39v-57c-48.667 28.667 -97.667 43 -147 43c-38 0 -68.333 -9.5 -91 -28.5
s-34 -47.167 -34 -84.5v-72h302v-480h-57v427h-245v-427h-56v427h-254v-427zM165.998 535v-55h253v72c0 18.667 2.66699 36.667 8 54c-40 26 -84.333 39 -133 39c-39.333 0 -70.5 -9.33301 -93.5 -28s-34.5 -46 -34.5 -82z" />
    <glyph glyph-name="f_f_l" unicode="ffl" horiz-adv-x="869" 
d="M731 689l-0.000976562 3.99902l57 15v-708h-57v636c-40.667 19.333 -84 29 -130 29c-38 0 -68.333 -9.66699 -91 -29s-34 -48.666 -34 -87.999v-68h169v-53h-169v-427h-56v427h-254v-427h-56v427h-87v53h87v55c0 52 16.833 92.167 50.5 120.5s77.167 42.5 130.5 42.5
c52.667 0 105.334 -15.667 158.001 -47c32 44.667 81.667 67 149 67c46.667 0 91 -9.66699 133 -29zM418.999 479.999v68.001c0 21.333 3 40.666 9 57.999c-40 26 -84.667 39 -134 39c-39.333 0 -70.5 -9.33301 -93.5 -28s-34.5 -46 -34.5 -82v-55h253z" />
    <glyph glyph-name=".notdef" horiz-adv-x="257" 
 />
    <glyph glyph-name="space" unicode=" " horiz-adv-x="257" 
 />
    <glyph glyph-name="exclam" unicode="!" horiz-adv-x="216" 
d="M133 189h-50l-5 511h59zM147 30c0 -12 -3.66699 -21.333 -11 -28s-16.666 -10 -27.999 -10s-20.666 3.33301 -27.999 10s-11 16 -11 28s3.66699 21.333 11 28s16.666 10 27.999 10s20.666 -3.33301 27.999 -10s11 -16 11 -28z" />
    <glyph glyph-name="quotedbl" unicode="&#x22;" horiz-adv-x="292" 
d="M220 540h-40v160h55zM106 540h-40v160h55z" />
    <glyph glyph-name="numbersign" unicode="#" horiz-adv-x="650" 
d="M140 0h-57l42 179h-86v50h98l53 223h-101v50h113l42 179h57l-42 -179h210l42 179h57l-42 -179h85v-50h-97l-53 -223h100v-50h-112l-42 -179h-57l42 179h-210zM247 452l-53 -223h211l53 223h-211z" />
    <glyph glyph-name="dollar" unicode="$" horiz-adv-x="573" 
d="M306 -130l-50.002 -0.00292969v120c-79.333 5.33301 -148.666 24.666 -207.999 57.999v59c70.667 -41.333 151 -62 241 -62c124 0 186 40.333 186 121c0 28 -7.83301 51.833 -23.5 71.5s-36 34.834 -61 45.501s-52.5 20.334 -82.5 29.001l-90.5 27
c-30.333 9.33301 -58 20.5 -83 33.5s-45.333 31.333 -61 55s-23.5 52.167 -23.5 85.5c0 53.333 19.5 95 58.5 125s88.167 47.333 147.5 52v120h50v-119c72.667 -4.66699 134.334 -21 185.001 -49v-60c-57.333 35.333 -125 53 -203 53c-52.667 0 -95.5 -9.83301 -128.5 -29.5
s-49.5 -49.834 -49.5 -90.501c0 -26.667 7.83301 -49.167 23.5 -67.5s36 -32.666 61 -42.999s52.5 -19.666 82.5 -27.999s60.167 -17.333 90.5 -27s58 -21.167 83 -34.5s45.333 -32.333 61 -57s23.5 -54 23.5 -88c0 -60.667 -21.333 -105.667 -64 -135
s-97.667 -44.666 -165 -45.999v-119z" />
    <glyph glyph-name="percent" unicode="%" horiz-adv-x="885" 
d="M267 -60h-57l409 820h57zM348 560c0 -46.667 -15.167 -83.5 -45.5 -110.5s-67.166 -40.5 -110.499 -40.5c-44 0 -81.333 13.5 -112 40.5s-46 63.833 -46 110.5s15.333 83.5 46 110.5s68 40.5 112 40.5c43.333 0 80.166 -13.5 110.499 -40.5s45.5 -63.833 45.5 -110.5z
M88 560c0 -30 9.5 -54.333 28.5 -73s44.167 -28 75.5 -28c30.667 0 55.334 9.33301 74.001 28s28 43 28 73s-9.33301 54.333 -28 73s-43.334 28 -74.001 28c-31.333 0 -56.5 -9.33301 -75.5 -28s-28.5 -43 -28.5 -73zM851 140c0 -46.667 -15.167 -83.5 -45.5 -110.5
s-67.166 -40.5 -110.499 -40.5c-44 0 -81.333 13.5 -112 40.5s-46 63.833 -46 110.5s15.333 83.5 46 110.5s68 40.5 112 40.5c43.333 0 80.166 -13.5 110.499 -40.5s45.5 -63.833 45.5 -110.5zM591 140c0 -30 9.5 -54.333 28.5 -73s44.167 -28 75.5 -28
c30.667 0 55.334 9.33301 74.001 28s28 43 28 73s-9.33301 54.333 -28 73s-43.334 28 -74.001 28c-31.333 0 -56.5 -9.33301 -75.5 -28s-28.5 -43 -28.5 -73z" />
    <glyph glyph-name="ampersand" unicode="&#x26;" horiz-adv-x="695" 
d="M560 116l127.002 -115.999h-72l-88 79c-64.667 -60 -146.334 -90 -245.001 -90c-71.333 0 -127.5 16.5 -168.5 49.5s-61.5 75.167 -61.5 126.5c0 74.667 52 142.334 156 203.001c-61.333 60 -92 116.667 -92 170c0 48 19.667 88.833 59 122.5s89.333 50.5 150 50.5
c53.333 0 96.666 -13.5 129.999 -40.5s50 -62.167 50 -105.5c0 -22.667 -5.83301 -44.334 -17.5 -65.001s-28.167 -39.334 -49.5 -56.001s-41.833 -31 -61.5 -43s-42.167 -24.667 -67.5 -38l-12 -6l221 -202c36 48 53.333 103.333 52 166h59c0 -76.667 -23 -145 -69 -205z
M324.002 657.001c-45.333 0 -81.668 -11.667 -109.001 -35s-41 -51.666 -41 -84.999c0 -41.333 27.667 -89 83 -143c68 34.667 112.667 60.667 134 78c36.667 30 55.334 59.667 56.001 89c0 29.333 -11 52.666 -33 69.999s-52 26 -90 26zM111 168.001
c0 -38 15.333 -68.334 46 -91.001s73.667 -34 129 -34c80 0 146.333 24.667 199 74l-237 213c-40.667 -23.333 -73.667 -47.666 -99 -72.999s-38 -55 -38 -89z" />
    <glyph glyph-name="quotesingle" unicode="'" horiz-adv-x="178" 
d="M106 540h-40v160h55z" />
    <glyph glyph-name="parenleft" unicode="(" horiz-adv-x="271" 
d="M194 809h56c-44 -63.333 -78.333 -135.833 -103 -217.5s-37 -162.167 -37 -241.5s12.333 -159.833 37 -241.5s59 -154.167 103 -217.5h-56c-45.333 64.667 -81.166 137.5 -107.499 218.5s-39.5 161.167 -39.5 240.5s13.167 159.5 39.5 240.5
s62.166 153.833 107.499 218.5z" />
    <glyph glyph-name="parenright" unicode=")" horiz-adv-x="272" 
d="M22 809h56c45.333 -64.667 81.166 -137.5 107.499 -218.5s39.5 -161.167 39.5 -240.5s-13.167 -159.5 -39.5 -240.5s-62.166 -153.833 -107.499 -218.5h-56c43.333 63.333 77.333 135.833 102 217.5s37 162.167 37 241.5s-12.333 159.833 -37 241.5
s-58.667 154.167 -102 217.5z" />
    <glyph glyph-name="asterisk" unicode="*" horiz-adv-x="436" 
d="M218 510l-79 -119l-43 30l87 110l-133 37l19 50l128 -49l-5 131h52l-6 -131l129 49l18 -50l-132 -37l87 -110l-43 -30z" />
    <glyph glyph-name="plus" unicode="+" horiz-adv-x="533" 
d="M294 377h191v-54h-191v-192h-54v192h-192v54h192v192h54v-192z" />
    <glyph glyph-name="comma" unicode="," horiz-adv-x="215" 
d="M76 -147h-47l53 224h60z" />
    <glyph glyph-name="hyphen" unicode="-" horiz-adv-x="485" 
d="M67 273h351v-54h-351v54z" />
    <glyph glyph-name="period" unicode="." horiz-adv-x="206" 
d="M143 31c0 -12 -3.83301 -21.5 -11.5 -28.5s-17.167 -10.5 -28.5 -10.5s-20.833 3.5 -28.5 10.5s-11.5 16.5 -11.5 28.5s3.83301 21.5 11.5 28.5s17.167 10.5 28.5 10.5s20.833 -3.5 28.5 -10.5s11.5 -16.5 11.5 -28.5z" />
    <glyph glyph-name="slash" unicode="/" horiz-adv-x="414" 
d="M79 -58h-43l298 816h43z" />
    <glyph glyph-name="zero" unicode="0" horiz-adv-x="704" 
d="M55 340c0 106 25 191 75 255s124 96 222 96s172 -32 222 -96s75 -149 75 -255s-25 -191 -75 -255s-124 -96 -222 -96s-172 32 -222 96s-75 149 -75 255zM589 340c0 92.667 -19.833 165 -59.5 217s-98.834 78 -177.501 78s-137.834 -26 -177.501 -78
s-59.5 -124.333 -59.5 -217s19.833 -165 59.5 -217s98.834 -78 177.501 -78s137.834 26 177.501 78s59.5 124.333 59.5 217z" />
    <glyph glyph-name="one" unicode="1" horiz-adv-x="418" 
d="M219 680h43v-623h133v-57h-341v57h149v559l-149 -56v57z" />
    <glyph glyph-name="two" unicode="2" horiz-adv-x="568" 
d="M70 627c63.333 42.667 134.001 63.9961 212.001 63.9961c68 0 122.667 -15.5 164 -46.5s62 -73.833 62 -128.5c0 -27.333 -5.16699 -52.833 -15.5 -76.5s-26.166 -45.334 -47.499 -65.001s-41 -36 -59 -49s-42.333 -28.5 -73 -46.5
c-66 -39.333 -108.667 -66.666 -128 -81.999c-48.667 -40.667 -73.334 -87.667 -74.001 -141l403 1v-57h-468v30c0 38 5.83301 72 17.5 102s29.334 56.167 53.001 78.5s46 40.833 67 55.5s47.5 31 79.5 49c2 0.666992 3.5 1.33398 4.5 2.00098s2.33301 1.5 4 2.5
s3.16699 1.83301 4.5 2.5c25.333 14.667 43.166 25.334 53.499 32.001s25.166 17.167 44.499 31.5s33 26.833 41 37.5s15.5 24.334 22.5 41.001s10.5 34.334 10.5 53.001c0 37.333 -15.167 66.5 -45.5 87.5s-71.833 31.5 -124.5 31.5c-72 0 -141.333 -22.667 -208 -68v59z
" />
    <glyph glyph-name="three" unicode="3" horiz-adv-x="586" 
d="M505 509c0 -36 -10.1699 -68.166 -30.5029 -96.499s-48.166 -47.166 -83.499 -56.499c40 -10 73.667 -29.333 101 -58s41 -67.334 41 -116.001c0 -61.333 -22.5 -108.833 -67.5 -142.5s-102.5 -50.5 -172.5 -50.5c-94 0 -173 14.667 -237 44v59
c64.667 -32 142 -47.667 232 -47c57.333 0 103 11.667 137 35s51 58.333 51 105c0 48 -16.833 83 -50.5 105s-78.167 33 -133.5 33h-101v57l95 -1c52.667 0 92.834 11.833 120.501 35.5s41.5 53.5 41.5 89.5c0 39.333 -15.5 71.166 -46.5 95.499s-73.833 36.5 -128.5 36.5
c-72 0 -140.333 -16.333 -205 -49v58c62.667 30.667 133.334 46 212.001 46c68 0 122.5 -17.167 163.5 -51.5s61.5 -77.833 61.5 -130.5z" />
    <glyph glyph-name="four" unicode="4" horiz-adv-x="641" 
d="M410 680h65v-466h135v-55h-135v-159h-59v159h-389v53zM416 214v386l-315 -386h315z" />
    <glyph glyph-name="five" unicode="5" horiz-adv-x="576" 
d="M97 680h399.003v-57h-343l-15 -234c44 13.333 89.667 20 137 20c46 0 87.333 -6.5 124 -19.5s67.5 -35.833 92.5 -68.5s37.5 -73.334 37.5 -122.001c0 -64 -23.5 -115 -70.5 -153s-108.167 -57 -183.5 -57c-84 0 -156.667 15.333 -218 46v56
c61.333 -31.333 131.666 -47 210.999 -47c61.333 0 110.166 13.667 146.499 41s54.5 65.333 54.5 114c0 54.667 -19.833 94.334 -59.5 119.001s-90.834 37 -153.501 37c-58.667 0 -119 -10.667 -181 -32z" />
    <glyph glyph-name="six" unicode="6" horiz-adv-x="615" 
d="M115 333c69.333 56.667 145.668 84.999 229.001 84.999c62 0 115.667 -18.5 161 -55.5s68 -88.833 68 -155.5c0 -68 -22.667 -121.333 -68 -160s-102 -58 -170 -58c-92.667 0 -162.334 29.5 -209.001 88.5s-70 141.5 -70 247.5c0 122.667 27.5 214.334 82.5 275.001
s128.833 91 221.5 91c57.333 0 109.333 -12.667 156 -38v-56c-47.333 25.333 -99 38 -155 38c-73.333 0 -132.333 -24.167 -177 -72.5s-67.667 -124.833 -69 -229.5zM117.002 271.999c6.66699 -74.667 28.3311 -131.333 64.998 -170s86.334 -58 149.001 -58
c53.333 0 97 13.5 131 40.5s51 67.167 51 120.5c0 54 -17.167 93.833 -51.5 119.5s-78.166 38.5 -131.499 38.5c-83.333 0 -154.333 -30.333 -213 -91z" />
    <glyph glyph-name="seven" unicode="7" horiz-adv-x="528" 
d="M31 680h477v-53l-300 -627h-64l298 623h-411v57z" />
    <glyph glyph-name="eight" unicode="8" horiz-adv-x="645" 
d="M77 521c0 46.667 20.667 86.665 62 119.998s102 50 182 50c74.667 0 134.167 -18 178.5 -54s67.166 -78.333 68.499 -127c0.666992 -36 -8 -69.667 -26 -101s-43.667 -57.666 -77 -78.999c84.667 -37.333 127 -91 127 -161c0 -50 -22.667 -92.5 -68 -127.5
s-111.666 -52.5 -198.999 -52.5c-86.667 0 -153.667 18.667 -201 56s-71 84 -71 140c0 36.667 10.667 72 32 106s52.333 62 93 84c-67.333 34.667 -101 83.334 -101 146.001zM327 318.998c-40.667 11.333 -73.333 21.6699 -98 31.0029
c-37.333 -16.667 -66.166 -39.334 -86.499 -68.001s-30.5 -59 -30.5 -91c0 -44.667 18.333 -80.334 55 -107.001s89.667 -40 159 -40c62 0 112 11.667 150 35s57 52.333 57 87c0 18 -3.83301 34.333 -11.5 49s-16.334 26.5 -26.001 35.5s-24.667 18 -45 27
s-37 15.667 -50 20s-32.833 10.166 -59.5 17.499c-6 2 -10.667 3.33301 -14 4zM509.001 500.002c0 37.333 -16.667 69.332 -50 95.999s-79.666 40 -138.999 40c-58 0 -103 -11 -135 -33s-48 -49.333 -48 -82c0 -18 3.83301 -34.167 11.5 -48.5s16.167 -25.833 25.5 -34.5
s23.166 -17.167 41.499 -25.5s33.333 -14.5 45 -18.5s28.5 -9 50.5 -15c6 -2 10.667 -3.33301 14 -4c8 -2.66699 22 -6.66699 42 -12s35.333 -9.66602 46 -12.999c64 36 96 86 96 150z" />
    <glyph glyph-name="nine" unicode="9" horiz-adv-x="614" 
d="M42 473c0 68 22.501 121.333 67.501 160s101.5 58 169.5 58c92.667 0 162.5 -29.667 209.5 -89s70.5 -141.666 70.5 -246.999c0 -122.667 -27.5 -214.334 -82.5 -275.001s-128.833 -91 -221.5 -91c-58.667 0 -110.667 12.667 -156 38v56
c47.333 -25.333 98.666 -38 153.999 -38c73.333 0 132.333 24.167 177 72.5s67.667 124.833 69 229.5c-68.667 -56.667 -144.667 -85 -228 -85c-62 0 -115.667 18.5 -161 55.5s-68 88.833 -68 155.5zM102.001 475c0 -54 17.1689 -93.833 51.502 -119.5
s78.166 -38.5 131.499 -38.5c82.667 0 153.334 30 212.001 90c-6.66699 74.667 -28.334 131.5 -65.001 170.5s-86.334 58.5 -149.001 58.5c-53.333 0 -96.833 -13.667 -130.5 -41s-50.5 -67.333 -50.5 -120z" />
    <glyph glyph-name="colon" unicode=":" horiz-adv-x="214" 
d="M147 397c0 -12.667 -3.83301 -22.334 -11.5 -29.001s-17.167 -10 -28.5 -10s-20.833 3.33301 -28.5 10s-11.5 16.334 -11.5 29.001c0 12 3.83301 21.5 11.5 28.5s17.167 10.5 28.5 10.5s20.833 -3.5 28.5 -10.5s11.5 -16.5 11.5 -28.5zM147 31
c0 -12 -3.83301 -21.5 -11.5 -28.5s-17.167 -10.5 -28.5 -10.5s-20.833 3.5 -28.5 10.5s-11.5 16.5 -11.5 28.5s3.83301 21.5 11.5 28.5s17.167 10.5 28.5 10.5s20.833 -3.5 28.5 -10.5s11.5 -16.5 11.5 -28.5z" />
    <glyph glyph-name="semicolon" unicode=";" horiz-adv-x="282" 
d="M116 -147h-47l53 224h60zM181 436c0 -12.667 -3.83301 -22.334 -11.5 -29.001s-17.167 -10 -28.5 -10s-20.833 3.33301 -28.5 10s-11.5 16.334 -11.5 29.001c0 12 3.83301 21.5 11.5 28.5s17.167 10.5 28.5 10.5s20.833 -3.5 28.5 -10.5s11.5 -16.5 11.5 -28.5z" />
    <glyph glyph-name="less" unicode="&#x3c;" horiz-adv-x="484" 
d="M412 221v-56l-368 156v58l368 156v-56l-310 -129z" />
    <glyph glyph-name="equal" unicode="=" horiz-adv-x="549" 
d="M479 414h-409v54h409v-54zM479 232h-409v54h409v-54z" />
    <glyph glyph-name="greater" unicode="&#x3e;" horiz-adv-x="484" 
d="M440 321l-368 -156v56l310 129l-310 129v56l368 -156v-58z" />
    <glyph glyph-name="question" unicode="?" horiz-adv-x="490" 
d="M260 199l-57.0029 0.00195312c0 29.333 9.83301 59.833 29.5 91.5s41.334 59.167 65.001 82.5s45.334 50.166 65.001 80.499s29.5 59.5 29.5 87.5c0 38 -15 66.5 -45 85.5s-71.667 28.5 -125 28.5c-61.333 0 -122.666 -18.333 -183.999 -55v57c58 36 122.333 54 193 54
c66 0 119.333 -14.333 160 -43s61 -69.334 61 -122.001c0 -26.667 -6.66699 -53.167 -20 -79.5s-29.333 -50.333 -48 -72l-56 -63.5c-18.667 -20.667 -34.667 -42.5 -48 -65.5s-20 -45.167 -20 -66.5zM270.997 31.002c0 -12 -3.83301 -21.5 -11.5 -28.5
s-17.167 -10.5 -28.5 -10.5s-20.833 3.5 -28.5 10.5s-11.5 16.5 -11.5 28.5s3.83301 21.5 11.5 28.5s17.167 10.5 28.5 10.5s20.833 -3.5 28.5 -10.5s11.5 -16.5 11.5 -28.5z" />
    <glyph glyph-name="at" unicode="@" horiz-adv-x="1054" 
d="M47 240c0 61.333 11 120.001 33 176.001s53 106 93 150s91.333 79.167 154 105.5s132 39.5 208 39.5c73.333 0 140.5 -13.333 201.5 -40s110.333 -61.334 148 -104.001s66.667 -89 87 -139s30.5 -99.667 30.5 -149c0 -88 -17.333 -155 -52 -201s-80.334 -69 -137.001 -69
c-40 0 -73 9.83301 -99 29.5s-42.333 48.167 -49 85.5c-15.333 -28.667 -37.333 -51.334 -66 -68.001s-60.334 -25 -95.001 -25c-56 0 -102.5 19.333 -139.5 58s-55.5 88 -55.5 148c0 60.667 18.5 110.5 55.5 149.5s83.5 58.5 139.5 58.5
c34.667 0 65.834 -8.33301 93.501 -25s48.167 -37.334 61.5 -62.001v78h56v-272c0 -70 33 -105 99 -105c40.667 0 72.167 19.667 94.5 59s33.5 93 33.5 161c0 44 -9 87.833 -27 131.5s-43.333 83.834 -76 120.501s-75.5 66.5 -128.5 89.5s-111.5 34.5 -175.5 34.5
c-88 0 -165.167 -19.833 -231.5 -59.5s-115.833 -90.5 -148.5 -152.5s-49 -129.667 -49 -203c0 -86 21 -160.833 63 -224.5s97 -111.334 165 -143.001s143.333 -47.5 226 -47.5c79.333 0 153 12 221 36v-56c-64.667 -24 -138.667 -36 -222 -36
c-68 0 -132.667 10.333 -194 31s-115.666 50.334 -162.999 89.001s-85 88.334 -113 149.001s-42 128 -42 202zM659 283.001c-9.33301 30.667 -27.166 56.667 -53.499 78s-58.166 32 -95.499 32c-40.667 0 -75 -14.333 -103 -43s-42 -66 -42 -112s14 -83.333 42 -112
s62.333 -43 103 -43c37.333 0 69.166 10.667 95.499 32s44.166 47.333 53.499 78v90z" />
    <glyph glyph-name="A" unicode="A" horiz-adv-x="713" 
d="M75 0h-64l312 700h67l311 -700h-64l-83 188h-395zM347 617l-165 -373h348l-165 373c-2 5.33301 -5 12.666 -9 21.999c-4 -9.33301 -7 -16.666 -9 -21.999z" />
    <glyph glyph-name="B" unicode="B" horiz-adv-x="684" 
d="M97 700l272.002 -0.000976562c73.333 0 131.166 -14.833 173.499 -44.5s63.5 -73.5 63.5 -131.5c0 -43.333 -12.167 -78.166 -36.5 -104.499s-54.166 -43.5 -89.499 -51.5c41.333 -8.66699 77.166 -27 107.499 -55s45.833 -69 46.5 -123
c0 -30.667 -6 -57.834 -18 -81.501s-26.833 -42.167 -44.5 -55.5s-38.834 -24.166 -63.501 -32.499s-47.667 -13.833 -69 -16.5s-44 -4 -68 -4h-274v700zM574.002 195.999c0 93.333 -61.668 140.002 -185.001 140.002h-232v-279h203c23.333 0 43.333 0.666992 60 2
s35.334 4.66602 56.001 9.99902s37.667 12.666 51 21.999s24.5 23 33.5 41s13.5 39.333 13.5 64zM546.001 516.001c0 84.667 -60.333 127 -181 127h-208v-251h237c43.333 0 79.5 10.167 108.5 30.5s43.5 51.5 43.5 93.5z" />
    <glyph glyph-name="C" unicode="C" horiz-adv-x="656" 
d="M50 343c0 58.667 10.5 112.001 31.5 160.001s48.833 86.833 83.5 116.5s73.334 52.334 116.001 68.001s87 23.5 133 23.5c73.333 0 138.666 -15.667 195.999 -47v-60c-52.667 34 -115 51 -187 51c-39.333 0 -77.166 -6.5 -113.499 -19.5s-69.666 -31.833 -99.999 -56.5
s-54.5 -57.334 -72.5 -98.001s-27 -86.667 -27 -138c0 -48.667 9.16699 -92.5 27.5 -131.5s42.666 -70.333 72.999 -94s64 -41.667 101 -54s75.167 -18.5 114.5 -18.5c74.667 0 138.334 17 191.001 51v-59c-58.667 -32 -126.334 -48 -203.001 -48
c-44.667 0 -88.334 7.66699 -131.001 23s-81.5 37.166 -116.5 65.499s-63.167 65.5 -84.5 111.5s-32 97.333 -32 154z" />
    <glyph glyph-name="D" unicode="D" horiz-adv-x="735" 
d="M97 700h217c120.667 0 212.667 -32 276 -96s95 -148.667 95 -254s-31.667 -190 -95 -254s-155.333 -96 -276 -96h-217v700zM626 350c0 90.667 -26.5 162.167 -79.5 214.5s-130.167 78.5 -231.5 78.5h-158v-586h158c101.333 0 178.5 26.167 231.5 78.5
s79.5 123.833 79.5 214.5z" />
    <glyph glyph-name="E" unicode="E" horiz-adv-x="621" 
d="M97 700h465v-57h-406v-262h376v-57h-376v-267h413v-57h-472v700z" />
    <glyph glyph-name="F" unicode="F" horiz-adv-x="600" 
d="M97 700h467v-57h-408v-273h379v-57h-379v-313h-59v700z" />
    <glyph glyph-name="G" unicode="G" horiz-adv-x="707" 
d="M49 350c0 59.333 10.5029 112.499 31.5029 159.499s49.167 84.833 84.5 113.5s74.666 50.5 117.999 65.5s88.666 22.5 135.999 22.5c76.667 0 145.667 -15.333 207 -46v-60c-55.333 33.333 -121.666 50 -198.999 50c-40.667 0 -79.334 -6 -116.001 -18
s-70.334 -29.667 -101.001 -53s-55.167 -55.166 -73.5 -95.499s-27.5 -86.5 -27.5 -138.5c0 -53.333 9.16699 -100.333 27.5 -141s43.166 -72.5 74.499 -95.5s65.5 -40.167 102.5 -51.5s76.167 -17 117.5 -17c56 0 107 10.667 153 32v292h60v-333
c-66.667 -31.333 -139 -47 -217 -47c-49.333 0 -95.833 6.83301 -139.5 20.5s-83.667 34.167 -120 61.5s-65.166 65 -86.499 113s-32 103.333 -32 166z" />
    <glyph glyph-name="H" unicode="H" horiz-adv-x="766" 
d="M610 700h59v-700h-59v323h-454v-323h-59v700h59v-320h454v320z" />
    <glyph glyph-name="I" unicode="I" horiz-adv-x="253" 
d="M97 700h59v-700h-59v700z" />
    <glyph glyph-name="J" unicode="J" horiz-adv-x="516" 
d="M150 700h275v-508c0 -67.333 -20.333 -117.833 -61 -151.5s-94.334 -50.5 -161.001 -50.5c-74 0 -134 14.333 -180 43v59c44.667 -30 101.334 -45 170.001 -45c115.333 0 173 49 173 147v449h-216v57z" />
    <glyph glyph-name="K" unicode="K" horiz-adv-x="660" 
d="M156 0h-59v700h59v-314h183l226 314h68l-245 -341l269 -359h-69l-247 330h-185v-330z" />
    <glyph glyph-name="L" unicode="L" horiz-adv-x="577" 
d="M97 700h59v-643h405v-57h-464v700z" />
    <glyph glyph-name="M" unicode="M" horiz-adv-x="901" 
d="M754 700h50v-700h-59v586l-276 -408h-37l-276 408v-586h-59v700h50l304 -449z" />
    <glyph glyph-name="N" unicode="N" horiz-adv-x="766" 
d="M156 0h-59v700h54l459 -599v60v539h59v-700h-54l-459 600v-60v-540z" />
    <glyph glyph-name="O" unicode="O" horiz-adv-x="824" 
d="M48 350c0 45.333 7.66699 89.166 23 131.499s37.666 80.833 66.999 115.5s67.666 62.334 114.999 83.001s100.333 31 159 31s111.667 -10.333 159 -31s85.666 -48.334 114.999 -83.001s51.666 -73.167 66.999 -115.5s23 -86.166 23 -131.499
s-7.66699 -89.166 -23 -131.499s-37.666 -80.833 -66.999 -115.5s-67.666 -62.334 -114.999 -83.001s-100.333 -31 -159 -31s-111.667 10.333 -159 31s-85.666 48.334 -114.999 83.001s-51.666 73.167 -66.999 115.5s-23 86.166 -23 131.499zM716 350
c0 52.667 -10.667 101.5 -32 146.5s-55.666 82.667 -102.999 113s-103.666 45.5 -168.999 45.5s-121.666 -15.167 -168.999 -45.5s-81.666 -68 -102.999 -113s-32 -93.833 -32 -146.5s10.667 -101.5 32 -146.5s55.666 -82.667 102.999 -113s103.666 -45.5 168.999 -45.5
s121.666 15.167 168.999 45.5s81.666 68 102.999 113s32 93.833 32 146.5z" />
    <glyph glyph-name="P" unicode="P" horiz-adv-x="656" 
d="M97 700h230c196.667 0 295 -74 295 -222c0 -148.667 -98.333 -223 -295 -223h-171v-255h-59v700zM562 478c0 61.333 -20.833 104.167 -62.5 128.5s-98.167 36.5 -169.5 36.5h-173v-331h173c154.667 0 232 55.333 232 166z" />
    <glyph glyph-name="Q" unicode="Q" horiz-adv-x="824" 
d="M777 -22l-38.9971 -38.001l-111 111c-60.667 -41.333 -132.334 -62 -215.001 -62c-58.667 0 -111.667 10.333 -159 31s-85.666 48.334 -114.999 83.001s-51.666 73.167 -66.999 115.5s-23 86.166 -23 131.499s7.66699 89.166 23 131.499s37.666 80.833 66.999 115.5
s67.666 62.334 114.999 83.001s100.333 31 159 31s111.667 -10.333 159 -31s85.666 -48.334 114.999 -83.001s51.666 -73.167 66.999 -115.5s23 -86.166 23 -131.499c0 -107.333 -35.667 -195.666 -107 -264.999zM108.003 349.999
c0 -52.667 10.6641 -101.499 31.9971 -146.499s55.666 -82.667 102.999 -113s103.666 -45.5 168.999 -45.5c64.667 0 122.334 16 173.001 48l-139 139l38 38l143 -143c59.333 57.333 89 131.666 89 222.999c0 52.667 -10.667 101.5 -32 146.5s-55.666 82.667 -102.999 113
s-103.666 45.5 -168.999 45.5s-121.666 -15.167 -168.999 -45.5s-81.666 -68 -102.999 -113s-32 -93.833 -32 -146.5z" />
    <glyph glyph-name="R" unicode="R" horiz-adv-x="690" 
d="M156 0l-59.001 -0.00195312v700h269c32.667 0 63.334 -3.66699 92.001 -11s55.667 -18.666 81 -33.999s45.5 -37 60.5 -65s22.5 -60.667 22.5 -98c0 -62 -19.333 -109.667 -58 -143s-86.667 -53.666 -144 -60.999l249 -288h-74l-244 283h-195v-283zM156.999 642.998
l0.000976562 -303h213c53.333 0 98.666 12 135.999 36s56 62.667 56 116s-18.5 91.833 -55.5 115.5s-82.5 35.5 -136.5 35.5h-213z" />
    <glyph glyph-name="S" unicode="S" horiz-adv-x="577" 
d="M54 533c0 57.333 22.3311 101.336 66.998 132.003s99.334 46 164.001 46c80.667 0 149.334 -16.333 206.001 -49v-60c-56 35.333 -123.333 53 -202 53c-51.333 0 -93.333 -9.83301 -126 -29.5s-49 -49.834 -49 -90.501c0 -26.667 7.83301 -49.5 23.5 -68.5
s36 -34.333 61 -46s52.667 -22.334 83 -32.001s60.666 -20 90.999 -31s58 -23.833 83 -38.5s45.333 -34.667 61 -60s23.5 -55 23.5 -89c0 -42 -12 -77 -36 -105s-54 -47.833 -90 -59.5s-76.667 -17.167 -122 -16.5c-88 0 -167.667 19.667 -239 59v59
c70.667 -41.333 149 -62 235 -62c56.667 0 102.834 9.66699 138.501 29s53.5 50 53.5 92c0 28 -7.83301 52.167 -23.5 72.5s-36 36.5 -61 48.5s-52.667 23 -83 33l-91 31.5c-30.333 11 -58 23.5 -83 37.5s-45.333 33.167 -61 57.5s-23.5 53.166 -23.5 86.499z" />
    <glyph glyph-name="T" unicode="T" horiz-adv-x="599" 
d="M14 700h571v-57h-256v-643h-59v643h-256v57z" />
    <glyph glyph-name="U" unicode="U" horiz-adv-x="751" 
d="M603 700h59v-450c0 -91.333 -26.333 -157.666 -79 -198.999s-121.667 -62 -207 -62c-40.667 0 -77.667 4.66699 -111 14s-63.5 23.666 -90.5 42.999s-48 46.333 -63 81s-22.5 75.667 -22.5 123v450h59v-448c0 -138 76 -207 228 -207c151.333 0 227 69 227 207v448z" />
    <glyph glyph-name="V" unicode="V" horiz-adv-x="685" 
d="M373 0h-61l-297 700h64l263 -633l264 633h64z" />
    <glyph glyph-name="W" unicode="W" horiz-adv-x="998" 
d="M914 700h65l-222 -700h-66l-192 598l-193 -598h-65l-222 700h65l190 -626l198 623h54l198 -623z" />
    <glyph glyph-name="X" unicode="X" horiz-adv-x="629" 
d="M77 0h-71l273 360l-258 340h71l223 -293l223 293h70l-258 -340l273 -360h-70l-238 313z" />
    <glyph glyph-name="Y" unicode="Y" horiz-adv-x="644" 
d="M352 0h-60v273l-275 427h66l239 -373l239 373h66l-275 -427v-273z" />
    <glyph glyph-name="Z" unicode="Z" horiz-adv-x="580" 
d="M548 0h-517v53l433 590h-419v57h491v-53l-434 -590h446v-57z" />
    <glyph glyph-name="bracketleft" unicode="[" horiz-adv-x="264" 
d="M240 -110h-167v920h167v-57h-108v-806h108v-57z" />
    <glyph glyph-name="backslash" unicode="\" horiz-adv-x="414" 
d="M378 -58h-43l-298 816h43z" />
    <glyph glyph-name="bracketright" unicode="]" horiz-adv-x="265" 
d="M192 -110h-167v57h107v806h-107v57h167v-920z" />
    <glyph glyph-name="asciicircum" unicode="^" horiz-adv-x="515" 
d="M115 390h-64l182 310h50l181 -310h-63l-143 247z" />
    <glyph glyph-name="underscore" unicode="_" horiz-adv-x="443" 
d="M443 -140h-443v54h443v-54z" />
    <glyph glyph-name="grave" unicode="`" horiz-adv-x="177" 
d="M161 773h-63l-98 142h71z" />
    <glyph glyph-name="a" unicode="a" horiz-adv-x="542" 
d="M455 87c0 -28 14.335 -42 43.002 -42c10.667 0 23 2.33301 37 7v-46c-18 -6.66699 -35.333 -10 -52 -10c-50.667 0 -78.334 24.667 -83.001 74c-50 -54 -115.667 -81 -197 -81c-46 0 -85.333 12.167 -118 36.5s-49 59.5 -49 105.5c0 54.667 20.667 94.5 62 119.5
s91.333 37.5 150 37.5c51.333 0 101.666 -7 150.999 -21v32c0 42.667 -13.333 76.667 -40 102s-64.334 38 -113.001 38c-61.333 0 -118.666 -11.333 -171.999 -34v56c56.667 20 116 30 178 30c64 0 113.833 -17.333 149.5 -52s53.5 -83.667 53.5 -147v-205zM94.002 134
c0 -31.333 11.667 -55.167 35 -71.5s51.666 -24.5 84.999 -24.5c36.667 0 71.334 8.16699 104.001 24.5s59.667 39.5 81 69.5v88c-50.667 13.333 -98.334 20 -143.001 20c-45.333 0 -83.666 -8.5 -114.999 -25.5s-47 -43.833 -47 -80.5z" />
    <glyph glyph-name="b" unicode="b" horiz-adv-x="618" 
d="M78 700h57v-313c20 30 47 54.833 81 74.5s73.333 29.5 118 29.5c68.667 0 125.667 -23.5 171 -70.5s68 -107.167 68 -180.5s-22.667 -133.5 -68 -180.5s-102.333 -70.5 -171 -70.5c-86 0 -154.333 36.667 -205 110v-99h-51v700zM516 240
c0 60.667 -17.832 109 -53.499 145s-80.834 54 -135.501 54c-44.667 0 -84.334 -12.833 -119.001 -38.5s-59.334 -57.5 -74.001 -95.5v-130c14.667 -38 39.334 -69.833 74.001 -95.5s74.334 -38.5 119.001 -38.5c54 0 99 18.167 135 54.5s54 84.5 54 144.5z" />
    <glyph glyph-name="c" unicode="c" horiz-adv-x="494" 
d="M45 237c0 56 13.166 103.833 39.499 143.5s58.5 68 96.5 85s79 25.5 123 25.5c58.667 0 107 -13 145 -39v-55c-37.333 28 -83.333 42 -138 42c-57.333 0 -106.5 -17 -147.5 -51s-61.5 -84 -61.5 -150c0 -63.333 19.833 -112 59.5 -146s87.5 -51 143.5 -51
c55.333 0 105 13 149 39v-57c-45.333 -22.667 -97.666 -34 -156.999 -34c-68 0 -127 21.333 -177 64s-75 104 -75 184z" />
    <glyph glyph-name="d" unicode="d" horiz-adv-x="618" 
d="M484 700h55.999v-700h-51v99c-49.333 -73.333 -117.666 -110 -204.999 -110c-68.667 0 -125.667 23.5 -171 70.5s-68 107.167 -68 180.5s22.667 133.5 68 180.5s102.333 70.5 171 70.5c45.333 0 85 -9.83301 119 -29.5s61 -44.5 81 -74.5v313zM483.999 305
c-14.667 38 -39.333 69.833 -74 95.5s-74.334 38.5 -119.001 38.5c-54.667 0 -99.834 -18 -135.501 -54s-53.5 -84.333 -53.5 -145c0 -60 18 -108.167 54 -144.5s81 -54.5 135 -54.5c44.667 0 84.334 12.833 119.001 38.5s59.334 57.5 74.001 95.5v130z" />
    <glyph glyph-name="e" unicode="e" horiz-adv-x="548" 
d="M45 240c0 78 23.8301 139.333 71.4971 184s102.834 67 165.501 67c35.333 0 67 -5.5 95 -16.5s50.5 -25.833 67.5 -44.5s31.167 -40 42.5 -64s17.5 -48.833 18.5 -74.5s-0.5 -51.5 -4.5 -77.5h-399c3.33301 -57.333 25.333 -100.5 66 -129.5s90.334 -43.5 149.001 -43.5
c60 0 112.333 13 157 39v-56c-43.333 -23.333 -98.333 -35 -165 -35c-75.333 0 -138.166 21.333 -188.499 64s-75.5 105 -75.5 187zM450.997 264c4.66699 42 -6.50098 81.667 -33.501 119s-70.833 56 -131.5 56c-49.333 0 -91.666 -15.5 -126.999 -46.5
s-54.333 -73.833 -57 -128.5h349z" />
    <glyph glyph-name="f" unicode="f" horiz-adv-x="368" 
d="M166 0h-56v427h-87v53h87v68c0 57.333 15.5 98.833 46.5 124.5s69.5 38.5 115.5 38.5c44 0 83.333 -7.33301 118 -22v-53c-30.667 15.333 -65.667 23 -105 23c-79.333 0 -119 -37.667 -119 -113v-66h194v-53h-194v-427z" />
    <glyph glyph-name="g" unicode="g" horiz-adv-x="618" 
d="M45 240c0 73.333 22.665 133.501 67.998 180.501s102.333 70.5 171 70.5c87.333 0 155.666 -36.667 204.999 -110v99h51v-480c0 -76.667 -24.833 -134.334 -74.5 -173.001s-110.5 -58 -182.5 -58c-69.333 0 -133.333 15 -192 45v55c58.667 -32 120.334 -48 185.001 -48
c60 0 109.667 14.5 149 43.5s59 74.167 59 135.5v95c-19.333 -31.333 -46.166 -56.833 -80.499 -76.5s-74.166 -29.5 -119.499 -29.5c-68.667 0 -125.667 23.5 -171 70.5s-68 107.167 -68 180.5zM483.998 305.001c-14.667 38 -39.333 69.833 -74 95.5
s-74.334 38.5 -119.001 38.5c-54.667 0 -99.834 -18 -135.501 -54s-53.5 -84.333 -53.5 -145c0 -60 18 -108.167 54 -144.5s81 -54.5 135 -54.5c44.667 0 84.334 12.167 119.001 36.5s59.334 54.5 74.001 90.5v137z" />
    <glyph glyph-name="h" unicode="h" 
d="M78 700l57.002 0.000976562v-300c19.333 24.667 44.666 46 75.999 64s66 27 104 27c56.667 0 103.334 -17.833 140.001 -53.5s55 -82.834 55 -141.501v-296h-57v289c0 48 -13.333 85 -40 111s-61.334 39 -104.001 39c-38 0 -71.833 -10.667 -101.5 -32
s-53.834 -47.333 -72.501 -78v-329h-57v700z" />
    <glyph glyph-name="i" unicode="i" horiz-adv-x="219" 
d="M138 0h-57v480h57v-480zM147 626c0 -12 -3.66895 -21.333 -11.002 -28s-16.333 -10 -27 -10c-11.333 0 -20.666 3.16699 -27.999 9.5s-11 15.833 -11 28.5c0 11.333 3.83301 20.5 11.5 27.5s16.834 10.5 27.501 10.5s19.667 -3.5 27 -10.5s11 -16.167 11 -27.5z" />
    <glyph glyph-name="j" unicode="j" horiz-adv-x="218" 
d="M137 -100c0 -47.333 -12.332 -81 -36.999 -101s-55.334 -30 -92.001 -30c-27.333 0 -51 4 -71 12v53c15.333 -7.33301 34.333 -11 57 -11c58 0 87 28.333 87 85v572h56v-580zM147.001 626c0 -12.667 -3.66895 -22.167 -11.002 -28.5s-16.666 -9.5 -27.999 -9.5
c-10.667 0 -19.834 3.33301 -27.501 10s-11.5 16 -11.5 28c0 11.333 3.83301 20.5 11.5 27.5s16.834 10.5 27.501 10.5s19.834 -3.5 27.501 -10.5s11.5 -16.167 11.5 -27.5z" />
    <glyph glyph-name="k" unicode="k" horiz-adv-x="509" 
d="M505 0h-67l-195 219h-108v-219h-57v700h57v-428h111l168 208h66l-189 -236z" />
    <glyph glyph-name="l" unicode="l" horiz-adv-x="219" 
d="M81 730h57v-730h-57v730z" />
    <glyph glyph-name="m" unicode="m" horiz-adv-x="891" 
d="M135 0l-57.002 -0.000976562v480h51v-80c18 23.333 42 44.333 72 63s64.333 28 103 28c36.667 0 68.5 -8.16699 95.5 -24.5s47.167 -39.166 60.5 -68.499c54 62 114.667 93 182 93c54.667 0 97.834 -17.5 129.501 -52.5s47.5 -80.167 47.5 -135.5v-303h-56v304
c0 40 -11.5 72.5 -34.5 97.5s-53.833 37.5 -92.5 37.5c-60.667 0 -113 -31 -157 -93c2 -14 3 -28.333 3 -43v-303h-57v304c0 40 -11.5 72.5 -34.5 97.5s-53.833 37.5 -92.5 37.5c-63.333 0 -117.666 -34 -162.999 -102v-337z" />
    <glyph glyph-name="n" unicode="n" 
d="M129 394c18.667 26 44.334 48.668 77.001 68.001s69 29 109 29c56.667 0 103.334 -17.833 140.001 -53.5s55 -82.834 55 -141.501v-296h-57v289c0 48 -13.333 85 -40 111s-61.334 39 -104.001 39c-38 0 -71.833 -10.667 -101.5 -32s-53.834 -47.333 -72.501 -78v-329h-57
v480h51v-86z" />
    <glyph glyph-name="o" unicode="o" horiz-adv-x="595" 
d="M45 240c0 77.333 24.833 138.5 74.5 183.5s108.834 67.5 177.501 67.5c69.333 0 128.833 -22.5 178.5 -67.5s74.5 -106.167 74.5 -183.5s-24.833 -138.5 -74.5 -183.5s-109.167 -67.5 -178.5 -67.5c-68.667 0 -127.834 22.5 -177.501 67.5s-74.5 106.167 -74.5 183.5z
M493 240c0 60.667 -18.667 108.667 -56 144s-83.666 53 -138.999 53s-101.833 -17.667 -139.5 -53s-56.5 -83.333 -56.5 -144s18.833 -108.667 56.5 -144s84.167 -53 139.5 -53s101.666 17.667 138.999 53s56 83.333 56 144z" />
    <glyph glyph-name="p" unicode="p" horiz-adv-x="618" 
d="M129 381c50.667 73.333 119 110 205 110c68.667 0 125.667 -23.5 171 -70.5s68 -107.167 68 -180.5s-22.667 -133.5 -68 -180.5s-102.333 -70.5 -171 -70.5c-44.667 0 -84 9.83301 -118 29.5s-61 44.5 -81 74.5v-313h-57v700h51v-99zM516 240
c0 60 -18.001 108.167 -54.001 144.5s-81 54.5 -135 54.5c-44.667 0 -84.334 -12.833 -119.001 -38.5s-59.334 -57.5 -74.001 -95.5v-130c14.667 -38 39.334 -69.833 74.001 -95.5s74.334 -38.5 119.001 -38.5c54.667 0 99.834 18 135.501 54s53.5 84.333 53.5 145z" />
    <glyph glyph-name="q" unicode="q" horiz-adv-x="618" 
d="M45 240c0 73.333 22.668 133.5 68.001 180.5s102.333 70.5 171 70.5c87.333 0 155.666 -36.667 204.999 -110v99h51v-700h-56v313c-20 -30 -47 -54.833 -81 -74.5s-73.667 -29.5 -119 -29.5c-68.667 0 -125.667 23.5 -171 70.5s-68 107.167 -68 180.5zM484.001 305
c-14.667 38 -39.335 69.833 -74.002 95.5s-74.334 38.5 -119.001 38.5c-54 0 -99 -18.167 -135 -54.5s-54 -84.5 -54 -144.5c0 -60.667 17.833 -109 53.5 -145s80.834 -54 135.501 -54c44.667 0 84.334 12.833 119.001 38.5s59.334 57.5 74.001 95.5v130z" />
    <glyph glyph-name="r" unicode="r" horiz-adv-x="354" 
d="M129 369c18 36.667 46.334 66.668 85.001 90.001s81 33.666 127 30.999v-57c-50.667 4 -94.334 -7.5 -131.001 -34.5s-61.667 -62.167 -75 -105.5v-293h-57v480h51v-111z" />
    <glyph glyph-name="s" unicode="s" horiz-adv-x="461" 
d="M50 360c0 44 17.3311 76.8359 51.998 98.5029s76 32.5 124 32.5c62.667 0 118.334 -13.667 167.001 -41v-54c-46 29.333 -100.333 44 -163 44c-34 0 -63 -6.5 -87 -19.5s-36 -32.833 -36 -59.5c0 -22.667 10.833 -41.334 32.5 -56.001s48.167 -26.167 79.5 -34.5
s62.5 -17.333 93.5 -27s57.333 -24.834 79 -45.501s32.5 -47 32.5 -79c0 -44.667 -18 -77.5 -54 -98.5s-81.333 -31.5 -136 -31.5c-76 0 -137.667 15.667 -185 47v56c50.667 -34 111.334 -51 182.001 -51c90.667 0 136 25.333 136 76c0 22.667 -10.833 41.167 -32.5 55.5
s-48.167 25.666 -79.5 33.999s-62.5 17.5 -93.5 27.5s-57.333 25.5 -79 46.5s-32.5 47.5 -32.5 79.5z" />
    <glyph glyph-name="t" unicode="t" horiz-adv-x="393" 
d="M106 633l56 15v-168h201v-53h-201v-278c0 -37.333 9 -64.333 27 -81s46 -25 84 -25c36 0 71 7.33301 105 22v-52c-35.333 -15.333 -75.333 -23 -120 -23c-47.333 0 -84.5 12.667 -111.5 38s-40.5 62.333 -40.5 111v288h-90v53h90v153z" />
    <glyph glyph-name="u" unicode="u" 
d="M447 480l56.998 0.00195312v-480h-52v86c-18.667 -26 -44.167 -48.667 -76.5 -68s-68.833 -29 -109.5 -29c-58.667 0 -105.667 17.667 -141 53s-53 82.666 -53 141.999v296h57v-289c0 -48.667 12.667 -85.834 38 -111.501s60.333 -38.5 105 -38.5
c38.667 0 72.834 10.667 102.501 32s53.834 47.333 72.501 78v329z" />
    <glyph glyph-name="v" unicode="v" horiz-adv-x="530" 
d="M449 480h63l-217 -480h-60l-218 480h63l185 -416z" />
    <glyph glyph-name="w" unicode="w" horiz-adv-x="801" 
d="M718 480h60l-173 -480h-61l-144 400l-144 -400h-60l-173 480h60l143 -416l148 413h52l148 -413z" />
    <glyph glyph-name="x" unicode="x" horiz-adv-x="488" 
d="M397 480h66l-186 -233l196 -247h-66l-163 206l-163 -206h-66l197 247l-187 233h66l153 -193z" />
    <glyph glyph-name="y" unicode="y" horiz-adv-x="536" 
d="M278 63l178.999 417h60l-243 -559c-44.667 -101.333 -102 -152 -172 -152c-16 0 -33 2 -51 6v50c14.667 -4 29.334 -6 44.001 -6c28 0 52.5 10 73.5 30s40.167 51 57.5 93l24 56l-236 482h60z" />
    <glyph glyph-name="z" unicode="z" horiz-adv-x="456" 
d="M47 480h360v-50l-305 -380h321v-50h-389v50l306 380h-293v50z" />
    <glyph glyph-name="braceleft" unicode="{" horiz-adv-x="289" 
d="M249 -60v-50c-44.667 -8.66699 -78.334 -3.5 -101.001 15.5s-34 48.833 -34 89.5v241c0 30.667 -8.66699 53.667 -26 69s-37 22 -59 20v50c21.333 -2 40.833 4.66699 58.5 20s26.5 38.333 26.5 69v241c0 40.667 11.333 70.667 34 90s56.334 24.333 101.001 15v-50
c-28 4 -47.667 -0.5 -59 -13.5s-17 -34.5 -17 -64.5v-222c0 -32 -6 -57.333 -18 -76s-27 -30 -45 -34c18 -4 33 -15.333 45 -34s18 -44 18 -76v-222c0 -30 5.66699 -51.5 17 -64.5s31 -17.5 59 -13.5z" />
    <glyph glyph-name="bar" unicode="|" horiz-adv-x="205" 
d="M132 -100h-59v910h59v-910z" />
    <glyph glyph-name="braceright" unicode="}" horiz-adv-x="289" 
d="M175 -5c0 -40.667 -11.333 -70.502 -34 -89.502s-56.334 -24.167 -101.001 -15.5v50c28 -4 47.5 0.333008 58.5 13s16.5 34.334 16.5 65.001v222c0 32 6 57.333 18 76s27.333 30 46 34c-18.667 4 -34 15.333 -46 34s-18 44 -18 76v222c0 30.667 -5.5 52.334 -16.5 65.001
s-30.5 17 -58.5 13v50c44.667 9.33301 78.334 4.33301 101.001 -15s34 -49.333 34 -90v-241c0 -30.667 8.83301 -53.667 26.5 -69s37.167 -22 58.5 -20v-50c-22 2 -41.667 -4.66699 -59 -20s-26 -38.333 -26 -69v-241z" />
    <glyph glyph-name="asciitilde" unicode="~" horiz-adv-x="585" 
d="M515 375c1.33301 -31.333 -6.83203 -56.332 -24.499 -74.999s-41.834 -28 -72.501 -28c-24 0 -64.5 10.333 -121.5 31s-97.167 31 -120.5 31c-15.333 0 -27.333 -4.33301 -36 -13s-12.667 -20.667 -12 -36h-54c-0.666992 31.333 7.83301 56.166 25.5 74.499
s41.167 27.5 70.5 27.5c25.333 0 66 -10.167 122 -30.5s96.333 -30.5 121 -30.5c32.667 0 48.667 16.333 48 49h54z" />
    <glyph glyph-name="exclamdown" unicode="&#xa1;" horiz-adv-x="202" 
d="M130 -217h-59l5 511h50zM140 453c0 -12 -3.66699 -21.333 -11 -28s-16.666 -10 -27.999 -10s-20.666 3.33301 -27.999 10s-11 16 -11 28s3.66699 21.333 11 28s16.666 10 27.999 10s20.666 -3.33301 27.999 -10s11 -16 11 -28z" />
    <glyph glyph-name="cent" unicode="&#xa2;" horiz-adv-x="509" 
d="M328 42c48.667 3.33301 91.667 16.001 129 38.001v-57c-38 -18.667 -81 -29.667 -129 -33v-110h-50v110c-64 4.66699 -118.333 28.167 -163 70.5s-67 101.166 -67 176.499c0 76 22.333 135.667 67 179s99 68 163 74v110h50v-110c48.667 -2 90 -14.667 124 -38v-55
c-32.667 24.667 -74 38.667 -124 42v-397zM278 437.001c-49.333 -7.33301 -90.5 -27.667 -123.5 -61s-49.5 -79.333 -49.5 -138c0 -58 16.333 -103.5 49 -136.5s74 -52.5 124 -58.5v394z" />
    <glyph glyph-name="sterling" unicode="&#xa3;" horiz-adv-x="603" 
d="M561 0h-522.999v57h35c22.667 0 40.5 8 53.5 24s19.5 37.667 19.5 65v163h-83v55h83v97c0 76.667 21.667 134.167 65 172.5s96.666 57.5 159.999 57.5c54 0 102.667 -12.667 146 -38v-57c-42.667 26.667 -89 40 -139 40c-49.333 0 -90.333 -14.5 -123 -43.5
s-49 -73.167 -49 -132.5v-96h236v-55h-236v-163c0 -45.333 -12 -75 -36 -89h391v-57z" />
    <glyph glyph-name="currency" unicode="&#xa4;" horiz-adv-x="576" 
d="M174 194l-64 -64l-40 40l62 62c-27.333 32.667 -41 72 -41 118s13.667 85.333 41 118l-62 62l40 40l64 -64c33.333 22 71.333 33 114 33c42 0 80.333 -11 115 -33l64 64l40 -40l-63 -62c27.333 -32.667 41 -72 41 -118s-13.667 -85.333 -41 -118l63 -62l-40 -40l-64 64
c-34.667 -22 -73 -33 -115 -33c-42.667 0 -80.667 11 -114 33zM147 350c0 -41.333 13.167 -74.333 39.5 -99s59.833 -37 100.5 -37s74.334 12.333 101.001 37s40 57.667 40 99s-13.333 74.333 -40 99s-60.334 37 -101.001 37s-74.167 -12.333 -100.5 -37
s-39.5 -57.667 -39.5 -99z" />
    <glyph glyph-name="yen" unicode="&#xa5;" horiz-adv-x="651" 
d="M552 680h65l-234 -363h149v-50h-177v-74h177v-50h-177v-143h-60v143h-176v50h176v74h-176v50h148l-234 363h65l227 -353z" />
    <glyph glyph-name="brokenbar" unicode="&#xa6;" horiz-adv-x="223" 
d="M141 459h-59v351h59v-351zM141 -100h-59v351h59v-351z" />
    <glyph glyph-name="section" unicode="&#xa7;" horiz-adv-x="492" 
d="M429 94c0 -42.667 -17.833 -74.6689 -53.5 -96.002s-80.5 -32 -134.5 -32c-68.667 0 -126.334 15.333 -173.001 46v53c22 -15.333 49 -27.333 81 -36s62 -13 90 -13c88.667 0 133 25.667 133 77c0 10 -1.5 19 -4.5 27s-8.66699 15.333 -17 22s-15.333 12 -21 16
s-16.334 8.66699 -32.001 14s-26.667 9 -33 11l-38.5 12c-21.333 6 -38 11 -50 15s-26.5 10 -43.5 18s-30.167 16.5 -39.5 25.5s-17.5 20.833 -24.5 35.5s-10.5 31 -10.5 49c0 50.667 30 94.334 90 131.001c-53.333 25.333 -80 62.666 -80 111.999
c0 42.667 17.167 75 51.5 97s76.5 33 126.5 33c58.667 0 111.334 -13.333 158.001 -40v-53c-46 28.667 -97.667 43 -155 43c-34.667 0 -64 -6.83301 -88 -20.5s-36 -33.167 -36 -58.5c0 -11.333 2.83301 -21.666 8.5 -30.999s11.834 -17 18.501 -23s17.667 -12.167 33 -18.5
s27.5 -10.833 36.5 -13.5l44.5 -13c2 -0.666992 3.66699 -1.16699 5 -1.5s2.83301 -0.666016 4.5 -0.999023s3.16699 -0.833008 4.5 -1.5c26 -7.33301 46.333 -13.833 61 -19.5s31 -13.834 49 -24.501s31.333 -24.167 40 -40.5s13 -35.5 13 -57.5
c0 -49.333 -31.333 -92.666 -94 -129.999c53.333 -25.333 80 -63 80 -113zM243 244.998c6 -2 15.1689 -4.66699 27.502 -8s21.5 -6 27.5 -8c24.667 9.33301 45.667 23 63 41s26 37.667 26 59c0 12 -2.33301 22.833 -7 32.5s-10.334 17.667 -17.001 24
s-16.334 12.333 -29.001 18s-23.667 10.167 -33 13.5s-22.333 7.33301 -39 12c-33.333 10 -54 16.333 -62 19c-24 -8.66699 -44.5 -22.5 -61.5 -41.5s-25.5 -39.167 -25.5 -60.5c0 -28 10.833 -48.833 32.5 -62.5s54.167 -26.5 97.5 -38.5z" />
    <glyph glyph-name="dieresis" unicode="&#xa8;" horiz-adv-x="291" 
d="M288 836c0 -11.333 -4 -21 -12 -29s-17.667 -12 -29 -12s-21.166 4 -29.499 12s-12.5 17.667 -12.5 29s4.16699 21.166 12.5 29.499s18.166 12.5 29.499 12.5s21 -4.16699 29 -12.5s12 -18.166 12 -29.499zM87 836c0 -11.333 -4 -21 -12 -29s-17.667 -12 -29 -12
s-21.166 4 -29.499 12s-12.5 17.667 -12.5 29s4.16699 21.166 12.5 29.499s18.166 12.5 29.499 12.5s21 -4.16699 29 -12.5s12 -18.166 12 -29.499z" />
    <glyph glyph-name="copyright" unicode="&#xa9;" horiz-adv-x="851" 
d="M800 350c0 -57.333 -11.167 -109.666 -33.5 -156.999s-51.666 -85.333 -87.999 -114s-76.166 -50.834 -119.499 -66.501s-87.666 -23.5 -132.999 -23.5s-89.833 7.83301 -133.5 23.5s-83.667 37.834 -120 66.501s-65.666 66.667 -87.999 114s-33.5 99.666 -33.5 156.999
s11.167 109.666 33.5 156.999s51.666 85.333 87.999 114s76.333 50.834 120 66.501s88.167 23.5 133.5 23.5s89.666 -7.83301 132.999 -23.5s83.166 -37.834 119.499 -66.501s65.666 -66.667 87.999 -114s33.5 -99.666 33.5 -156.999zM573 183
c-41.333 -22.667 -86 -34 -134 -34c-52.667 0 -99 16.667 -139 50s-60 81 -60 143c0 68 21 119.833 63 155.5s91 53.5 147 53.5c46.667 0 87.667 -11.333 123 -34v-44c-34 22.667 -72.333 34 -115 34c-46.667 0 -86.5 -13.333 -119.5 -40s-49.5 -67.667 -49.5 -123
c0 -51.333 15.5 -89.333 46.5 -114s69.167 -37 114.5 -37c43.333 0 84.333 11 123 33v-43zM75 350c0 -71.333 17.833 -133.331 53.5 -185.998s79.5 -91.167 131.5 -115.5s107.333 -36.5 166 -36.5c42.667 0 84.5 7.16699 125.5 21.5s78.333 35.166 112 62.499
s60.834 63 81.501 107s31 93 31 147s-10.333 103 -31 147s-47.834 79.667 -81.501 107s-71 48.166 -112 62.499s-82.833 21.5 -125.5 21.5c-58.667 0 -114 -12.167 -166 -36.5s-95.833 -62.833 -131.5 -115.5s-53.5 -114.667 -53.5 -186z" />
    <glyph glyph-name="guillemotleft" unicode="&#xab;" horiz-adv-x="462" 
d="M402 63h-61l-121 171v12l121 171h61l-125 -177zM230 63h-61l-121 171v12l121 171h61l-125 -177z" />
    <glyph glyph-name="logicalnot" unicode="&#xac;" horiz-adv-x="579" 
d="M503 284h-56v142h-381v54h437v-196z" />
    <glyph glyph-name="registered" unicode="&#xae;" horiz-adv-x="851" 
d="M800 350c0 -57.333 -11.167 -109.666 -33.5 -156.999s-51.666 -85.333 -87.999 -114s-76.166 -50.834 -119.499 -66.501s-87.666 -23.5 -132.999 -23.5s-89.833 7.83301 -133.5 23.5s-83.667 37.834 -120 66.501s-65.666 66.667 -87.999 114s-33.5 99.666 -33.5 156.999
s11.167 109.666 33.5 156.999s51.666 85.333 87.999 114s76.333 50.834 120 66.501s88.167 23.5 133.5 23.5s89.666 -7.83301 132.999 -23.5s83.166 -37.834 119.499 -66.501s65.666 -66.667 87.999 -114s33.5 -99.666 33.5 -156.999zM75 350
c0 -71.333 17.833 -133.331 53.5 -185.998s79.5 -91.167 131.5 -115.5s107.333 -36.5 166 -36.5c42.667 0 84.5 7.16699 125.5 21.5s78.333 35.166 112 62.499s60.834 63 81.501 107s31 93 31 147s-10.333 103 -31 147s-47.834 79.667 -81.501 107s-71 48.166 -112 62.499
s-82.833 21.5 -125.5 21.5c-58.667 0 -114 -12.167 -166 -36.5s-95.833 -62.833 -131.5 -115.5s-53.5 -114.667 -53.5 -186zM332 152.002l-43.0029 -0.000976562v394h161c16.667 0 32.834 -1.83301 48.501 -5.5s31.334 -9.66699 47.001 -18s28.334 -21 38.001 -38
s14.5 -37.5 14.5 -61.5c0 -59.333 -29.667 -96.666 -89 -111.999l113 -159h-50l-107 153c-4.66699 -0.666992 -11.667 -1 -21 -1h-112v-152zM331.997 504.001l-0.000976562 -157.997h114c14 0 25.833 0.666992 35.5 2s20.834 4.16602 33.501 8.49902
s22.5 12.166 29.5 23.499s10.5 25.666 10.5 42.999c0 54 -36.333 81 -109 81h-114z" />
    <glyph glyph-name="macron" unicode="&#xaf;" horiz-adv-x="333" 
d="M27 847h280v-52h-280v52z" />
    <glyph glyph-name="degree" unicode="&#xb0;" horiz-adv-x="393" 
d="M347 568c0 -44.667 -14.667 -80.333 -44 -107s-64.666 -40 -105.999 -40s-76.833 13.333 -106.5 40s-44.5 62.334 -44.5 107.001c0 44 14.833 79.5 44.5 106.5s65.167 40.5 106.5 40.5s76.666 -13.333 105.999 -40s44 -62.334 44 -107.001zM89 568.001
c0 -32 10.333 -57.5 31 -76.5s46.334 -28.5 77.001 -28.5s56.167 9.5 76.5 28.5s30.5 44.5 30.5 76.5c0 31.333 -10.167 56.5 -30.5 75.5s-45.833 28.5 -76.5 28.5s-56.334 -9.33301 -77.001 -28s-31 -44 -31 -76z" />
    <glyph glyph-name="plusminus" unicode="&#xb1;" horiz-adv-x="576" 
d="M316 591v-191h191v-54h-191v-192h-54v192h-192v54h192v191h54zM507 0h-437v54h437v-54z" />
    <glyph glyph-name="acute" unicode="&#xb4;" horiz-adv-x="177" 
d="M89 773h-62l90 142h71z" />
    <glyph glyph-name="paragraph" unicode="&#xb6;" horiz-adv-x="618" 
d="M313 -220l-60 -0.000976562v507c-68 0 -121.5 18.167 -160.5 54.5s-58.5 86.833 -58.5 151.5s19.5 115.334 58.5 152.001s92.5 55 160.5 55h282v-920h-60v863h-162v-863z" />
    <glyph glyph-name="periodcentered" unicode="&#xb7;" horiz-adv-x="213" 
d="M147 239c0 -12 -3.83301 -21.5 -11.5 -28.5s-17.167 -10.5 -28.5 -10.5s-20.833 3.5 -28.5 10.5s-11.5 16.5 -11.5 28.5s3.83301 21.5 11.5 28.5s17.167 10.5 28.5 10.5s20.833 -3.5 28.5 -10.5s11.5 -16.5 11.5 -28.5z" />
    <glyph glyph-name="cedilla" unicode="&#xb8;" horiz-adv-x="213" 
d="M80 0l49.998 -0.000976562l-19 -74c32 4 58.667 -0.166992 80 -12.5s32.333 -31.166 33 -56.499c0.666992 -28 -10.166 -49.667 -32.499 -65s-53.166 -23 -92.499 -23c-35.333 0 -68 6.66699 -98 20v49c27.333 -15.333 58 -23 92 -23c26.667 0 47 4 61 12
s20.667 18.667 20 32c0 16.667 -13 27.667 -39 33s-53 4.33301 -81 -3z" />
    <glyph glyph-name="guillemotright" unicode="&#xbb;" horiz-adv-x="461" 
d="M292 63h-61l125 177l-125 177h61l121 -171v-12zM121 63h-61l125 177l-125 177h61l121 -171v-12z" />
    <glyph glyph-name="onequarter" unicode="&#xbc;" horiz-adv-x="919" 
d="M753 408h54v-271h77v-46h-77v-91h-49v91h-228v44zM759 137v204l-167 -204h167zM217 -12h-28l457 723h28zM159 680h37v-361h74v-47h-216v47h93v308l-87 -32v47z" />
    <glyph glyph-name="onehalf" unicode="&#xbd;" horiz-adv-x="876" 
d="M213 -12h-28l457 723h28zM560 376c38 26 81.665 38.998 130.998 38.998c42 0 75.667 -9.5 101 -28.5s38 -45.833 38 -80.5c0 -30.667 -10.167 -56.834 -30.5 -78.501s-48.5 -43.167 -84.5 -64.5c-2.66699 -1.33301 -8.83398 -5 -18.501 -11s-16 -9.83301 -19 -11.5
s-8.66699 -5.16699 -17 -10.5s-13.833 -9.33301 -16.5 -12s-7.16699 -6.5 -13.5 -11.5s-10.666 -9.33301 -12.999 -13l-8.5 -13.5c-3.33301 -5.33301 -5.66602 -10.666 -6.99902 -15.999s-2 -11 -2 -17h233v-47h-287v24c0 29.333 7.5 55.833 22.5 79.5
s29.167 40.334 42.5 50.001s34.333 22.834 63 39.501c3.33301 2 6 3.66699 8 5c41.333 25.333 67.333 44 78 56c13.333 16 20 33.667 20 53c0 41.333 -31 62 -93 62c-43.333 0 -85.666 -14.333 -126.999 -43v50zM154.998 679.998h37v-361h74v-47h-216v47h93v308l-87 -32v47z
" />
    <glyph glyph-name="threequarters" unicode="&#xbe;" horiz-adv-x="972" 
d="M287 -12h-28l457 723h28zM806 408h54v-271h77v-46h-77v-91h-49v91h-228v44zM812 137v204l-167 -204h167zM330 580c0 -20.667 -5.66699 -39.333 -17 -56s-26 -28 -44 -34c51.333 -16 77 -50.333 77 -103c0 -38 -14 -67.167 -42 -87.5s-63.667 -30.5 -107 -30.5
c-54.667 0 -102 9 -142 27v49c37.333 -20 83.333 -30 138 -30c70 0 105 25 105 75c0 48.667 -33 73 -99 73h-63v47h57c28.667 0 50.667 6 66 18s23 28 23 48c0 21.333 -8.5 38.166 -25.5 50.499s-40.833 18.5 -71.5 18.5c-42.667 0 -83.667 -10.333 -123 -31v49
c38.667 18.667 81.667 28 129 28c42 0 75.667 -10.167 101 -30.5s38 -47.166 38 -80.499z" />
    <glyph glyph-name="questiondown" unicode="&#xbf;" horiz-adv-x="480" 
d="M447 -173c-60 -36.667 -124.332 -55 -192.999 -55c-65.333 0 -118.5 14.5 -159.5 43.5s-61.5 69.833 -61.5 122.5c0 26 6.66699 52.333 20 79s29.333 50.667 48 72l56 63.5c18.667 21 34.667 42.833 48 65.5s20 44.667 20 66h57c0 -24 -6.5 -48.333 -19.5 -73
s-28.833 -47.5 -47.5 -68.5l-55.5 -62.5c-18.333 -20.667 -34 -43 -47 -67s-19.5 -47.333 -19.5 -70c0 -38 15 -66.5 45 -85.5s71.667 -28.5 125 -28.5c61.333 0 122.666 18 183.999 54v-56zM293.001 452c0 -11.333 -3.83301 -20.5 -11.5 -27.5s-17.167 -10.5 -28.5 -10.5
s-20.833 3.5 -28.5 10.5s-11.5 16.167 -11.5 27.5c0 12.667 3.83301 22.334 11.5 29.001s17.167 10 28.5 10s20.833 -3.33301 28.5 -10s11.5 -16.334 11.5 -29.001z" />
    <glyph glyph-name="Agrave" unicode="&#xc0;" horiz-adv-x="713" 
d="M75 0h-64l312 700h67l311 -700h-64l-83 188h-395zM347 617l-165 -373h348l-165 373c-2 5.33301 -5 12.666 -9 21.999c-4 -9.33301 -7 -16.666 -9 -21.999zM408 773h-63l-98 142h71z" />
    <glyph glyph-name="Aacute" unicode="&#xc1;" horiz-adv-x="713" 
d="M75 0h-64l312 700h67l311 -700h-64l-83 188h-395zM347 617l-165 -373h348l-165 373c-2 5.33301 -5 12.666 -9 21.999c-4 -9.33301 -7 -16.666 -9 -21.999zM363 773h-62l90 142h71z" />
    <glyph glyph-name="Acircumflex" unicode="&#xc2;" horiz-adv-x="713" 
d="M75 0h-64l312 700h67l311 -700h-64l-83 188h-395zM347 617l-165 -373h348l-165 373c-2 5.33301 -5 12.666 -9 21.999c-4 -9.33301 -7 -16.666 -9 -21.999zM332 911h51l130 -137h-65l-90 94l-90 -94h-65z" />
    <glyph glyph-name="Atilde" unicode="&#xc3;" horiz-adv-x="713" 
d="M75 0h-64l312 700h67l311 -700h-64l-83 188h-395zM347 617l-165 -373h348l-165 373c-2 5.33301 -5 12.666 -9 21.999c-4 -9.33301 -7 -16.666 -9 -21.999zM511 866c4 -28.667 -1.00098 -51.167 -15.001 -67.5s-33 -24.5 -57 -24.5c-21.333 0 -50 8 -86 24
s-59.333 24 -70 24c-12 0 -20.833 -4 -26.5 -12s-7.83398 -18.333 -6.50098 -31h-50c-4 28 1 50.5 15 67.5s32.333 25.5 55 25.5c20.667 0 49.334 -8 86.001 -24s60.334 -24 71.001 -24c24.667 0 36 14 34 42h50z" />
    <glyph glyph-name="Adieresis" unicode="&#xc4;" horiz-adv-x="713" 
d="M75 0h-64l312 700h67l311 -700h-64l-83 188h-395zM347 617l-165 -373h348l-165 373c-2 5.33301 -5 12.666 -9 21.999c-4 -9.33301 -7 -16.666 -9 -21.999zM496 836c0 -11.333 -4 -21 -12 -29s-17.667 -12 -29 -12s-21.166 4 -29.499 12s-12.5 17.667 -12.5 29
s4.16699 21.166 12.5 29.499s18.166 12.5 29.499 12.5s21 -4.16699 29 -12.5s12 -18.166 12 -29.499zM295 836c0 -11.333 -4 -21 -12 -29s-17.667 -12 -29 -12s-21.166 4 -29.499 12s-12.5 17.667 -12.5 29s4.16699 21.166 12.5 29.499s18.166 12.5 29.499 12.5
s21 -4.16699 29 -12.5s12 -18.166 12 -29.499z" />
    <glyph glyph-name="Aring" unicode="&#xc5;" horiz-adv-x="713" 
d="M75 0h-64l312 700h67l311 -700h-64l-83 188h-395zM347 617l-165 -373h348l-165 373c-2 5.33301 -5 12.666 -9 21.999c-4 -9.33301 -7 -16.666 -9 -21.999zM456 849c0 -29.333 -9.99902 -53.166 -29.999 -71.499s-44 -27.5 -72 -27.5s-52.167 9.16699 -72.5 27.5
s-30.5 42.166 -30.5 71.499c0 28.667 10.167 52 30.5 70s44.5 27 72.5 27c27.333 0 51.166 -9 71.499 -27s30.5 -41.333 30.5 -70zM295.001 848c0 -18 5.83301 -32.167 17.5 -42.5s25.5 -15.5 41.5 -15.5s29.833 5.16699 41.5 15.5s17.5 24.5 17.5 42.5
c0 17.333 -5.83301 31.333 -17.5 42s-25.5 16 -41.5 16s-29.833 -5.33301 -41.5 -16s-17.5 -24.667 -17.5 -42z" />
    <glyph glyph-name="AE" unicode="&#xc6;" horiz-adv-x="992" 
d="M558 324v-267h382v-57h-441v190h-313l-134 -190h-66l489 700h459v-57h-376v-262h346v-57h-346zM221 244h278v394z" />
    <glyph glyph-name="Ccedilla" unicode="&#xc7;" horiz-adv-x="656" 
d="M617 96l-0.00488281 -59.001c-52 -28 -111.333 -44 -178 -48l-16 -63c32 4 58.5 -0.166992 79.5 -12.5s31.833 -31.166 32.5 -56.499c0.666992 -28 -10.166 -49.667 -32.499 -65s-53.166 -23 -92.499 -23c-35.333 0 -68 6.66699 -98 20v49c27.333 -15.333 58 -23 92 -23
c26.667 0 47 4 61 12s21 18.667 21 32c-0.666992 16.667 -14 27.667 -40 33s-52.667 4.33301 -80 -3l23 101c-43.333 2.66699 -84.833 12.167 -124.5 28.5s-75.667 38.833 -108 67.5s-58.166 65.167 -77.499 109.5s-29 93.5 -29 147.5c0 58.667 10.5 112 31.5 160
s48.833 86.833 83.5 116.5s73.334 52.334 116.001 68.001s87 23.5 133 23.5c73.333 0 138.666 -15.667 195.999 -47v-60c-52.667 34 -115 51 -187 51c-39.333 0 -77.166 -6.5 -113.499 -19.5s-69.666 -31.833 -99.999 -56.5s-54.5 -57.334 -72.5 -98.001
s-27 -86.667 -27 -138c0 -48.667 9.16699 -92.5 27.5 -131.5s42.666 -70.333 72.999 -94s64 -41.667 101 -54s75.167 -18.5 114.5 -18.5c74.667 0 138.334 17 191.001 51z" />
    <glyph glyph-name="Egrave" unicode="&#xc8;" horiz-adv-x="621" 
d="M97 700h465v-57h-406v-262h376v-57h-376v-267h413v-57h-472v700zM387 773h-63l-98 142h71z" />
    <glyph glyph-name="Eacute" unicode="&#xc9;" horiz-adv-x="621" 
d="M97 700h465v-57h-406v-262h376v-57h-376v-267h413v-57h-472v700zM342 773h-62l90 142h71z" />
    <glyph glyph-name="Ecircumflex" unicode="&#xca;" horiz-adv-x="621" 
d="M97 700h465v-57h-406v-262h376v-57h-376v-267h413v-57h-472v700zM311 911h51l130 -137h-65l-90 94l-90 -94h-65z" />
    <glyph glyph-name="Edieresis" unicode="&#xcb;" horiz-adv-x="621" 
d="M97 700h465v-57h-406v-262h376v-57h-376v-267h413v-57h-472v700zM475 836c0 -11.333 -4 -21 -12 -29s-17.667 -12 -29 -12s-21.166 4 -29.499 12s-12.5 17.667 -12.5 29s4.16699 21.166 12.5 29.499s18.166 12.5 29.499 12.5s21 -4.16699 29 -12.5s12 -18.166 12 -29.499
zM274 836c0 -11.333 -4 -21 -12 -29s-17.667 -12 -29 -12s-21.166 4 -29.499 12s-12.5 17.667 -12.5 29s4.16699 21.166 12.5 29.499s18.166 12.5 29.499 12.5s21 -4.16699 29 -12.5s12 -18.166 12 -29.499z" />
    <glyph glyph-name="Igrave" unicode="&#xcc;" horiz-adv-x="253" 
d="M97 700h59v-700h-59v700zM181 773h-63l-98 142h71z" />
    <glyph glyph-name="Iacute" unicode="&#xcd;" horiz-adv-x="253" 
d="M97 700h59v-700h-59v700zM136 773h-62l90 142h71z" />
    <glyph glyph-name="Icircumflex" unicode="&#xce;" horiz-adv-x="253" 
d="M97 700h59v-700h-59v700zM105 911h51l130 -137h-65l-90 94l-90 -94h-65z" />
    <glyph glyph-name="Idieresis" unicode="&#xcf;" horiz-adv-x="253" 
d="M97 700h59v-700h-59v700zM269 836c0 -11.333 -4 -21 -12 -29s-17.667 -12 -29 -12s-21.166 4 -29.499 12s-12.5 17.667 -12.5 29s4.16699 21.166 12.5 29.499s18.166 12.5 29.499 12.5s21 -4.16699 29 -12.5s12 -18.166 12 -29.499zM68 836c0 -11.333 -4 -21 -12 -29
s-17.667 -12 -29 -12s-21.166 4 -29.499 12s-12.5 17.667 -12.5 29s4.16699 21.166 12.5 29.499s18.166 12.5 29.499 12.5s21 -4.16699 29 -12.5s12 -18.166 12 -29.499z" />
    <glyph glyph-name="Eth" unicode="&#xd0;" horiz-adv-x="738" 
d="M100 700h217c120.667 0 212.667 -32 276 -96s95 -148.667 95 -254s-31.667 -190 -95 -254s-155.333 -96 -276 -96h-217v322h-81v54h81v324zM160 57h158c101.333 0 178.5 26.167 231.5 78.5s79.5 123.833 79.5 214.5s-26.5 162.167 -79.5 214.5s-130.167 78.5 -231.5 78.5
h-158v-267h224v-54h-224v-265z" />
    <glyph glyph-name="Ntilde" unicode="&#xd1;" horiz-adv-x="766" 
d="M156 0h-59v700h54l459 -599v60v539h59v-700h-54l-459 600v-60v-540zM540 866c4 -28.667 -1.00098 -51.167 -15.001 -67.5s-33 -24.5 -57 -24.5c-21.333 0 -50 8 -86 24s-59.333 24 -70 24c-12 0 -20.833 -4 -26.5 -12s-7.83398 -18.333 -6.50098 -31h-50
c-4 28 1 50.5 15 67.5s32.333 25.5 55 25.5c20.667 0 49.334 -8 86.001 -24s60.334 -24 71.001 -24c24.667 0 36 14 34 42h50z" />
    <glyph glyph-name="Ograve" unicode="&#xd2;" horiz-adv-x="824" 
d="M48 350c0 45.333 7.66699 89.166 23 131.499s37.666 80.833 66.999 115.5s67.666 62.334 114.999 83.001s100.333 31 159 31s111.667 -10.333 159 -31s85.666 -48.334 114.999 -83.001s51.666 -73.167 66.999 -115.5s23 -86.166 23 -131.499
s-7.66699 -89.166 -23 -131.499s-37.666 -80.833 -66.999 -115.5s-67.666 -62.334 -114.999 -83.001s-100.333 -31 -159 -31s-111.667 10.333 -159 31s-85.666 48.334 -114.999 83.001s-51.666 73.167 -66.999 115.5s-23 86.166 -23 131.499zM716 350
c0 52.667 -10.667 101.5 -32 146.5s-55.666 82.667 -102.999 113s-103.666 45.5 -168.999 45.5s-121.666 -15.167 -168.999 -45.5s-81.666 -68 -102.999 -113s-32 -93.833 -32 -146.5s10.667 -101.5 32 -146.5s55.666 -82.667 102.999 -113s103.666 -45.5 168.999 -45.5
s121.666 15.167 168.999 45.5s81.666 68 102.999 113s32 93.833 32 146.5zM465 773h-63l-98 142h71z" />
    <glyph glyph-name="Oacute" unicode="&#xd3;" horiz-adv-x="824" 
d="M48 350c0 45.333 7.66699 89.166 23 131.499s37.666 80.833 66.999 115.5s67.666 62.334 114.999 83.001s100.333 31 159 31s111.667 -10.333 159 -31s85.666 -48.334 114.999 -83.001s51.666 -73.167 66.999 -115.5s23 -86.166 23 -131.499
s-7.66699 -89.166 -23 -131.499s-37.666 -80.833 -66.999 -115.5s-67.666 -62.334 -114.999 -83.001s-100.333 -31 -159 -31s-111.667 10.333 -159 31s-85.666 48.334 -114.999 83.001s-51.666 73.167 -66.999 115.5s-23 86.166 -23 131.499zM716 350
c0 52.667 -10.667 101.5 -32 146.5s-55.666 82.667 -102.999 113s-103.666 45.5 -168.999 45.5s-121.666 -15.167 -168.999 -45.5s-81.666 -68 -102.999 -113s-32 -93.833 -32 -146.5s10.667 -101.5 32 -146.5s55.666 -82.667 102.999 -113s103.666 -45.5 168.999 -45.5
s121.666 15.167 168.999 45.5s81.666 68 102.999 113s32 93.833 32 146.5zM420 773h-62l90 142h71z" />
    <glyph glyph-name="Ocircumflex" unicode="&#xd4;" horiz-adv-x="824" 
d="M48 350c0 45.333 7.66699 89.166 23 131.499s37.666 80.833 66.999 115.5s67.666 62.334 114.999 83.001s100.333 31 159 31s111.667 -10.333 159 -31s85.666 -48.334 114.999 -83.001s51.666 -73.167 66.999 -115.5s23 -86.166 23 -131.499
s-7.66699 -89.166 -23 -131.499s-37.666 -80.833 -66.999 -115.5s-67.666 -62.334 -114.999 -83.001s-100.333 -31 -159 -31s-111.667 10.333 -159 31s-85.666 48.334 -114.999 83.001s-51.666 73.167 -66.999 115.5s-23 86.166 -23 131.499zM716 350
c0 52.667 -10.667 101.5 -32 146.5s-55.666 82.667 -102.999 113s-103.666 45.5 -168.999 45.5s-121.666 -15.167 -168.999 -45.5s-81.666 -68 -102.999 -113s-32 -93.833 -32 -146.5s10.667 -101.5 32 -146.5s55.666 -82.667 102.999 -113s103.666 -45.5 168.999 -45.5
s121.666 15.167 168.999 45.5s81.666 68 102.999 113s32 93.833 32 146.5zM389 911h51l130 -137h-65l-90 94l-90 -94h-65z" />
    <glyph glyph-name="Otilde" unicode="&#xd5;" horiz-adv-x="824" 
d="M48 350c0 45.333 7.66699 89.166 23 131.499s37.666 80.833 66.999 115.5s67.666 62.334 114.999 83.001s100.333 31 159 31s111.667 -10.333 159 -31s85.666 -48.334 114.999 -83.001s51.666 -73.167 66.999 -115.5s23 -86.166 23 -131.499
s-7.66699 -89.166 -23 -131.499s-37.666 -80.833 -66.999 -115.5s-67.666 -62.334 -114.999 -83.001s-100.333 -31 -159 -31s-111.667 10.333 -159 31s-85.666 48.334 -114.999 83.001s-51.666 73.167 -66.999 115.5s-23 86.166 -23 131.499zM716 350
c0 52.667 -10.667 101.5 -32 146.5s-55.666 82.667 -102.999 113s-103.666 45.5 -168.999 45.5s-121.666 -15.167 -168.999 -45.5s-81.666 -68 -102.999 -113s-32 -93.833 -32 -146.5s10.667 -101.5 32 -146.5s55.666 -82.667 102.999 -113s103.666 -45.5 168.999 -45.5
s121.666 15.167 168.999 45.5s81.666 68 102.999 113s32 93.833 32 146.5zM568 866c4 -28.667 -1.00098 -51.167 -15.001 -67.5s-33 -24.5 -57 -24.5c-21.333 0 -50 8 -86 24s-59.333 24 -70 24c-12 0 -20.833 -4 -26.5 -12s-7.83398 -18.333 -6.50098 -31h-50
c-4 28 1 50.5 15 67.5s32.333 25.5 55 25.5c20.667 0 49.334 -8 86.001 -24s60.334 -24 71.001 -24c24.667 0 36 14 34 42h50z" />
    <glyph glyph-name="Odieresis" unicode="&#xd6;" horiz-adv-x="824" 
d="M48 350c0 45.333 7.66699 89.166 23 131.499s37.666 80.833 66.999 115.5s67.666 62.334 114.999 83.001s100.333 31 159 31s111.667 -10.333 159 -31s85.666 -48.334 114.999 -83.001s51.666 -73.167 66.999 -115.5s23 -86.166 23 -131.499
s-7.66699 -89.166 -23 -131.499s-37.666 -80.833 -66.999 -115.5s-67.666 -62.334 -114.999 -83.001s-100.333 -31 -159 -31s-111.667 10.333 -159 31s-85.666 48.334 -114.999 83.001s-51.666 73.167 -66.999 115.5s-23 86.166 -23 131.499zM716 350
c0 52.667 -10.667 101.5 -32 146.5s-55.666 82.667 -102.999 113s-103.666 45.5 -168.999 45.5s-121.666 -15.167 -168.999 -45.5s-81.666 -68 -102.999 -113s-32 -93.833 -32 -146.5s10.667 -101.5 32 -146.5s55.666 -82.667 102.999 -113s103.666 -45.5 168.999 -45.5
s121.666 15.167 168.999 45.5s81.666 68 102.999 113s32 93.833 32 146.5zM553 836c0 -11.333 -4 -21 -12 -29s-17.667 -12 -29 -12s-21.166 4 -29.499 12s-12.5 17.667 -12.5 29s4.16699 21.166 12.5 29.499s18.166 12.5 29.499 12.5s21 -4.16699 29 -12.5
s12 -18.166 12 -29.499zM352 836c0 -11.333 -4 -21 -12 -29s-17.667 -12 -29 -12s-21.166 4 -29.499 12s-12.5 17.667 -12.5 29s4.16699 21.166 12.5 29.499s18.166 12.5 29.499 12.5s21 -4.16699 29 -12.5s12 -18.166 12 -29.499z" />
    <glyph glyph-name="multiply" unicode="&#xd7;" horiz-adv-x="458" 
d="M229 315l-131 -131l-36 37l130 130l-130 130l36 37l131 -130l130 130l37 -37l-131 -130l131 -130l-37 -37z" />
    <glyph glyph-name="Oslash" unicode="&#xd8;" horiz-adv-x="824" 
d="M732 748l-84 -115.001c41.333 -34 73 -76.167 95 -126.5s33 -102.5 33 -156.5c0 -45.333 -7.66699 -89.166 -23 -131.499s-37.666 -80.833 -66.999 -115.5s-67.666 -62.334 -114.999 -83.001s-100.333 -31 -159 -31c-74 0 -139 16.667 -195 50l-64 -87h-57l82 114
c-42 33.333 -74.167 75.333 -96.5 126s-33.5 103.334 -33.5 158.001c0 45.333 7.66699 89.166 23 131.499s37.666 80.833 66.999 115.5s67.666 62.334 114.999 83.001s100.333 31 159 31c76 0 142 -17 198 -51l65 88h57zM412 654.999
c-65.333 0 -121.668 -15.167 -169.001 -45.5s-81.666 -68 -102.999 -113s-32 -93.833 -32 -146.5c0 -46 8.83301 -90 26.5 -132s43.834 -77 78.501 -105l363 499c-46.667 28.667 -101.334 43 -164.001 43zM250.998 85.999c47.333 -27.333 101.001 -41.001 161.001 -41.001
c65.333 0 121.666 15.167 168.999 45.5s81.666 68 102.999 113s32 93.833 32 146.5c0 45.333 -8.66699 88.833 -26 130.5s-42.666 76.834 -75.999 105.501z" />
    <glyph glyph-name="Ugrave" unicode="&#xd9;" horiz-adv-x="751" 
d="M603 700h59v-450c0 -91.333 -26.333 -157.666 -79 -198.999s-121.667 -62 -207 -62c-40.667 0 -77.667 4.66699 -111 14s-63.5 23.666 -90.5 42.999s-48 46.333 -63 81s-22.5 75.667 -22.5 123v450h59v-448c0 -138 76 -207 228 -207c151.333 0 227 69 227 207v448z
M428 773h-63l-98 142h71z" />
    <glyph glyph-name="Uacute" unicode="&#xda;" horiz-adv-x="751" 
d="M603 700h59v-450c0 -91.333 -26.333 -157.666 -79 -198.999s-121.667 -62 -207 -62c-40.667 0 -77.667 4.66699 -111 14s-63.5 23.666 -90.5 42.999s-48 46.333 -63 81s-22.5 75.667 -22.5 123v450h59v-448c0 -138 76 -207 228 -207c151.333 0 227 69 227 207v448z
M383 773h-62l90 142h71z" />
    <glyph glyph-name="Ucircumflex" unicode="&#xdb;" horiz-adv-x="751" 
d="M603 700h59v-450c0 -91.333 -26.333 -157.666 -79 -198.999s-121.667 -62 -207 -62c-40.667 0 -77.667 4.66699 -111 14s-63.5 23.666 -90.5 42.999s-48 46.333 -63 81s-22.5 75.667 -22.5 123v450h59v-448c0 -138 76 -207 228 -207c151.333 0 227 69 227 207v448z
M352 911h51l130 -137h-65l-90 94l-90 -94h-65z" />
    <glyph glyph-name="Udieresis" unicode="&#xdc;" horiz-adv-x="751" 
d="M603 700h59v-450c0 -91.333 -26.333 -157.666 -79 -198.999s-121.667 -62 -207 -62c-40.667 0 -77.667 4.66699 -111 14s-63.5 23.666 -90.5 42.999s-48 46.333 -63 81s-22.5 75.667 -22.5 123v450h59v-448c0 -138 76 -207 228 -207c151.333 0 227 69 227 207v448z
M516 836c0 -11.333 -4 -21 -12 -29s-17.667 -12 -29 -12s-21.166 4 -29.499 12s-12.5 17.667 -12.5 29s4.16699 21.166 12.5 29.499s18.166 12.5 29.499 12.5s21 -4.16699 29 -12.5s12 -18.166 12 -29.499zM315 836c0 -11.333 -4 -21 -12 -29s-17.667 -12 -29 -12
s-21.166 4 -29.499 12s-12.5 17.667 -12.5 29s4.16699 21.166 12.5 29.499s18.166 12.5 29.499 12.5s21 -4.16699 29 -12.5s12 -18.166 12 -29.499z" />
    <glyph glyph-name="Yacute" unicode="&#xdd;" horiz-adv-x="644" 
d="M352 0h-60v273l-275 427h66l239 -373l239 373h66l-275 -427v-273zM331 773h-62l90 142h71z" />
    <glyph glyph-name="Thorn" unicode="&#xde;" horiz-adv-x="655" 
d="M156 572h171c196.667 0 295 -74 295 -222s-98.333 -222 -295 -222h-171v-128h-59v700h59v-128zM157 184h173c154.667 0 232 55.333 232 166c0 61.333 -20.667 104.333 -62 129s-98 37 -170 37h-173v-332z" />
    <glyph glyph-name="germandbls" unicode="&#xdf;" horiz-adv-x="592" 
d="M555 148c0 -52 -19.499 -91.501 -58.499 -118.501s-86.5 -40.5 -142.5 -40.5c-48 0 -90.333 9 -127 27v50c36 -18 75 -27 117 -27c44.667 0 81.667 9.16699 111 27.5s44 46.833 44 85.5c0 18.667 -5.33301 37.167 -16 55.5s-23.5 34.666 -38.5 48.999l-45.5 42
c-15.333 13.667 -28.333 27.667 -39 42s-16 28.166 -16 41.499c0 18.667 6.33301 37.167 19 55.5l38 57.5c12.667 20 19 41.667 19 65c0 28 -11.667 51.833 -35 71.5s-55 29.5 -95 29.5c-46 0 -83.333 -13.333 -112 -40s-43 -64 -43 -112v-509h-57v500
c0 66 19.167 117.667 57.5 155s89.833 56 154.5 56c59.333 0.666992 105.166 -13.833 137.499 -43.5s48.5 -63.5 48.5 -101.5c0 -25.333 -6.33301 -48.666 -19 -69.999s-25.167 -40.333 -37.5 -57s-18.5 -32.334 -18.5 -47.001c0 -12 5.33301 -24.833 16 -38.5
s23.5 -27.167 38.5 -40.5s30 -27.666 45 -42.999s27.833 -33.666 38.5 -54.999s16 -43.666 16 -66.999z" />
    <glyph glyph-name="agrave" unicode="&#xe0;" horiz-adv-x="542" 
d="M455 87c0 -28 14.335 -42 43.002 -42c10.667 0 23 2.33301 37 7v-46c-18 -6.66699 -35.333 -10 -52 -10c-50.667 0 -78.334 24.667 -83.001 74c-50 -54 -115.667 -81 -197 -81c-46 0 -85.333 12.167 -118 36.5s-49 59.5 -49 105.5c0 54.667 20.667 94.5 62 119.5
s91.333 37.5 150 37.5c51.333 0 101.666 -7 150.999 -21v32c0 42.667 -13.333 76.667 -40 102s-64.334 38 -113.001 38c-61.333 0 -118.666 -11.333 -171.999 -34v56c56.667 20 116 30 178 30c64 0 113.833 -17.333 149.5 -52s53.5 -83.667 53.5 -147v-205zM94.002 134
c0 -31.333 11.667 -55.167 35 -71.5s51.666 -24.5 84.999 -24.5c36.667 0 71.334 8.16699 104.001 24.5s59.667 39.5 81 69.5v88c-50.667 13.333 -98.334 20 -143.001 20c-45.333 0 -83.666 -8.5 -114.999 -25.5s-47 -43.833 -47 -80.5zM300.002 552.999h-63l-98 142h71z
" />
    <glyph glyph-name="aacute" unicode="&#xe1;" horiz-adv-x="542" 
d="M455 87c0 -28 14.335 -42 43.002 -42c10.667 0 23 2.33301 37 7v-46c-18 -6.66699 -35.333 -10 -52 -10c-50.667 0 -78.334 24.667 -83.001 74c-50 -54 -115.667 -81 -197 -81c-46 0 -85.333 12.167 -118 36.5s-49 59.5 -49 105.5c0 54.667 20.667 94.5 62 119.5
s91.333 37.5 150 37.5c51.333 0 101.666 -7 150.999 -21v32c0 42.667 -13.333 76.667 -40 102s-64.334 38 -113.001 38c-61.333 0 -118.666 -11.333 -171.999 -34v56c56.667 20 116 30 178 30c64 0 113.833 -17.333 149.5 -52s53.5 -83.667 53.5 -147v-205zM94.002 134
c0 -31.333 11.667 -55.167 35 -71.5s51.666 -24.5 84.999 -24.5c36.667 0 71.334 8.16699 104.001 24.5s59.667 39.5 81 69.5v88c-50.667 13.333 -98.334 20 -143.001 20c-45.333 0 -83.666 -8.5 -114.999 -25.5s-47 -43.833 -47 -80.5zM255.002 552.999h-62l90 142h71z" />
    <glyph glyph-name="acircumflex" unicode="&#xe2;" horiz-adv-x="542" 
d="M455 87c0 -28 14.335 -42 43.002 -42c10.667 0 23 2.33301 37 7v-46c-18 -6.66699 -35.333 -10 -52 -10c-50.667 0 -78.334 24.667 -83.001 74c-50 -54 -115.667 -81 -197 -81c-46 0 -85.333 12.167 -118 36.5s-49 59.5 -49 105.5c0 54.667 20.667 94.5 62 119.5
s91.333 37.5 150 37.5c51.333 0 101.666 -7 150.999 -21v32c0 42.667 -13.333 76.667 -40 102s-64.334 38 -113.001 38c-61.333 0 -118.666 -11.333 -171.999 -34v56c56.667 20 116 30 178 30c64 0 113.833 -17.333 149.5 -52s53.5 -83.667 53.5 -147v-205zM94.002 134
c0 -31.333 11.667 -55.167 35 -71.5s51.666 -24.5 84.999 -24.5c36.667 0 71.334 8.16699 104.001 24.5s59.667 39.5 81 69.5v88c-50.667 13.333 -98.334 20 -143.001 20c-45.333 0 -83.666 -8.5 -114.999 -25.5s-47 -43.833 -47 -80.5zM224.002 690.999h51l130 -137h-65
l-90 94l-90 -94h-65z" />
    <glyph glyph-name="atilde" unicode="&#xe3;" horiz-adv-x="542" 
d="M455 87c0 -28 14.335 -42 43.002 -42c10.667 0 23 2.33301 37 7v-46c-18 -6.66699 -35.333 -10 -52 -10c-50.667 0 -78.334 24.667 -83.001 74c-50 -54 -115.667 -81 -197 -81c-46 0 -85.333 12.167 -118 36.5s-49 59.5 -49 105.5c0 54.667 20.667 94.5 62 119.5
s91.333 37.5 150 37.5c51.333 0 101.666 -7 150.999 -21v32c0 42.667 -13.333 76.667 -40 102s-64.334 38 -113.001 38c-61.333 0 -118.666 -11.333 -171.999 -34v56c56.667 20 116 30 178 30c64 0 113.833 -17.333 149.5 -52s53.5 -83.667 53.5 -147v-205zM94.002 134
c0 -31.333 11.667 -55.167 35 -71.5s51.666 -24.5 84.999 -24.5c36.667 0 71.334 8.16699 104.001 24.5s59.667 39.5 81 69.5v88c-50.667 13.333 -98.334 20 -143.001 20c-45.333 0 -83.666 -8.5 -114.999 -25.5s-47 -43.833 -47 -80.5zM403.002 645.999
c4 -28.667 -1.00098 -51.167 -15.001 -67.5s-33 -24.5 -57 -24.5c-21.333 0 -50 8 -86 24s-59.333 24 -70 24c-12 0 -20.833 -4 -26.5 -12s-7.83398 -18.333 -6.50098 -31h-50c-4 28 1 50.5 15 67.5s32.333 25.5 55 25.5c20.667 0 49.334 -8 86.001 -24
s60.334 -24 71.001 -24c24.667 0 36 14 34 42h50z" />
    <glyph glyph-name="adieresis" unicode="&#xe4;" horiz-adv-x="542" 
d="M455 87c0 -28 14.335 -42 43.002 -42c10.667 0 23 2.33301 37 7v-46c-18 -6.66699 -35.333 -10 -52 -10c-50.667 0 -78.334 24.667 -83.001 74c-50 -54 -115.667 -81 -197 -81c-46 0 -85.333 12.167 -118 36.5s-49 59.5 -49 105.5c0 54.667 20.667 94.5 62 119.5
s91.333 37.5 150 37.5c51.333 0 101.666 -7 150.999 -21v32c0 42.667 -13.333 76.667 -40 102s-64.334 38 -113.001 38c-61.333 0 -118.666 -11.333 -171.999 -34v56c56.667 20 116 30 178 30c64 0 113.833 -17.333 149.5 -52s53.5 -83.667 53.5 -147v-205zM94.002 134
c0 -31.333 11.667 -55.167 35 -71.5s51.666 -24.5 84.999 -24.5c36.667 0 71.334 8.16699 104.001 24.5s59.667 39.5 81 69.5v88c-50.667 13.333 -98.334 20 -143.001 20c-45.333 0 -83.666 -8.5 -114.999 -25.5s-47 -43.833 -47 -80.5zM388.002 615.999
c0 -11.333 -4 -21 -12 -29s-17.667 -12 -29 -12s-21.166 4 -29.499 12s-12.5 17.667 -12.5 29s4.16699 21.166 12.5 29.499s18.166 12.5 29.499 12.5s21 -4.16699 29 -12.5s12 -18.166 12 -29.499zM187.002 615.999c0 -11.333 -4 -21 -12 -29s-17.667 -12 -29 -12
s-21.166 4 -29.499 12s-12.5 17.667 -12.5 29s4.16699 21.166 12.5 29.499s18.166 12.5 29.499 12.5s21 -4.16699 29 -12.5s12 -18.166 12 -29.499z" />
    <glyph glyph-name="aring" unicode="&#xe5;" horiz-adv-x="542" 
d="M455 87c0 -28 14.335 -42 43.002 -42c10.667 0 23 2.33301 37 7v-46c-18 -6.66699 -35.333 -10 -52 -10c-50.667 0 -78.334 24.667 -83.001 74c-50 -54 -115.667 -81 -197 -81c-46 0 -85.333 12.167 -118 36.5s-49 59.5 -49 105.5c0 54.667 20.667 94.5 62 119.5
s91.333 37.5 150 37.5c51.333 0 101.666 -7 150.999 -21v32c0 42.667 -13.333 76.667 -40 102s-64.334 38 -113.001 38c-61.333 0 -118.666 -11.333 -171.999 -34v56c56.667 20 116 30 178 30c64 0 113.833 -17.333 149.5 -52s53.5 -83.667 53.5 -147v-205zM94.002 134
c0 -31.333 11.667 -55.167 35 -71.5s51.666 -24.5 84.999 -24.5c36.667 0 71.334 8.16699 104.001 24.5s59.667 39.5 81 69.5v88c-50.667 13.333 -98.334 20 -143.001 20c-45.333 0 -83.666 -8.5 -114.999 -25.5s-47 -43.833 -47 -80.5zM348.002 628.999
c0 -29.333 -9.99902 -53.166 -29.999 -71.499s-44 -27.5 -72 -27.5s-52.167 9.16699 -72.5 27.5s-30.5 42.166 -30.5 71.499c0 28.667 10.167 52 30.5 70s44.5 27 72.5 27c27.333 0 51.166 -9 71.499 -27s30.5 -41.333 30.5 -70zM187.003 627.999
c0 -18 5.83301 -32.167 17.5 -42.5s25.5 -15.5 41.5 -15.5s29.833 5.16699 41.5 15.5s17.5 24.5 17.5 42.5c0 17.333 -5.83301 31.333 -17.5 42s-25.5 16 -41.5 16s-29.833 -5.33301 -41.5 -16s-17.5 -24.667 -17.5 -42z" />
    <glyph glyph-name="ae" unicode="&#xe6;" horiz-adv-x="909" 
d="M456 92c-62 -68.667 -144.337 -103.002 -247.004 -103.002c-48.667 0 -89.667 12.167 -123 36.5s-50 59.5 -50 105.5c0 54.667 21 94.5 63 119.5s94 37.5 156 37.5c56 0 108.333 -7 157 -21v32c0 44 -13.833 78.333 -41.5 103s-69.167 37 -124.5 37
c-61.333 0 -118.666 -11.333 -171.999 -34v56c56.667 20 116 30 178 30c110 0 176 -42 198 -126c18.667 40 46.334 71 83.001 93s76 33 118 33c42.667 0 79.834 -8.5 111.501 -25.5s55 -39 70 -66s25.5 -57.167 31.5 -90.5s5 -66.666 -3 -99.999h-392
c4 -55.333 26.167 -97.166 66.5 -125.499s88.833 -42.5 145.5 -42.5c56 0 106.333 13 151 39v-53c-43.333 -25.333 -97.666 -38 -162.999 -38c-43.333 0 -84 8.66699 -122 26s-68.333 43 -91 77zM93.9961 133.998c0 -31.333 11.999 -55.167 35.999 -71.5
s54.333 -24.5 91 -24.5c87.333 0 158 30.333 212 91c-11.333 28 -18 58.333 -20 91c-53.333 13.333 -103.666 20 -150.999 20c-48 0 -88 -8.33301 -120 -25s-48 -43.667 -48 -81zM650.995 438.997c-49.333 0 -91.332 -15.832 -125.999 -47.499
s-53.334 -75.834 -56.001 -132.501h342c2.66699 20 1.66699 40 -3 60s-12.667 39.167 -24 57.5s-28.5 33.333 -51.5 45s-50.167 17.5 -81.5 17.5z" />
    <glyph glyph-name="ccedilla" unicode="&#xe7;" horiz-adv-x="494" 
d="M454 80l-0.00195312 -57.001c-40 -19.333 -85.333 -30.666 -136 -33.999l-16 -63c32 4 58.5 -0.166992 79.5 -12.5s31.833 -31.166 32.5 -56.499c0.666992 -28 -10.166 -49.667 -32.499 -65s-53.166 -23 -92.499 -23c-35.333 0 -68 6.66699 -98 20v49
c27.333 -15.333 58 -23 92 -23c26.667 0 47 4 61 12s21 18.667 21 32c-0.666992 16.667 -14 27.667 -40 33s-52.667 4.33301 -80 -3l23 102c-62.667 5.33301 -115.5 29.166 -158.5 71.499s-64.5 100.5 -64.5 174.5c0 56 13.167 103.833 39.5 143.5s58.5 68 96.5 85
s79 25.5 123 25.5c58.667 0 107 -13 145 -39v-55c-37.333 28 -83.333 42 -138 42c-57.333 0 -106.5 -17 -147.5 -51s-61.5 -84 -61.5 -150c0 -63.333 19.833 -112 59.5 -146s87.5 -51 143.5 -51c55.333 0 105 13 149 39z" />
    <glyph glyph-name="egrave" unicode="&#xe8;" horiz-adv-x="548" 
d="M45 240c0 78 23.8301 139.333 71.4971 184s102.834 67 165.501 67c35.333 0 67 -5.5 95 -16.5s50.5 -25.833 67.5 -44.5s31.167 -40 42.5 -64s17.5 -48.833 18.5 -74.5s-0.5 -51.5 -4.5 -77.5h-399c3.33301 -57.333 25.333 -100.5 66 -129.5s90.334 -43.5 149.001 -43.5
c60 0 112.333 13 157 39v-56c-43.333 -23.333 -98.333 -35 -165 -35c-75.333 0 -138.166 21.333 -188.499 64s-75.5 105 -75.5 187zM450.997 264c4.66699 42 -6.50098 81.667 -33.501 119s-70.833 56 -131.5 56c-49.333 0 -91.666 -15.5 -126.999 -46.5
s-54.333 -73.833 -57 -128.5h349zM334.996 553h-63l-98 142h71z" />
    <glyph glyph-name="eacute" unicode="&#xe9;" horiz-adv-x="548" 
d="M45 240c0 78 23.8301 139.333 71.4971 184s102.834 67 165.501 67c35.333 0 67 -5.5 95 -16.5s50.5 -25.833 67.5 -44.5s31.167 -40 42.5 -64s17.5 -48.833 18.5 -74.5s-0.5 -51.5 -4.5 -77.5h-399c3.33301 -57.333 25.333 -100.5 66 -129.5s90.334 -43.5 149.001 -43.5
c60 0 112.333 13 157 39v-56c-43.333 -23.333 -98.333 -35 -165 -35c-75.333 0 -138.166 21.333 -188.499 64s-75.5 105 -75.5 187zM450.997 264c4.66699 42 -6.50098 81.667 -33.501 119s-70.833 56 -131.5 56c-49.333 0 -91.666 -15.5 -126.999 -46.5
s-54.333 -73.833 -57 -128.5h349zM289.996 553h-62l90 142h71z" />
    <glyph glyph-name="ecircumflex" unicode="&#xea;" horiz-adv-x="548" 
d="M45 240c0 78 23.8301 139.333 71.4971 184s102.834 67 165.501 67c35.333 0 67 -5.5 95 -16.5s50.5 -25.833 67.5 -44.5s31.167 -40 42.5 -64s17.5 -48.833 18.5 -74.5s-0.5 -51.5 -4.5 -77.5h-399c3.33301 -57.333 25.333 -100.5 66 -129.5s90.334 -43.5 149.001 -43.5
c60 0 112.333 13 157 39v-56c-43.333 -23.333 -98.333 -35 -165 -35c-75.333 0 -138.166 21.333 -188.499 64s-75.5 105 -75.5 187zM450.997 264c4.66699 42 -6.50098 81.667 -33.501 119s-70.833 56 -131.5 56c-49.333 0 -91.666 -15.5 -126.999 -46.5
s-54.333 -73.833 -57 -128.5h349zM258.996 691h51l130 -137h-65l-90 94l-90 -94h-65z" />
    <glyph glyph-name="edieresis" unicode="&#xeb;" horiz-adv-x="548" 
d="M45 240c0 78 23.8301 139.333 71.4971 184s102.834 67 165.501 67c35.333 0 67 -5.5 95 -16.5s50.5 -25.833 67.5 -44.5s31.167 -40 42.5 -64s17.5 -48.833 18.5 -74.5s-0.5 -51.5 -4.5 -77.5h-399c3.33301 -57.333 25.333 -100.5 66 -129.5s90.334 -43.5 149.001 -43.5
c60 0 112.333 13 157 39v-56c-43.333 -23.333 -98.333 -35 -165 -35c-75.333 0 -138.166 21.333 -188.499 64s-75.5 105 -75.5 187zM450.997 264c4.66699 42 -6.50098 81.667 -33.501 119s-70.833 56 -131.5 56c-49.333 0 -91.666 -15.5 -126.999 -46.5
s-54.333 -73.833 -57 -128.5h349zM422.996 616c0 -11.333 -4 -21 -12 -29s-17.667 -12 -29 -12s-21.166 4 -29.499 12s-12.5 17.667 -12.5 29s4.16699 21.166 12.5 29.499s18.166 12.5 29.499 12.5s21 -4.16699 29 -12.5s12 -18.166 12 -29.499zM221.996 616
c0 -11.333 -4 -21 -12 -29s-17.667 -12 -29 -12s-21.166 4 -29.499 12s-12.5 17.667 -12.5 29s4.16699 21.166 12.5 29.499s18.166 12.5 29.499 12.5s21 -4.16699 29 -12.5s12 -18.166 12 -29.499z" />
    <glyph glyph-name="igrave" unicode="&#xec;" horiz-adv-x="219" 
d="M138 0h-57v480h57v-480zM165 553h-55l-85 142h64z" />
    <glyph glyph-name="iacute" unicode="&#xed;" horiz-adv-x="219" 
d="M81 480h57v-480h-57v480zM117 553h-62l90 142h71z" />
    <glyph glyph-name="icircumflex" unicode="&#xee;" horiz-adv-x="219" 
d="M85 681h51l103 -127h-61l-67 84l-67 -84h-62zM81 480h57v-480h-57v480z" />
    <glyph glyph-name="idieresis" unicode="&#xef;" horiz-adv-x="219" 
d="M225 616c0 -10 -3.83301 -18.833 -11.5 -26.5s-16.834 -11.5 -27.501 -11.5c-10 0 -18.833 3.83301 -26.5 11.5s-11.5 16.5 -11.5 26.5s3.83301 19 11.5 27s16.5 12 26.5 12c10.667 0 19.834 -4 27.501 -12s11.5 -17 11.5 -27zM70 616c0 -10 -3.66699 -18.833 -11 -26.5
s-16.333 -11.5 -27 -11.5s-19.667 3.83301 -27 11.5s-11 16.5 -11 26.5s3.83301 19 11.5 27s16.5 12 26.5 12s18.833 -4 26.5 -12s11.5 -17 11.5 -27zM81 480h57v-480h-57v480z" />
    <glyph glyph-name="eth" unicode="&#xf0;" horiz-adv-x="594" 
d="M540 269c0 -88 -22.6689 -156.668 -68.002 -206.001s-105.666 -74 -180.999 -74c-71.333 0 -130.166 21.333 -176.499 64s-69.5 99 -69.5 169c0 64.667 22.5 118.167 67.5 160.5s98.833 63.5 161.5 63.5c50 0 95 -12.333 135 -37s66.667 -59 80 -103
c0 4.66699 -0.666992 12.334 -2 23.001c-13.333 138 -79.666 232.333 -198.999 283l-104 -104l-33 33l88 88c-44.667 11.333 -90.334 17 -137.001 17v54c62 0 121.333 -10 178 -30l85 85l33 -33l-73 -73c143.333 -69.333 215 -196 215 -380zM101.998 221.999
c0 -54 17.3291 -97.332 51.9961 -129.999s80.334 -49 137.001 -49c52.667 0 94.834 14.333 126.501 43s51.834 67.667 60.501 117c-1.33301 58 -20.666 104.167 -57.999 138.5s-83 51.5 -137 51.5c-52 0 -95.167 -15.833 -129.5 -47.5s-51.5 -72.834 -51.5 -123.501z" />
    <glyph glyph-name="ntilde" unicode="&#xf1;" 
d="M129 394c18.667 26 44.334 48.668 77.001 68.001s69 29 109 29c56.667 0 103.334 -17.833 140.001 -53.5s55 -82.834 55 -141.501v-296h-57v289c0 48 -13.333 85 -40 111s-61.334 39 -104.001 39c-38 0 -71.833 -10.667 -101.5 -32s-53.834 -47.333 -72.501 -78v-329h-57
v480h51v-86zM448 646.001c4 -28.667 -1.00098 -51.167 -15.001 -67.5s-33 -24.5 -57 -24.5c-21.333 0 -50 8 -86 24s-59.333 24 -70 24c-12 0 -20.833 -4 -26.5 -12s-7.83398 -18.333 -6.50098 -31h-50c-4 28 1 50.5 15 67.5s32.333 25.5 55 25.5
c20.667 0 49.334 -8 86.001 -24s60.334 -24 71.001 -24c24.667 0 36 14 34 42h50z" />
    <glyph glyph-name="ograve" unicode="&#xf2;" horiz-adv-x="595" 
d="M45 240c0 77.333 24.833 138.5 74.5 183.5s108.834 67.5 177.501 67.5c69.333 0 128.833 -22.5 178.5 -67.5s74.5 -106.167 74.5 -183.5s-24.833 -138.5 -74.5 -183.5s-109.167 -67.5 -178.5 -67.5c-68.667 0 -127.834 22.5 -177.501 67.5s-74.5 106.167 -74.5 183.5z
M493 240c0 60.667 -18.667 108.667 -56 144s-83.666 53 -138.999 53s-101.833 -17.667 -139.5 -53s-56.5 -83.333 -56.5 -144s18.833 -108.667 56.5 -144s84.167 -53 139.5 -53s101.666 17.667 138.999 53s56 83.333 56 144zM350 550h-63l-98 142h71z" />
    <glyph glyph-name="oacute" unicode="&#xf3;" horiz-adv-x="595" 
d="M45 240c0 77.333 24.833 138.5 74.5 183.5s108.834 67.5 177.501 67.5c69.333 0 128.833 -22.5 178.5 -67.5s74.5 -106.167 74.5 -183.5s-24.833 -138.5 -74.5 -183.5s-109.167 -67.5 -178.5 -67.5c-68.667 0 -127.834 22.5 -177.501 67.5s-74.5 106.167 -74.5 183.5z
M493 240c0 60.667 -18.667 108.667 -56 144s-83.666 53 -138.999 53s-101.833 -17.667 -139.5 -53s-56.5 -83.333 -56.5 -144s18.833 -108.667 56.5 -144s84.167 -53 139.5 -53s101.666 17.667 138.999 53s56 83.333 56 144zM305 550h-62l90 142h71z" />
    <glyph glyph-name="ocircumflex" unicode="&#xf4;" horiz-adv-x="595" 
d="M45 240c0 77.333 24.833 138.5 74.5 183.5s108.834 67.5 177.501 67.5c69.333 0 128.833 -22.5 178.5 -67.5s74.5 -106.167 74.5 -183.5s-24.833 -138.5 -74.5 -183.5s-109.167 -67.5 -178.5 -67.5c-68.667 0 -127.834 22.5 -177.501 67.5s-74.5 106.167 -74.5 183.5z
M493 240c0 60.667 -18.667 108.667 -56 144s-83.666 53 -138.999 53s-101.833 -17.667 -139.5 -53s-56.5 -83.333 -56.5 -144s18.833 -108.667 56.5 -144s84.167 -53 139.5 -53s101.666 17.667 138.999 53s56 83.333 56 144zM274 688h51l130 -137h-65l-90 94l-90 -94h-65z
" />
    <glyph glyph-name="otilde" unicode="&#xf5;" horiz-adv-x="595" 
d="M45 240c0 77.333 24.833 138.5 74.5 183.5s108.834 67.5 177.501 67.5c69.333 0 128.833 -22.5 178.5 -67.5s74.5 -106.167 74.5 -183.5s-24.833 -138.5 -74.5 -183.5s-109.167 -67.5 -178.5 -67.5c-68.667 0 -127.834 22.5 -177.501 67.5s-74.5 106.167 -74.5 183.5z
M493 240c0 60.667 -18.667 108.667 -56 144s-83.666 53 -138.999 53s-101.833 -17.667 -139.5 -53s-56.5 -83.333 -56.5 -144s18.833 -108.667 56.5 -144s84.167 -53 139.5 -53s101.666 17.667 138.999 53s56 83.333 56 144zM453 643
c4 -28.667 -1.00098 -51.167 -15.001 -67.5s-33 -24.5 -57 -24.5c-21.333 0 -50 8 -86 24s-59.333 24 -70 24c-12 0 -20.833 -4 -26.5 -12s-7.83398 -18.333 -6.50098 -31h-50c-4 28 1 50.5 15 67.5s32.333 25.5 55 25.5c20.667 0 49.334 -8 86.001 -24
s60.334 -24 71.001 -24c24.667 0 36 14 34 42h50z" />
    <glyph glyph-name="odieresis" unicode="&#xf6;" horiz-adv-x="595" 
d="M45 240c0 77.333 24.833 138.5 74.5 183.5s108.834 67.5 177.501 67.5c69.333 0 128.833 -22.5 178.5 -67.5s74.5 -106.167 74.5 -183.5s-24.833 -138.5 -74.5 -183.5s-109.167 -67.5 -178.5 -67.5c-68.667 0 -127.834 22.5 -177.501 67.5s-74.5 106.167 -74.5 183.5z
M493 240c0 60.667 -18.667 108.667 -56 144s-83.666 53 -138.999 53s-101.833 -17.667 -139.5 -53s-56.5 -83.333 -56.5 -144s18.833 -108.667 56.5 -144s84.167 -53 139.5 -53s101.666 17.667 138.999 53s56 83.333 56 144zM438 613c0 -11.333 -4 -21 -12 -29
s-17.667 -12 -29 -12s-21.166 4 -29.499 12s-12.5 17.667 -12.5 29s4.16699 21.166 12.5 29.499s18.166 12.5 29.499 12.5s21 -4.16699 29 -12.5s12 -18.166 12 -29.499zM237 613c0 -11.333 -4 -21 -12 -29s-17.667 -12 -29 -12s-21.166 4 -29.499 12s-12.5 17.667 -12.5 29
s4.16699 21.166 12.5 29.499s18.166 12.5 29.499 12.5s21 -4.16699 29 -12.5s12 -18.166 12 -29.499z" />
    <glyph glyph-name="divide" unicode="&#xf7;" horiz-adv-x="634" 
d="M557 323h-480v54h480v-54zM356 126c0 -12.667 -3.66699 -22.334 -11 -29.001s-16.666 -10 -27.999 -10s-20.833 3.33301 -28.5 10s-11.5 16.334 -11.5 29.001c0 12 3.83301 21.333 11.5 28s17.167 10 28.5 10s20.666 -3.33301 27.999 -10s11 -16 11 -28zM356 573
c0 -12.667 -3.66699 -22.334 -11 -29.001s-16.666 -10 -27.999 -10s-20.833 3.33301 -28.5 10s-11.5 16.334 -11.5 29.001c0 12 3.83301 21.333 11.5 28s17.167 10 28.5 10s20.666 -3.33301 27.999 -10s11 -16 11 -28z" />
    <glyph glyph-name="oslash" unicode="&#xf8;" horiz-adv-x="595" 
d="M520 543l-67 -101c64.667 -46.667 97 -114 97 -202c0 -77.333 -24.833 -138.5 -74.5 -183.5s-109.167 -67.5 -178.5 -67.5c-42.667 0 -83.334 9.33301 -122.001 28l-50 -76h-50l64 99c-62.667 46 -94 112.667 -94 200c0 77.333 24.833 138.5 74.5 183.5
s108.834 67.5 177.501 67.5c44 0 84.333 -9.33301 121 -28l51 80h51zM298 437c-55.333 0 -101.832 -17.667 -139.499 -53s-56.5 -83.333 -56.5 -144c0 -66.667 23 -118 69 -154l216 332c-28.667 12.667 -58.334 19 -89.001 19zM206.001 63c28 -13.333 58.333 -20 91 -20
c55.333 0 101.833 17.667 139.5 53s56.5 83.333 56.5 144c0 66 -23.333 118 -70 156z" />
    <glyph glyph-name="ugrave" unicode="&#xf9;" 
d="M447 480l56.998 0.00195312v-480h-52v86c-18.667 -26 -44.167 -48.667 -76.5 -68s-68.833 -29 -109.5 -29c-58.667 0 -105.667 17.667 -141 53s-53 82.666 -53 141.999v296h57v-289c0 -48.667 12.667 -85.834 38 -111.501s60.333 -38.5 105 -38.5
c38.667 0 72.834 10.667 102.501 32s53.834 47.333 72.501 78v329zM343.998 553.002h-63l-98 142h71z" />
    <glyph glyph-name="uacute" unicode="&#xfa;" 
d="M447 480l56.998 0.00195312v-480h-52v86c-18.667 -26 -44.167 -48.667 -76.5 -68s-68.833 -29 -109.5 -29c-58.667 0 -105.667 17.667 -141 53s-53 82.666 -53 141.999v296h57v-289c0 -48.667 12.667 -85.834 38 -111.501s60.333 -38.5 105 -38.5
c38.667 0 72.834 10.667 102.501 32s53.834 47.333 72.501 78v329zM298.998 553.002h-62l90 142h71z" />
    <glyph glyph-name="ucircumflex" unicode="&#xfb;" 
d="M447 480l56.998 0.00195312v-480h-52v86c-18.667 -26 -44.167 -48.667 -76.5 -68s-68.833 -29 -109.5 -29c-58.667 0 -105.667 17.667 -141 53s-53 82.666 -53 141.999v296h57v-289c0 -48.667 12.667 -85.834 38 -111.501s60.333 -38.5 105 -38.5
c38.667 0 72.834 10.667 102.501 32s53.834 47.333 72.501 78v329zM267.998 691.002h51l130 -137h-65l-90 94l-90 -94h-65z" />
    <glyph glyph-name="udieresis" unicode="&#xfc;" 
d="M447 480l56.998 0.00195312v-480h-52v86c-18.667 -26 -44.167 -48.667 -76.5 -68s-68.833 -29 -109.5 -29c-58.667 0 -105.667 17.667 -141 53s-53 82.666 -53 141.999v296h57v-289c0 -48.667 12.667 -85.834 38 -111.501s60.333 -38.5 105 -38.5
c38.667 0 72.834 10.667 102.501 32s53.834 47.333 72.501 78v329zM431.998 616.002c0 -11.333 -4 -21 -12 -29s-17.667 -12 -29 -12s-21.166 4 -29.499 12s-12.5 17.667 -12.5 29s4.16699 21.166 12.5 29.499s18.166 12.5 29.499 12.5s21 -4.16699 29 -12.5
s12 -18.166 12 -29.499zM230.998 616.002c0 -11.333 -4 -21 -12 -29s-17.667 -12 -29 -12s-21.166 4 -29.499 12s-12.5 17.667 -12.5 29s4.16699 21.166 12.5 29.499s18.166 12.5 29.499 12.5s21 -4.16699 29 -12.5s12 -18.166 12 -29.499z" />
    <glyph glyph-name="yacute" unicode="&#xfd;" horiz-adv-x="536" 
d="M278 63l178.999 417h60l-243 -559c-44.667 -101.333 -102 -152 -172 -152c-16 0 -33 2 -51 6v50c14.667 -4 29.334 -6 44.001 -6c28 0 52.5 10 73.5 30s40.167 51 57.5 93l24 56l-236 482h60zM268.999 553h-62l90 142h71z" />
    <glyph glyph-name="thorn" unicode="&#xfe;" horiz-adv-x="618" 
d="M78 700h57v-313c20 30 47 54.833 81 74.5s73.333 29.5 118 29.5c68.667 0 125.667 -23.5 171 -70.5s68 -107.167 68 -180.5s-22.667 -133.5 -68 -180.5s-102.333 -70.5 -171 -70.5c-44.667 0 -84 9.83301 -118 29.5s-61 44.5 -81 74.5v-313h-57v920zM516 240
c0 60 -18.001 108.167 -54.001 144.5s-81 54.5 -135 54.5c-44.667 0 -84.334 -12.833 -119.001 -38.5s-59.334 -57.5 -74.001 -95.5v-130c14.667 -38 39.334 -69.833 74.001 -95.5s74.334 -38.5 119.001 -38.5c54.667 0 99.834 18 135.501 54s53.5 84.333 53.5 145z" />
    <glyph glyph-name="ydieresis" unicode="&#xff;" horiz-adv-x="536" 
d="M278 63l178.999 417h60l-243 -559c-44.667 -101.333 -102 -152 -172 -152c-16 0 -33 2 -51 6v50c14.667 -4 29.334 -6 44.001 -6c28 0 52.5 10 73.5 30s40.167 51 57.5 93l24 56l-236 482h60zM401.999 616c0 -11.333 -4 -21 -12 -29s-17.667 -12 -29 -12
s-21.166 4 -29.499 12s-12.5 17.667 -12.5 29s4.16699 21.166 12.5 29.499s18.166 12.5 29.499 12.5s21 -4.16699 29 -12.5s12 -18.166 12 -29.499zM200.999 616c0 -11.333 -4 -21 -12 -29s-17.667 -12 -29 -12s-21.166 4 -29.499 12s-12.5 17.667 -12.5 29
s4.16699 21.166 12.5 29.499s18.166 12.5 29.499 12.5s21 -4.16699 29 -12.5s12 -18.166 12 -29.499z" />
    <glyph glyph-name="Amacron" unicode="&#x100;" horiz-adv-x="713" 
d="M75 0h-64l312 700h67l311 -700h-64l-83 188h-395zM347 617l-165 -373h348l-165 373c-2 5.33301 -5 12.666 -9 21.999c-4 -9.33301 -7 -16.666 -9 -21.999zM215 847h280v-52h-280v52z" />
    <glyph glyph-name="amacron" unicode="&#x101;" horiz-adv-x="542" 
d="M455 87c0 -28 14.335 -42 43.002 -42c10.667 0 23 2.33301 37 7v-46c-18 -6.66699 -35.333 -10 -52 -10c-50.667 0 -78.334 24.667 -83.001 74c-50 -54 -115.667 -81 -197 -81c-46 0 -85.333 12.167 -118 36.5s-49 59.5 -49 105.5c0 54.667 20.667 94.5 62 119.5
s91.333 37.5 150 37.5c51.333 0 101.666 -7 150.999 -21v32c0 42.667 -13.333 76.667 -40 102s-64.334 38 -113.001 38c-61.333 0 -118.666 -11.333 -171.999 -34v56c56.667 20 116 30 178 30c64 0 113.833 -17.333 149.5 -52s53.5 -83.667 53.5 -147v-205zM94.002 134
c0 -31.333 11.667 -55.167 35 -71.5s51.666 -24.5 84.999 -24.5c36.667 0 71.334 8.16699 104.001 24.5s59.667 39.5 81 69.5v88c-50.667 13.333 -98.334 20 -143.001 20c-45.333 0 -83.666 -8.5 -114.999 -25.5s-47 -43.833 -47 -80.5zM107.002 626.999h280v-52h-280v52z
" />
    <glyph glyph-name="Abreve" unicode="&#x102;" horiz-adv-x="713" 
d="M75 0h-64l312 700h67l311 -700h-64l-83 188h-395zM347 617l-165 -373h348l-165 373c-2 5.33301 -5 12.666 -9 21.999c-4 -9.33301 -7 -16.666 -9 -21.999zM489 815c-37.333 -27.333 -82.001 -41 -134.001 -41c-52.667 0 -97 13.667 -133 41v57
c40 -29.333 84.333 -44 133 -44s93.334 14.667 134.001 44v-57z" />
    <glyph glyph-name="abreve" unicode="&#x103;" horiz-adv-x="542" 
d="M455 87c0 -28 14.335 -42 43.002 -42c10.667 0 23 2.33301 37 7v-46c-18 -6.66699 -35.333 -10 -52 -10c-50.667 0 -78.334 24.667 -83.001 74c-50 -54 -115.667 -81 -197 -81c-46 0 -85.333 12.167 -118 36.5s-49 59.5 -49 105.5c0 54.667 20.667 94.5 62 119.5
s91.333 37.5 150 37.5c51.333 0 101.666 -7 150.999 -21v32c0 42.667 -13.333 76.667 -40 102s-64.334 38 -113.001 38c-61.333 0 -118.666 -11.333 -171.999 -34v56c56.667 20 116 30 178 30c64 0 113.833 -17.333 149.5 -52s53.5 -83.667 53.5 -147v-205zM94.002 134
c0 -31.333 11.667 -55.167 35 -71.5s51.666 -24.5 84.999 -24.5c36.667 0 71.334 8.16699 104.001 24.5s59.667 39.5 81 69.5v88c-50.667 13.333 -98.334 20 -143.001 20c-45.333 0 -83.666 -8.5 -114.999 -25.5s-47 -43.833 -47 -80.5zM381.002 594.999
c-37.333 -27.333 -82.001 -41 -134.001 -41c-52.667 0 -97 13.667 -133 41v57c40 -29.333 84.333 -44 133 -44s93.334 14.667 134.001 44v-57z" />
    <glyph glyph-name="Aogonek" unicode="&#x104;" horiz-adv-x="713" 
d="M598 -140c-0.666992 -14.667 3.66797 -25.8311 13.001 -33.498s22.666 -11.5 39.999 -11.5c22 0 43.667 7 65 21v-46c-22 -14 -48 -21 -78 -21s-53.167 7.66699 -69.5 23s-24.5 35.666 -24.5 60.999c0 46.667 29.667 98.667 89 156l-79 179h-395l-84 -188h-64l312 700h67
l311 -700c-30 -20.667 -54.833 -43.834 -74.5 -69.501s-29.167 -49.167 -28.5 -70.5zM347.002 617.003l-165 -373h349l-166 373c-2 5.33301 -5 12.666 -9 21.999c-4 -9.33301 -7 -16.666 -9 -21.999z" />
    <glyph glyph-name="aogonek" unicode="&#x105;" horiz-adv-x="542" 
d="M535 52l0.00195312 -45.999c-30.667 -20.667 -55.667 -43.334 -75 -68.001s-28.666 -47.334 -27.999 -68.001c-0.666992 -15.333 3.66602 -27.333 12.999 -36s22.666 -13 39.999 -13c16 0 32.333 3.66699 49 11v-45c-17.333 -8.66699 -38 -13 -62 -13
c-29.333 -0.666992 -52.333 7 -69 23s-25 36.333 -25 61c0 46.667 28.667 93.334 86 140.001c-38.667 6 -60 30 -64 72c-50 -54 -115.667 -81 -197 -81c-46 0 -85.333 12.167 -118 36.5s-49 59.5 -49 105.5c0 54.667 20.667 94.5 62 119.5s91.333 37.5 150 37.5
c51.333 0 101.666 -7 150.999 -21v32c0 42.667 -13.333 76.667 -40 102s-64.334 38 -113.001 38c-61.333 0 -118.666 -11.333 -171.999 -34v56c56.667 20 116 30 178 30c64 0 113.833 -17.333 149.5 -52s53.5 -83.667 53.5 -147v-205c0 -28 14.333 -42 43 -42
c10.667 0 23 2.33301 37 7zM214.002 38.001c36.667 0 71.334 8.16602 104.001 24.499s59.667 39.5 81 69.5v88c-50.667 13.333 -98.334 20 -143.001 20c-45.333 0 -83.666 -8.5 -114.999 -25.5s-47 -43.833 -47 -80.5c0 -31.333 11.667 -55.166 35 -71.499
s51.666 -24.5 84.999 -24.5z" />
    <glyph glyph-name="Cacute" unicode="&#x106;" horiz-adv-x="656" 
d="M50 343c0 58.667 10.5 112.001 31.5 160.001s48.833 86.833 83.5 116.5s73.334 52.334 116.001 68.001s87 23.5 133 23.5c73.333 0 138.666 -15.667 195.999 -47v-60c-52.667 34 -115 51 -187 51c-39.333 0 -77.166 -6.5 -113.499 -19.5s-69.666 -31.833 -99.999 -56.5
s-54.5 -57.334 -72.5 -98.001s-27 -86.667 -27 -138c0 -48.667 9.16699 -92.5 27.5 -131.5s42.666 -70.333 72.999 -94s64 -41.667 101 -54s75.167 -18.5 114.5 -18.5c74.667 0 138.334 17 191.001 51v-59c-58.667 -32 -126.334 -48 -203.001 -48
c-44.667 0 -88.334 7.66699 -131.001 23s-81.5 37.166 -116.5 65.499s-63.167 65.5 -84.5 111.5s-32 97.333 -32 154zM409 773.001h-62l90 142h71z" />
    <glyph glyph-name="cacute" unicode="&#x107;" horiz-adv-x="494" 
d="M45 237c0 56 13.166 103.833 39.499 143.5s58.5 68 96.5 85s79 25.5 123 25.5c58.667 0 107 -13 145 -39v-55c-37.333 28 -83.333 42 -138 42c-57.333 0 -106.5 -17 -147.5 -51s-61.5 -84 -61.5 -150c0 -63.333 19.833 -112 59.5 -146s87.5 -51 143.5 -51
c55.333 0 105 13 149 39v-57c-45.333 -22.667 -97.666 -34 -156.999 -34c-68 0 -127 21.333 -177 64s-75 104 -75 184zM309.999 553h-62l90 142h71z" />
    <glyph glyph-name="Cdotaccent" unicode="&#x10a;" horiz-adv-x="656" 
d="M50 343c0 58.667 10.5 112.001 31.5 160.001s48.833 86.833 83.5 116.5s73.334 52.334 116.001 68.001s87 23.5 133 23.5c73.333 0 138.666 -15.667 195.999 -47v-60c-52.667 34 -115 51 -187 51c-39.333 0 -77.166 -6.5 -113.499 -19.5s-69.666 -31.833 -99.999 -56.5
s-54.5 -57.334 -72.5 -98.001s-27 -86.667 -27 -138c0 -48.667 9.16699 -92.5 27.5 -131.5s42.666 -70.333 72.999 -94s64 -41.667 101 -54s75.167 -18.5 114.5 -18.5c74.667 0 138.334 17 191.001 51v-59c-58.667 -32 -126.334 -48 -203.001 -48
c-44.667 0 -88.334 7.66699 -131.001 23s-81.5 37.166 -116.5 65.499s-63.167 65.5 -84.5 111.5s-32 97.333 -32 154zM352 823.001c0 14 4.5 25 13.5 33s20.167 12 33.5 12s24.333 -4 33 -12s13 -19 13 -33c0 -14.667 -4.33301 -26 -13 -34s-19.667 -12 -33 -12
s-24.5 4 -33.5 12s-13.5 19.333 -13.5 34z" />
    <glyph glyph-name="cdotaccent" unicode="&#x10b;" horiz-adv-x="494" 
d="M45 237c0 56 13.166 103.833 39.499 143.5s58.5 68 96.5 85s79 25.5 123 25.5c58.667 0 107 -13 145 -39v-55c-37.333 28 -83.333 42 -138 42c-57.333 0 -106.5 -17 -147.5 -51s-61.5 -84 -61.5 -150c0 -63.333 19.833 -112 59.5 -146s87.5 -51 143.5 -51
c55.333 0 105 13 149 39v-57c-45.333 -22.667 -97.666 -34 -156.999 -34c-68 0 -127 21.333 -177 64s-75 104 -75 184zM252.999 603c0 14 4.5 25 13.5 33s20.167 12 33.5 12s24.333 -4 33 -12s13 -19 13 -33c0 -14.667 -4.33301 -26 -13 -34s-19.667 -12 -33 -12
s-24.5 4 -33.5 12s-13.5 19.333 -13.5 34z" />
    <glyph glyph-name="Ccaron" unicode="&#x10c;" horiz-adv-x="656" 
d="M50 343c0 58.667 10.5 112.001 31.5 160.001s48.833 86.833 83.5 116.5s73.334 52.334 116.001 68.001s87 23.5 133 23.5c73.333 0 138.666 -15.667 195.999 -47v-60c-52.667 34 -115 51 -187 51c-39.333 0 -77.166 -6.5 -113.499 -19.5s-69.666 -31.833 -99.999 -56.5
s-54.5 -57.334 -72.5 -98.001s-27 -86.667 -27 -138c0 -48.667 9.16699 -92.5 27.5 -131.5s42.666 -70.333 72.999 -94s64 -41.667 101 -54s75.167 -18.5 114.5 -18.5c74.667 0 138.334 17 191.001 51v-59c-58.667 -32 -126.334 -48 -203.001 -48
c-44.667 0 -88.334 7.66699 -131.001 23s-81.5 37.166 -116.5 65.499s-63.167 65.5 -84.5 111.5s-32 97.333 -32 154zM559 901.001l-130 -137h-51l-129 137h65l90 -94l90 94h65z" />
    <glyph glyph-name="ccaron" unicode="&#x10d;" horiz-adv-x="494" 
d="M45 237c0 56 13.166 103.833 39.499 143.5s58.5 68 96.5 85s79 25.5 123 25.5c58.667 0 107 -13 145 -39v-55c-37.333 28 -83.333 42 -138 42c-57.333 0 -106.5 -17 -147.5 -51s-61.5 -84 -61.5 -150c0 -63.333 19.833 -112 59.5 -146s87.5 -51 143.5 -51
c55.333 0 105 13 149 39v-57c-45.333 -22.667 -97.666 -34 -156.999 -34c-68 0 -127 21.333 -177 64s-75 104 -75 184zM459.999 681l-130 -137h-51l-129 137h65l90 -94l90 94h65z" />
    <glyph glyph-name="Dcaron" unicode="&#x10e;" horiz-adv-x="735" 
d="M97 700h217c120.667 0 212.667 -32 276 -96s95 -148.667 95 -254s-31.667 -190 -95 -254s-155.333 -96 -276 -96h-217v700zM626 350c0 90.667 -26.5 162.167 -79.5 214.5s-130.167 78.5 -231.5 78.5h-158v-586h158c101.333 0 178.5 26.167 231.5 78.5
s79.5 123.833 79.5 214.5zM498 901l-130 -137h-51l-129 137h65l90 -94l90 94h65z" />
    <glyph glyph-name="dcaron" unicode="&#x10f;" horiz-adv-x="618" 
d="M618 700h56l-25 -172h-49zM484 700h55.999v-700h-51v99c-49.333 -73.333 -117.666 -110 -204.999 -110c-68.667 0 -125.667 23.5 -171 70.5s-68 107.167 -68 180.5s22.667 133.5 68 180.5s102.333 70.5 171 70.5c45.333 0 85 -9.83301 119 -29.5s61 -44.5 81 -74.5v313z
M483.999 305c-14.667 38 -39.333 69.833 -74 95.5s-74.334 38.5 -119.001 38.5c-54.667 0 -99.834 -18 -135.501 -54s-53.5 -84.333 -53.5 -145c0 -60 18 -108.167 54 -144.5s81 -54.5 135 -54.5c44.667 0 84.334 12.833 119.001 38.5s59.334 57.5 74.001 95.5v130z" />
    <glyph glyph-name="Dcroat" unicode="&#x110;" horiz-adv-x="738" 
d="M100 700h217c120.667 0 212.667 -32 276 -96s95 -148.667 95 -254s-31.667 -190 -95 -254s-155.333 -96 -276 -96h-217v322h-81v54h81v324zM160 57h158c101.333 0 178.5 26.167 231.5 78.5s79.5 123.833 79.5 214.5s-26.5 162.167 -79.5 214.5s-130.167 78.5 -231.5 78.5
h-158v-267h224v-54h-224v-265z" />
    <glyph glyph-name="dcroat" unicode="&#x111;" horiz-adv-x="618" 
d="M540 624h70.999v-43h-71v-581h-51v99c-49.333 -73.333 -117.666 -110 -204.999 -110c-68.667 0 -125.667 23.5 -171 70.5s-68 107.167 -68 180.5s22.667 133.5 68 180.5s102.333 70.5 171 70.5c45.333 0 85 -9.83301 119 -29.5s61 -44.5 81 -74.5v194h-185v43h185v76h56
v-76zM290.999 41c44.667 0 84.335 12.833 119.002 38.5s59.334 57.5 74.001 95.5v130c-14.667 38 -39.334 69.833 -74.001 95.5s-74.334 38.5 -119.001 38.5c-54.667 0 -99.834 -18 -135.501 -54s-53.5 -84.333 -53.5 -145c0 -60 18 -108.167 54 -144.5s81 -54.5 135 -54.5z
" />
    <glyph glyph-name="Emacron" unicode="&#x112;" horiz-adv-x="621" 
d="M97 700h465v-57h-406v-262h376v-57h-376v-267h413v-57h-472v700zM194 847h280v-52h-280v52z" />
    <glyph glyph-name="emacron" unicode="&#x113;" horiz-adv-x="548" 
d="M45 240c0 78 23.8301 139.333 71.4971 184s102.834 67 165.501 67c35.333 0 67 -5.5 95 -16.5s50.5 -25.833 67.5 -44.5s31.167 -40 42.5 -64s17.5 -48.833 18.5 -74.5s-0.5 -51.5 -4.5 -77.5h-399c3.33301 -57.333 25.333 -100.5 66 -129.5s90.334 -43.5 149.001 -43.5
c60 0 112.333 13 157 39v-56c-43.333 -23.333 -98.333 -35 -165 -35c-75.333 0 -138.166 21.333 -188.499 64s-75.5 105 -75.5 187zM450.997 264c4.66699 42 -6.50098 81.667 -33.501 119s-70.833 56 -131.5 56c-49.333 0 -91.666 -15.5 -126.999 -46.5
s-54.333 -73.833 -57 -128.5h349zM141.996 627h280v-52h-280v52z" />
    <glyph glyph-name="Edotaccent" unicode="&#x116;" horiz-adv-x="621" 
d="M97 700h465v-57h-406v-262h376v-57h-376v-267h413v-57h-472v700zM285 823c0 14 4.5 25 13.5 33s20.167 12 33.5 12s24.333 -4 33 -12s13 -19 13 -33c0 -14.667 -4.33301 -26 -13 -34s-19.667 -12 -33 -12s-24.5 4 -33.5 12s-13.5 19.333 -13.5 34z" />
    <glyph glyph-name="edotaccent" unicode="&#x117;" horiz-adv-x="548" 
d="M45 240c0 78 23.8301 139.333 71.4971 184s102.834 67 165.501 67c35.333 0 67 -5.5 95 -16.5s50.5 -25.833 67.5 -44.5s31.167 -40 42.5 -64s17.5 -48.833 18.5 -74.5s-0.5 -51.5 -4.5 -77.5h-399c3.33301 -57.333 25.333 -100.5 66 -129.5s90.334 -43.5 149.001 -43.5
c60 0 112.333 13 157 39v-56c-43.333 -23.333 -98.333 -35 -165 -35c-75.333 0 -138.166 21.333 -188.499 64s-75.5 105 -75.5 187zM450.997 264c4.66699 42 -6.50098 81.667 -33.501 119s-70.833 56 -131.5 56c-49.333 0 -91.666 -15.5 -126.999 -46.5
s-54.333 -73.833 -57 -128.5h349zM232.996 603c0 14 4.5 25 13.5 33s20.167 12 33.5 12s24.333 -4 33 -12s13 -19 13 -33c0 -14.667 -4.33301 -26 -13 -34s-19.667 -12 -33 -12s-24.5 4 -33.5 12s-13.5 19.333 -13.5 34z" />
    <glyph glyph-name="Eogonek" unicode="&#x118;" horiz-adv-x="621" 
d="M569 -170l0.000976562 -47.998c-20.667 -9.33301 -43.667 -14 -69 -14c-29.333 -0.666992 -52.333 7 -69 23s-25 36.333 -25 61c0 50.667 31.667 100 95 148h-404v700h465v-57h-406v-262h376v-57h-376v-267h413v-57c-32.667 -20.667 -59.167 -43.334 -79.5 -68.001
s-30.166 -47.334 -29.499 -68.001c-0.666992 -15.333 3.66602 -27.333 12.999 -36s22.666 -13 39.999 -13c19.333 0 38 5 56 15z" />
    <glyph glyph-name="eogonek" unicode="&#x119;" horiz-adv-x="548" 
d="M463 -210c-22 -14 -48.002 -20.998 -78.002 -20.998c-29.333 -0.666992 -52.333 6.83301 -69 22.5s-25 36.167 -25 61.5c0 46.667 32 94.667 96 144c-26.667 -5.33301 -52.667 -8 -78 -8c-75.333 0 -138.166 21.333 -188.499 64s-75.5 105 -75.5 187
c0 78 23.833 139.333 71.5 184s102.834 67 165.501 67c43.333 0 81.5 -8.5 114.5 -25.5s57.333 -38.833 73 -65.5s26.834 -56.334 33.501 -89.001s6 -65 -2 -97h-399c3.33301 -57.333 25.333 -100.5 66 -129.5s90.334 -43.5 149.001 -43.5c60 0 112.333 13 157 39v-56
c-86.667 -65.333 -129.667 -118.666 -129 -159.999c-0.666992 -14.667 3.66602 -26.334 12.999 -35.001s22.666 -13.334 39.999 -14.001c23.333 1.33301 45 8.33301 65 21v-46zM285.998 439.002c-49.333 0 -91.667 -15.5 -127 -46.5s-54.333 -73.833 -57 -128.5h349
c4.66699 42 -6.5 81.667 -33.5 119s-70.833 56 -131.5 56z" />
    <glyph glyph-name="Ecaron" unicode="&#x11a;" horiz-adv-x="621" 
d="M97 700h465v-57h-406v-262h376v-57h-376v-267h413v-57h-472v700zM492 901l-130 -137h-51l-129 137h65l90 -94l90 94h65z" />
    <glyph glyph-name="ecaron" unicode="&#x11b;" horiz-adv-x="548" 
d="M45 240c0 78 23.8301 139.333 71.4971 184s102.834 67 165.501 67c35.333 0 67 -5.5 95 -16.5s50.5 -25.833 67.5 -44.5s31.167 -40 42.5 -64s17.5 -48.833 18.5 -74.5s-0.5 -51.5 -4.5 -77.5h-399c3.33301 -57.333 25.333 -100.5 66 -129.5s90.334 -43.5 149.001 -43.5
c60 0 112.333 13 157 39v-56c-43.333 -23.333 -98.333 -35 -165 -35c-75.333 0 -138.166 21.333 -188.499 64s-75.5 105 -75.5 187zM450.997 264c4.66699 42 -6.50098 81.667 -33.501 119s-70.833 56 -131.5 56c-49.333 0 -91.666 -15.5 -126.999 -46.5
s-54.333 -73.833 -57 -128.5h349zM439.996 681l-130 -137h-51l-129 137h65l90 -94l90 94h65z" />
    <glyph glyph-name="Gbreve" unicode="&#x11e;" horiz-adv-x="707" 
d="M49 350c0 59.333 10.5029 112.499 31.5029 159.499s49.167 84.833 84.5 113.5s74.666 50.5 117.999 65.5s88.666 22.5 135.999 22.5c76.667 0 145.667 -15.333 207 -46v-60c-55.333 33.333 -121.666 50 -198.999 50c-40.667 0 -79.334 -6 -116.001 -18
s-70.334 -29.667 -101.001 -53s-55.167 -55.166 -73.5 -95.499s-27.5 -86.5 -27.5 -138.5c0 -53.333 9.16699 -100.333 27.5 -141s43.166 -72.5 74.499 -95.5s65.5 -40.167 102.5 -51.5s76.167 -17 117.5 -17c56 0 107 10.667 153 32v292h60v-333
c-66.667 -31.333 -139 -47 -217 -47c-49.333 0 -95.833 6.83301 -139.5 20.5s-83.667 34.167 -120 61.5s-65.166 65 -86.499 113s-32 103.333 -32 166zM538.003 814.999c-37.333 -27.333 -82.001 -41 -134.001 -41c-52.667 0 -97 13.667 -133 41v57
c40 -29.333 84.333 -44 133 -44s93.334 14.667 134.001 44v-57z" />
    <glyph glyph-name="gbreve" unicode="&#x11f;" horiz-adv-x="618" 
d="M45 240c0 73.333 22.665 133.501 67.998 180.501s102.333 70.5 171 70.5c87.333 0 155.666 -36.667 204.999 -110v99h51v-480c0 -76.667 -24.833 -134.334 -74.5 -173.001s-110.5 -58 -182.5 -58c-69.333 0 -133.333 15 -192 45v55c58.667 -32 120.334 -48 185.001 -48
c60 0 109.667 14.5 149 43.5s59 74.167 59 135.5v95c-19.333 -31.333 -46.166 -56.833 -80.499 -76.5s-74.166 -29.5 -119.499 -29.5c-68.667 0 -125.667 23.5 -171 70.5s-68 107.167 -68 180.5zM483.998 305.001c-14.667 38 -39.333 69.833 -74 95.5
s-74.334 38.5 -119.001 38.5c-54.667 0 -99.834 -18 -135.501 -54s-53.5 -84.333 -53.5 -145c0 -60 18 -108.167 54 -144.5s81 -54.5 135 -54.5c44.667 0 84.334 12.167 119.001 36.5s59.334 54.5 74.001 90.5v137zM423.999 595.001
c-37.333 -27.333 -82.001 -41 -134.001 -41c-52.667 0 -97 13.667 -133 41v57c40 -29.333 84.333 -44 133 -44s93.334 14.667 134.001 44v-57z" />
    <glyph glyph-name="Gdotaccent" unicode="&#x120;" horiz-adv-x="707" 
d="M49 350c0 59.333 10.5029 112.499 31.5029 159.499s49.167 84.833 84.5 113.5s74.666 50.5 117.999 65.5s88.666 22.5 135.999 22.5c76.667 0 145.667 -15.333 207 -46v-60c-55.333 33.333 -121.666 50 -198.999 50c-40.667 0 -79.334 -6 -116.001 -18
s-70.334 -29.667 -101.001 -53s-55.167 -55.166 -73.5 -95.499s-27.5 -86.5 -27.5 -138.5c0 -53.333 9.16699 -100.333 27.5 -141s43.166 -72.5 74.499 -95.5s65.5 -40.167 102.5 -51.5s76.167 -17 117.5 -17c56 0 107 10.667 153 32v292h60v-333
c-66.667 -31.333 -139 -47 -217 -47c-49.333 0 -95.833 6.83301 -139.5 20.5s-83.667 34.167 -120 61.5s-65.166 65 -86.499 113s-32 103.333 -32 166zM355.003 822.999c0 14 4.5 25 13.5 33s20.167 12 33.5 12s24.333 -4 33 -12s13 -19 13 -33
c0 -14.667 -4.33301 -26 -13 -34s-19.667 -12 -33 -12s-24.5 4 -33.5 12s-13.5 19.333 -13.5 34z" />
    <glyph glyph-name="gdotaccent" unicode="&#x121;" horiz-adv-x="618" 
d="M45 240c0 73.333 22.665 133.501 67.998 180.501s102.333 70.5 171 70.5c87.333 0 155.666 -36.667 204.999 -110v99h51v-480c0 -76.667 -24.833 -134.334 -74.5 -173.001s-110.5 -58 -182.5 -58c-69.333 0 -133.333 15 -192 45v55c58.667 -32 120.334 -48 185.001 -48
c60 0 109.667 14.5 149 43.5s59 74.167 59 135.5v95c-19.333 -31.333 -46.166 -56.833 -80.499 -76.5s-74.166 -29.5 -119.499 -29.5c-68.667 0 -125.667 23.5 -171 70.5s-68 107.167 -68 180.5zM483.998 305.001c-14.667 38 -39.333 69.833 -74 95.5
s-74.334 38.5 -119.001 38.5c-54.667 0 -99.834 -18 -135.501 -54s-53.5 -84.333 -53.5 -145c0 -60 18 -108.167 54 -144.5s81 -54.5 135 -54.5c44.667 0 84.334 12.167 119.001 36.5s59.334 54.5 74.001 90.5v137zM240.999 603.001c0 14 4.5 25 13.5 33s20.167 12 33.5 12
s24.333 -4 33 -12s13 -19 13 -33c0 -14.667 -4.33301 -26 -13 -34s-19.667 -12 -33 -12s-24.5 4 -33.5 12s-13.5 19.333 -13.5 34z" />
    <glyph glyph-name="Gcommaaccent" unicode="&#x122;" horiz-adv-x="707" 
d="M49 350c0 59.333 10.5029 112.499 31.5029 159.499s49.167 84.833 84.5 113.5s74.666 50.5 117.999 65.5s88.666 22.5 135.999 22.5c76.667 0 145.667 -15.333 207 -46v-60c-55.333 33.333 -121.666 50 -198.999 50c-40.667 0 -79.334 -6 -116.001 -18
s-70.334 -29.667 -101.001 -53s-55.167 -55.166 -73.5 -95.499s-27.5 -86.5 -27.5 -138.5c0 -53.333 9.16699 -100.333 27.5 -141s43.166 -72.5 74.499 -95.5s65.5 -40.167 102.5 -51.5s76.167 -17 117.5 -17c56 0 107 10.667 153 32v292h60v-333
c-66.667 -31.333 -139 -47 -217 -47c-49.333 0 -95.833 6.83301 -139.5 20.5s-83.667 34.167 -120 61.5s-65.166 65 -86.499 113s-32 103.333 -32 166zM419.003 -234.001h-50l23 180h57z" />
    <glyph glyph-name="gcommaaccent" unicode="&#x123;" horiz-adv-x="618" 
d="M320 548h-56l28 159h50zM45 240c0 73.333 22.665 133.501 67.998 180.501s102.333 70.5 171 70.5c87.333 0 155.666 -36.667 204.999 -110v99h51v-480c0 -76.667 -24.833 -134.334 -74.5 -173.001s-110.5 -58 -182.5 -58c-69.333 0 -133.333 15 -192 45v55
c58.667 -32 120.334 -48 185.001 -48c60 0 109.667 14.5 149 43.5s59 74.167 59 135.5v95c-19.333 -31.333 -46.166 -56.833 -80.499 -76.5s-74.166 -29.5 -119.499 -29.5c-68.667 0 -125.667 23.5 -171 70.5s-68 107.167 -68 180.5zM483.998 305.001
c-14.667 38 -39.333 69.833 -74 95.5s-74.334 38.5 -119.001 38.5c-54.667 0 -99.834 -18 -135.501 -54s-53.5 -84.333 -53.5 -145c0 -60 18 -108.167 54 -144.5s81 -54.5 135 -54.5c44.667 0 84.334 12.167 119.001 36.5s59.334 54.5 74.001 90.5v137z" />
    <glyph glyph-name="Hbar" unicode="&#x126;" horiz-adv-x="770" 
d="M158 0h-59v510h-76v50h76v140h59v-140h454v140h59v-140h76v-50h-76v-510h-59v323h-454v-323zM158 510v-130h453v130h-453z" />
    <glyph glyph-name="hbar" unicode="&#x127;" 
d="M135 400c19.333 24.667 44.668 46.001 76.001 64.001s66 27 104 27c56.667 0 103.334 -17.833 140.001 -53.5s55 -82.834 55 -141.501v-296h-57v289c0 48 -13.333 85 -40 111s-61.334 39 -104.001 39c-38 0 -71.833 -10.667 -101.5 -32s-53.834 -47.333 -72.501 -78v-329
h-57v573h-66v44h66v83h57v-83h188v-44h-188v-173z" />
    <glyph glyph-name="Imacron" unicode="&#x12a;" horiz-adv-x="253" 
d="M97 700h59v-700h-59v700zM-12 847h280v-52h-280v52z" />
    <glyph glyph-name="imacron" unicode="&#x12b;" horiz-adv-x="219" 
d="M0 635h220v-53h-220v53zM81 480h57v-480h-57v480z" />
    <glyph glyph-name="Iogonek" unicode="&#x12e;" horiz-adv-x="254" 
d="M74 -136c-0.666992 -15.333 3.66797 -27.334 13.001 -36.001s22.666 -13 39.999 -13c22.667 0 44.334 6.66699 65.001 20v-49c-22 -12 -48 -18 -78 -18c-29.333 -0.666992 -52.333 7 -69 23s-25 36.333 -25 61c0 41.333 26 93 78 155v693h59v-700
c-54.667 -55.333 -82.334 -100.666 -83.001 -135.999z" />
    <glyph glyph-name="iogonek" unicode="&#x12f;" horiz-adv-x="219" 
d="M148 626c0 -12.667 -3.66895 -22.167 -11.002 -28.5s-16.666 -9.5 -27.999 -9.5c-10.667 0 -19.834 3.33301 -27.501 10s-11.5 16 -11.5 28c0 11.333 3.83301 20.5 11.5 27.5s16.834 10.5 27.501 10.5s19.834 -3.5 27.501 -10.5s11.5 -16.167 11.5 -27.5zM74.998 -136
c-0.666992 -15.333 3.66699 -27.333 13 -36s22.666 -13 39.999 -13c22.667 0 44.334 6.66699 65.001 20v-50c-20.667 -11.333 -46.667 -17 -78 -17c-29.333 -0.666992 -52.333 7 -69 23s-25 36.333 -25 61c0 42.667 20 92 60 148v480h57v-480
c-42.667 -58.667 -63.667 -104 -63 -136z" />
    <glyph glyph-name="Idotaccent" unicode="&#x130;" horiz-adv-x="253" 
d="M97 700h59v-700h-59v700zM79 823c0 14 4.5 25 13.5 33s20.167 12 33.5 12s24.333 -4 33 -12s13 -19 13 -33c0 -14.667 -4.33301 -26 -13 -34s-19.667 -12 -33 -12s-24.5 4 -33.5 12s-13.5 19.333 -13.5 34z" />
    <glyph glyph-name="dotlessi" unicode="&#x131;" horiz-adv-x="219" 
d="M81 480h57v-480h-57v480z" />
    <glyph glyph-name="IJ" unicode="&#x132;" horiz-adv-x="769" 
d="M97 700h59v-700h-59v700zM403 700h275.001v-508c0 -67.333 -20.333 -117.833 -61 -151.5s-94.334 -50.5 -161.001 -50.5c-74 0 -134 14.333 -180 43v59c45.333 -30 102 -45 170 -45c115.333 0 173 49 173 147v449h-216v57z" />
    <glyph glyph-name="ij" unicode="&#x133;" horiz-adv-x="437" 
d="M138 0h-57v480h57v-480zM147 626c0 -12 -3.66895 -21.333 -11.002 -28s-16.333 -10 -27 -10c-11.333 0 -20.666 3.16699 -27.999 9.5s-11 15.833 -11 28.5c0 11.333 3.83301 20.5 11.5 27.5s16.834 10.5 27.501 10.5s19.667 -3.5 27 -10.5s11 -16.167 11 -27.5z
M355.998 -100c0 -47.333 -12.332 -81 -36.999 -101s-55.334 -30 -92.001 -30c-27.333 0 -51 4 -71 12v53c15.333 -7.33301 34.333 -11 57 -11c58 0 87 28.333 87 85v572h56v-580zM365.999 626c0 -12.667 -3.66895 -22.167 -11.002 -28.5s-16.666 -9.5 -27.999 -9.5
c-10.667 0 -19.834 3.33301 -27.501 10s-11.5 16 -11.5 28c0 11.333 3.83301 20.5 11.5 27.5s16.834 10.5 27.501 10.5s19.834 -3.5 27.501 -10.5s11.5 -16.167 11.5 -27.5z" />
    <glyph glyph-name="Kcommaaccent" unicode="&#x136;" horiz-adv-x="660" 
d="M156 0h-59v700h59v-314h183l226 314h68l-245 -341l269 -359h-69l-247 330h-185v-330zM357 -224h-50l23 180h57z" />
    <glyph glyph-name="kcommaaccent" unicode="&#x137;" horiz-adv-x="509" 
d="M505 0h-67l-195 219h-108v-219h-57v700h57v-428h111l168 208h66l-189 -236zM273 -224h-50l23 180h57z" />
    <glyph glyph-name="Lacute" unicode="&#x139;" horiz-adv-x="577" 
d="M97 700h59v-643h405v-57h-464v700zM141 773h-62l90 142h71z" />
    <glyph glyph-name="lacute" unicode="&#x13a;" horiz-adv-x="219" 
d="M81 730h57v-730h-57v730zM130 776h-62l90 142h71z" />
    <glyph glyph-name="Lcommaaccent" unicode="&#x13b;" horiz-adv-x="577" 
d="M97 700h59v-643h405v-57h-464v700zM329 -224h-50l23 180h57z" />
    <glyph glyph-name="lcommaaccent" unicode="&#x13c;" horiz-adv-x="219" 
d="M81 730h57v-730h-57v730zM111 -224h-50l23 180h57z" />
    <glyph glyph-name="Lcaron" unicode="&#x13d;" horiz-adv-x="577" 
d="M373 700h56l-25 -172h-49zM97 700h59v-643h405v-57h-464v700z" />
    <glyph glyph-name="lcaron" unicode="&#x13e;" horiz-adv-x="219" 
d="M218 730h56l-25 -172h-49zM81 730h57v-730h-57v730z" />
    <glyph glyph-name="Ldot" unicode="&#x13f;" 
d="M396 343c0 -12 -3.83301 -21.5 -11.5 -28.5s-17.167 -10.5 -28.5 -10.5s-20.833 3.5 -28.5 10.5s-11.5 16.5 -11.5 28.5c0 12.667 3.83301 22.334 11.5 29.001s17.167 10 28.5 10s20.833 -3.33301 28.5 -10s11.5 -16.334 11.5 -29.001zM97 700h59v-643h405v-57h-464v700z
" />
    <glyph glyph-name="ldot" unicode="&#x140;" horiz-adv-x="267" 
d="M81 730h57v-730h-57v730zM283 350c0 -12 -3.83301 -21.5 -11.5 -28.5s-17.167 -10.5 -28.5 -10.5s-20.833 3.5 -28.5 10.5s-11.5 16.5 -11.5 28.5s3.83301 21.5 11.5 28.5s17.167 10.5 28.5 10.5s20.833 -3.5 28.5 -10.5s11.5 -16.5 11.5 -28.5z" />
    <glyph glyph-name="Lslash" unicode="&#x141;" horiz-adv-x="583" 
d="M567 0h-464v279l-87 -37v50l87 37v371h59v-348l223 95v-50l-223 -95v-245h405v-57z" />
    <glyph glyph-name="lslash" unicode="&#x142;" horiz-adv-x="262" 
d="M103 730h57v-320l86 37v-50l-86 -38v-359h-57v337l-86 -37v50l86 38v342z" />
    <glyph glyph-name="Nacute" unicode="&#x143;" horiz-adv-x="766" 
d="M156 0h-59v700h54l459 -599v60v539h59v-700h-54l-459 600v-60v-540zM392 773h-62l90 142h71z" />
    <glyph glyph-name="nacute" unicode="&#x144;" 
d="M129 394c18.667 26 44.334 48.668 77.001 68.001s69 29 109 29c56.667 0 103.334 -17.833 140.001 -53.5s55 -82.834 55 -141.501v-296h-57v289c0 48 -13.333 85 -40 111s-61.334 39 -104.001 39c-38 0 -71.833 -10.667 -101.5 -32s-53.834 -47.333 -72.501 -78v-329h-57
v480h51v-86zM300 553.001h-62l90 142h71z" />
    <glyph glyph-name="Ncommaaccent" unicode="&#x145;" horiz-adv-x="766" 
d="M156 0h-59v700h54l459 -599v60v539h59v-700h-54l-459 600v-60v-540zM394 -224h-50l23 180h57z" />
    <glyph glyph-name="ncommaaccent" unicode="&#x146;" 
d="M129 394c18.667 26 44.334 48.668 77.001 68.001s69 29 109 29c56.667 0 103.334 -17.833 140.001 -53.5s55 -82.834 55 -141.501v-296h-57v289c0 48 -13.333 85 -40 111s-61.334 39 -104.001 39c-38 0 -71.833 -10.667 -101.5 -32s-53.834 -47.333 -72.501 -78v-329h-57
v480h51v-86zM298 -223.999h-50l23 180h57z" />
    <glyph glyph-name="Ncaron" unicode="&#x147;" horiz-adv-x="766" 
d="M156 0h-59v700h54l459 -599v60v539h59v-700h-54l-459 600v-60v-540zM542 901l-130 -137h-51l-129 137h65l90 -94l90 94h65z" />
    <glyph glyph-name="ncaron" unicode="&#x148;" 
d="M129 394c18.667 26 44.334 48.668 77.001 68.001s69 29 109 29c56.667 0 103.334 -17.833 140.001 -53.5s55 -82.834 55 -141.501v-296h-57v289c0 48 -13.333 85 -40 111s-61.334 39 -104.001 39c-38 0 -71.833 -10.667 -101.5 -32s-53.834 -47.333 -72.501 -78v-329h-57
v480h51v-86zM450 681.001l-130 -137h-51l-129 137h65l90 -94l90 94h65z" />
    <glyph glyph-name="Eng" unicode="&#x14a;" horiz-adv-x="766" 
d="M669 -95c0 -46 -12.332 -80 -36.999 -102s-56.334 -33 -95.001 -33c-23.333 0 -47 3.66699 -71 11v55c16.667 -6 36 -9 58 -9c57.333 0 86 28.333 86 85v95l-454 593v-60v-540h-59v700h54l459 -599v60v539h59v-795z" />
    <glyph glyph-name="eng" unicode="&#x14b;" 
d="M510 -100c0 -47.333 -12.5 -80.999 -37.5 -100.999s-55.5 -30 -91.5 -30c-28 0 -52 4 -72 12v53c18.667 -8.66699 37.667 -13 57 -13c58 0 87 29 87 87v381c0 48 -13.333 85 -40 111s-61.334 39 -104.001 39c-38 0 -71.833 -10.667 -101.5 -32
s-53.834 -47.333 -72.501 -78v-329h-57v480h51v-86c18.667 26 44.334 48.667 77.001 68s69 29 109 29c56.667 0 103.334 -17.833 140.001 -53.5s55 -82.834 55 -141.501v-396z" />
    <glyph glyph-name="Omacron" unicode="&#x14c;" horiz-adv-x="824" 
d="M48 350c0 45.333 7.66699 89.166 23 131.499s37.666 80.833 66.999 115.5s67.666 62.334 114.999 83.001s100.333 31 159 31s111.667 -10.333 159 -31s85.666 -48.334 114.999 -83.001s51.666 -73.167 66.999 -115.5s23 -86.166 23 -131.499
s-7.66699 -89.166 -23 -131.499s-37.666 -80.833 -66.999 -115.5s-67.666 -62.334 -114.999 -83.001s-100.333 -31 -159 -31s-111.667 10.333 -159 31s-85.666 48.334 -114.999 83.001s-51.666 73.167 -66.999 115.5s-23 86.166 -23 131.499zM716 350
c0 52.667 -10.667 101.5 -32 146.5s-55.666 82.667 -102.999 113s-103.666 45.5 -168.999 45.5s-121.666 -15.167 -168.999 -45.5s-81.666 -68 -102.999 -113s-32 -93.833 -32 -146.5s10.667 -101.5 32 -146.5s55.666 -82.667 102.999 -113s103.666 -45.5 168.999 -45.5
s121.666 15.167 168.999 45.5s81.666 68 102.999 113s32 93.833 32 146.5zM272 847h280v-52h-280v52z" />
    <glyph glyph-name="omacron" unicode="&#x14d;" horiz-adv-x="595" 
d="M45 240c0 77.333 24.833 138.5 74.5 183.5s108.834 67.5 177.501 67.5c69.333 0 128.833 -22.5 178.5 -67.5s74.5 -106.167 74.5 -183.5s-24.833 -138.5 -74.5 -183.5s-109.167 -67.5 -178.5 -67.5c-68.667 0 -127.834 22.5 -177.501 67.5s-74.5 106.167 -74.5 183.5z
M493 240c0 60.667 -18.667 108.667 -56 144s-83.666 53 -138.999 53s-101.833 -17.667 -139.5 -53s-56.5 -83.333 -56.5 -144s18.833 -108.667 56.5 -144s84.167 -53 139.5 -53s101.666 17.667 138.999 53s56 83.333 56 144zM157 624h280v-52h-280v52z" />
    <glyph glyph-name="Ohungarumlaut" unicode="&#x150;" horiz-adv-x="824" 
d="M48 350c0 45.333 7.66699 89.166 23 131.499s37.666 80.833 66.999 115.5s67.666 62.334 114.999 83.001s100.333 31 159 31s111.667 -10.333 159 -31s85.666 -48.334 114.999 -83.001s51.666 -73.167 66.999 -115.5s23 -86.166 23 -131.499
s-7.66699 -89.166 -23 -131.499s-37.666 -80.833 -66.999 -115.5s-67.666 -62.334 -114.999 -83.001s-100.333 -31 -159 -31s-111.667 10.333 -159 31s-85.666 48.334 -114.999 83.001s-51.666 73.167 -66.999 115.5s-23 86.166 -23 131.499zM716 350
c0 52.667 -10.667 101.5 -32 146.5s-55.666 82.667 -102.999 113s-103.666 45.5 -168.999 45.5s-121.666 -15.167 -168.999 -45.5s-81.666 -68 -102.999 -113s-32 -93.833 -32 -146.5s10.667 -101.5 32 -146.5s55.666 -82.667 102.999 -113s103.666 -45.5 168.999 -45.5
s121.666 15.167 168.999 45.5s81.666 68 102.999 113s32 93.833 32 146.5zM514 779h-61l72 145h64zM361 779h-61l72 145h64z" />
    <glyph glyph-name="ohungarumlaut" unicode="&#x151;" horiz-adv-x="595" 
d="M45 240c0 77.333 24.833 138.5 74.5 183.5s108.834 67.5 177.501 67.5c69.333 0 128.833 -22.5 178.5 -67.5s74.5 -106.167 74.5 -183.5s-24.833 -138.5 -74.5 -183.5s-109.167 -67.5 -178.5 -67.5c-68.667 0 -127.834 22.5 -177.501 67.5s-74.5 106.167 -74.5 183.5z
M493 240c0 60.667 -18.667 108.667 -56 144s-83.666 53 -138.999 53s-101.833 -17.667 -139.5 -53s-56.5 -83.333 -56.5 -144s18.833 -108.667 56.5 -144s84.167 -53 139.5 -53s101.666 17.667 138.999 53s56 83.333 56 144zM399 556h-61l72 145h64zM246 556h-61l72 145h64z
" />
    <glyph glyph-name="OE" unicode="&#x152;" horiz-adv-x="1027" 
d="M534 0c-32.667 -7.33301 -73.334 -11 -122.001 -11c-58.667 0 -111.667 10.333 -159 31s-85.666 48.334 -114.999 83.001s-51.666 73.167 -66.999 115.5s-23 86.166 -23 131.499s7.66699 89.166 23 131.499s37.666 80.833 66.999 115.5s67.666 62.334 114.999 83.001
s100.333 31 159 31c48.667 0 89.334 -3.66699 122.001 -11h435v-57h-376v-262h346v-57h-346v-267h382v-57h-441zM110 350c0 -84.667 27.333 -156.667 82 -216s129.334 -89 224.001 -89c43.333 0 83 4.66699 119 14v582c-36 9.33301 -75.667 14 -119 14
c-94.667 0 -169.334 -29.667 -224.001 -89s-82 -131.333 -82 -216z" />
    <glyph glyph-name="oe" unicode="&#x153;" horiz-adv-x="987" 
d="M517 130c-19.333 -45.333 -48.835 -80.1699 -88.502 -104.503s-84.167 -36.5 -133.5 -36.5c-68.667 0 -127.5 22.5 -176.5 67.5s-73.5 106.167 -73.5 183.5s24.5 138.5 73.5 183.5s107.833 67.5 176.5 67.5c50 0 94.833 -12.333 134.5 -37
s68.834 -59.334 87.501 -104.001c18 44.667 46 79.334 84 104.001s79 37 123 37c34.667 0 66 -5.66699 94 -17s50.333 -26.333 67 -45s30.5 -40.167 41.5 -64.5s17 -49.666 18 -75.999s-0.5 -52.833 -4.5 -79.5h-394c4 -55.333 26.333 -97.166 67 -125.499
s89 -42.5 145 -42.5c56.667 0 107.334 13 152.001 39v-53c-43.333 -25.333 -98 -38 -164 -38c-50.667 0 -97 11.833 -139 35.5s-72 58.834 -90 105.501zM101.998 239.996c0 -60.667 18.333 -108.667 55 -144s83 -53 139 -53c55.333 0 101.333 17.667 138 53
s55 83.333 55 144s-18.333 108.667 -55 144s-82.667 53 -138 53c-56 0 -102.333 -17.667 -139 -53s-55 -83.333 -55 -144zM726.998 438.996c-48.667 0 -90.333 -15.832 -125 -47.499s-53.334 -75.834 -56.001 -132.501h344c4.66699 44 -6.16602 85 -32.499 123
s-69.833 57 -130.5 57z" />
    <glyph glyph-name="Racute" unicode="&#x154;" horiz-adv-x="690" 
d="M156 0l-59.001 -0.00195312v700h269c32.667 0 63.334 -3.66699 92.001 -11s55.667 -18.666 81 -33.999s45.5 -37 60.5 -65s22.5 -60.667 22.5 -98c0 -62 -19.333 -109.667 -58 -143s-86.667 -53.666 -144 -60.999l249 -288h-74l-244 283h-195v-283zM156.999 642.998
l0.000976562 -303h213c53.333 0 98.666 12 135.999 36s56 62.667 56 116s-18.5 91.833 -55.5 115.5s-82.5 35.5 -136.5 35.5h-213zM346 772.998h-62l90 142h71z" />
    <glyph glyph-name="racute" unicode="&#x155;" horiz-adv-x="354" 
d="M129 369c18 36.667 46.334 66.668 85.001 90.001s81 33.666 127 30.999v-57c-50.667 4 -94.334 -7.5 -131.001 -34.5s-61.667 -62.167 -75 -105.5v-293h-57v480h51v-111zM207.001 553.001h-62l90 142h71z" />
    <glyph glyph-name="Rcommaaccent" unicode="&#x156;" horiz-adv-x="690" 
d="M156 0l-59.001 -0.00195312v700h269c32.667 0 63.334 -3.66699 92.001 -11s55.667 -18.666 81 -33.999s45.5 -37 60.5 -65s22.5 -60.667 22.5 -98c0 -62 -19.333 -109.667 -58 -143s-86.667 -53.666 -144 -60.999l249 -288h-74l-244 283h-195v-283zM156.999 642.998
l0.000976562 -303h213c53.333 0 98.666 12 135.999 36s56 62.667 56 116s-18.5 91.833 -55.5 115.5s-82.5 35.5 -136.5 35.5h-213zM359 -224.002h-50l23 180h57z" />
    <glyph glyph-name="rcommaaccent" unicode="&#x157;" horiz-adv-x="354" 
d="M129 369c18 36.667 46.334 66.668 85.001 90.001s81 33.666 127 30.999v-57c-50.667 4 -94.334 -7.5 -131.001 -34.5s-61.667 -62.167 -75 -105.5v-293h-57v480h51v-111zM104.001 -223.999h-50l23 180h57z" />
    <glyph glyph-name="Rcaron" unicode="&#x158;" horiz-adv-x="690" 
d="M156 0l-59.001 -0.00195312v700h269c32.667 0 63.334 -3.66699 92.001 -11s55.667 -18.666 81 -33.999s45.5 -37 60.5 -65s22.5 -60.667 22.5 -98c0 -62 -19.333 -109.667 -58 -143s-86.667 -53.666 -144 -60.999l249 -288h-74l-244 283h-195v-283zM156.999 642.998
l0.000976562 -303h213c53.333 0 98.666 12 135.999 36s56 62.667 56 116s-18.5 91.833 -55.5 115.5s-82.5 35.5 -136.5 35.5h-213zM496 900.998l-130 -137h-51l-129 137h65l90 -94l90 94h65z" />
    <glyph glyph-name="rcaron" unicode="&#x159;" horiz-adv-x="354" 
d="M129 369c18 36.667 46.334 66.668 85.001 90.001s81 33.666 127 30.999v-57c-50.667 4 -94.334 -7.5 -131.001 -34.5s-61.667 -62.167 -75 -105.5v-293h-57v480h51v-111zM357.001 681.001l-130 -137h-51l-129 137h65l90 -94l90 94h65z" />
    <glyph glyph-name="Sacute" unicode="&#x15a;" horiz-adv-x="577" 
d="M54 533c0 57.333 22.3311 101.336 66.998 132.003s99.334 46 164.001 46c80.667 0 149.334 -16.333 206.001 -49v-60c-56 35.333 -123.333 53 -202 53c-51.333 0 -93.333 -9.83301 -126 -29.5s-49 -49.834 -49 -90.501c0 -26.667 7.83301 -49.5 23.5 -68.5
s36 -34.333 61 -46s52.667 -22.334 83 -32.001s60.666 -20 90.999 -31s58 -23.833 83 -38.5s45.333 -34.667 61 -60s23.5 -55 23.5 -89c0 -42 -12 -77 -36 -105s-54 -47.833 -90 -59.5s-76.667 -17.167 -122 -16.5c-88 0 -167.667 19.667 -239 59v59
c70.667 -41.333 149 -62 235 -62c56.667 0 102.834 9.66699 138.501 29s53.5 50 53.5 92c0 28 -7.83301 52.167 -23.5 72.5s-36 36.5 -61 48.5s-52.667 23 -83 33l-91 31.5c-30.333 11 -58 23.5 -83 37.5s-45.333 33.167 -61 57.5s-23.5 53.166 -23.5 86.499z
M285.998 773.003h-62l90 142h71z" />
    <glyph glyph-name="sacute" unicode="&#x15b;" horiz-adv-x="461" 
d="M50 360c0 44 17.3311 76.8359 51.998 98.5029s76 32.5 124 32.5c62.667 0 118.334 -13.667 167.001 -41v-54c-46 29.333 -100.333 44 -163 44c-34 0 -63 -6.5 -87 -19.5s-36 -32.833 -36 -59.5c0 -22.667 10.833 -41.334 32.5 -56.001s48.167 -26.167 79.5 -34.5
s62.5 -17.333 93.5 -27s57.333 -24.834 79 -45.501s32.5 -47 32.5 -79c0 -44.667 -18 -77.5 -54 -98.5s-81.333 -31.5 -136 -31.5c-76 0 -137.667 15.667 -185 47v56c50.667 -34 111.334 -51 182.001 -51c90.667 0 136 25.333 136 76c0 22.667 -10.833 41.167 -32.5 55.5
s-48.167 25.666 -79.5 33.999s-62.5 17.5 -93.5 27.5s-57.333 25.5 -79 46.5s-32.5 47.5 -32.5 79.5zM231.998 553.003h-62l90 142h71z" />
    <glyph glyph-name="Scedilla" unicode="&#x15e;" horiz-adv-x="576" 
d="M114 535c0 -26.667 7.83105 -49.4971 23.498 -68.4971s36 -34.333 61 -46s52.667 -22.334 83 -32.001s60.666 -20 90.999 -31s58 -23.833 83 -38.5s45.333 -34.667 61 -60s23.5 -55 23.5 -89c0 -56.667 -20.167 -99.834 -60.5 -129.501s-92.166 -46.5 -155.499 -50.5
l-16 -64c32 4 58.5 -0.166992 79.5 -12.5s31.833 -31.166 32.5 -56.499c0.666992 -28 -10 -49.667 -32 -65s-52.667 -23 -92 -23c-36.667 0 -69.334 6.66699 -98.001 20v49c27.333 -15.333 58 -23 92 -23c54 0 81 14.667 81 44c0 16.667 -13 27.667 -39 33
s-53 4.33301 -81 -3l23 100c-81.333 2 -155 21.667 -221 59v59c70.667 -41.333 149 -62 235 -62c56.667 0 102.834 9.66699 138.501 29s53.5 50 53.5 92c0 28 -7.83301 52.167 -23.5 72.5s-36 36.5 -61 48.5s-52.667 23 -83 33l-91 31.5c-30.333 11 -58 23.5 -83 37.5
s-45.333 33.167 -61 57.5s-23.5 53.166 -23.5 86.499c0 57.333 22.333 101.333 67 132s99.334 46 164.001 46c80.667 0 149.334 -16.333 206.001 -49v-60c-56 35.333 -123.333 53 -202 53c-51.333 0 -93.333 -9.83301 -126 -29.5s-49 -49.834 -49 -90.501z" />
    <glyph glyph-name="scedilla" unicode="&#x15f;" horiz-adv-x="461" 
d="M107 361c0 -22.667 10.8311 -41.332 32.498 -55.999s48.167 -26.167 79.5 -34.5s62.5 -17.333 93.5 -27s57.333 -24.834 79 -45.501s32.5 -47 32.5 -79c0 -40 -14.667 -70.5 -44 -91.5s-67.666 -33.5 -114.999 -37.5l-14 -64c32 4 58.5 -0.166992 79.5 -12.5
s31.833 -31.166 32.5 -56.499c0.666992 -28 -10 -49.667 -32 -65s-52.667 -23 -92 -23c-36.667 0 -69.334 6.66699 -98.001 20v49c27.333 -15.333 58 -23 92 -23c54 0 81 14.667 81 44c0 16.667 -13 27.667 -39 33s-53 4.33301 -81 -3l22 100
c-68 3.33301 -123.667 19 -167 47v56c50.667 -34 111.334 -51 182.001 -51c90.667 0 136 25.333 136 76c0 22.667 -10.833 41.167 -32.5 55.5s-48.167 25.666 -79.5 33.999s-62.5 17.5 -93.5 27.5s-57.333 25.5 -79 46.5s-32.5 47.5 -32.5 79.5c0 44 17.333 76.833 52 98.5
s76 32.5 124 32.5c62.667 0 118.334 -13.667 167.001 -41v-54c-46 29.333 -100.333 44 -163 44c-34 0 -63 -6.5 -87 -19.5s-36 -32.833 -36 -59.5z" />
    <glyph glyph-name="Scaron" unicode="&#x160;" horiz-adv-x="577" 
d="M54 533c0 57.333 22.3311 101.336 66.998 132.003s99.334 46 164.001 46c80.667 0 149.334 -16.333 206.001 -49v-60c-56 35.333 -123.333 53 -202 53c-51.333 0 -93.333 -9.83301 -126 -29.5s-49 -49.834 -49 -90.501c0 -26.667 7.83301 -49.5 23.5 -68.5
s36 -34.333 61 -46s52.667 -22.334 83 -32.001s60.666 -20 90.999 -31s58 -23.833 83 -38.5s45.333 -34.667 61 -60s23.5 -55 23.5 -89c0 -42 -12 -77 -36 -105s-54 -47.833 -90 -59.5s-76.667 -17.167 -122 -16.5c-88 0 -167.667 19.667 -239 59v59
c70.667 -41.333 149 -62 235 -62c56.667 0 102.834 9.66699 138.501 29s53.5 50 53.5 92c0 28 -7.83301 52.167 -23.5 72.5s-36 36.5 -61 48.5s-52.667 23 -83 33l-91 31.5c-30.333 11 -58 23.5 -83 37.5s-45.333 33.167 -61 57.5s-23.5 53.166 -23.5 86.499z
M435.998 901.003l-130 -137h-51l-129 137h65l90 -94l90 94h65z" />
    <glyph glyph-name="scaron" unicode="&#x161;" horiz-adv-x="461" 
d="M50 360c0 44 17.3311 76.8359 51.998 98.5029s76 32.5 124 32.5c62.667 0 118.334 -13.667 167.001 -41v-54c-46 29.333 -100.333 44 -163 44c-34 0 -63 -6.5 -87 -19.5s-36 -32.833 -36 -59.5c0 -22.667 10.833 -41.334 32.5 -56.001s48.167 -26.167 79.5 -34.5
s62.5 -17.333 93.5 -27s57.333 -24.834 79 -45.501s32.5 -47 32.5 -79c0 -44.667 -18 -77.5 -54 -98.5s-81.333 -31.5 -136 -31.5c-76 0 -137.667 15.667 -185 47v56c50.667 -34 111.334 -51 182.001 -51c90.667 0 136 25.333 136 76c0 22.667 -10.833 41.167 -32.5 55.5
s-48.167 25.666 -79.5 33.999s-62.5 17.5 -93.5 27.5s-57.333 25.5 -79 46.5s-32.5 47.5 -32.5 79.5zM381.998 681.003l-130 -137h-51l-129 137h65l90 -94l90 94h65z" />
    <glyph glyph-name="Tcommaaccent" unicode="&#x162;" horiz-adv-x="599" 
d="M14 700h571v-57h-256v-643h-59v643h-256v57zM300 -224h-50l23 180h57z" />
    <glyph glyph-name="tcommaaccent" unicode="&#x163;" horiz-adv-x="393" 
d="M106 633l56 15v-168h201v-53h-201v-278c0 -37.333 9 -64.333 27 -81s46 -25 84 -25c36 0 71 7.33301 105 22v-52c-35.333 -15.333 -75.333 -23 -120 -23c-47.333 0 -84.5 12.667 -111.5 38s-40.5 62.333 -40.5 111v288h-90v53h90v153zM244 -224h-50l23 180h57z" />
    <glyph glyph-name="Tcaron" unicode="&#x164;" horiz-adv-x="599" 
d="M14 700h571v-57h-256v-643h-59v643h-256v57zM460 901l-130 -137h-51l-129 137h65l90 -94l90 94h65z" />
    <glyph glyph-name="tcaron" unicode="&#x165;" horiz-adv-x="393" 
d="M263 730h56l-25 -166h-49zM106 633l56 15v-168h201v-53h-201v-278c0 -37.333 9 -64.333 27 -81s46 -25 84 -25c36 0 71 7.33301 105 22v-52c-35.333 -15.333 -75.333 -23 -120 -23c-47.333 0 -84.5 12.667 -111.5 38s-40.5 62.333 -40.5 111v288h-90v53h90v153z" />
    <glyph glyph-name="Tbar" unicode="&#x166;" horiz-adv-x="609" 
d="M334 0h-59v327h-128v50h128v266h-256v57h571v-57h-256v-266h128v-50h-128v-327z" />
    <glyph glyph-name="tbar" unicode="&#x167;" horiz-adv-x="393" 
d="M162 149c0 -37.333 9 -64.333 27 -81s46 -25 84 -25c36 0 71 7.33301 105 22v-52c-35.333 -15.333 -75.333 -23 -120 -23c-47.333 0 -84.5 12.667 -111.5 38s-40.5 62.333 -40.5 111v112h-51v50h51v126h-90v53h90v153l56 15v-168h201v-53h-201v-126h161v-50h-161v-102z
" />
    <glyph glyph-name="Umacron" unicode="&#x16a;" horiz-adv-x="751" 
d="M603 700h59v-450c0 -91.333 -26.333 -157.666 -79 -198.999s-121.667 -62 -207 -62c-40.667 0 -77.667 4.66699 -111 14s-63.5 23.666 -90.5 42.999s-48 46.333 -63 81s-22.5 75.667 -22.5 123v450h59v-448c0 -138 76 -207 228 -207c151.333 0 227 69 227 207v448z
M235 847h280v-52h-280v52z" />
    <glyph glyph-name="umacron" unicode="&#x16b;" 
d="M447 480l56.998 0.00195312v-480h-52v86c-18.667 -26 -44.167 -48.667 -76.5 -68s-68.833 -29 -109.5 -29c-58.667 0 -105.667 17.667 -141 53s-53 82.666 -53 141.999v296h57v-289c0 -48.667 12.667 -85.834 38 -111.501s60.333 -38.5 105 -38.5
c38.667 0 72.834 10.667 102.501 32s53.834 47.333 72.501 78v329zM150.998 627.002h280v-52h-280v52z" />
    <glyph glyph-name="Uring" unicode="&#x16e;" horiz-adv-x="751" 
d="M603 700h59v-450c0 -91.333 -26.333 -157.666 -79 -198.999s-121.667 -62 -207 -62c-40.667 0 -77.667 4.66699 -111 14s-63.5 23.666 -90.5 42.999s-48 46.333 -63 81s-22.5 75.667 -22.5 123v450h59v-448c0 -138 76 -207 228 -207c151.333 0 227 69 227 207v448z
M476 849c0 -29.333 -9.99902 -53.166 -29.999 -71.499s-44 -27.5 -72 -27.5s-52.167 9.16699 -72.5 27.5s-30.5 42.166 -30.5 71.499c0 28.667 10.167 52 30.5 70s44.5 27 72.5 27c27.333 0 51.166 -9 71.499 -27s30.5 -41.333 30.5 -70zM315.001 848
c0 -18 5.83301 -32.167 17.5 -42.5s25.5 -15.5 41.5 -15.5s29.833 5.16699 41.5 15.5s17.5 24.5 17.5 42.5c0 17.333 -5.83301 31.333 -17.5 42s-25.5 16 -41.5 16s-29.833 -5.33301 -41.5 -16s-17.5 -24.667 -17.5 -42z" />
    <glyph glyph-name="uring" unicode="&#x16f;" 
d="M447 480l56.998 0.00195312v-480h-52v86c-18.667 -26 -44.167 -48.667 -76.5 -68s-68.833 -29 -109.5 -29c-58.667 0 -105.667 17.667 -141 53s-53 82.666 -53 141.999v296h57v-289c0 -48.667 12.667 -85.834 38 -111.501s60.333 -38.5 105 -38.5
c38.667 0 72.834 10.667 102.501 32s53.834 47.333 72.501 78v329zM391.998 629.002c0 -29.333 -9.99902 -53.166 -29.999 -71.499s-44 -27.5 -72 -27.5s-52.167 9.16699 -72.5 27.5s-30.5 42.166 -30.5 71.499c0 28.667 10.167 52 30.5 70s44.5 27 72.5 27
c27.333 0 51.166 -9 71.499 -27s30.5 -41.333 30.5 -70zM230.999 628.002c0 -18 5.83301 -32.167 17.5 -42.5s25.5 -15.5 41.5 -15.5s29.833 5.16699 41.5 15.5s17.5 24.5 17.5 42.5c0 17.333 -5.83301 31.333 -17.5 42s-25.5 16 -41.5 16s-29.833 -5.33301 -41.5 -16
s-17.5 -24.667 -17.5 -42z" />
    <glyph glyph-name="Uhungarumlaut" unicode="&#x170;" horiz-adv-x="751" 
d="M603 700h59v-450c0 -91.333 -26.333 -157.666 -79 -198.999s-121.667 -62 -207 -62c-40.667 0 -77.667 4.66699 -111 14s-63.5 23.666 -90.5 42.999s-48 46.333 -63 81s-22.5 75.667 -22.5 123v450h59v-448c0 -138 76 -207 228 -207c151.333 0 227 69 227 207v448z
M477 779h-61l72 145h64zM324 779h-61l72 145h64z" />
    <glyph glyph-name="uhungarumlaut" unicode="&#x171;" 
d="M447 480l56.998 0.00195312v-480h-52v86c-18.667 -26 -44.167 -48.667 -76.5 -68s-68.833 -29 -109.5 -29c-58.667 0 -105.667 17.667 -141 53s-53 82.666 -53 141.999v296h57v-289c0 -48.667 12.667 -85.834 38 -111.501s60.333 -38.5 105 -38.5
c38.667 0 72.834 10.667 102.501 32s53.834 47.333 72.501 78v329zM392.998 559.002h-61l72 145h64zM239.998 559.002h-61l72 145h64z" />
    <glyph glyph-name="Uogonek" unicode="&#x172;" horiz-adv-x="751" 
d="M558 -211c-22 -14 -47.999 -20.998 -77.999 -20.998c-29.333 -0.666992 -52.333 7 -69 23s-25 36.333 -25 61c0 22 7 46.5 21 73.5s32.333 51.5 55 73.5c-24.667 -6.66699 -53.334 -10 -86.001 -10c-40.667 0 -77.667 4.66699 -111 14s-63.5 23.666 -90.5 42.999
s-48 46.333 -63 81s-22.5 75.667 -22.5 123v450h59v-448c0 -138 76 -207 228 -207c151.333 0 227 69 227 207v448h59v-450c0 -96.667 -32 -167.334 -96 -212.001c-41.333 -28.667 -72.666 -59 -93.999 -91s-32 -59.667 -32 -83c0 -15.333 4.66699 -27.333 14 -36
s22.666 -13 39.999 -13c22 0 43.333 6.66699 64 20v-46z" />
    <glyph glyph-name="uogonek" unicode="&#x173;" 
d="M504 480l-0.00195312 -479.997c-30 -20 -54.333 -42.667 -73 -68s-27.667 -48.333 -27 -69c-0.666992 -14.667 3.5 -26.334 12.5 -35.001s21.5 -13 37.5 -13c17.333 0 34 4 50 12v-47c-20 -7.33301 -41 -11 -63 -11c-28.667 0 -51 7.5 -67 22.5s-24 34.833 -24 59.5
c0 49.333 34 105 102 167v68c-18.667 -26 -44.167 -48.667 -76.5 -68s-68.833 -29 -109.5 -29c-58.667 0 -105.667 17.667 -141 53s-53 82.666 -53 141.999v296h57v-289c0 -48.667 12.667 -85.834 38 -111.501s60.333 -38.5 105 -38.5c38.667 0 72.834 10.667 102.501 32
s53.834 47.333 72.501 78v329h57z" />
    <glyph glyph-name="Wcircumflex" unicode="&#x174;" horiz-adv-x="1004" 
d="M917 700h65l-222 -700h-66l-192 598l-193 -598h-65l-222 700h65l190 -626l198 623h54l198 -623zM479 911h51l130 -137h-65l-90 94l-90 -94h-65z" />
    <glyph glyph-name="wcircumflex" unicode="&#x175;" horiz-adv-x="801" 
d="M718 480h60l-173 -480h-61l-144 400l-144 -400h-60l-173 480h60l143 -416l148 413h52l148 -413zM377 691h51l130 -137h-65l-90 94l-90 -94h-65z" />
    <glyph glyph-name="Ycircumflex" unicode="&#x176;" horiz-adv-x="644" 
d="M352 0h-60v273l-275 427h66l239 -373l239 373h66l-275 -427v-273zM300 911h51l130 -137h-65l-90 94l-90 -94h-65z" />
    <glyph glyph-name="ycircumflex" unicode="&#x177;" horiz-adv-x="536" 
d="M278 63l178.999 417h60l-243 -559c-44.667 -101.333 -102 -152 -172 -152c-16 0 -33 2 -51 6v50c14.667 -4 29.334 -6 44.001 -6c28 0 52.5 10 73.5 30s40.167 51 57.5 93l24 56l-236 482h60zM237.999 691h51l130 -137h-65l-90 94l-90 -94h-65z" />
    <glyph glyph-name="Ydieresis" unicode="&#x178;" horiz-adv-x="644" 
d="M352 0h-60v273l-275 427h66l239 -373l239 373h66l-275 -427v-273zM464 836c0 -11.333 -4 -21 -12 -29s-17.667 -12 -29 -12s-21.166 4 -29.499 12s-12.5 17.667 -12.5 29s4.16699 21.166 12.5 29.499s18.166 12.5 29.499 12.5s21 -4.16699 29 -12.5
s12 -18.166 12 -29.499zM263 836c0 -11.333 -4 -21 -12 -29s-17.667 -12 -29 -12s-21.166 4 -29.499 12s-12.5 17.667 -12.5 29s4.16699 21.166 12.5 29.499s18.166 12.5 29.499 12.5s21 -4.16699 29 -12.5s12 -18.166 12 -29.499z" />
    <glyph glyph-name="Zacute" unicode="&#x179;" horiz-adv-x="580" 
d="M548 0h-517v53l433 590h-419v57h491v-53l-434 -590h446v-57zM303 773h-62l90 142h71z" />
    <glyph glyph-name="zacute" unicode="&#x17a;" horiz-adv-x="456" 
d="M47 480h360v-50l-305 -380h321v-50h-389v50l306 380h-293v50zM242 553h-62l90 142h71z" />
    <glyph glyph-name="Zdotaccent" unicode="&#x17b;" horiz-adv-x="580" 
d="M548 0h-517v53l433 590h-419v57h491v-53l-434 -590h446v-57zM246 823c0 14 4.5 25 13.5 33s20.167 12 33.5 12s24.333 -4 33 -12s13 -19 13 -33c0 -14.667 -4.33301 -26 -13 -34s-19.667 -12 -33 -12s-24.5 4 -33.5 12s-13.5 19.333 -13.5 34z" />
    <glyph glyph-name="zdotaccent" unicode="&#x17c;" horiz-adv-x="456" 
d="M47 480h360v-50l-305 -380h321v-50h-389v50l306 380h-293v50zM185 603c0 14 4.5 25 13.5 33s20.167 12 33.5 12s24.333 -4 33 -12s13 -19 13 -33c0 -14.667 -4.33301 -26 -13 -34s-19.667 -12 -33 -12s-24.5 4 -33.5 12s-13.5 19.333 -13.5 34z" />
    <glyph glyph-name="Zcaron" unicode="&#x17d;" horiz-adv-x="580" 
d="M548 0h-517v53l433 590h-419v57h491v-53l-434 -590h446v-57zM453 901l-130 -137h-51l-129 137h65l90 -94l90 94h65z" />
    <glyph glyph-name="zcaron" unicode="&#x17e;" horiz-adv-x="456" 
d="M47 480h360v-50l-305 -380h321v-50h-389v50l306 380h-293v50zM392 681l-130 -137h-51l-129 137h65l90 -94l90 94h65z" />
    <glyph glyph-name="Scommaaccent" unicode="&#x218;" horiz-adv-x="577" 
d="M54 533c0 57.333 22.3311 101.336 66.998 132.003s99.334 46 164.001 46c80.667 0 149.334 -16.333 206.001 -49v-60c-56 35.333 -123.333 53 -202 53c-51.333 0 -93.333 -9.83301 -126 -29.5s-49 -49.834 -49 -90.501c0 -26.667 7.83301 -49.5 23.5 -68.5
s36 -34.333 61 -46s52.667 -22.334 83 -32.001s60.666 -20 90.999 -31s58 -23.833 83 -38.5s45.333 -34.667 61 -60s23.5 -55 23.5 -89c0 -42 -12 -77 -36 -105s-54 -47.833 -90 -59.5s-76.667 -17.167 -122 -16.5c-88 0 -167.667 19.667 -239 59v59
c70.667 -41.333 149 -62 235 -62c56.667 0 102.834 9.66699 138.501 29s53.5 50 53.5 92c0 28 -7.83301 52.167 -23.5 72.5s-36 36.5 -61 48.5s-52.667 23 -83 33l-91 31.5c-30.333 11 -58 23.5 -83 37.5s-45.333 33.167 -61 57.5s-23.5 53.166 -23.5 86.499z
M292.998 -223.997h-50l23 180h57z" />
    <glyph glyph-name="scommaaccent" unicode="&#x219;" horiz-adv-x="461" 
d="M50 360c0 44 17.3311 76.8359 51.998 98.5029s76 32.5 124 32.5c62.667 0 118.334 -13.667 167.001 -41v-54c-46 29.333 -100.333 44 -163 44c-34 0 -63 -6.5 -87 -19.5s-36 -32.833 -36 -59.5c0 -22.667 10.833 -41.334 32.5 -56.001s48.167 -26.167 79.5 -34.5
s62.5 -17.333 93.5 -27s57.333 -24.834 79 -45.501s32.5 -47 32.5 -79c0 -44.667 -18 -77.5 -54 -98.5s-81.333 -31.5 -136 -31.5c-76 0 -137.667 15.667 -185 47v56c50.667 -34 111.334 -51 182.001 -51c90.667 0 136 25.333 136 76c0 22.667 -10.833 41.167 -32.5 55.5
s-48.167 25.666 -79.5 33.999s-62.5 17.5 -93.5 27.5s-57.333 25.5 -79 46.5s-32.5 47.5 -32.5 79.5zM238.998 -223.997h-50l23 180h57z" />
    <glyph glyph-name="uni021A" unicode="&#x21a;" horiz-adv-x="599" 
d="M14 700h571v-57h-256v-643h-59v643h-256v57zM300 -224h-50l23 180h57z" />
    <glyph glyph-name="uni021B" unicode="&#x21b;" horiz-adv-x="393" 
d="M106 633l56 15v-168h201v-53h-201v-278c0 -37.333 9 -64.333 27 -81s46 -25 84 -25c36 0 71 7.33301 105 22v-52c-35.333 -15.333 -75.333 -23 -120 -23c-47.333 0 -84.5 12.667 -111.5 38s-40.5 62.333 -40.5 111v288h-90v53h90v153zM244 -224h-50l23 180h57z" />
    <glyph glyph-name="circumflex" unicode="&#x2c6;" horiz-adv-x="299" 
d="M124 911h51l130 -137h-65l-90 94l-90 -94h-65z" />
    <glyph glyph-name="caron" unicode="&#x2c7;" horiz-adv-x="299" 
d="M305 901l-130 -137h-51l-129 137h65l90 -94l90 94h65z" />
    <glyph glyph-name="breve" unicode="&#x2d8;" horiz-adv-x="329" 
d="M298 815c-37.333 -27.333 -82.001 -41 -134.001 -41c-52.667 0 -97 13.667 -133 41v57c40 -29.333 84.333 -44 133 -44s93.334 14.667 134.001 44v-57z" />
    <glyph glyph-name="dotaccent" unicode="&#x2d9;" horiz-adv-x="101" 
d="M4 823c0 14 4.5 25 13.5 33s20.167 12 33.5 12s24.333 -4 33 -12s13 -19 13 -33c0 -14.667 -4.33301 -26 -13 -34s-19.667 -12 -33 -12s-24.5 4 -33.5 12s-13.5 19.333 -13.5 34z" />
    <glyph glyph-name="ring" unicode="&#x2da;" horiz-adv-x="213" 
d="M209 849c0 -29.333 -9.99902 -53.166 -29.999 -71.499s-44 -27.5 -72 -27.5s-52.167 9.16699 -72.5 27.5s-30.5 42.166 -30.5 71.499c0 28.667 10.167 52 30.5 70s44.5 27 72.5 27c27.333 0 51.166 -9 71.499 -27s30.5 -41.333 30.5 -70zM48.001 848
c0 -18 5.83301 -32.167 17.5 -42.5s25.5 -15.5 41.5 -15.5s29.833 5.16699 41.5 15.5s17.5 24.5 17.5 42.5c0 17.333 -5.83301 31.333 -17.5 42s-25.5 16 -41.5 16s-29.833 -5.33301 -41.5 -16s-17.5 -24.667 -17.5 -42z" />
    <glyph glyph-name="ogonek" unicode="&#x2db;" horiz-adv-x="210" 
d="M104 0l68 0.00195312c-30.667 -20.667 -55.667 -43.334 -75 -68.001s-28.666 -47.334 -27.999 -68.001c-0.666992 -15.333 3.66602 -27.333 12.999 -36s22.666 -13 39.999 -13c22.667 0 44.334 6.66699 65.001 20v-46c-22 -14 -48 -21 -78 -21
c-29.333 -0.666992 -52.333 7 -69 23s-25 36.333 -25 61c0 50 29.667 99.333 89 148z" />
    <glyph glyph-name="tilde" unicode="&#x2dc;" horiz-adv-x="333" 
d="M322 866c4 -28.667 -1.00098 -51.167 -15.001 -67.5s-33 -24.5 -57 -24.5c-21.333 0 -50 8 -86 24s-59.333 24 -70 24c-12 0 -20.833 -4 -26.5 -12s-7.83398 -18.333 -6.50098 -31h-50c-4 28 1 50.5 15 67.5s32.333 25.5 55 25.5c20.667 0 49.334 -8 86.001 -24
s60.334 -24 71.001 -24c24.667 0 36 14 34 42h50z" />
    <glyph glyph-name="hungarumlaut" unicode="&#x2dd;" horiz-adv-x="343" 
d="M241 779h-61l72 145h64zM88 779h-61l72 145h64z" />
    <glyph glyph-name="uni0326" unicode="&#x326;" horiz-adv-x="120" 
d="M70 -224h-50l23 180h57z" />
    <glyph glyph-name="uni0401" unicode="&#x401;" horiz-adv-x="619" 
d="M475 836c0 -11.333 -4 -21 -12 -29s-17.667 -12 -29 -12s-21.166 4 -29.499 12s-12.5 17.667 -12.5 29s4.16699 21.166 12.5 29.499s18.166 12.5 29.499 12.5s21 -4.16699 29 -12.5s12 -18.166 12 -29.499zM274 836c0 -11.333 -4 -21 -12 -29s-17.667 -12 -29 -12
s-21.166 4 -29.499 12s-12.5 17.667 -12.5 29s4.16699 21.166 12.5 29.499s18.166 12.5 29.499 12.5s21 -4.16699 29 -12.5s12 -18.166 12 -29.499zM97 700h465v-57h-406v-262h376v-57h-376v-267h413v-57h-472v700z" />
    <glyph glyph-name="uni0410" unicode="&#x410;" horiz-adv-x="713" 
d="M75 0h-64l312 700h67l311 -700h-64l-83 188h-395zM347 617l-165 -373h348l-165 373c-2 5.33301 -5 12.666 -9 21.999c-4 -9.33301 -7 -16.666 -9 -21.999z" />
    <glyph glyph-name="uni0411" unicode="&#x411;" horiz-adv-x="662" 
d="M156 408h192c184 0 276 -68 276 -204s-92 -204 -276 -204h-251v700h474v-57h-415v-235zM157 57l194 0.00195312c31.333 0 58.166 1.66699 80.499 5s44.333 9.83301 66 19.5s38.167 24.667 49.5 45s17 46.166 17 77.499s-5.66699 57.166 -17 77.499
s-27.833 35.333 -49.5 45s-43.667 16.167 -66 19.5s-49.166 5 -80.499 5h-194v-294z" />
    <glyph glyph-name="uni0412" unicode="&#x412;" horiz-adv-x="685" 
d="M97 700l272.002 -0.000976562c73.333 0 131.166 -14.833 173.499 -44.5s63.5 -73.5 63.5 -131.5c0 -43.333 -12.167 -78.166 -36.5 -104.499s-54.166 -43.5 -89.499 -51.5c41.333 -8.66699 77.166 -27 107.499 -55s45.833 -69 46.5 -123
c0 -30.667 -6 -57.834 -18 -81.501s-26.833 -42.167 -44.5 -55.5s-38.834 -24.166 -63.501 -32.499s-47.667 -13.833 -69 -16.5s-44 -4 -68 -4h-274v700zM574.002 195.999c0 93.333 -61.668 140.002 -185.001 140.002h-232v-279h203c23.333 0 43.333 0.666992 60 2
s35.334 4.66602 56.001 9.99902s37.667 12.666 51 21.999s24.5 23 33.5 41s13.5 39.333 13.5 64zM546.001 516.001c0 84.667 -60.333 127 -181 127h-208v-251h237c43.333 0 79.5 10.167 108.5 30.5s43.5 51.5 43.5 93.5z" />
    <glyph glyph-name="uni0413" unicode="&#x413;" horiz-adv-x="567" 
d="M156 0h-59v700h456v-57h-397v-643z" />
    <glyph glyph-name="uni0414" unicode="&#x414;" horiz-adv-x="758" 
d="M75 -170h-57v227h79c81.333 146 122 360.333 122 643h420v-643h87v-227h-57v170h-594v-170zM280 643c-8.66699 -260.667 -47.333 -456 -116 -586h416v586h-300z" />
    <glyph glyph-name="uni0415" unicode="&#x415;" horiz-adv-x="619" 
d="M97 700h465v-57h-406v-262h376v-57h-376v-267h413v-57h-472v700z" />
    <glyph glyph-name="uni0416" unicode="&#x416;" horiz-adv-x="935" 
d="M77 0h-68l234 359l-210 341h68l189 -314h148v314h59v-314h147l190 314h68l-210 -341l234 -359h-68l-215 330h-146v-330h-59v330h-147z" />
    <glyph glyph-name="uni0417" unicode="&#x417;" horiz-adv-x="607" 
d="M557 188c0 -35.333 -7.99805 -66.332 -23.998 -92.999s-37.5 -47.5 -64.5 -62.5s-56 -26 -87 -33s-63.167 -10.5 -96.5 -10.5c-92 0 -173.667 14.333 -245 43v60c67.333 -31.333 147.666 -47 240.999 -47c37.333 0 71.333 4.16699 102 12.5s57.334 24.166 80.001 47.499
s34 53 34 89c0 35.333 -11.167 64 -33.5 86s-48.333 36.833 -78 44.5s-63.167 11.5 -100.5 11.5h-138v56h132c57.333 0 103.166 11.5 137.499 34.5s51.5 54.833 51.5 95.5c0 45.333 -18 78.833 -54 100.5s-84 32.5 -144 32.5c-76.667 0 -149.334 -16 -218.001 -48v60
c65.333 29.333 139.333 44 222 44c74.667 0 135.667 -15.5 183 -46.5s71 -76.167 71 -135.5c0 -42.667 -12.667 -78 -38 -106s-59 -47 -101 -57c46 -7.33301 85.5 -25.5 118.5 -54.5s49.5 -70.167 49.5 -123.5z" />
    <glyph glyph-name="uni0418" unicode="&#x418;" horiz-adv-x="766" 
d="M669 0h-59v540v60l-459 -600h-54v700h59v-539v-60l459 599h54v-700z" />
    <glyph glyph-name="uni0419" unicode="&#x419;" horiz-adv-x="766" 
d="M610 0h59v700h-54l-459 -599v60v539h-59v-700h54l459 600v-60v-540zM516 815c-37.333 -27.333 -82.001 -41 -134.001 -41c-52.667 0 -97 13.667 -133 41v57c40 -29.333 84.333 -44 133 -44s93.334 14.667 134.001 44v-57z" />
    <glyph glyph-name="uni041A" unicode="&#x41a;" horiz-adv-x="660" 
d="M156 0h-59v700h59v-314h183l226 314h68l-245 -341l269 -359h-69l-247 330h-185v-330z" />
    <glyph glyph-name="uni041B" unicode="&#x41b;" horiz-adv-x="740" 
d="M230 700l412.999 0.000976562v-700h-59v643h-297c-3.33301 -42.667 -6.16602 -75.834 -8.49902 -99.501l-9.5 -95c-4 -39.667 -7.83301 -71 -11.5 -94l-13.5 -84c-5.33301 -33 -11.166 -59.333 -17.499 -79l-21.5 -66c-8 -24.333 -17 -43.5 -27 -57.5
s-21.167 -27.667 -33.5 -41s-25.833 -22.833 -40.5 -28.5s-30.667 -8.5 -48 -8.5c-18 0 -36.667 3.33301 -56 10v57c13.333 -5.33301 29 -8 47 -8c26 0 48.667 12.333 68 37s35 56.5 47 95.5s22.333 87.833 31 146.5s15.667 116.5 21 173.5s10.666 121.5 15.999 193.5v5z
" />
    <glyph glyph-name="uni041C" unicode="&#x41c;" horiz-adv-x="901" 
d="M754 700h50v-700h-59v586l-276 -408h-37l-276 408v-586h-59v700h50l304 -449z" />
    <glyph glyph-name="uni041D" unicode="&#x41d;" horiz-adv-x="766" 
d="M610 700h59v-700h-59v323h-454v-323h-59v700h59v-320h454v320z" />
    <glyph glyph-name="uni041E" unicode="&#x41e;" horiz-adv-x="824" 
d="M48 350c0 45.333 7.66699 89.166 23 131.499s37.666 80.833 66.999 115.5s67.666 62.334 114.999 83.001s100.333 31 159 31s111.667 -10.333 159 -31s85.666 -48.334 114.999 -83.001s51.666 -73.167 66.999 -115.5s23 -86.166 23 -131.499
s-7.66699 -89.166 -23 -131.499s-37.666 -80.833 -66.999 -115.5s-67.666 -62.334 -114.999 -83.001s-100.333 -31 -159 -31s-111.667 10.333 -159 31s-85.666 48.334 -114.999 83.001s-51.666 73.167 -66.999 115.5s-23 86.166 -23 131.499zM716 350
c0 52.667 -10.667 101.5 -32 146.5s-55.666 82.667 -102.999 113s-103.666 45.5 -168.999 45.5s-121.666 -15.167 -168.999 -45.5s-81.666 -68 -102.999 -113s-32 -93.833 -32 -146.5s10.667 -101.5 32 -146.5s55.666 -82.667 102.999 -113s103.666 -45.5 168.999 -45.5
s121.666 15.167 168.999 45.5s81.666 68 102.999 113s32 93.833 32 146.5z" />
    <glyph glyph-name="uni041F" unicode="&#x41f;" horiz-adv-x="751" 
d="M156 0h-59v700h557v-700h-59v643h-439v-643z" />
    <glyph glyph-name="uni0420" unicode="&#x420;" horiz-adv-x="657" 
d="M97 700h230c196.667 0 295 -74 295 -222c0 -148.667 -98.333 -223 -295 -223h-171v-255h-59v700zM562 478c0 61.333 -20.833 104.167 -62.5 128.5s-98.167 36.5 -169.5 36.5h-173v-331h173c154.667 0 232 55.333 232 166z" />
    <glyph glyph-name="uni0421" unicode="&#x421;" horiz-adv-x="660" 
d="M50 343c0 58.667 10.5 112.001 31.5 160.001s48.833 86.833 83.5 116.5s73.334 52.334 116.001 68.001s87 23.5 133 23.5c73.333 0 138.666 -15.667 195.999 -47v-60c-52.667 34 -115 51 -187 51c-39.333 0 -77.166 -6.5 -113.499 -19.5s-69.666 -31.833 -99.999 -56.5
s-54.5 -57.334 -72.5 -98.001s-27 -86.667 -27 -138c0 -48.667 9.16699 -92.5 27.5 -131.5s42.666 -70.333 72.999 -94s64 -41.667 101 -54s75.167 -18.5 114.5 -18.5c74.667 0 138.334 17 191.001 51v-59c-58.667 -32 -126.334 -48 -203.001 -48
c-44.667 0 -88.334 7.66699 -131.001 23s-81.5 37.166 -116.5 65.499s-63.167 65.5 -84.5 111.5s-32 97.333 -32 154z" />
    <glyph glyph-name="uni0422" unicode="&#x422;" horiz-adv-x="599" 
d="M14 700h571v-57h-256v-643h-59v643h-256v57z" />
    <glyph glyph-name="uni0423" unicode="&#x423;" horiz-adv-x="627" 
d="M364 159c-31.333 -64 -64.333 -108.332 -99 -132.999s-72.667 -37 -114 -37c-30 0 -59 4 -87 12v56c29.333 -8 55 -12 77 -12c31.333 0 59 7.66699 83 23s47.333 43.666 70 84.999l12 25l-295 522h66l261 -466l227 466h64z" />
    <glyph glyph-name="uni0424" unicode="&#x424;" horiz-adv-x="854" 
d="M457 -36h-60v92c-112.667 2 -202 28.667 -268 80s-99 122.666 -99 213.999s33 162.666 99 213.999s155.333 78 268 80v92h60v-92c112.667 -2 202 -28.667 268 -80s99 -122.666 99 -213.999s-33 -162.666 -99 -213.999s-155.333 -78 -268 -80v-92zM90 350
c0 -74 26.667 -131.831 80 -173.498s129 -63.834 227 -66.501v480c-98 -2.66699 -173.667 -24.834 -227 -66.501s-80 -99.5 -80 -173.5zM457 590.002v-480.002c98.667 2.66699 174.5 24.834 227.5 66.501s79.5 99.5 79.5 173.5s-26.5 131.833 -79.5 173.5
s-128.833 63.834 -227.5 66.501z" />
    <glyph glyph-name="uni0425" unicode="&#x425;" horiz-adv-x="629" 
d="M77 0h-71l273 360l-258 340h71l223 -293l223 293h70l-258 -340l273 -360h-70l-238 313z" />
    <glyph glyph-name="uni0426" unicode="&#x426;" horiz-adv-x="774" 
d="M742 -170h-57l1 170h-589v700h59v-643h440v643h60v-643h86v-227z" />
    <glyph glyph-name="uni0427" unicode="&#x427;" horiz-adv-x="680" 
d="M583 0h-59.999v283c-70 -24.667 -142 -37 -216 -37c-82 1.33301 -145.667 21.833 -191 61.5s-68 98.167 -68 175.5v217h59v-220c0 -116.667 71.333 -175.667 214 -177c67.333 -1.33301 134.666 11 201.999 37v360h60v-700z" />
    <glyph glyph-name="uni0428" unicode="&#x428;" horiz-adv-x="1061" 
d="M964 0h-867v700h59v-643h345v643h59v-643h345v643h59v-700z" />
    <glyph glyph-name="uni0429" unicode="&#x429;" horiz-adv-x="1083" 
d="M1051 -170h-57l1 170h-898v700h59v-643h345v643h59v-643h345v643h59v-643h87v-227z" />
    <glyph glyph-name="uni042A" unicode="&#x42a;" horiz-adv-x="755" 
d="M425 0h-230v643h-182v57h241v-256h171c196.667 0 295 -74 295 -222s-98.333 -222 -295 -222zM254 387v-329.999h173c71.333 0 127.833 12.167 169.5 36.5s62.5 67.166 62.5 128.499c0 110 -77.333 165 -232 165h-173z" />
    <glyph glyph-name="uni042B" unicode="&#x42b;" horiz-adv-x="869" 
d="M327 0h-230v700h59v-256h171c196.667 0 295 -74 295 -222s-98.333 -222 -295 -222zM157 387v-329.999h173c71.333 0 127.833 12.167 169.5 36.5s62.5 67.166 62.5 128.499c0 110 -77.333 165 -232 165h-173zM772 0.000976562h-59v700h59v-700z" />
    <glyph glyph-name="uni042C" unicode="&#x42c;" horiz-adv-x="657" 
d="M327 0h-230v700h59v-256h171c196.667 0 295 -74 295 -222s-98.333 -222 -295 -222zM157 387v-329.999h173c71.333 0 127.833 12.167 169.5 36.5s62.5 67.166 62.5 128.499c0 110 -77.333 165 -232 165h-173z" />
    <glyph glyph-name="uni042D" unicode="&#x42d;" horiz-adv-x="656" 
d="M46 664c57.333 31.333 123.33 47 197.997 47c45.333 0 89.166 -7.66699 131.499 -23s81 -37.666 116 -66.999s63 -68 84 -116s31.5 -101.667 31.5 -161s-10.5 -112.333 -31.5 -159s-49.167 -83.834 -84.5 -111.501s-74.166 -48.667 -116.499 -63
s-86.5 -21.5 -132.5 -21.5c-72.667 0 -138 16 -196 48v61c54.667 -35.333 117.334 -53 188.001 -53c83.333 0 155.333 23.333 216 70s93 115.667 97 207h-384v56h383c-4 60 -21.667 111.5 -53 154.5s-69.166 74.167 -113.499 93.5s-92.166 29 -143.499 29
c-74 0 -137.333 -17 -190 -51v60z" />
    <glyph glyph-name="uni042E" unicode="&#x42e;" horiz-adv-x="1084" 
d="M1036 350c0 -45.333 -7.66699 -89.1641 -23 -131.497s-37.666 -80.833 -66.999 -115.5s-67.666 -62.334 -114.999 -83.001s-100.333 -31 -159 -31c-108.667 0 -194.5 32.667 -257.5 98s-97.833 143.666 -104.5 234.999h-154v-322h-59v700h59v-322h154
c6.66699 91.333 41.5 169.666 104.5 234.999s148.833 98 257.5 98c58.667 0 111.667 -10.333 159 -31s85.666 -48.334 114.999 -83.001s51.666 -73.167 66.999 -115.5s23 -86.166 23 -131.499zM369 350.002c0 -52.667 10.667 -101.5 32 -146.5s55.666 -82.667 102.999 -113
s103.666 -45.5 168.999 -45.5s121.666 15.167 168.999 45.5s81.666 68 102.999 113s32 93.833 32 146.5s-10.667 101.5 -32 146.5s-55.666 82.667 -102.999 113s-103.666 45.5 -168.999 45.5s-121.666 -15.167 -168.999 -45.5s-81.666 -68 -102.999 -113
s-32 -93.833 -32 -146.5z" />
    <glyph glyph-name="uni042F" unicode="&#x42f;" horiz-adv-x="682" 
d="M105 0h-72.001l211 271c-55.333 12 -99.666 35.833 -132.999 71.5s-50 82.167 -50 139.5c0 70.667 25.167 124.667 75.5 162s113.5 56 189.5 56h259v-700h-59v263h-216zM121.999 482c0 -53.333 18.667 -93.667 56 -121s85.666 -41 144.999 -41h202v323h-202
c-59.333 0 -107.666 -13.667 -144.999 -41s-56 -67.333 -56 -120z" />
    <glyph glyph-name="uni0430" unicode="&#x430;" horiz-adv-x="546" 
d="M455 87c0 -28 14.335 -42 43.002 -42c10.667 0 23 2.33301 37 7v-46c-18 -6.66699 -35.333 -10 -52 -10c-50.667 0 -78.334 24.667 -83.001 74c-50 -54 -115.667 -81 -197 -81c-46 0 -85.333 12.167 -118 36.5s-49 59.5 -49 105.5c0 54.667 20.667 94.5 62 119.5
s91.333 37.5 150 37.5c51.333 0 101.666 -7 150.999 -21v32c0 42.667 -13.333 76.667 -40 102s-64.334 38 -113.001 38c-61.333 0 -118.666 -11.333 -171.999 -34v56c56.667 20 116 30 178 30c64 0 113.833 -17.333 149.5 -52s53.5 -83.667 53.5 -147v-205zM94.002 134
c0 -31.333 11.667 -55.167 35 -71.5s51.666 -24.5 84.999 -24.5c36.667 0 71.334 8.16699 104.001 24.5s59.667 39.5 81 69.5v88c-50.667 13.333 -98.334 20 -143.001 20c-45.333 0 -83.666 -8.5 -114.999 -25.5s-47 -43.833 -47 -80.5z" />
    <glyph glyph-name="uni0431" unicode="&#x431;" horiz-adv-x="587" 
d="M542 225c0 -72 -22.333 -129.335 -67 -172.002s-103.334 -64 -176.001 -64c-74 0 -133.833 25 -179.5 75s-68.5 117.333 -68.5 202c0 76 13.833 142.5 41.5 199.5s63.834 99.5 108.501 127.5c38 23.333 77.5 40.333 118.5 51l105.5 27.5
c29.333 7.66699 53.333 20.834 72 39.501v-60c-18.667 -14.667 -41.5 -25.5 -68.5 -32.5l-93 -24.5c-35 -9.33301 -68.833 -23.666 -101.5 -42.999c-62 -38 -104 -106.667 -126 -206c18 35.333 45 63.333 81 84s75.333 31 118 31c66 0 121.667 -21.833 167 -65.5
s68 -100.167 68 -169.5zM108 236.998c0 -56 17.5 -102.333 52.5 -139s80.833 -55 137.5 -55c57.333 0 103 16.833 137 50.5s51 77.167 51 130.5s-17 97 -51 131s-79 51 -135 51c-50.667 0 -94 -15.833 -130 -47.5s-56.667 -72.167 -62 -121.5z" />
    <glyph glyph-name="uni0432" unicode="&#x432;" horiz-adv-x="545" 
d="M342 0l-264 -0.00195312v480h254c44 0 79.5 -11.167 106.5 -33.5s40.5 -53.5 40.5 -93.5c0 -26 -6.66699 -48.667 -20 -68s-31 -32.666 -53 -39.999c25.333 -6.66699 46.5 -19.667 63.5 -39s25.5 -44.666 25.5 -75.999c0 -40.667 -13.5 -72.5 -40.5 -95.5
s-64.5 -34.5 -112.5 -34.5zM134 217.998v-168h199c70 0 105 27.667 105 83c0 56.667 -33.667 85 -101 85h-203zM134 429.998l0.000976562 -162h193c62.667 0 94 26.667 94 80c0 27.333 -8.83301 47.833 -26.5 61.5s-40.834 20.5 -69.501 20.5h-191z" />
    <glyph glyph-name="uni0433" unicode="&#x433;" horiz-adv-x="439" 
d="M135 0h-57v480h345v-53h-288v-427z" />
    <glyph glyph-name="uni0434" unicode="&#x434;" horiz-adv-x="622" 
d="M81 -133h-55v184h63c30.667 58.667 53 121.5 67 188.5s20.667 147.167 20 240.5h343v-429h70v-184h-56v133h-452v-133zM230 429c-2 -144 -28.667 -270 -80 -378h313v378h-233z" />
    <glyph glyph-name="uni0435" unicode="&#x435;" horiz-adv-x="546" 
d="M45 240c0 78 23.8301 139.333 71.4971 184s102.834 67 165.501 67c35.333 0 67 -5.5 95 -16.5s50.5 -25.833 67.5 -44.5s31.167 -40 42.5 -64s17.5 -48.833 18.5 -74.5s-0.5 -51.5 -4.5 -77.5h-399c3.33301 -57.333 25.333 -100.5 66 -129.5s90.334 -43.5 149.001 -43.5
c60 0 112.333 13 157 39v-56c-43.333 -23.333 -98.333 -35 -165 -35c-75.333 0 -138.166 21.333 -188.499 64s-75.5 105 -75.5 187zM450.997 264c4.66699 42 -6.50098 81.667 -33.501 119s-70.833 56 -131.5 56c-49.333 0 -91.666 -15.5 -126.999 -46.5
s-54.333 -73.833 -57 -128.5h349z" />
    <glyph glyph-name="uni0436" unicode="&#x436;" horiz-adv-x="736" 
d="M727 0h-64l-183 216h-84v-216h-56v216h-84l-183 -216h-64l202 244l-177 236h63l161 -212h82v212h56v-212h82l161 212h63l-177 -236z" />
    <glyph glyph-name="uni0437" unicode="&#x437;" horiz-adv-x="471" 
d="M423 128c0 -45.333 -19.002 -79.832 -57.002 -103.499s-88.667 -35.5 -152 -35.5c-66.667 0 -124.667 12 -174 36v54c48.667 -25.333 104.667 -38 168 -38c105.333 0 158 31 158 93c0 29.333 -11.333 50.666 -34 63.999s-49 20 -79 20h-112v52h112
c68.667 3.33301 103 29.333 103 78c0 30 -13.5 52.667 -40.5 68s-62.167 23 -105.5 23c-57.333 0 -111.666 -12 -162.999 -36v53c54.667 24 111 36 169 36c61.333 0 109.5 -12.167 144.5 -36.5s52.5 -57.833 52.5 -100.5c0 -28.667 -8.16699 -52.5 -24.5 -71.5
s-38.833 -31.5 -67.5 -37.5c28.667 -7.33301 52.834 -21.333 72.501 -42s29.5 -46 29.5 -76z" />
    <glyph glyph-name="uni0438" unicode="&#x438;" horiz-adv-x="587" 
d="M127 0h-49v480h57v-389l325 389h49v-480h-56v389z" />
    <glyph glyph-name="uni0439" unicode="&#x439;" horiz-adv-x="587" 
d="M427 599c-37.333 -27.333 -82.001 -41 -134.001 -41c-52.667 0 -97 13.667 -133 41v53c40 -29.333 84.333 -44 133 -44s93.334 14.667 134.001 44v-53zM126.999 0h-49v480h57v-389l325 389h49v-480h-56v389z" />
    <glyph glyph-name="uni043A" unicode="&#x43a;" horiz-adv-x="512" 
d="M135 0h-57v480h57v-208h111l168 208h66l-189 -236l214 -244h-67l-195 219h-108v-219z" />
    <glyph glyph-name="uni043B" unicode="&#x43b;" horiz-adv-x="590" 
d="M230 427c-4 -70 -9.33203 -129.999 -15.999 -179.999s-16.334 -95 -29.001 -135s-29.167 -69.833 -49.5 -89.5s-44.833 -29.5 -73.5 -29.5c-18 0 -35 3 -51 9v46c9.33301 -4 20.666 -6 33.999 -6c42 0 72.833 36.667 92.5 110s31.834 182.666 36.501 327.999h338v-480
h-56v427h-226z" />
    <glyph glyph-name="uni043C" unicode="&#x43c;" horiz-adv-x="667" 
d="M132 0h-54v480h62l194 -284l194 284h61v-480h-54v396l-180 -263h-42l-181 263v-396z" />
    <glyph glyph-name="uni043D" unicode="&#x43d;" horiz-adv-x="581" 
d="M135 0h-57v480h57v-214h312v214h56v-480h-56v214h-312v-214z" />
    <glyph glyph-name="uni043E" unicode="&#x43e;" horiz-adv-x="595" 
d="M45 240c0 77.333 24.833 138.5 74.5 183.5s108.834 67.5 177.501 67.5c69.333 0 128.833 -22.5 178.5 -67.5s74.5 -106.167 74.5 -183.5s-24.833 -138.5 -74.5 -183.5s-109.167 -67.5 -178.5 -67.5c-68.667 0 -127.834 22.5 -177.501 67.5s-74.5 106.167 -74.5 183.5z
M493 240c0 60.667 -18.667 108.667 -56 144s-83.666 53 -138.999 53s-101.833 -17.667 -139.5 -53s-56.5 -83.333 -56.5 -144s18.833 -108.667 56.5 -144s84.167 -53 139.5 -53s101.666 17.667 138.999 53s56 83.333 56 144z" />
    <glyph glyph-name="uni043F" unicode="&#x43f;" horiz-adv-x="581" 
d="M135 0h-57v480h425v-480h-56v427h-312v-427z" />
    <glyph glyph-name="uni0440" unicode="&#x440;" horiz-adv-x="618" 
d="M129 381c50.667 73.333 119 110 205 110c68.667 0 125.667 -23.5 171 -70.5s68 -107.167 68 -180.5s-22.667 -133.5 -68 -180.5s-102.333 -70.5 -171 -70.5c-44.667 0 -84 9.83301 -118 29.5s-61 44.5 -81 74.5v-313h-57v700h51v-99zM516 240
c0 60 -18.001 108.167 -54.001 144.5s-81 54.5 -135 54.5c-44.667 0 -84.334 -12.833 -119.001 -38.5s-59.334 -57.5 -74.001 -95.5v-130c14.667 -38 39.334 -69.833 74.001 -95.5s74.334 -38.5 119.001 -38.5c54.667 0 99.834 18 135.501 54s53.5 84.333 53.5 145z" />
    <glyph glyph-name="uni0441" unicode="&#x441;" horiz-adv-x="498" 
d="M45 237c0 56 13.166 103.833 39.499 143.5s58.5 68 96.5 85s79 25.5 123 25.5c58.667 0 107 -13 145 -39v-55c-37.333 28 -83.333 42 -138 42c-57.333 0 -106.5 -17 -147.5 -51s-61.5 -84 -61.5 -150c0 -63.333 19.833 -112 59.5 -146s87.5 -51 143.5 -51
c55.333 0 105 13 149 39v-57c-45.333 -22.667 -97.666 -34 -156.999 -34c-68 0 -127 21.333 -177 64s-75 104 -75 184z" />
    <glyph glyph-name="uni0442" unicode="&#x442;" horiz-adv-x="461" 
d="M259 0h-57v427h-186v53h429v-53h-186v-427z" />
    <glyph glyph-name="uni0443" unicode="&#x443;" horiz-adv-x="536" 
d="M278 63l178.999 417h60l-243 -559c-44.667 -101.333 -102 -152 -172 -152c-16 0 -33 2 -51 6v50c14.667 -4 29.334 -6 44.001 -6c28 0 52.5 10 73.5 30s40.167 51 57.5 93l24 56l-236 482h60z" />
    <glyph glyph-name="uni0444" unicode="&#x444;" horiz-adv-x="713" 
d="M385 -220l-57 -0.00390625v209c-82.667 1.33301 -150.667 24.5 -204 69.5s-80 105.5 -80 181.5s26.667 136.5 80 181.5s121.333 68.167 204 69.5v209h57v-209c82.667 -1.33301 150.667 -24.666 204 -69.999s80 -105.666 80 -180.999s-26.667 -135.666 -80 -180.999
s-121.333 -68.666 -204 -69.999v-209zM101 239.996c0 -61.333 20.833 -109.833 62.5 -145.5s96.5 -54.167 164.5 -55.5v402c-68 -1.33301 -122.833 -19.833 -164.5 -55.5s-62.5 -84.167 -62.5 -145.5zM385 440.996v-402c68 1.33301 122.833 19.833 164.5 55.5
s62.5 84.167 62.5 145.5s-20.833 109.833 -62.5 145.5s-96.5 54.167 -164.5 55.5z" />
    <glyph glyph-name="uni0445" unicode="&#x445;" horiz-adv-x="488" 
d="M397 480h66l-186 -233l196 -247h-66l-163 206l-163 -206h-66l197 247l-187 233h66l153 -193z" />
    <glyph glyph-name="uni0446" unicode="&#x446;" horiz-adv-x="597" 
d="M563 -133h-55v133h-430v480h57v-427h302v427h56v-427h70v-186z" />
    <glyph glyph-name="uni0447" unicode="&#x447;" horiz-adv-x="520" 
d="M442 0l-57 0.000976562v175c-44 -18.667 -95 -28 -153 -28c-58.667 0 -104.834 14.167 -138.501 42.5s-50.5 71.166 -50.5 128.499v162h57v-158c0 -82 49.333 -123 148 -123c50.667 0 96.334 8.66699 137.001 26v255h57v-480z" />
    <glyph glyph-name="uni0448" unicode="&#x448;" horiz-adv-x="813" 
d="M735 0h-657v480h57v-427h243v427h57v-427h243v427h57v-480z" />
    <glyph glyph-name="uni0449" unicode="&#x449;" horiz-adv-x="838" 
d="M804 -133h-55v133h-671v480h57v-427h243v427h57v-427h243v427h57v-427h69v-186z" />
    <glyph glyph-name="uni044A" unicode="&#x44a;" horiz-adv-x="585" 
d="M208 305l163 0.000976562c55.333 0 99.666 -14.333 132.999 -43s50 -65 50 -109c0 -44.667 -16.667 -81.334 -50 -110.001s-77.666 -43 -132.999 -43h-220v430h-134v50h191v-175zM208 51.001h156c41.333 0 73.833 9 97.5 27s35.5 43 35.5 75s-12 56.833 -36 74.5
s-56.333 26.5 -97 26.5h-156v-203z" />
    <glyph glyph-name="uni044B" unicode="&#x44b;" horiz-adv-x="711" 
d="M298 0l-220 0.000976562v480h57v-175h163c55.333 0 99.666 -14.333 132.999 -43s50 -65 50 -109c0 -44.667 -16.667 -81.334 -50 -110.001s-77.666 -43 -132.999 -43zM134 254.001v-203h156c41.333 0 73.833 9 97.5 27s35.5 43 35.5 75s-12 56.833 -36 74.5
s-56.333 26.5 -97 26.5h-156zM633 0.000976562h-57v480h57v-480z" />
    <glyph glyph-name="uni044C" unicode="&#x44c;" horiz-adv-x="513" 
d="M298 0l-220 0.000976562v480h57v-175h163c55.333 0 99.666 -14.333 132.999 -43s50 -65 50 -109c0 -44.667 -16.667 -81.334 -50 -110.001s-77.666 -43 -132.999 -43zM134 254.001v-203h156c41.333 0 73.833 9 97.5 27s35.5 43 35.5 75s-12 56.833 -36 74.5
s-56.333 26.5 -97 26.5h-156z" />
    <glyph glyph-name="uni044D" unicode="&#x44d;" horiz-adv-x="505" 
d="M460 234c0 -81.333 -24.666 -142.5 -73.999 -183.5s-107.666 -61.5 -174.999 -61.5c-61.333 0 -117.333 14 -168 42v53c49.333 -28.667 102 -43 158 -43s102.833 13.833 140.5 41.5s57.834 71.5 60.501 131.5h-266v52h266c-4.66699 58 -27 101.333 -67 130
s-88 43 -144 43c-52 0 -99.667 -14.667 -143 -44v53c44 28.667 93.667 43 149 43c33.333 0 65.166 -5.16699 95.499 -15.5s58.166 -25.5 83.499 -45.5s45.666 -46.833 60.999 -80.5s23 -72.167 23 -115.5z" />
    <glyph glyph-name="uni044E" unicode="&#x44e;" horiz-adv-x="813" 
d="M768 240c0 -77.333 -24.667 -138.498 -74 -183.498s-108.666 -67.5 -177.999 -67.5c-64.667 0 -121.167 20.167 -169.5 60.5s-75.5 95.166 -81.5 164.499h-130v-214h-57v480h57v-214h130c6 69.333 33.167 124.166 81.5 164.499s104.833 60.5 169.5 60.5
c69.333 0 128.666 -22.5 177.999 -67.5s74 -106.167 74 -183.5zM320 240.002c0 -60.667 18.833 -108.667 56.5 -144s84.167 -53 139.5 -53s101.666 17.667 138.999 53s56 83.333 56 144s-18.667 108.667 -56 144s-83.666 53 -138.999 53s-101.833 -17.667 -139.5 -53
s-56.5 -83.333 -56.5 -144z" />
    <glyph glyph-name="uni044F" unicode="&#x44f;" horiz-adv-x="541" 
d="M100 0h-67l143 184c-38 9.33301 -67.667 27 -89 53s-32 56.667 -32 92c0 43.333 16 79.333 48 108s75.667 43 131 43h229v-480h-57v178h-169zM112 329c0 -30.667 11.333 -55 34 -73s53.667 -27 93 -27h168v200h-168c-40 0 -71.167 -9 -93.5 -27s-33.5 -42.333 -33.5 -73z
" />
    <glyph glyph-name="uni0451" unicode="&#x451;" horiz-adv-x="546" 
d="M423 616c0 -11.333 -4 -21 -12 -29s-17.667 -12 -29 -12s-21.166 4 -29.499 12s-12.5 17.667 -12.5 29s4.16699 21.166 12.5 29.499s18.166 12.5 29.499 12.5s21 -4.16699 29 -12.5s12 -18.166 12 -29.499zM222 616c0 -11.333 -4 -21 -12 -29s-17.667 -12 -29 -12
s-21.166 4 -29.499 12s-12.5 17.667 -12.5 29s4.16699 21.166 12.5 29.499s18.166 12.5 29.499 12.5s21 -4.16699 29 -12.5s12 -18.166 12 -29.499zM45 240c0 78 23.8301 139.333 71.4971 184s102.834 67 165.501 67c35.333 0 67 -5.5 95 -16.5s50.5 -25.833 67.5 -44.5
s31.167 -40 42.5 -64s17.5 -48.833 18.5 -74.5s-0.5 -51.5 -4.5 -77.5h-399c3.33301 -57.333 25.333 -100.5 66 -129.5s90.334 -43.5 149.001 -43.5c60 0 112.333 13 157 39v-56c-43.333 -23.333 -98.333 -35 -165 -35c-75.333 0 -138.166 21.333 -188.499 64
s-75.5 105 -75.5 187zM450.997 264c4.66699 42 -6.50098 81.667 -33.501 119s-70.833 56 -131.5 56c-49.333 0 -91.666 -15.5 -126.999 -46.5s-54.333 -73.833 -57 -128.5h349z" />
    <glyph glyph-name="Wgrave" unicode="&#x1e80;" horiz-adv-x="1004" 
d="M917 700h65l-222 -700h-66l-192 598l-193 -598h-65l-222 700h65l190 -626l198 623h54l198 -623zM555 773h-63l-98 142h71z" />
    <glyph glyph-name="wgrave" unicode="&#x1e81;" horiz-adv-x="801" 
d="M718 480h60l-173 -480h-61l-144 400l-144 -400h-60l-173 480h60l143 -416l148 413h52l148 -413zM453 553h-63l-98 142h71z" />
    <glyph glyph-name="Wacute" unicode="&#x1e82;" horiz-adv-x="1004" 
d="M917 700h65l-222 -700h-66l-192 598l-193 -598h-65l-222 700h65l190 -626l198 623h54l198 -623zM510 773h-62l90 142h71z" />
    <glyph glyph-name="wacute" unicode="&#x1e83;" horiz-adv-x="801" 
d="M718 480h60l-173 -480h-61l-144 400l-144 -400h-60l-173 480h60l143 -416l148 413h52l148 -413zM408 553h-62l90 142h71z" />
    <glyph glyph-name="Wdieresis" unicode="&#x1e84;" horiz-adv-x="1004" 
d="M917 700h65l-222 -700h-66l-192 598l-193 -598h-65l-222 700h65l190 -626l198 623h54l198 -623zM643 836c0 -11.333 -4 -21 -12 -29s-17.667 -12 -29 -12s-21.166 4 -29.499 12s-12.5 17.667 -12.5 29s4.16699 21.166 12.5 29.499s18.166 12.5 29.499 12.5
s21 -4.16699 29 -12.5s12 -18.166 12 -29.499zM442 836c0 -11.333 -4 -21 -12 -29s-17.667 -12 -29 -12s-21.166 4 -29.499 12s-12.5 17.667 -12.5 29s4.16699 21.166 12.5 29.499s18.166 12.5 29.499 12.5s21 -4.16699 29 -12.5s12 -18.166 12 -29.499z" />
    <glyph glyph-name="wdieresis" unicode="&#x1e85;" horiz-adv-x="801" 
d="M718 480h60l-173 -480h-61l-144 400l-144 -400h-60l-173 480h60l143 -416l148 413h52l148 -413zM541 616c0 -11.333 -4 -21 -12 -29s-17.667 -12 -29 -12s-21.166 4 -29.499 12s-12.5 17.667 -12.5 29s4.16699 21.166 12.5 29.499s18.166 12.5 29.499 12.5
s21 -4.16699 29 -12.5s12 -18.166 12 -29.499zM340 616c0 -11.333 -4 -21 -12 -29s-17.667 -12 -29 -12s-21.166 4 -29.499 12s-12.5 17.667 -12.5 29s4.16699 21.166 12.5 29.499s18.166 12.5 29.499 12.5s21 -4.16699 29 -12.5s12 -18.166 12 -29.499z" />
    <glyph glyph-name="Ygrave" unicode="&#x1ef2;" horiz-adv-x="644" 
d="M352 0h-60v273l-275 427h66l239 -373l239 373h66l-275 -427v-273zM376 773h-63l-98 142h71z" />
    <glyph glyph-name="ygrave" unicode="&#x1ef3;" horiz-adv-x="536" 
d="M278 63l178.999 417h60l-243 -559c-44.667 -101.333 -102 -152 -172 -152c-16 0 -33 2 -51 6v50c14.667 -4 29.334 -6 44.001 -6c28 0 52.5 10 73.5 30s40.167 51 57.5 93l24 56l-236 482h60zM313.999 553h-63l-98 142h71z" />
    <glyph glyph-name="endash" unicode="&#x2013;" horiz-adv-x="571" 
d="M504 219h-437v54h437v-54z" />
    <glyph glyph-name="emdash" unicode="&#x2014;" horiz-adv-x="757" 
d="M690 219h-623v54h623v-54z" />
    <glyph glyph-name="quoteleft" unicode="&#x2018;" horiz-adv-x="205" 
d="M110 477h-60l66 223h47z" />
    <glyph glyph-name="quoteright" unicode="&#x2019;" horiz-adv-x="201" 
d="M99 477h-47l53 223h60z" />
    <glyph glyph-name="quotesinglbase" unicode="&#x201a;" horiz-adv-x="215" 
d="M76 -147h-47l53 224h60z" />
    <glyph glyph-name="quotedblleft" unicode="&#x201c;" horiz-adv-x="339" 
d="M244 477h-60l66 223h47zM110 477h-60l66 223h47z" />
    <glyph glyph-name="quotedblright" unicode="&#x201d;" horiz-adv-x="335" 
d="M233 477h-47l53 223h60zM99 477h-47l53 223h60z" />
    <glyph glyph-name="quotedblbase" unicode="&#x201e;" horiz-adv-x="349" 
d="M210 -147h-47l53 224h60zM76 -147h-47l53 224h60z" />
    <glyph glyph-name="dagger" unicode="&#x2020;" horiz-adv-x="499" 
d="M279 -220h-59v643h-187v57h187v220h59v-220h187v-57h-187v-643z" />
    <glyph glyph-name="daggerdbl" unicode="&#x2021;" horiz-adv-x="526" 
d="M293 -220h-60v313h-186v56h186v274h-186v57h186v220h60v-220h186v-57h-186v-274h186v-56h-186v-313z" />
    <glyph glyph-name="bullet" unicode="&#x2022;" horiz-adv-x="312" 
d="M91 350c0 19.333 6.16699 34.668 18.5 46.001s27.5 17 45.5 17c18.667 0 34.167 -5.5 46.5 -16.5s18.5 -26.5 18.5 -46.5s-6.16699 -35.5 -18.5 -46.5s-27.833 -16.5 -46.5 -16.5c-18 0 -33.167 5.66699 -45.5 17s-18.5 26.666 -18.5 45.999z" />
    <glyph glyph-name="ellipsis" unicode="&#x2026;" horiz-adv-x="535" 
d="M472 31c0 -12 -3.83301 -21.5 -11.5 -28.5s-17.167 -10.5 -28.5 -10.5s-20.833 3.5 -28.5 10.5s-11.5 16.5 -11.5 28.5s3.83301 21.5 11.5 28.5s17.167 10.5 28.5 10.5s20.833 -3.5 28.5 -10.5s11.5 -16.5 11.5 -28.5zM143 31c0 -12 -3.83301 -21.5 -11.5 -28.5
s-17.167 -10.5 -28.5 -10.5s-20.833 3.5 -28.5 10.5s-11.5 16.5 -11.5 28.5s3.83301 21.5 11.5 28.5s17.167 10.5 28.5 10.5s20.833 -3.5 28.5 -10.5s11.5 -16.5 11.5 -28.5zM308 31c0 -12 -3.83301 -21.5 -11.5 -28.5s-17.167 -10.5 -28.5 -10.5s-20.833 3.5 -28.5 10.5
s-11.5 16.5 -11.5 28.5s3.83301 21.5 11.5 28.5s17.167 10.5 28.5 10.5s20.833 -3.5 28.5 -10.5s11.5 -16.5 11.5 -28.5z" />
    <glyph glyph-name="perthousand" unicode="&#x2030;" horiz-adv-x="1264" 
d="M267 -60h-57l409 820h57zM348 560c0 -46.667 -15.167 -83.5 -45.5 -110.5s-67.166 -40.5 -110.499 -40.5c-44 0 -81.333 13.5 -112 40.5s-46 63.833 -46 110.5s15.333 83.5 46 110.5s68 40.5 112 40.5c43.333 0 80.166 -13.5 110.499 -40.5s45.5 -63.833 45.5 -110.5z
M88 560c0 -30 9.5 -54.333 28.5 -73s44.167 -28 75.5 -28c30.667 0 55.334 9.33301 74.001 28s28 43 28 73s-9.33301 54.333 -28 73s-43.334 28 -74.001 28c-31.333 0 -56.5 -9.33301 -75.5 -28s-28.5 -43 -28.5 -73zM851 140c0 -46.667 -15.167 -83.5 -45.5 -110.5
s-67.166 -40.5 -110.499 -40.5c-44 0 -81.333 13.5 -112 40.5s-46 63.833 -46 110.5s15.333 83.5 46 110.5s68 40.5 112 40.5c43.333 0 80.166 -13.5 110.499 -40.5s45.5 -63.833 45.5 -110.5zM591 140c0 -30 9.5 -54.333 28.5 -73s44.167 -28 75.5 -28
c30.667 0 55.334 9.33301 74.001 28s28 43 28 73s-9.33301 54.333 -28 73s-43.334 28 -74.001 28c-31.333 0 -56.5 -9.33301 -75.5 -28s-28.5 -43 -28.5 -73zM1230 140c0 -46.667 -15.167 -83.5 -45.5 -110.5s-67.166 -40.5 -110.499 -40.5c-44 0 -81.333 13.5 -112 40.5
s-46 63.833 -46 110.5s15.333 83.5 46 110.5s68 40.5 112 40.5c43.333 0 80.166 -13.5 110.499 -40.5s45.5 -63.833 45.5 -110.5zM970 140c0 -30 9.5 -54.333 28.5 -73s44.167 -28 75.5 -28c30.667 0 55.334 9.33301 74.001 28s28 43 28 73s-9.33301 54.333 -28 73
s-43.334 28 -74.001 28c-31.333 0 -56.5 -9.33301 -75.5 -28s-28.5 -43 -28.5 -73z" />
    <glyph glyph-name="guilsinglleft" unicode="&#x2039;" horiz-adv-x="290" 
d="M230 63h-61l-121 171v12l121 171h61l-125 -177z" />
    <glyph glyph-name="guilsinglright" unicode="&#x203a;" horiz-adv-x="290" 
d="M121 63h-61l125 177l-125 177h61l121 -171v-12z" />
    <glyph glyph-name="fraction" unicode="&#x2044;" horiz-adv-x="167" 
d="M-130 -12h-28l457 723h28z" />
    <glyph glyph-name="Euro" unicode="&#x20ac;" horiz-adv-x="733" 
d="M672 37c-58.667 -32 -124.336 -48 -197.003 -48c-79.333 0 -151.5 22.5 -216.5 67.5s-107.167 108.167 -126.5 189.5h-89v50h80c-1.33301 17.333 -2 31.333 -2 42c0 16 1 31.333 3 46h-81v50h90c20 80.667 62 143.667 126 189s136 68 216 68
c72.667 0 138.334 -15.667 197.001 -47v-60c-53.333 34 -115.666 51 -186.999 51c-66.667 0 -126.834 -17.5 -180.501 -52.5s-90.167 -84.5 -109.5 -148.5h358v-50h-368c-2.66699 -13.333 -4 -28.666 -4 -45.999c0 -10.667 0.666992 -24.667 2 -42h370v-50h-358
c18.667 -64.667 55.334 -114.334 110.001 -149.001s115.334 -52 182.001 -52c70 0 131.667 17 185 51v-59z" />
    <glyph glyph-name="trademark" unicode="&#x2122;" horiz-adv-x="664" 
d="M341 447h-35v253h40l99 -142l100 142h40v-253h-35v203l-95 -135h-20l-94 135v-203zM169 447h-36v220h-88v33h212v-33h-88v-220z" />
    <glyph glyph-name="oneeighth" unicode="&#x215b;" horiz-adv-x="903" 
d="M551 310c0 28 12.832 52.5 38.499 73.5s62.5 31.5 110.5 31.5c44.667 0 80.834 -11 108.501 -33s42.167 -48.333 43.5 -79c1.33301 -42 -17.334 -76.333 -56.001 -103c46.667 -22.667 70 -54.667 70 -96c0 -30.667 -13.833 -56.834 -41.5 -78.501
s-68.167 -32.5 -121.5 -32.5c-52.667 0 -93.5 11.5 -122.5 34.5s-43.5 51.167 -43.5 84.5c0 20.667 5.83301 40.834 17.5 60.501s28.834 36.167 51.501 49.5c-36.667 22.667 -55 52 -55 88zM705.999 184c-28 8 -47.001 13.998 -57.001 17.998c-41.333 -20 -62 -48 -62 -84
c0 -24.667 10.333 -44 31 -58s49.667 -21 87 -21c32.667 0 59.334 5.83301 80.001 17.5s31 26.834 31 45.501c0 15.333 -5.16699 28.333 -15.5 39s-22 18.5 -35 23.5s-30.167 10.833 -51.5 17.5c-3.33301 0.666992 -6 1.33398 -8 2.00098zM802.998 293.998
c0 20.667 -9.16699 38.334 -27.5 53.001s-43.5 22 -75.5 22c-29.333 0 -53 -5.66699 -71 -17s-27 -25.333 -27 -42c0 -6.66699 1 -12.834 3 -18.501s4 -10.5 6 -14.5s5.83301 -8 11.5 -12l13 -9c3 -2 8.5 -4.66699 16.5 -8s13.5 -5.5 16.5 -6.5l18.5 -6l17 -5.5
c30 -8 47 -12.667 51 -14c32 21.333 48 47.333 48 78zM206.998 -12.002h-28l457 723h28zM155.998 679.998h37v-361h74v-47h-216v47h93v308l-87 -32v47z" />
    <glyph glyph-name="threeeighths" unicode="&#x215c;" horiz-adv-x="948" 
d="M595 310c0 28 12.832 52.5 38.499 73.5s62.5 31.5 110.5 31.5c44.667 0 80.834 -11 108.501 -33s42.167 -48.333 43.5 -79c1.33301 -42 -17.334 -76.333 -56.001 -103c46.667 -22.667 70 -54.667 70 -96c0 -30.667 -13.833 -56.834 -41.5 -78.501
s-68.167 -32.5 -121.5 -32.5c-52.667 0 -93.5 11.5 -122.5 34.5s-43.5 51.167 -43.5 84.5c0 20.667 5.83301 40.834 17.5 60.501s28.834 36.167 51.501 49.5c-36.667 22.667 -55 52 -55 88zM749.999 184c-28 8 -47.001 13.998 -57.001 17.998c-41.333 -20 -62 -48 -62 -84
c0 -24.667 10.333 -44 31 -58s49.667 -21 87 -21c32.667 0 59.334 5.83301 80.001 17.5s31 26.834 31 45.501c0 15.333 -5.16699 28.333 -15.5 39s-22 18.5 -35 23.5s-30.167 10.833 -51.5 17.5c-3.33301 0.666992 -6 1.33398 -8 2.00098zM846.998 293.998
c0 20.667 -9.16699 38.334 -27.5 53.001s-43.5 22 -75.5 22c-29.333 0 -53 -5.66699 -71 -17s-27 -25.333 -27 -42c0 -6.66699 1 -12.834 3 -18.501s4 -10.5 6 -14.5s5.83301 -8 11.5 -12l13 -9c3 -2 8.5 -4.66699 16.5 -8s13.5 -5.5 16.5 -6.5l18.5 -6l17 -5.5
c30 -8 47 -12.667 51 -14c32 21.333 48 47.333 48 78zM260.998 -12.002h-28l457 723h28zM326.998 579.998c0 -20.667 -5.66699 -39.333 -17 -56s-26 -28 -44 -34c51.333 -16 77 -50.333 77 -103c0 -38 -14 -67.167 -42 -87.5s-63.667 -30.5 -107 -30.5
c-54.667 0 -102 9 -142 27v49c37.333 -20 83.333 -30 138 -30c70 0 105 25 105 75c0 48.667 -33 73 -99 73h-63v47h57c28.667 0 50.667 6 66 18s23 28 23 48c0 21.333 -8.5 38.166 -25.5 50.499s-40.833 18.5 -71.5 18.5c-42.667 0 -83.667 -10.333 -123 -31v49
c38.667 18.667 81.667 28 129 28c42 0 75.667 -10.167 101 -30.5s38 -47.166 38 -80.499z" />
    <glyph glyph-name="fiveeighths" unicode="&#x215d;" horiz-adv-x="938" 
d="M585 310c0 28 12.832 52.5 38.499 73.5s62.5 31.5 110.5 31.5c44.667 0 80.834 -11 108.501 -33s42.167 -48.333 43.5 -79c1.33301 -42 -17.334 -76.333 -56.001 -103c46.667 -22.667 70 -54.667 70 -96c0 -30.667 -13.833 -56.834 -41.5 -78.501
s-68.167 -32.5 -121.5 -32.5c-52.667 0 -93.5 11.5 -122.5 34.5s-43.5 51.167 -43.5 84.5c0 20.667 5.83301 40.834 17.5 60.501s28.834 36.167 51.501 49.5c-36.667 22.667 -55 52 -55 88zM739.999 184c-28 8 -47.001 13.998 -57.001 17.998c-41.333 -20 -62 -48 -62 -84
c0 -24.667 10.333 -44 31 -58s49.667 -21 87 -21c32.667 0 59.334 5.83301 80.001 17.5s31 26.834 31 45.501c0 15.333 -5.16699 28.333 -15.5 39s-22 18.5 -35 23.5s-30.167 10.833 -51.5 17.5c-3.33301 0.666992 -6 1.33398 -8 2.00098zM836.998 293.998
c0 20.667 -9.16699 38.334 -27.5 53.001s-43.5 22 -75.5 22c-29.333 0 -53 -5.66699 -71 -17s-27 -25.333 -27 -42c0 -6.66699 1 -12.834 3 -18.501s4 -10.5 6 -14.5s5.83301 -8 11.5 -12l13 -9c3 -2 8.5 -4.66699 16.5 -8s13.5 -5.5 16.5 -6.5l18.5 -6l17 -5.5
c30 -8 47 -12.667 51 -14c32 21.333 48 47.333 48 78zM250.998 -12.002h-28l457 723h28zM73.998 679.998l245 0.000976562v-47h-197l-8 -117c24.667 6.66699 48 10 70 10c43.333 0 80 -10.667 110 -32s45 -54.333 45 -99c0 -40.667 -14.833 -72.5 -44.5 -95.5
s-67.5 -34.5 -113.5 -34.5c-50 0 -93.667 9 -131 27v48c35.333 -19.333 77 -29 125 -29c34.667 0 62.167 7.16699 82.5 21.5s30.5 35.166 30.5 62.499c0 56.667 -40.333 85 -121 85c-36.667 0 -72 -6.33301 -106 -19z" />
    <glyph glyph-name="seveneighths" unicode="&#x215e;" horiz-adv-x="842" 
d="M151 -12h-28l457 723h28zM488 310c0 28 12.832 52.5 38.499 73.5s62.5 31.5 110.5 31.5c44.667 0 80.834 -11 108.501 -33s42.167 -48.333 43.5 -79c1.33301 -42 -17.334 -76.333 -56.001 -103c46.667 -22.667 70 -54.667 70 -96
c0 -30.667 -13.833 -56.834 -41.5 -78.501s-68.167 -32.5 -121.5 -32.5c-52.667 0 -93.5 11.5 -122.5 34.5s-43.5 51.167 -43.5 84.5c0 20.667 5.83301 40.834 17.5 60.501s28.834 36.167 51.501 49.5c-36.667 22.667 -55 52 -55 88zM642.999 184
c-28 8 -47.001 13.998 -57.001 17.998c-41.333 -20 -62 -48 -62 -84c0 -24.667 10.333 -44 31 -58s49.667 -21 87 -21c32.667 0 59.334 5.83301 80.001 17.5s31 26.834 31 45.501c0 15.333 -5.16699 28.333 -15.5 39s-22 18.5 -35 23.5s-30.167 10.833 -51.5 17.5
c-3.33301 0.666992 -6 1.33398 -8 2.00098zM739.998 293.998c0 20.667 -9.16699 38.334 -27.5 53.001s-43.5 22 -75.5 22c-29.333 0 -53 -5.66699 -71 -17s-27 -25.333 -27 -42c0 -6.66699 1 -12.834 3 -18.501s4 -10.5 6 -14.5s5.83301 -8 11.5 -12l13 -9
c3 -2 8.5 -4.66699 16.5 -8s13.5 -5.5 16.5 -6.5l18.5 -6l17 -5.5c30 -8 47 -12.667 51 -14c32 21.333 48 47.333 48 78zM156.998 271.998h-54l162 361h-228v47h282v-45z" />
    <glyph glyph-name="partialdiff" unicode="&#x2202;" horiz-adv-x="594" 
d="M540 269c0 -88 -22.665 -156.667 -67.998 -206s-105.666 -74 -180.999 -74c-71.333 0 -130.166 21.333 -176.499 64s-69.5 99 -69.5 169c0 64.667 22.5 118.167 67.5 160.5s98.833 63.5 161.5 63.5c50 0 95 -12.333 135 -37s66.667 -59 80 -103
c0 4.66699 -0.666992 12.334 -2 23.001c-6.66699 58 -22.667 108.333 -48 151s-56.5 75.667 -93.5 99s-75.667 40.333 -116 51s-82.833 16 -127.5 16v54c43.333 0 85.166 -4.66699 125.499 -14s79.666 -25 117.999 -47s71.666 -49.167 99.999 -81.5
s51.166 -73.333 68.499 -123s26 -104.834 26 -165.501zM101.002 222c0 -54 17.3291 -97.332 51.9961 -129.999s80.334 -49 137.001 -49c52.667 0 94.834 14.333 126.501 43s51.834 67.667 60.501 117c-1.33301 58 -20.666 104.167 -57.999 138.5s-83 51.5 -137 51.5
c-52 0 -95.167 -15.833 -129.5 -47.5s-51.5 -72.834 -51.5 -123.501z" />
    <glyph glyph-name="emptyset" unicode="&#x2205;" horiz-adv-x="817" 
d="M727 700l-73.001 -85.001c78 -71.333 117 -159.666 117 -264.999c0 -99.333 -35.5 -184.333 -106.5 -255s-156.167 -106 -255.5 -106c-84 0 -159 26 -225 78l-57 -67h-37l73 85c-77.333 72 -116 160.333 -116 265c0 99.333 35.5 184.333 106.5 255s156.167 106 255.5 106
c84.667 0 159.334 -26 224.001 -78l57 67h37zM408.999 679.999c-90.667 0 -168.333 -32.332 -233 -96.999s-97 -142.334 -97 -233.001c0 -96 35 -176.333 105 -241l428 500c-58 47.333 -125.667 71 -203 71zM205 91c60 -47.333 127.999 -71 203.999 -71
c90.667 0 168.334 32.333 233.001 97s97 142.334 97 233.001c0 95.333 -35 175.666 -105 240.999z" />
    <glyph glyph-name="product" unicode="&#x220f;" horiz-adv-x="740" 
d="M195 -220h-60v863h-98v57h667v-57h-99v-863h-59v863h-351v-863z" />
    <glyph glyph-name="summation" unicode="&#x2211;" horiz-adv-x="564" 
d="M513 0h-473v34l275 316l-275 316v34h471v-57h-375l250 -286v-14l-250 -286h377v-57z" />
    <glyph glyph-name="minus" unicode="&#x2212;" horiz-adv-x="515" 
d="M445 320h-375v54h375v-54z" />
    <glyph glyph-name="radical" unicode="&#x221a;" horiz-adv-x="726" 
d="M358 0h-53l-180 423h-97v57h135l170 -411l332 711h62z" />
    <glyph glyph-name="infinity" unicode="&#x221e;" horiz-adv-x="835" 
d="M418 403c28 41.333 56.667 73.5 86 96.5s65 34.5 107 34.5c48 0 88.333 -15.833 121 -47.5s49 -74.5 49 -128.5s-16.333 -96.833 -49 -128.5s-73 -47.5 -121 -47.5c-42.667 0 -78.667 11.5 -108 34.5s-58 55.167 -86 96.5c-28.667 -42 -57.5 -74.333 -86.5 -97
s-64.5 -34 -106.5 -34c-48 0 -88.333 15.833 -121 47.5s-49 74.5 -49 128.5s16.333 96.833 49 128.5s73 47.5 121 47.5c42.667 0 78.5 -11.333 107.5 -34s57.833 -55 86.5 -97zM387 357c-13.333 20 -24.332 35.833 -32.999 47.5s-19.667 24.167 -33 37.5s-27.333 23 -42 29
s-30.334 9 -47.001 9c-34.667 0 -63.5 -10.5 -86.5 -31.5s-34.5 -51.167 -34.5 -90.5s11.5 -69.5 34.5 -90.5s51.833 -31.5 86.5 -31.5c32 0 59.333 10.167 82 30.5s47 50.5 73 90.5zM724.001 358c0 39.333 -11.501 69.501 -34.501 90.501s-51.833 31.5 -86.5 31.5
c-32 0 -59.333 -10.167 -82 -30.5s-47 -50.5 -73 -90.5c26.667 -40.667 51.334 -71.334 74.001 -92.001s49.667 -31 81 -31c34.667 0 63.5 10.5 86.5 31.5s34.5 51.167 34.5 90.5z" />
    <glyph glyph-name="integral" unicode="&#x222b;" horiz-adv-x="407" 
d="M175 648c0 50 14.333 86.333 43 109s63 34 103 34c29.333 0 55 -4.66699 77 -14v-53c-22 8.66699 -45.667 13 -71 13c-26 0 -48.333 -6.83301 -67 -20.5s-28 -37.167 -28 -70.5v-734c0 -50 -14.333 -86.333 -43 -109s-63 -34 -103 -34c-29.333 0 -55 4.66699 -77 14v53
c21.333 -8.66699 43 -13 65 -13c67.333 0 101 30.333 101 91v734z" />
    <glyph glyph-name="approxequal" unicode="&#x2248;" horiz-adv-x="586" 
d="M516 478c1.33301 -30.667 -6.83203 -55.3311 -24.499 -73.998s-41.834 -28 -72.501 -28c-24 0 -64.5 10.167 -121.5 30.5s-97.167 30.5 -120.5 30.5c-15.333 0 -27.333 -4.16699 -36 -12.5s-12.667 -20.5 -12 -36.5h-54c-0.666992 31.333 7.83301 56.166 25.5 74.499
s41.167 27.5 70.5 27.5c25.333 0 66 -10 122 -30s96.333 -30 121 -30c14.667 0 26.5 4.16699 35.5 12.5s13.167 20.166 12.5 35.499h54zM516.002 330.003c1.33301 -30.667 -6.83203 -55.3311 -24.499 -73.998s-41.834 -28 -72.501 -28c-24 0 -64.5 10.167 -121.5 30.5
s-97.167 30.5 -120.5 30.5c-15.333 0 -27.333 -4.16699 -36 -12.5s-12.667 -20.5 -12 -36.5h-54c-0.666992 31.333 7.83301 56.166 25.5 74.499s41.167 27.5 70.5 27.5c25.333 0 66 -10 122 -30s96.333 -30 121 -30c14.667 0 26.5 4.16699 35.5 12.5
s13.167 20.166 12.5 35.499h54z" />
    <glyph glyph-name="notequal" unicode="&#x2260;" horiz-adv-x="549" 
d="M166 131h-51l62 101h-107v54h140l78 128h-218v54h251l62 101h50l-62 -101h108v-54h-140l-79 -128h219v-54h-251z" />
    <glyph glyph-name="lessequal" unicode="&#x2264;" horiz-adv-x="529" 
d="M440 237v-56l-368 156v58l368 156v-56l-310 -129zM440 0h-368v54h368v-54z" />
    <glyph glyph-name="greaterequal" unicode="&#x2265;" horiz-adv-x="529" 
d="M457 337l-368 -156v56l310 129l-310 129v56l368 -156v-58zM457 0h-368v54h368v-54z" />
    <glyph glyph-name="lozenge" unicode="&#x25ca;" horiz-adv-x="554" 
d="M309 0h-63l-209 350l209 350h63l208 -350zM101 350l176 -290l177 290l-177 290z" />
    <glyph glyph-name=".null" horiz-adv-x="0" 
 />
    <glyph glyph-name="nonmarkingreturn" horiz-adv-x="333" 
 />
    <glyph glyph-name="i.loclTRK" horiz-adv-x="219" 
d="M81 480h57v-480h-57v480zM60 603c0 14 4.5 25 13.5 33s20.167 12 33.5 12s24.333 -4 33 -12s13 -19 13 -33c0 -14.667 -4.33301 -26 -13 -34s-19.667 -12 -33 -12s-24.5 4 -33.5 12s-13.5 19.333 -13.5 34z" />
    <glyph glyph-name="a.ss01" horiz-adv-x="617" 
d="M488 99c-49.333 -73.333 -117 -110 -203 -110c-69.333 0 -126.833 23.5 -172.5 70.5s-68.5 107.167 -68.5 180.5s22.833 133.5 68.5 180.5s103.167 70.5 172.5 70.5c86 0 153.667 -36.667 203 -110v99h51v-480h-51v99zM101 240c0 -60.667 18.167 -109 54.5 -145
s81.5 -54 135.5 -54c44.667 0 84.167 12.833 118.5 38.5s58.833 57.5 73.5 95.5v130c-14.667 38 -39.167 69.833 -73.5 95.5s-73.833 38.5 -118.5 38.5c-54 0 -99.167 -18.167 -135.5 -54.5s-54.5 -84.5 -54.5 -144.5z" />
    <glyph glyph-name="aacute.ss01" horiz-adv-x="617" 
d="M488 99c-49.333 -73.333 -117 -110 -203 -110c-69.333 0 -126.833 23.5 -172.5 70.5s-68.5 107.167 -68.5 180.5s22.833 133.5 68.5 180.5s103.167 70.5 172.5 70.5c86 0 153.667 -36.667 203 -110v99h51v-480h-51v99zM101 240c0 -60.667 18.167 -109 54.5 -145
s81.5 -54 135.5 -54c44.667 0 84.167 12.833 118.5 38.5s58.833 57.5 73.5 95.5v130c-14.667 38 -39.167 69.833 -73.5 95.5s-73.833 38.5 -118.5 38.5c-54 0 -99.167 -18.167 -135.5 -54.5s-54.5 -84.5 -54.5 -144.5zM319 553h-62l90 142h71z" />
    <glyph glyph-name="abreve.ss01" horiz-adv-x="617" 
d="M488 99c-49.333 -73.333 -117 -110 -203 -110c-69.333 0 -126.833 23.5 -172.5 70.5s-68.5 107.167 -68.5 180.5s22.833 133.5 68.5 180.5s103.167 70.5 172.5 70.5c86 0 153.667 -36.667 203 -110v99h51v-480h-51v99zM101 240c0 -60.667 18.167 -109 54.5 -145
s81.5 -54 135.5 -54c44.667 0 84.167 12.833 118.5 38.5s58.833 57.5 73.5 95.5v130c-14.667 38 -39.167 69.833 -73.5 95.5s-73.833 38.5 -118.5 38.5c-54 0 -99.167 -18.167 -135.5 -54.5s-54.5 -84.5 -54.5 -144.5zM445 595c-37.333 -27.333 -82.001 -41 -134.001 -41
c-52.667 0 -97 13.667 -133 41v57c40 -29.333 84.333 -44 133 -44s93.334 14.667 134.001 44v-57z" />
    <glyph glyph-name="acircumflex.ss01" horiz-adv-x="617" 
d="M488 99c-49.333 -73.333 -117 -110 -203 -110c-69.333 0 -126.833 23.5 -172.5 70.5s-68.5 107.167 -68.5 180.5s22.833 133.5 68.5 180.5s103.167 70.5 172.5 70.5c86 0 153.667 -36.667 203 -110v99h51v-480h-51v99zM101 240c0 -60.667 18.167 -109 54.5 -145
s81.5 -54 135.5 -54c44.667 0 84.167 12.833 118.5 38.5s58.833 57.5 73.5 95.5v130c-14.667 38 -39.167 69.833 -73.5 95.5s-73.833 38.5 -118.5 38.5c-54 0 -99.167 -18.167 -135.5 -54.5s-54.5 -84.5 -54.5 -144.5zM288 691h51l130 -137h-65l-90 94l-90 -94h-65z" />
    <glyph glyph-name="adieresis.ss01" horiz-adv-x="617" 
d="M488 99c-49.333 -73.333 -117 -110 -203 -110c-69.333 0 -126.833 23.5 -172.5 70.5s-68.5 107.167 -68.5 180.5s22.833 133.5 68.5 180.5s103.167 70.5 172.5 70.5c86 0 153.667 -36.667 203 -110v99h51v-480h-51v99zM101 240c0 -60.667 18.167 -109 54.5 -145
s81.5 -54 135.5 -54c44.667 0 84.167 12.833 118.5 38.5s58.833 57.5 73.5 95.5v130c-14.667 38 -39.167 69.833 -73.5 95.5s-73.833 38.5 -118.5 38.5c-54 0 -99.167 -18.167 -135.5 -54.5s-54.5 -84.5 -54.5 -144.5zM452 616c0 -11.333 -4 -21 -12 -29
s-17.667 -12 -29 -12s-21.166 4 -29.499 12s-12.5 17.667 -12.5 29s4.16699 21.166 12.5 29.499s18.166 12.5 29.499 12.5s21 -4.16699 29 -12.5s12 -18.166 12 -29.499zM251 616c0 -11.333 -4 -21 -12 -29s-17.667 -12 -29 -12s-21.166 4 -29.499 12s-12.5 17.667 -12.5 29
s4.16699 21.166 12.5 29.499s18.166 12.5 29.499 12.5s21 -4.16699 29 -12.5s12 -18.166 12 -29.499z" />
    <glyph glyph-name="agrave.ss01" horiz-adv-x="617" 
d="M488 99c-49.333 -73.333 -117 -110 -203 -110c-69.333 0 -126.833 23.5 -172.5 70.5s-68.5 107.167 -68.5 180.5s22.833 133.5 68.5 180.5s103.167 70.5 172.5 70.5c86 0 153.667 -36.667 203 -110v99h51v-480h-51v99zM101 240c0 -60.667 18.167 -109 54.5 -145
s81.5 -54 135.5 -54c44.667 0 84.167 12.833 118.5 38.5s58.833 57.5 73.5 95.5v130c-14.667 38 -39.167 69.833 -73.5 95.5s-73.833 38.5 -118.5 38.5c-54 0 -99.167 -18.167 -135.5 -54.5s-54.5 -84.5 -54.5 -144.5zM364 553h-63l-98 142h71z" />
    <glyph glyph-name="amacron.ss01" horiz-adv-x="617" 
d="M488 99c-49.333 -73.333 -117 -110 -203 -110c-69.333 0 -126.833 23.5 -172.5 70.5s-68.5 107.167 -68.5 180.5s22.833 133.5 68.5 180.5s103.167 70.5 172.5 70.5c86 0 153.667 -36.667 203 -110v99h51v-480h-51v99zM101 240c0 -60.667 18.167 -109 54.5 -145
s81.5 -54 135.5 -54c44.667 0 84.167 12.833 118.5 38.5s58.833 57.5 73.5 95.5v130c-14.667 38 -39.167 69.833 -73.5 95.5s-73.833 38.5 -118.5 38.5c-54 0 -99.167 -18.167 -135.5 -54.5s-54.5 -84.5 -54.5 -144.5zM171 627h280v-52h-280v52z" />
    <glyph glyph-name="aogonek.ss01" horiz-adv-x="617" 
d="M101 240c0 -60.667 18.167 -109 54.5 -145s81.5 -54 135.5 -54c44.667 0 84.167 12.833 118.5 38.5s58.833 57.5 73.5 95.5v130c-14.667 38 -39.167 69.833 -73.5 95.5s-73.833 38.5 -118.5 38.5c-54 0 -99.167 -18.167 -135.5 -54.5s-54.5 -84.5 -54.5 -144.5zM539 0
c-29.333 -20.667 -53.1689 -43.8311 -71.502 -69.498s-27.166 -48.5 -26.499 -68.5c-0.666992 -14.667 3.5 -26.167 12.5 -34.5s21.5 -12.5 37.5 -12.5c18 0 34 3.33301 48 10v-44c-17.333 -8.66699 -37.666 -13 -60.999 -13c-28.667 -0.666992 -51 6.66602 -67 21.999
s-24 35.666 -24 60.999c0 50 33.667 106.667 101 170v78c-49.333 -73.333 -117 -110 -203 -110c-69.333 0 -126.833 23.5 -172.5 70.5s-68.5 107.167 -68.5 180.5s22.833 133.5 68.5 180.5s103.167 70.5 172.5 70.5c86 0 153.667 -36.667 203 -110v99h51v-480z" />
    <glyph glyph-name="aring.ss01" horiz-adv-x="617" 
d="M488 99c-49.333 -73.333 -117 -110 -203 -110c-69.333 0 -126.833 23.5 -172.5 70.5s-68.5 107.167 -68.5 180.5s22.833 133.5 68.5 180.5s103.167 70.5 172.5 70.5c86 0 153.667 -36.667 203 -110v99h51v-480h-51v99zM101 240c0 -60.667 18.167 -109 54.5 -145
s81.5 -54 135.5 -54c44.667 0 84.167 12.833 118.5 38.5s58.833 57.5 73.5 95.5v130c-14.667 38 -39.167 69.833 -73.5 95.5s-73.833 38.5 -118.5 38.5c-54 0 -99.167 -18.167 -135.5 -54.5s-54.5 -84.5 -54.5 -144.5zM412 629c0 -29.333 -9.99902 -53.166 -29.999 -71.499
s-44 -27.5 -72 -27.5s-52.167 9.16699 -72.5 27.5s-30.5 42.166 -30.5 71.499c0 28.667 10.167 52 30.5 70s44.5 27 72.5 27c27.333 0 51.166 -9 71.499 -27s30.5 -41.333 30.5 -70zM251.001 628c0 -18 5.83301 -32.167 17.5 -42.5s25.5 -15.5 41.5 -15.5
s29.833 5.16699 41.5 15.5s17.5 24.5 17.5 42.5c0 17.333 -5.83301 31.333 -17.5 42s-25.5 16 -41.5 16s-29.833 -5.33301 -41.5 -16s-17.5 -24.667 -17.5 -42z" />
    <glyph glyph-name="atilde.ss01" horiz-adv-x="617" 
d="M488 99c-49.333 -73.333 -117 -110 -203 -110c-69.333 0 -126.833 23.5 -172.5 70.5s-68.5 107.167 -68.5 180.5s22.833 133.5 68.5 180.5s103.167 70.5 172.5 70.5c86 0 153.667 -36.667 203 -110v99h51v-480h-51v99zM101 240c0 -60.667 18.167 -109 54.5 -145
s81.5 -54 135.5 -54c44.667 0 84.167 12.833 118.5 38.5s58.833 57.5 73.5 95.5v130c-14.667 38 -39.167 69.833 -73.5 95.5s-73.833 38.5 -118.5 38.5c-54 0 -99.167 -18.167 -135.5 -54.5s-54.5 -84.5 -54.5 -144.5zM467 646c4 -28.667 -1.00098 -51.167 -15.001 -67.5
s-33 -24.5 -57 -24.5c-21.333 0 -50 8 -86 24s-59.333 24 -70 24c-12 0 -20.833 -4 -26.5 -12s-7.83398 -18.333 -6.50098 -31h-50c-4 28 1 50.5 15 67.5s32.333 25.5 55 25.5c20.667 0 49.334 -8 86.001 -24s60.334 -24 71.001 -24c24.667 0 36 14 34 42h50z" />
    <glyph glyph-name="ae.ss01" horiz-adv-x="993" 
d="M488 99c-49.333 -73.333 -117.004 -110 -203.004 -110c-69.333 0 -126.833 23.5 -172.5 70.5s-68.5 107.167 -68.5 180.5s22.833 133.5 68.5 180.5s103.167 70.5 172.5 70.5c86 0 153.667 -36.667 203 -110v99h51v-110c18.667 38.667 45.334 68.5 80.001 89.5
s72.667 31.5 114 31.5c42.667 0 80 -8.5 112 -25.5s55.5 -39 70.5 -66s25.667 -57.333 32 -91s5.5 -66.834 -2.5 -99.501h-399c4 -55.333 26.333 -97.166 67 -125.499s90 -42.5 148 -42.5c58.667 0 110.334 13 155.001 39v-53c-43.333 -25.333 -96.333 -38 -159 -38
c-49.333 0 -93.166 10.167 -131.499 30.5s-67.166 50.833 -86.499 91.5v-111h-51v99zM100.996 240c0 -60.667 18.167 -109 54.5 -145s81.5 -54 135.5 -54c44.667 0 84.167 12.833 118.5 38.5s58.833 57.5 73.5 95.5v130c-14.667 38 -39.167 69.833 -73.5 95.5
s-73.833 38.5 -118.5 38.5c-54 0 -99.167 -18.167 -135.5 -54.5s-54.5 -84.5 -54.5 -144.5zM729.996 439c-50 0 -92.498 -15.833 -127.498 -47.5s-53.833 -75.834 -56.5 -132.501h349c2 19.333 0.666992 39 -4 59s-12.834 39.333 -24.501 58s-29.334 33.834 -53.001 45.501
s-51.5 17.5 -83.5 17.5z" />
    <glyph glyph-name="y.ss01" 
d="M504 -3c-0.666992 -40.667 -8.16895 -76.165 -22.502 -106.498s-33.5 -54 -57.5 -71s-49.5 -29.667 -76.5 -38s-55.833 -12.5 -86.5 -12.5c-68 0 -124 12.667 -168 38v53c40 -26 93.667 -39 161 -39c54.667 0 100.667 13.833 138 41.5s55.666 72.5 54.999 134.5v83
c-19.333 -24.667 -44.666 -46 -75.999 -64s-66.333 -27 -105 -27c-58.667 0 -105.667 17.667 -141 53s-53 82.666 -53 141.999v296h57v-289c0 -48.667 12.667 -85.834 38 -111.501s60.333 -38.5 105 -38.5c38.667 0 72.834 10.667 102.501 32s53.834 47.333 72.501 78v329
h57v-483z" />
    <glyph glyph-name="yacute.ss01" 
d="M504 -3c-0.666992 -40.667 -8.16895 -76.165 -22.502 -106.498s-33.5 -54 -57.5 -71s-49.5 -29.667 -76.5 -38s-55.833 -12.5 -86.5 -12.5c-68 0 -124 12.667 -168 38v53c40 -26 93.667 -39 161 -39c54.667 0 100.667 13.833 138 41.5s55.666 72.5 54.999 134.5v83
c-19.333 -24.667 -44.666 -46 -75.999 -64s-66.333 -27 -105 -27c-58.667 0 -105.667 17.667 -141 53s-53 82.666 -53 141.999v296h57v-289c0 -48.667 12.667 -85.834 38 -111.501s60.333 -38.5 105 -38.5c38.667 0 72.834 10.667 102.501 32s53.834 47.333 72.501 78v329
h57v-483zM298.998 553.002h-62l90 142h71z" />
    <glyph glyph-name="ycircumflex.ss01" 
d="M504 -3c-0.666992 -40.667 -8.16895 -76.165 -22.502 -106.498s-33.5 -54 -57.5 -71s-49.5 -29.667 -76.5 -38s-55.833 -12.5 -86.5 -12.5c-68 0 -124 12.667 -168 38v53c40 -26 93.667 -39 161 -39c54.667 0 100.667 13.833 138 41.5s55.666 72.5 54.999 134.5v83
c-19.333 -24.667 -44.666 -46 -75.999 -64s-66.333 -27 -105 -27c-58.667 0 -105.667 17.667 -141 53s-53 82.666 -53 141.999v296h57v-289c0 -48.667 12.667 -85.834 38 -111.501s60.333 -38.5 105 -38.5c38.667 0 72.834 10.667 102.501 32s53.834 47.333 72.501 78v329
h57v-483zM267.998 691.002h51l130 -137h-65l-90 94l-90 -94h-65z" />
    <glyph glyph-name="ydieresis.ss01" 
d="M504 -3c-0.666992 -40.667 -8.16895 -76.165 -22.502 -106.498s-33.5 -54 -57.5 -71s-49.5 -29.667 -76.5 -38s-55.833 -12.5 -86.5 -12.5c-68 0 -124 12.667 -168 38v53c40 -26 93.667 -39 161 -39c54.667 0 100.667 13.833 138 41.5s55.666 72.5 54.999 134.5v83
c-19.333 -24.667 -44.666 -46 -75.999 -64s-66.333 -27 -105 -27c-58.667 0 -105.667 17.667 -141 53s-53 82.666 -53 141.999v296h57v-289c0 -48.667 12.667 -85.834 38 -111.501s60.333 -38.5 105 -38.5c38.667 0 72.834 10.667 102.501 32s53.834 47.333 72.501 78v329
h57v-483zM431.998 616.002c0 -11.333 -4 -21 -12 -29s-17.667 -12 -29 -12s-21.166 4 -29.499 12s-12.5 17.667 -12.5 29s4.16699 21.166 12.5 29.499s18.166 12.5 29.499 12.5s21 -4.16699 29 -12.5s12 -18.166 12 -29.499zM230.998 616.002c0 -11.333 -4 -21 -12 -29
s-17.667 -12 -29 -12s-21.166 4 -29.499 12s-12.5 17.667 -12.5 29s4.16699 21.166 12.5 29.499s18.166 12.5 29.499 12.5s21 -4.16699 29 -12.5s12 -18.166 12 -29.499z" />
    <glyph glyph-name="ygrave.ss01" 
d="M504 -3c-0.666992 -40.667 -8.16895 -76.165 -22.502 -106.498s-33.5 -54 -57.5 -71s-49.5 -29.667 -76.5 -38s-55.833 -12.5 -86.5 -12.5c-68 0 -124 12.667 -168 38v53c40 -26 93.667 -39 161 -39c54.667 0 100.667 13.833 138 41.5s55.666 72.5 54.999 134.5v83
c-19.333 -24.667 -44.666 -46 -75.999 -64s-66.333 -27 -105 -27c-58.667 0 -105.667 17.667 -141 53s-53 82.666 -53 141.999v296h57v-289c0 -48.667 12.667 -85.834 38 -111.501s60.333 -38.5 105 -38.5c38.667 0 72.834 10.667 102.501 32s53.834 47.333 72.501 78v329
h57v-483zM343.998 553.002h-63l-98 142h71z" />
    <glyph glyph-name="f_b" horiz-adv-x="961" 
d="M478 387c20 30 47 54.833 81 74.5s73.333 29.5 118 29.5c68.667 0 125.667 -23.5 171 -70.5s68 -107.167 68 -180.5s-22.667 -133.5 -68 -180.5s-102.333 -70.5 -171 -70.5c-86 0 -154.333 36.667 -205 110v-99h-51v629c-40 20 -83.333 30 -130 30
c-38 0 -68.333 -9.5 -91 -28.5s-34 -46.5 -34 -82.5v-68h169v-53h-169v-427h-56v427h-87v53h87v68c0 52 16.667 92.167 50 120.5s76 42.5 128 42.5c46.667 0 91 -9.66699 133 -29v5l57 15v-315zM477 175c14.667 -38 39.335 -69.833 74.002 -95.5s74.334 -38.5 119.001 -38.5
c54 0 99 18.167 135 54.5s54 84.5 54 144.5c0 60.667 -17.833 109 -53.5 145s-80.834 54 -135.501 54c-44.667 0 -84.334 -12.833 -119.001 -38.5s-59.334 -57.5 -74.001 -95.5v-130z" />
    <glyph glyph-name="f_f_b" horiz-adv-x="1271" 
d="M788 387c20 30 46.999 54.832 80.999 74.499s73.333 29.5 118 29.5c68.667 0 125.667 -23.5 171 -70.5s68 -107.167 68 -180.5s-22.667 -133.5 -68 -180.5s-102.333 -70.5 -171 -70.5c-86 0 -154.333 36.667 -205 110v-99h-51v636c-40.667 19.333 -84 29 -130 29
c-38 0 -68.333 -9.66699 -91 -29s-34 -48.666 -34 -87.999v-68h169v-53h-169v-427h-56v427h-254v-427h-56v427h-87v53h87v55c0 52 16.833 92.167 50.5 120.5s77.167 42.5 130.5 42.5c52.667 0 105.334 -15.667 158.001 -47c32 44.667 81.667 67 149 67
c46.667 0 91 -9.66699 133 -29v4l57 15v-321zM418.999 479.999v68.001c0 21.333 3 40.666 9 57.999c-40 26 -84.667 39 -134 39c-39.333 0 -70.5 -9.33301 -93.5 -28s-34.5 -46 -34.5 -82v-55h253zM786.999 175c14.667 -38 39.335 -69.833 74.002 -95.5
s74.334 -38.5 119.001 -38.5c54 0 99 18.167 135 54.5s54 84.5 54 144.5c0 60.667 -17.833 109 -53.5 145s-80.834 54 -135.501 54c-44.667 0 -84.334 -12.833 -119.001 -38.5s-59.334 -57.5 -74.001 -95.5v-130z" />
    <glyph glyph-name="f_f_h" horiz-adv-x="1235" 
d="M788 400c19.333 24.667 44.667 46 76 64s66 27 104 27c56.667 0 103.334 -17.833 140.001 -53.5s55 -82.834 55 -141.501v-296h-57v289c0 48 -13.333 85 -40 111s-61.334 39 -104.001 39c-38 0 -71.833 -10.667 -101.5 -32s-53.834 -47.333 -72.501 -78v-329h-57v636
c-40.667 19.333 -84 29 -130 29c-38 0 -68.333 -9.66699 -91 -29s-34 -48.666 -34 -87.999v-68h169v-53h-169v-427h-56v427h-254v-427h-56v427h-87v53h87v55c0 52 16.833 92.167 50.5 120.5s77.167 42.5 130.5 42.5c52.667 0 105.334 -15.667 158.001 -47
c32 44.667 81.667 67 149 67c46.667 0 91 -9.66699 133 -29v4l57 15v-308zM419.001 480v68.001c0 21.333 3 40.666 9 57.999c-40 26 -84.667 39 -134 39c-39.333 0 -70.5 -9.33301 -93.5 -28s-34.5 -46 -34.5 -82v-55h253z" />
    <glyph glyph-name="f_f_j" horiz-adv-x="859" 
d="M778 -100c0 -47.333 -12.502 -81 -37.502 -101s-55.5 -30 -91.5 -30c-28 0 -52 4 -72 12v53c18.667 -8.66699 37.667 -13 57 -13c58 0 87 29 87 87v519h-245v-427h-56v427h-254v-427h-56v427h-87v53h87v55c0 52 16.833 92.167 50.5 120.5s77.167 42.5 130.5 42.5
c52.667 0 105.334 -15.667 158.001 -47c30.667 44.667 80.334 67 149.001 67c50 0 100 -13 150 -39v-57c-48.667 28.667 -97.667 43 -147 43c-38 0 -68.333 -9.5 -91 -28.5s-34 -47.167 -34 -84.5v-72h302v-580zM165.998 535v-55h253v72c0 18.667 2.66699 36.667 8 54
c-40 26 -84.333 39 -133 39c-39.333 0 -70.5 -9.33301 -93.5 -28s-34.5 -46 -34.5 -82z" />
    <glyph glyph-name="f_f_k" horiz-adv-x="1162" 
d="M1133 480l-189.001 -236.001l214 -244h-67l-195 219h-108v-219h-57v636c-40.667 19.333 -84 29 -130 29c-38 0 -68.333 -9.66699 -91 -29s-34 -48.666 -34 -87.999v-68h169v-53h-169v-427h-56v427h-254v-427h-56v427h-87v53h87v55c0 52 16.833 92.167 50.5 120.5
s77.167 42.5 130.5 42.5c52.667 0 105.334 -15.667 158.001 -47c32 44.667 81.667 67 149 67c46.667 0 91 -9.66699 133 -29v4l57 15v-436h111l168 208h66zM418.999 479.999v68.001c0 21.333 3 40.666 9 57.999c-40 26 -84.667 39 -134 39
c-39.333 0 -70.5 -9.33301 -93.5 -28s-34.5 -46 -34.5 -82v-55h253z" />
    <glyph glyph-name="f_h" horiz-adv-x="925" 
d="M478 400c19.333 24.667 44.668 46.001 76.001 64.001s66 27 104 27c56.667 0 103.334 -17.833 140.001 -53.5s55 -82.834 55 -141.501v-296h-57v289c0 48 -13.333 85 -40 111s-61.334 39 -104.001 39c-38 0 -71.833 -10.667 -101.5 -32s-53.834 -47.333 -72.501 -78v-329
h-57v629c-40 20 -83.333 30 -130 30c-38 0 -68.333 -9.5 -91 -28.5s-34 -46.5 -34 -82.5v-68h169v-53h-169v-427h-56v427h-87v53h87v68c0 52 16.667 92.167 50 120.5s76 42.5 128 42.5c46.667 0 91 -9.66699 133 -29v5l57 15v-302z" />
    <glyph glyph-name="f_i" horiz-adv-x="549" 
d="M166 480h302v-480h-57v427h-245v-427h-56v427h-87v53h87v68c0 52 16.667 92.167 50 120.5s76 42.5 128 42.5c50 0 100 -13 150 -39v-57c-50 29.333 -99 44 -147 44c-38 0 -68.333 -9.5 -91 -28.5s-34 -46.5 -34 -82.5v-68z" />
    <glyph glyph-name="f_j" horiz-adv-x="549" 
d="M166 480h302v-580c0 -47.333 -12.5 -81 -37.5 -101s-55.5 -30 -91.5 -30c-28 0 -52 4 -72 12v53c18.667 -8.66699 37.667 -13 57 -13c58 0 87 29 87 87v519h-245v-427h-56v427h-87v53h87v68c0 52 16.667 92.167 50 120.5s76 42.5 128 42.5c50 0 100 -13 150 -39v-57
c-50 29.333 -99 44 -147 44c-38 0 -68.333 -9.5 -91 -28.5s-34 -46.5 -34 -82.5v-68z" />
    <glyph glyph-name="f_k" horiz-adv-x="852" 
d="M823 480l-189 -236l214 -244h-67l-195 219h-108v-219h-57v629c-40 20 -83.333 30 -130 30c-38 0 -68.333 -9.5 -91 -28.5s-34 -46.5 -34 -82.5v-68h169v-53h-169v-427h-56v427h-87v53h87v68c0 52 16.667 92.167 50 120.5s76 42.5 128 42.5c46.667 0 91 -9.66699 133 -29
v5l57 15v-430h111l168 208h66z" />
    <glyph glyph-name="f_l" horiz-adv-x="559" 
d="M421 682v5l57 15v-702h-57v629c-40 20 -83.333 30 -130 30c-38 0 -68.333 -9.5 -91 -28.5s-34 -46.5 -34 -82.5v-68h169v-53h-169v-427h-56v427h-87v53h87v68c0 52 16.667 92.167 50 120.5s76 42.5 128 42.5c46.667 0 91 -9.66699 133 -29z" />
    <glyph glyph-name="uni0414.loclBGR" horiz-adv-x="791" 
d="M84 -170h-57v227h74l261 643h67l261 -643h74v-227h-57v170h-623v-170zM396 634l-231 -577h462z" />
    <glyph glyph-name="uni041B.loclBGR" horiz-adv-x="679" 
d="M309 700h61l297 -700h-64l-264 633l-263 -633h-64z" />
    <glyph glyph-name="uni0424.loclBGR" horiz-adv-x="897" 
d="M478 -103l-59 0.00390625v96c-112.667 4 -202.667 39.167 -270 105.5s-101 150.166 -101 251.499s33.667 185.166 101 251.499s157.333 101.5 270 105.5v96h59v-96c112.667 -4 202.667 -39.333 270 -106s101 -150.334 101 -251.001s-33.667 -184.334 -101 -251.001
s-157.333 -102 -270 -106v-96zM108 350.004c0 -84 27.333 -154 82 -210s131 -86 229 -90v600c-98 -4 -174.333 -34 -229 -90s-82 -126 -82 -210zM478 650.004v-599.998c97.333 4 173.5 34.167 228.5 90.5s82.5 126.166 82.5 209.499s-27.5 153.166 -82.5 209.499
s-131.167 86.5 -228.5 90.5z" />
    <glyph glyph-name="uni0432.loclBGR" horiz-adv-x="579" 
d="M489 548c0 -71.333 -36.667 -123 -110 -155c46.667 -8.66699 84.5 -30.5 113.5 -65.5s43.5 -77.5 43.5 -127.5c0 -60.667 -20.833 -111 -62.5 -151s-97.167 -60 -166.5 -60c-72 0 -130 23 -174 69s-66 113 -66 201v127c0 103.333 20.5 183.333 61.5 240
s100.5 85 178.5 85c54.667 0 98.667 -15.667 132 -47s50 -70 50 -116zM433 544c0 30.667 -11.5 57.5 -34.5 80.5s-53.5 34.5 -91.5 34.5c-122 0 -183 -91 -183 -273v-10l167 29c46.667 8 82 25 106 51s36 55.333 36 88zM125 259c0 -74 16.167 -128.832 48.5 -164.499
s76.833 -53.5 133.5 -53.5c51.333 0 92.833 14.667 124.5 44s47.5 67.666 47.5 114.999c0 52 -17.333 93 -52 123s-79.667 40 -135 30l-168 -29z" />
    <glyph glyph-name="uni0433.loclBGR" horiz-adv-x="473" 
d="M424 36c-47.333 -31.333 -109 -47 -185 -47c-59.333 0 -107.5 10.667 -144.5 32s-55.5 55 -55.5 101c0 34.667 11.167 62.334 33.5 83.001s49.5 34.834 81.5 42.501s64.167 14.667 96.5 21s59.666 16.5 81.999 30.5s33.5 34 33.5 60c0 27.333 -12.167 47.5 -36.5 60.5
s-54.833 19.5 -91.5 19.5c-59.333 0 -117 -14.333 -173 -43v54c56.667 27.333 115.667 41 177 41c50.667 0 93.5 -11 128.5 -33s52.5 -55.667 52.5 -101c0 -34.667 -11.167 -62.334 -33.5 -83.001s-49.5 -34.834 -81.5 -42.501s-64.167 -14.667 -96.5 -21
s-59.666 -16.5 -81.999 -30.5s-33.5 -33.667 -33.5 -59c0 -53.333 48.667 -80 146 -80c70 0 130.667 17 182 51v-56z" />
    <glyph glyph-name="uni0434.loclBGR" horiz-adv-x="618" 
d="M45 240c0 73.333 22.665 133.501 67.998 180.501s102.333 70.5 171 70.5c87.333 0 155.666 -36.667 204.999 -110v99h51v-480c0 -76.667 -24.833 -134.334 -74.5 -173.001s-110.5 -58 -182.5 -58c-69.333 0 -133.333 15 -192 45v55c58.667 -32 120.334 -48 185.001 -48
c60 0 109.667 14.5 149 43.5s59 74.167 59 135.5v95c-19.333 -31.333 -46.166 -56.833 -80.499 -76.5s-74.166 -29.5 -119.499 -29.5c-68.667 0 -125.667 23.5 -171 70.5s-68 107.167 -68 180.5zM483.998 305.001c-14.667 38 -39.333 69.833 -74 95.5
s-74.334 38.5 -119.001 38.5c-54.667 0 -99.834 -18 -135.501 -54s-53.5 -84.333 -53.5 -145c0 -60 18 -108.167 54 -144.5s81 -54.5 135 -54.5c44.667 0 84.334 12.167 119.001 36.5s59.334 54.5 74.001 90.5v137z" />
    <glyph glyph-name="uni0436.loclBGR" horiz-adv-x="736" 
d="M73 0h-64l202 244l-177 236h63l161 -212h82v432h56v-432h82l161 212h63l-177 -236l202 -244h-64l-183 216h-84v-216h-56v216h-84z" />
    <glyph glyph-name="uni0438.loclBGR" 
d="M447 480l56.998 0.00195312v-480h-52v86c-18.667 -26 -44.167 -48.667 -76.5 -68s-68.833 -29 -109.5 -29c-58.667 0 -105.667 17.667 -141 53s-53 82.666 -53 141.999v296h57v-289c0 -48.667 12.667 -85.834 38 -111.501s60.333 -38.5 105 -38.5
c38.667 0 72.834 10.667 102.501 32s53.834 47.333 72.501 78v329z" />
    <glyph glyph-name="uni0439.loclBGR" 
d="M426 599c-37.333 -27.333 -82.001 -41 -134.001 -41c-52.667 0 -97 13.667 -133 41v53c40 -29.333 84.333 -44 133 -44s93.334 14.667 134.001 44v-53zM446.999 480l56.998 0.00195312v-480h-52v86c-18.667 -26 -44.167 -48.667 -76.5 -68s-68.833 -29 -109.5 -29
c-58.667 0 -105.667 17.667 -141 53s-53 82.666 -53 141.999v296h57v-289c0 -48.667 12.667 -85.834 38 -111.501s60.333 -38.5 105 -38.5c38.667 0 72.834 10.667 102.501 32s53.834 47.333 72.501 78v329z" />
    <glyph glyph-name="uni043A.loclBGR" horiz-adv-x="512" 
d="M505 0h-67l-195 219h-108v-219h-57v700h57v-428h111l168 208h66l-189 -236z" />
    <glyph glyph-name="uni043B.loclBGR" horiz-adv-x="530" 
d="M512 0h-63l-184 416l-185 -416h-63l218 480h60z" />
    <glyph glyph-name="uni043F.loclBGR" 
d="M129 394c18.667 26 44.334 48.668 77.001 68.001s69 29 109 29c56.667 0 103.334 -17.833 140.001 -53.5s55 -82.834 55 -141.501v-296h-57v289c0 48 -13.333 85 -40 111s-61.334 39 -104.001 39c-38 0 -71.833 -10.667 -101.5 -32s-53.834 -47.333 -72.501 -78v-329h-57
v480h51v-86z" />
    <glyph glyph-name="uni0442.loclBGR" horiz-adv-x="891" 
d="M135 0l-57.002 -0.000976562v480h51v-80c18 23.333 42 44.333 72 63s64.333 28 103 28c36.667 0 68.5 -8.16699 95.5 -24.5s47.167 -39.166 60.5 -68.499c54 62 114.667 93 182 93c54.667 0 97.834 -17.5 129.501 -52.5s47.5 -80.167 47.5 -135.5v-303h-56v304
c0 40 -11.5 72.5 -34.5 97.5s-53.833 37.5 -92.5 37.5c-60.667 0 -113 -31 -157 -93c2 -14 3 -28.333 3 -43v-303h-57v304c0 40 -11.5 72.5 -34.5 97.5s-53.833 37.5 -92.5 37.5c-63.333 0 -117.666 -34 -162.999 -102v-337z" />
    <glyph glyph-name="uni0446.loclBGR" horiz-adv-x="610" 
d="M504 94c0 -32.667 16.333 -48.998 49 -48.998h26v-178h-52v129c-50 4.66699 -76.667 32.667 -80 84c-18.667 -25.333 -43.834 -46.833 -75.501 -64.5s-66.834 -26.5 -105.501 -26.5c-58.667 0 -105.667 17.667 -141 53s-53 82.666 -53 141.999v296h57v-289
c0 -48.667 12.667 -85.834 38 -111.501s60.333 -38.5 105 -38.5c38.667 0 72.834 10.667 102.501 32s53.834 47.333 72.501 78v329h57v-386z" />
    <glyph glyph-name="uni0448.loclBGR" horiz-adv-x="891" 
d="M756 480l57.002 0.000976562v-480h-51v80c-18 -23.333 -42 -44.333 -72 -63s-64.333 -28 -103 -28c-36.667 0 -68.5 8.16699 -95.5 24.5s-47.167 39.166 -60.5 68.499c-54 -62 -114.667 -93 -182 -93c-54.667 0 -97.834 17.5 -129.501 52.5s-47.5 80.167 -47.5 135.5v303
h56v-304c0 -40 11.5 -72.5 34.5 -97.5s53.833 -37.5 92.5 -37.5c60.667 0 113 31 157 93c-2 14 -3 28.333 -3 43v303h57v-304c0 -40 11.5 -72.5 34.5 -97.5s53.833 -37.5 92.5 -37.5c63.333 0 117.666 34 162.999 102v337z" />
    <glyph glyph-name="uni0449.loclBGR" horiz-adv-x="920" 
d="M813 94c0 -32.667 16.334 -49 49.001 -49h27v-178h-53v129c-47.333 4.66699 -73.666 30.667 -78.999 78c-47.333 -56.667 -104 -85 -170 -85c-74 0 -126.333 30.333 -157 91c-52.667 -60.667 -112.667 -91 -180 -91c-54.667 0 -98 17.5 -130 52.5s-48 80.167 -48 135.5
v303h57v-304c0 -40 11.5 -72.5 34.5 -97.5s53.833 -37.5 92.5 -37.5c59.333 0 111.666 31 156.999 93c-2.66699 12.667 -4 27 -4 43v303h57v-304c0 -40 11.5 -72.5 34.5 -97.5s53.833 -37.5 92.5 -37.5c63.333 0 117.666 34 162.999 102v337h57v-386z" />
    <glyph glyph-name="uni044E.loclBGR" horiz-adv-x="813" 
d="M768 240c0 -77.333 -24.667 -138.498 -74 -183.498s-108.666 -67.5 -177.999 -67.5c-64.667 0 -121.167 20.167 -169.5 60.5s-75.5 95.166 -81.5 164.499h-130v-214h-57v700h57v-434h130c6 69.333 33.167 124.166 81.5 164.499s104.833 60.5 169.5 60.5
c69.333 0 128.666 -22.5 177.999 -67.5s74 -106.167 74 -183.5zM320 240.002c0 -60.667 18.833 -108.667 56.5 -144s84.167 -53 139.5 -53s101.666 17.667 138.999 53s56 83.333 56 144s-18.667 108.667 -56 144s-83.666 53 -138.999 53s-101.833 -17.667 -139.5 -53
s-56.5 -83.333 -56.5 -144z" />
    </font>
</defs>
</svg>
