<?xml version="1.0" standalone="no"?>
<!DOCTYPE svg PUBLIC "-//W3C//DTD SVG 1.1//EN" "http://www.w3.org/Graphics/SVG/1.1/DTD/svg11.dtd" >
<svg>
<metadata>
Created by FontForge 20090914 at Mon Jun  8 14:30:12 2020
 By www-data
Copyright &#194;&#169; 2014 by Fontfabric. All rights reserved.
</metadata>
<defs>
<font id="MullerBlack" horiz-adv-x="595" >
  <font-face 
    font-family="Muller Black"
    font-weight="900"
    font-stretch="normal"
    units-per-em="1000"
    panose-1="0 0 0 0 0 0 0 0 0 0"
    ascent="780"
    descent="-220"
    x-height="480"
    cap-height="700"
    bbox="-165 -318 1378 986"
    underline-thickness="50"
    underline-position="-175"
    unicode-range="U+0020-U+25CA"
  />
<missing-glyph horiz-adv-x="182" 
 />
    <glyph glyph-name="f_f" unicode="ff" horiz-adv-x="769" 
d="M771 551c-17.333 10 -37.332 15 -59.999 15c-16.667 0 -30.667 -4.16699 -42 -12.5s-17 -20.833 -17 -37.5v-36h105v-168h-105v-312h-211v312h-138v-312h-211v312h-68v168h68v23c0 67.333 21.667 118.333 65 153s97.666 52 162.999 52c60 0 114.667 -11.667 164 -35
c36.667 42 93.667 63 171 63c43.333 0 82 -5.66699 116 -17v-168zM303.001 480h139.001v30v22c-20.667 11.333 -44 17 -70 17c-20.667 0 -37.334 -4.83301 -50.001 -14.5s-19 -23.167 -19 -40.5v-14z" />
    <glyph glyph-name="f_f_i" unicode="ffi" horiz-adv-x="1031" 
d="M303 0h-210.998v312h-68v168h68v23c0 67.333 21.667 118.333 65 153s97.666 52 162.999 52c62 0 121.667 -13.333 179 -40c46 45.333 114 68 204 68c59.333 0 123.666 -11 192.999 -33v-164c-54 18 -103.333 27 -148 27c-64 0 -96 -21.667 -96 -65v-21h338v-480h-210v312
h-128v-312h-211v312h-138v-312zM303.002 494l-0.000976562 -14h139v28v25c-21.333 10.667 -45.666 16 -72.999 16c-20 0 -36 -4.83301 -48 -14.5s-18 -23.167 -18 -40.5z" />
    <glyph glyph-name="f_f_l" unicode="ffl" horiz-adv-x="1045" 
d="M669 731c50.667 0 102.003 -9 154.003 -27l181 20v-724h-211v548c-24.667 8.66699 -47.334 12.667 -68.001 12c-48.667 0 -73 -20.333 -73 -61v-19h89v-168h-89v-312h-211v312h-138v-312h-211v312h-68v168h68v23c0 67.333 21.667 118.333 65 153s97.666 52 162.999 52
c61.333 0 120.666 -13.333 177.999 -40c41.333 42 98.333 63 171 63zM442.003 480l-0.000976562 29v24c-21.333 10.667 -45.666 16 -72.999 16c-20 0 -36 -4.83301 -48 -14.5s-18 -23.167 -18 -40.5v-14h139z" />
    <glyph glyph-name=".notdef" horiz-adv-x="182" 
 />
    <glyph glyph-name="space" unicode=" " horiz-adv-x="182" 
 />
    <glyph glyph-name="exclam" unicode="!" horiz-adv-x="309" 
d="M243 275h-177l-24 425h225zM272 97c0 -36.667 -11.167 -64.667 -33.5 -84s-50.166 -29 -83.499 -29s-61.166 9.66699 -83.499 29s-33.5 47.333 -33.5 84s11.167 64.667 33.5 84s50.166 29 83.499 29s61.166 -9.66699 83.499 -29s33.5 -47.333 33.5 -84z" />
    <glyph glyph-name="quotedbl" unicode="&#x22;" horiz-adv-x="486" 
d="M428 433h-149v267h183zM190 433h-149v267h183z" />
    <glyph glyph-name="numbersign" unicode="#" horiz-adv-x="730" 
d="M244 0h-184l29 126h-61v142h95l34 145h-79v142h113l30 126h184l-29 -126h81l29 126h185l-30 -126h61v-142h-94l-35 -145h79v-142h-112l-30 -126h-185l30 126h-81zM342 413l-35 -145h81l34 145h-80z" />
    <glyph glyph-name="dollar" unicode="$" horiz-adv-x="636" 
d="M395 -119l-158 -0.00195312v107c-74.667 9.33301 -140.667 30 -198 62v209c83.333 -54.667 168 -82 254 -82c30 0 50.833 2.66699 62.5 8s17.5 14 17.5 26c0 12.667 -11.5 23.334 -34.5 32.001s-51 17.167 -84 25.5s-66 19.333 -99 33s-61 35.5 -84 65.5
s-34.5 67.333 -34.5 112c0 59.333 18.167 107 54.5 143s84.833 58.667 145.5 68v109h158v-109c69.333 -10 127.333 -27.333 174 -52v-200c-72 46 -149.333 68.333 -232 67c-41.333 0 -62 -10.333 -62 -31c0 -12.667 11.5 -23.167 34.5 -31.5s50.833 -16.666 83.5 -24.999
s65.5 -19 98.5 -32s61 -34.333 84 -64s34.5 -66.5 34.5 -110.5c0 -130.667 -71.667 -204.667 -215 -222v-108z" />
    <glyph glyph-name="percent" unicode="%" horiz-adv-x="961" 
d="M341 -60h-127l409 820h127zM428 526c0 -61.333 -19.167 -108.333 -57.5 -141s-86.5 -49 -144.5 -49c-58.667 0 -107.167 16.333 -145.5 49s-57.5 79.667 -57.5 141s19.167 108.333 57.5 141s86.833 49 145.5 49c58 0 106.167 -16.333 144.5 -49s57.5 -79.667 57.5 -141z
M176 526c0 -34.667 16.333 -52 49 -52s49 17.333 49 52s-16.333 52 -49 52s-49 -17.333 -49 -52zM938 174c0 -61.333 -19.167 -108.333 -57.5 -141s-86.833 -49 -145.5 -49c-58 0 -106.167 16.333 -144.5 49s-57.5 79.667 -57.5 141s19.167 108.5 57.5 141.5
s86.5 49.5 144.5 49.5s106.333 -16.5 145 -49.5s58 -80.167 58 -141.5zM686 174c0 -34.667 16.333 -52 49 -52s49 17.333 49 52c0 35.333 -16.333 53 -49 53s-49 -17.667 -49 -53z" />
    <glyph glyph-name="ampersand" unicode="&#x26;" horiz-adv-x="749" 
d="M625 134l134.001 -133.999h-219l-39 37c-67.333 -35.333 -142.333 -53 -225 -53c-76 0 -136.333 17.333 -181 52s-67 79.667 -67 135c0 78 45.667 141.667 137 191c-50.667 54.667 -76 107 -76 157c0 58 23.167 105.333 69.5 142s107.166 55 182.499 55
c70 0 126.5 -17.833 169.5 -53.5s64.5 -80.167 64.5 -133.5c0 -70.667 -51 -134.334 -153 -191.001l83 -83c19.333 33.333 29 68.333 29 105h184c0 -80.667 -31 -156 -93 -226zM390.001 525.001c0 14.667 -4.5 26.333 -13.5 35s-21.833 13 -38.5 13
c-18.667 0 -33.667 -5.33301 -45 -16s-17 -23.667 -17 -39c0 -19.333 14.667 -45.333 44 -78c46.667 28 70 56.333 70 85zM229.001 193c0 -37.333 26.333 -56 79 -56c25.333 0 50.333 5 75 15l-110 106c-29.333 -19.333 -44 -41 -44 -65z" />
    <glyph glyph-name="quotesingle" unicode="'" horiz-adv-x="248" 
d="M190 433h-149v267h183z" />
    <glyph glyph-name="parenleft" unicode="(" horiz-adv-x="349" 
d="M183 812l153 -0.00195312c-69.333 -156 -104 -310 -104 -462s34.667 -306 104 -462h-153c-48 64.667 -86.167 137.834 -114.5 219.501s-42.5 162.5 -42.5 242.5s14.167 160.833 42.5 242.5s66.5 154.834 114.5 219.501z" />
    <glyph glyph-name="parenright" unicode=")" horiz-adv-x="349" 
d="M13 812l154 -0.00195312c47.333 -65.333 85.166 -138.666 113.499 -219.999s42.5 -162 42.5 -242s-14.167 -160.667 -42.5 -242s-66.166 -154.666 -113.499 -219.999h-154c69.333 153.333 104 307.333 104 462s-34.667 308.667 -104 462z" />
    <glyph glyph-name="asterisk" unicode="*" horiz-adv-x="533" 
d="M267 386l-58 -120l-151 103l83 75l-116 23l67 174l101 -61l-20 120h187l-19 -120l100 61l67 -174l-115 -23l82 -75l-151 -103z" />
    <glyph glyph-name="plus" unicode="+" horiz-adv-x="552" 
d="M360 435h164v-168h-164v-164h-168v164h-164v168h164v163h168v-163z" />
    <glyph glyph-name="comma" unicode="," horiz-adv-x="286" 
d="M146 -143h-158l71 307h202z" />
    <glyph glyph-name="hyphen" unicode="-" horiz-adv-x="480" 
d="M45 322h390v-163h-390v163z" />
    <glyph glyph-name="period" unicode="." horiz-adv-x="284" 
d="M259 97c0 -36.667 -11.167 -64.667 -33.5 -84s-50.166 -29 -83.499 -29s-61.166 9.66699 -83.499 29s-33.5 47.333 -33.5 84s11.167 64.667 33.5 84s50.166 29 83.499 29s61.166 -9.66699 83.499 -29s33.5 -47.333 33.5 -84z" />
    <glyph glyph-name="slash" unicode="/" horiz-adv-x="499" 
d="M166 -61h-147l316 822h147z" />
    <glyph glyph-name="zero" unicode="0" horiz-adv-x="707" 
d="M32 340c0 49.333 6.16699 94.833 18.5 136.5s31 79.167 56 112.5s58.667 59.5 101 78.5s91.166 28.5 146.499 28.5s104 -9.5 146 -28.5s75.5 -45.167 100.5 -78.5s43.667 -70.833 56 -112.5s18.5 -87.167 18.5 -136.5s-6.16699 -94.833 -18.5 -136.5
s-31 -79.167 -56 -112.5s-58.5 -59.5 -100.5 -78.5s-90.667 -28.5 -146 -28.5s-104.166 9.5 -146.499 28.5s-76 45.167 -101 78.5s-43.667 70.833 -56 112.5s-18.5 87.167 -18.5 136.5zM445 340c0 54.667 -7.33301 94.5 -22 119.5s-37.667 37.5 -69 37.5
c-32 0 -55.333 -12.333 -70 -37s-22 -64.667 -22 -120s7.33301 -95.333 22 -120s38 -37 70 -37c31.333 0 54.333 12.5 69 37.5s22 64.833 22 119.5z" />
    <glyph glyph-name="one" unicode="1" horiz-adv-x="505" 
d="M213 680h168v-491h105v-189h-444v189h116v273l-110 -41v196z" />
    <glyph glyph-name="two" unicode="2" horiz-adv-x="621" 
d="M55 623c76.667 48.667 161.667 73.002 255 73.002c77.333 0 141.5 -18 192.5 -54s76.5 -91.333 76.5 -166c0 -44.667 -11.167 -82 -33.5 -112s-53.5 -58.333 -93.5 -85c-6.66699 -4 -18.834 -12 -36.501 -24l-37 -25c-7 -4.66699 -15.5 -11 -25.5 -19
s-17.333 -15.333 -22 -22h249v-188h-546v93c0 33.333 4.5 63 13.5 89s24.833 50.333 47.5 73s40 38.5 52 47.5s34.333 24.167 67 45.5c1.33301 1.33301 2.33301 2.16602 3 2.49902s1.66699 1 3 2s2.5 1.83301 3.5 2.5s2.16699 1.33398 3.5 2.00098
c10.667 7.33301 24.834 16.166 42.501 26.499s30.667 18.166 39 23.499s16 12.333 23 21s10.5 18 10.5 28c0 28.667 -21.667 43 -65 43c-71.333 0 -145.333 -28.667 -222 -86v209z" />
    <glyph glyph-name="three" unicode="3" horiz-adv-x="606" 
d="M548 501c0 -34 -9.16699 -63.834 -27.5 -89.501s-44.833 -44.5 -79.5 -56.5c39.333 -10 71.666 -29.167 96.999 -57.5s38 -64.833 38 -109.5c0 -36.667 -8 -68.5 -24 -95.5s-38 -48.167 -66 -63.5s-58.5 -26.666 -91.5 -33.999s-68.833 -11 -107.5 -11
c-89.333 0 -171.666 14.333 -246.999 43v198c64.667 -34.667 138.667 -52 222 -52c63.333 1.33301 95 17.666 95 48.999c0 25.333 -20 38 -60 38h-121l1 171h99c36.667 -1.33301 55 9.66699 55 33c0 27.333 -27 41 -81 41c-29.333 0 -62.666 -5.66699 -99.999 -17
s-70 -26 -98 -44v193c66 39.333 144.333 59 235 59c75.333 0 137.666 -16.167 186.999 -48.5s74 -81.166 74 -146.499z" />
    <glyph glyph-name="four" unicode="4" horiz-adv-x="677" 
d="M338 680h226v-410h85v-179h-85v-91h-208v91h-338v184zM356 270v159l-127 -159h127z" />
    <glyph glyph-name="five" unicode="5" horiz-adv-x="605" 
d="M84 680l462.001 -0.000976562v-188l-261 1l-5 -69c22 3.33301 42 5 60 5c68 0 124 -17 168 -51s66 -87.667 66 -161c0 -42 -8.83301 -78.667 -26.5 -110s-41.834 -55.666 -72.501 -72.999s-63.667 -30 -99 -38s-73.333 -12 -114 -12c-84.667 0 -159.667 15.333 -225 46
v188c22 -14.667 50.5 -26.5 85.5 -35.5s69.167 -13.5 102.5 -13.5c35.333 0 64 5.16699 86 15.5s33 25.833 33 46.5c0 42 -44.667 62.333 -134 61c-56 0 -106 -6.66699 -150 -20z" />
    <glyph glyph-name="six" unicode="6" horiz-adv-x="672" 
d="M257 404c47.333 26.667 99.332 40.001 155.999 40.001c65.333 0 120.333 -18.833 165 -56.5s67 -91.5 67 -161.5c0 -80 -26.667 -140.333 -80 -181s-120 -61 -200 -61c-222 0 -333 119.667 -333 359c0 60.667 9.33301 114.167 28 160.5s44.334 83.166 77.001 110.499
s69.167 47.833 109.5 61.5s83.833 20.5 130.5 20.5c80 0 150 -15 210 -45v-179c-52.667 31.333 -107 47 -163 47c-46 0 -83 -8.5 -111 -25.5s-46.667 -46.833 -56 -89.5zM255.999 258.001c11.333 -70 43.667 -105 97 -105c21.333 0 39 5.66699 53 17s21 27 21 47
c0 44 -28 66 -84 66c-28 0 -57 -8.33301 -87 -25z" />
    <glyph glyph-name="seven" unicode="7" horiz-adv-x="591" 
d="M22 680h555v-146l-254 -534h-249l234 492h-286v188z" />
    <glyph glyph-name="eight" unicode="8" horiz-adv-x="668" 
d="M55 493c0 54.667 23.5029 102.166 70.5029 142.499s116.833 60.5 209.5 60.5c89.333 0 158.166 -19.667 206.499 -59s72.166 -84.666 71.499 -135.999c-0.666992 -32.667 -8 -59.667 -22 -81s-34.667 -41 -62 -59c72.667 -38.667 109 -95 109 -169
c0 -59.333 -25.5 -108.833 -76.5 -148.5s-127.5 -59.5 -229.5 -59.5c-103.333 0 -179.5 19.333 -228.5 58s-73.5 86.667 -73.5 144c0 35.333 9.66699 67.5 29 96.5s42.666 50.833 69.999 65.5c-49.333 38.667 -74 87 -74 145zM345.003 255.999
c-44.667 14 -67.667 21.332 -69 21.999c-14 -18 -21 -38.667 -21 -62c0.666992 -18 8.16699 -33.333 22.5 -46s35.833 -19 64.5 -19c22 0 39.167 4.33301 51.5 13s18.5 19.667 18.5 33c0 10.667 -3.33301 19.834 -10 27.501s-14.167 13.5 -22.5 17.5
s-19.833 8.66699 -34.5 14zM401.003 478.998c-1.33301 33.333 -25.333 49.999 -72 49.999c-19.333 0 -34.5 -4 -45.5 -12s-16.5 -17.667 -16.5 -29c0 -14.667 6 -26 18 -34s30 -15.667 54 -23l44 -14c13.333 22.667 19.333 43.334 18 62.001z" />
    <glyph glyph-name="nine" unicode="9" horiz-adv-x="672" 
d="M27 454c0 54 13.335 99.667 40.002 137s60.5 64.166 101.5 80.499s87.167 24.5 138.5 24.5c222 0 333 -119.667 333 -359c0 -60.667 -9.33301 -114.167 -28 -160.5s-44.167 -83.166 -76.5 -110.499s-68.833 -47.833 -109.5 -61.5s-84.334 -20.5 -131.001 -20.5
c-80.667 0 -150.334 15 -209.001 45v179c52 -31.333 106 -47 162 -47c46 0 83 8.5 111 25.5s46.667 46.833 56 89.5c-47.333 -26.667 -99.333 -40 -156 -40c-65.333 0 -120.333 18.833 -165 56.5s-67 91.5 -67 161.5zM319.002 527c-20.667 0 -38 -5.66797 -52 -17.001
s-21 -27 -21 -47c0 -44 27.667 -66 83 -66c28 0 57 8.33301 87 25c-6 38.667 -17.167 65.834 -33.5 81.501s-37.5 23.5 -63.5 23.5z" />
    <glyph glyph-name="colon" unicode=":" horiz-adv-x="295" 
d="M260 371c0 -35.333 -10.667 -62.333 -32 -81s-48.333 -28 -81 -28c-31.333 0 -57.833 9.33301 -79.5 28s-32.5 45.667 -32.5 81s10.667 62.333 32 81s48 28 80 28c32.667 0 59.667 -9.33301 81 -28s32 -45.667 32 -81zM260 93c0 -35.333 -10.667 -62.333 -32 -81
s-48.333 -28 -81 -28c-32 0 -58.667 9.33301 -80 28s-32 45.667 -32 81s10.833 62.333 32.5 81s48.167 28 79.5 28c32.667 0 59.667 -9.33301 81 -28s32 -45.667 32 -81z" />
    <glyph glyph-name="semicolon" unicode=";" horiz-adv-x="306" 
d="M153 -143h-158l71 307h202zM275 377c0 -36.667 -11.167 -64.667 -33.5 -84s-50.166 -29 -83.499 -29s-61.166 9.66699 -83.499 29s-33.5 47.333 -33.5 84s11.167 64.667 33.5 84s50.166 29 83.499 29s61.166 -9.66699 83.499 -29s33.5 -47.333 33.5 -84z" />
    <glyph glyph-name="less" unicode="&#x3c;" horiz-adv-x="512" 
d="M457 293v-183l-425 135v210l425 135v-183l-254 -57z" />
    <glyph glyph-name="equal" unicode="=" horiz-adv-x="627" 
d="M565 382h-503v162h503v-162zM565 156h-503v162h503v-162z" />
    <glyph glyph-name="greater" unicode="&#x3e;" horiz-adv-x="512" 
d="M480 245l-425 -135v183l255 57l-255 57v183l425 -135v-210z" />
    <glyph glyph-name="question" unicode="?" horiz-adv-x="508" 
d="M321 257l-195.999 -0.000976562c0 27.333 6.66699 53.5 20 78.5s28.166 44.833 44.499 59.5s31.166 29.667 44.499 45s20 28.333 20 39c0 27.333 -21.667 41 -65 41c-52 0 -103.667 -14.667 -155 -44v196c60.667 29.333 127.334 44 200.001 44
c26.667 0 51.5 -1.66699 74.5 -5s45.5 -9.33301 67.5 -18s40.833 -19.667 56.5 -33s28.167 -30.666 37.5 -51.999s14 -46 14 -74c0 -30.667 -8.5 -60.667 -25.5 -90s-35.667 -53.5 -56 -72.5s-39 -39 -56 -60s-25.5 -39.167 -25.5 -54.5zM341.001 96.999
c0 -36.667 -11.167 -64.667 -33.5 -84s-50.166 -29 -83.499 -29s-61.166 9.66699 -83.499 29s-33.5 47.333 -33.5 84s11.167 64.667 33.5 84s50.166 29 83.499 29s61.166 -9.66699 83.499 -29s33.5 -47.333 33.5 -84z" />
    <glyph glyph-name="at" unicode="@" horiz-adv-x="1044" 
d="M27 240c0 62 10.8281 121.334 32.4951 178.001s52.834 107.334 93.501 152.001s93.334 80.167 158.001 106.5s137 39.5 217 39.5c64.667 0 124.334 -8.83301 179.001 -26.5s100.334 -41.167 137.001 -70.5s67.667 -63 93 -101s43.833 -77 55.5 -117s17.5 -80 17.5 -120
c0 -88 -22 -155.667 -66 -203s-100.667 -71 -170 -71c-87.333 0 -147.333 30 -180 90c-28.667 -42.667 -72 -64 -130 -64c-31.333 0 -59.333 6.33301 -84 19s-44 29.334 -58 50.001s-24.5 42.667 -31.5 66s-10.5 47 -10.5 71c0 53.333 14.833 100.666 44.5 141.999
s73.834 62 132.501 62c52 0 93.333 -19 124 -57v45h153v-230c0 -38 15.333 -57 46 -57c12.667 0 22.834 3.83301 30.501 11.5s13.334 18.834 17.001 33.501s6 28.667 7 42s1.5 30 1.5 50c0 32.667 -6.16699 64.667 -18.5 96s-30.333 60.666 -54 87.999s-56 49.333 -97 66
s-87.167 25 -138.5 25c-98.667 0 -177 -31 -235 -93s-87 -136.333 -87 -223c0 -55.333 10 -103.833 30 -145.5s47.667 -74.5 83 -98.5s74.666 -41.667 117.999 -53s90.666 -17 141.999 -17c66.667 0 137.667 11.667 213 35v-160c-67.333 -24 -140.333 -36 -219 -36
c-74 0 -143.5 10 -208.5 30s-122.833 49.167 -173.5 87.5s-90.667 88.166 -120 149.499s-44 130.666 -44 207.999zM574.995 281.001c-12.667 21.333 -30.999 32 -54.999 32c-22.667 0 -39 -7.5 -49 -22.5s-15 -32.5 -15 -52.5c0 -19.333 5.16699 -36.5 15.5 -51.5
s26.5 -22.5 48.5 -22.5c23.333 0 41.666 10.667 54.999 32v85z" />
    <glyph glyph-name="A" unicode="A" horiz-adv-x="765" 
d="M231 0h-234l262 700h248l261 -700h-234l-30 93h-242zM364 409l-49 -149h137l-49 149c-9.33301 29.333 -16 59.333 -20 90c-4 -26.667 -10.333 -56.667 -19 -90z" />
    <glyph glyph-name="B" unicode="B" horiz-adv-x="700" 
d="M53 700h350c165.333 0 248 -59 248 -177c0 -74.667 -33.333 -125 -100 -151c85.333 -26 128 -83.333 128 -172c0 -133.333 -95 -200 -285 -200h-341v700zM449 227c0 38 -22.333 57 -67 57h-98v-114h98c44.667 0 67 19 67 57zM429 478c0 15.333 -5 27.833 -15 37.5
s-24.333 14.5 -43 14.5h-87v-103l87 -1c18.667 0 33 5 43 15s15 22.333 15 37z" />
    <glyph glyph-name="C" unicode="C" horiz-adv-x="650" 
d="M25 343c0 64 10.667 120.667 32 170s50.5 88.333 87.5 117s77.667 50.167 122 64.5s91.5 21.5 141.5 21.5c75.333 0 144 -14 206 -42v-206c-46 32 -101 48 -165 48c-53.333 0 -97.833 -14.167 -133.5 -42.5s-53.5 -71.833 -53.5 -130.5
c0 -51.333 17.667 -90.166 53 -116.499s78.333 -39.5 129 -39.5c79.333 0 137.666 16.667 174.999 50v-211c-62 -28 -130.333 -42 -205 -42c-51.333 0 -99.666 7 -144.999 21s-86.5 34.833 -123.5 62.5s-66.333 65.167 -88 112.5s-32.5 101.666 -32.5 162.999z" />
    <glyph glyph-name="D" unicode="D" horiz-adv-x="744" 
d="M53 700h302c120.667 0 211.334 -31.5 272.001 -94.5s91 -148.167 91 -255.5s-30.333 -192.5 -91 -255.5s-151.334 -94.5 -272.001 -94.5h-302v700zM481 350c0 104 -44 156 -132 156h-65v-312h65c88 0 132 52 132 156z" />
    <glyph glyph-name="E" unicode="E" horiz-adv-x="622" 
d="M53 700h530v-182h-299v-81h263v-170h-263v-83h305v-184h-536v700z" />
    <glyph glyph-name="F" unicode="F" horiz-adv-x="602" 
d="M53 700h519v-202h-288v-86h259v-196h-259v-216h-231v700z" />
    <glyph glyph-name="G" unicode="G" horiz-adv-x="694" 
d="M24 350c0 62 10.832 117 32.499 165s51 86.333 88 115s78 50.167 123 64.5s92.833 21.5 143.5 21.5c82 0 157.333 -14 226 -42v-206c-50 31.333 -111.333 47 -184 47c-56 0 -102 -13.5 -138 -40.5s-54 -68.5 -54 -124.5c0 -31.333 5.16699 -58.166 15.5 -80.499
s23.833 -38.833 40.5 -49.5s32.667 -18.334 48 -23.001s30.333 -7 45 -7c8 0 17.333 0.666992 28 2v199h216v-360c-79.333 -31.333 -158.666 -47 -237.999 -47c-52 0 -101 7.5 -147 22.5s-87.5 37.167 -124.5 66.5s-66.333 67.833 -88 115.5s-32.5 101.5 -32.5 161.5z" />
    <glyph glyph-name="H" unicode="H" horiz-adv-x="757" 
d="M474 700h230v-700h-230v249h-190v-249h-231v700h231v-249h190v249z" />
    <glyph glyph-name="I" unicode="I" horiz-adv-x="337" 
d="M53 700h231v-700h-231v700z" />
    <glyph glyph-name="J" unicode="J" horiz-adv-x="519" 
d="M80 700l392.001 -0.000976562v-457c0 -47.333 -7.83301 -88.166 -23.5 -122.499s-37 -60.833 -64 -79.5s-56 -32.167 -87 -40.5s-64.5 -12.5 -100.5 -12.5c-72.667 0 -133.334 10 -182.001 30v204c38 -16.667 78.333 -25 121 -25c70 0 105 25 105 75v226h-161v202z" />
    <glyph glyph-name="K" unicode="K" horiz-adv-x="728" 
d="M284 0h-231v700h231v-248h58l140 248h254l-213 -347l217 -353h-254l-149 250h-53v-250z" />
    <glyph glyph-name="L" unicode="L" 
d="M53 700h231v-498h299v-202h-530v700z" />
    <glyph glyph-name="M" unicode="M" horiz-adv-x="907" 
d="M649 700h205v-700h-225v320l-115 -178h-121l-115 179v-321h-225v700h205l195 -306z" />
    <glyph glyph-name="N" unicode="N" horiz-adv-x="763" 
d="M284 0l-231 -0.000976562v700h195l237 -329c-4 33.333 -6 73.333 -6 120v209h231v-700h-195l-237 328c4 -33.333 6 -72.666 6 -117.999v-210z" />
    <glyph glyph-name="O" unicode="O" horiz-adv-x="806" 
d="M24 350c0 106 33 193.5 99 262.5s159.333 103.5 280 103.5s214 -34.5 280 -103.5s99 -156.5 99 -262.5s-33 -193.5 -99 -262.5s-159.333 -103.5 -280 -103.5s-214 34.5 -280 103.5s-99 156.5 -99 262.5zM545 350c0 48.667 -12.5 87 -37.5 115s-59.833 42 -104.5 42
s-79.5 -14 -104.5 -42s-37.5 -66.333 -37.5 -115s12.5 -87 37.5 -115s59.833 -42 104.5 -42s79.5 14 104.5 42s37.5 66.333 37.5 115z" />
    <glyph glyph-name="P" unicode="P" horiz-adv-x="689" 
d="M53 700h306c209.333 0 314 -86.333 314 -259c0 -172 -104.667 -258 -314 -258h-75v-183h-231v700zM444 441c0 46 -29 69 -87 69h-73v-137h73c58 0 87 22.667 87 68z" />
    <glyph glyph-name="Q" unicode="Q" horiz-adv-x="806" 
d="M782 68l-133.001 -118l-68 68c-51.333 -22.667 -110.666 -34 -177.999 -34c-120.667 0 -214 34.5 -280 103.5s-99 156.5 -99 262.5s33 193.5 99 262.5s159.333 103.5 280 103.5s214 -34.5 280 -103.5s99 -156.5 99 -262.5c0 -85.333 -21 -158.333 -63 -219zM254.999 350
c0 -50.667 13.333 -90.334 40 -119.001s62.334 -43 107.001 -43c9.33301 0 16 0.333008 20 1l-59 59l115 114l65 -65c4.66699 14.667 7 32.334 7 53.001c0 50.667 -13.333 90.5 -40 119.5s-62.667 43.5 -108 43.5c-44.667 0 -80.334 -14.5 -107.001 -43.5
s-40 -68.833 -40 -119.5z" />
    <glyph glyph-name="R" unicode="R" horiz-adv-x="729" 
d="M284 0h-230.999v700h325c40 0 76.667 -4 110 -12s64.666 -21 93.999 -39s52.333 -43.667 69 -77s25 -73 25 -119c0 -99.333 -40 -169 -120 -209l180 -244h-254l-144 207h-54v-207zM284.001 512v-132h89c22 0 39.333 6 52 18s19 28 19 48s-6.33301 36 -19 48
s-30 18 -52 18h-89z" />
    <glyph glyph-name="S" unicode="S" horiz-adv-x="635" 
d="M34 499c0 70.667 25.8311 124.499 77.498 161.499s117.5 55.5 197.5 55.5c99.333 0 185 -19.333 257 -58v-200c-72 46 -149.333 68.333 -232 67c-41.333 0 -62 -10.333 -62 -31c0 -9.33301 6.33301 -17.833 19 -25.5s28.834 -14.5 48.501 -20.5l66 -19.5
c24.333 -7 48.666 -16.167 72.999 -27.5s46.333 -24.666 66 -39.999s35.834 -36 48.501 -62s19 -55.333 19 -88c0 -151.333 -98 -227 -294 -227c-106.667 0 -199.334 22 -278.001 66v209c83.333 -54.667 168.333 -82 255 -82c29.333 0 49.833 2.66699 61.5 8
s17.5 14 17.5 26c0 10.667 -8.33301 20.5 -25 29.5s-37.667 16.667 -63 23s-52.666 15.5 -81.999 27.5s-56.666 25.667 -81.999 41s-46.333 37.5 -63 66.5s-25 62.5 -25 100.5z" />
    <glyph glyph-name="T" unicode="T" horiz-adv-x="630" 
d="M12 700h606v-202h-188v-498h-230v498h-188v202z" />
    <glyph glyph-name="U" unicode="U" horiz-adv-x="740" 
d="M465 700h230v-428c0 -52 -9 -97.167 -27 -135.5s-42.667 -68.333 -74 -90s-65.5 -37.5 -102.5 -47.5s-77.5 -15 -121.5 -15s-84.5 5 -121.5 15s-71.167 25.833 -102.5 47.5s-56 51.667 -74 90s-27 83.5 -27 135.5v428h231v-417c0 -61.333 31.333 -92 94 -92
c63.333 0 95 30.667 95 92v417z" />
    <glyph glyph-name="V" unicode="V" horiz-adv-x="745" 
d="M491 0h-236l-257 700h245l130 -429l129 429h245z" />
    <glyph glyph-name="W" unicode="W" horiz-adv-x="1112" 
d="M859 700h249l-211 -700h-248l-93 353l-92 -353h-249l-211 700h248l100 -422l109 422h190l108 -422z" />
    <glyph glyph-name="X" unicode="X" horiz-adv-x="731" 
d="M250 0h-269l240 361l-228 339h269l104 -181l103 181h269l-228 -339l240 -361h-269l-115 197z" />
    <glyph glyph-name="Y" unicode="Y" horiz-adv-x="753" 
d="M491 0h-229v239l-266 461h261l120 -265l120 265h261l-267 -461v-239z" />
    <glyph glyph-name="Z" unicode="Z" horiz-adv-x="646" 
d="M616 0h-589v147l260 351h-244v202h561v-147l-260 -351h272v-202z" />
    <glyph glyph-name="bracketleft" unicode="[" horiz-adv-x="385" 
d="M358 -110h-308v920h308v-181h-99v-557h99v-182z" />
    <glyph glyph-name="backslash" unicode="\" horiz-adv-x="498" 
d="M480 -61h-147l-316 822h147z" />
    <glyph glyph-name="bracketright" unicode="]" horiz-adv-x="385" 
d="M335 -110h-308v182h99v557h-99v181h308v-920z" />
    <glyph glyph-name="asciicircum" unicode="^" horiz-adv-x="662" 
d="M238 322h-215l215 378h186l215 -378h-215l-93 179z" />
    <glyph glyph-name="underscore" unicode="_" horiz-adv-x="521" 
d="M521 -203h-521v169h521v-169z" />
    <glyph glyph-name="grave" unicode="`" horiz-adv-x="356" 
d="M329 752h-183l-122 164h206z" />
    <glyph glyph-name="a" unicode="a" horiz-adv-x="575" 
d="M524 152c0 -17.333 9.33496 -26 28.002 -26c4.66699 0 11 0.666992 19 2v-123c-28.667 -12 -64 -18 -106 -18c-56 0 -96 17 -120 51c-44 -36 -97.333 -54 -160 -54c-47.333 0 -87 12.667 -119 38s-48 61 -48 107c0 29.333 6.16699 54.5 18.5 75.5
s29.166 37.167 50.499 48.5s43.666 19.5 66.999 24.5s48.333 7.5 75 7.5c35.333 0 67 -3 95 -9v11c0 35.333 -31.667 53 -95 53c-53.333 0 -111 -11.333 -173 -34v158c71.333 21.333 137 32 197 32c89.333 0 156.833 -16.833 202.5 -50.5s68.5 -94.5 68.5 -182.5v-111z
M282.002 189c-16.667 0 -30.833 -3.5 -42.5 -10.5s-17.5 -17.833 -17.5 -32.5c0 -11.333 4.5 -20.5 13.5 -27.5s20.167 -10.5 33.5 -10.5c20 0 38.333 5.33301 55 16v59c-10.667 4 -24.667 6 -42 6z" />
    <glyph glyph-name="b" unicode="b" horiz-adv-x="625" 
d="M41 700h210.999v-249c32 30 75.667 45 131 45c72 0 126.667 -24.667 164 -74s56 -110 56 -182s-18.667 -132.667 -56 -182s-92 -74 -164 -74c-65.333 0 -117.666 24.667 -156.999 74v-58h-185v700zM385.999 240c0 24 -6.16699 44.5 -18.5 61.5s-30.5 25.5 -54.5 25.5
c-14 0 -26.667 -3.33301 -38 -10s-19.333 -14.667 -24 -24v-106c13.333 -22.667 34 -34 62 -34c24 0 42.167 8.5 54.5 25.5s18.5 37.5 18.5 61.5z" />
    <glyph glyph-name="c" unicode="c" horiz-adv-x="489" 
d="M21 227c0 46.667 8.00293 87.832 24.0029 123.499s37.667 64 65 85s57.5 36.667 90.5 47s68.167 15.5 105.5 15.5c49.333 0 98.666 -9.66699 147.999 -29v-173c-36 18 -72.667 27 -110 27c-30.667 0 -56 -6.66699 -76 -20s-30 -34.333 -30 -63
c0 -28 9.66699 -48.5 29 -61.5s43.666 -19.5 72.999 -19.5c45.333 0 85 8 119 24v-172c-52.667 -18 -108.334 -27 -167.001 -27c-76 0 -140.167 20.333 -192.5 61s-78.5 101.334 -78.5 182.001z" />
    <glyph glyph-name="d" unicode="d" horiz-adv-x="625" 
d="M374 700h210v-700h-185v58c-38 -49.333 -90 -74 -156 -74c-72.667 0 -127.667 24.667 -165 74s-56 110 -56 182s18.667 132.667 56 182s92.333 74 165 74c54 0 97.667 -15 131 -45v249zM375 293c-13.333 22.667 -34 34 -62 34c-24 0 -42.167 -8.5 -54.5 -25.5
s-18.5 -37.5 -18.5 -61.5s6.16699 -44.5 18.5 -61.5s30.5 -25.5 54.5 -25.5c28 0 48.667 11.333 62 34v106z" />
    <glyph glyph-name="e" unicode="e" horiz-adv-x="547" 
d="M21 243c0 44.667 8.33496 84.166 25.002 118.499s38.167 60.833 64.5 79.5s53.833 32.5 82.5 41.5s57.334 13.5 86.001 13.5c41.333 0 78.166 -6.16699 110.499 -18.5s57.666 -28.5 75.999 -48.5s33.166 -43.167 44.499 -69.5s16.833 -53.833 16.5 -82.5
s-2.83301 -57 -7.5 -85h-296c8 -19.333 24.667 -34.166 50 -44.499s54.333 -15.5 87 -15.5c52 0 98 6.33301 138 19v-142c-48.667 -16.667 -107 -25 -175 -25c-54 0 -103 8.33301 -147 25s-80.833 45.167 -110.5 85.5s-44.5 89.833 -44.5 148.5zM348.002 288.999
c2.66699 16.667 -0.666016 32.167 -9.99902 46.5s-25.333 21.5 -48 21.5c-20.667 0 -37.334 -6.33301 -50.001 -19s-19 -29 -19 -49h127z" />
    <glyph glyph-name="f" unicode="f" horiz-adv-x="420" 
d="M303 0l-211 0.000976562v312h-68v168h68v40c0 36 6.16699 67.333 18.5 94s29 47.167 50 61.5s43.167 24.666 66.5 30.999s47.666 9.5 72.999 9.5c46.667 0 87.334 -6.33301 122.001 -19v-161c-18 10.667 -38 16 -60 16c-39.333 0 -59 -16.333 -59 -49v-23h105v-168h-105
v-312z" />
    <glyph glyph-name="g" unicode="g" horiz-adv-x="625" 
d="M22 246c0 71.333 18.668 130.833 56.001 178.5s92.333 71.5 165 71.5c66 0 118 -24.667 156 -74v58h185v-449c0 -92 -27.833 -159.5 -83.5 -202.5s-125.5 -64.5 -209.5 -64.5c-80 0 -152.667 13.667 -218 41v174c53.333 -29.333 113.333 -44 180 -44
c80.667 0 121 27.333 121 82v24c-32.667 -30.667 -76.334 -46 -131.001 -46c-72.667 0 -127.667 24 -165 72s-56 107.667 -56 179zM375.001 296c-13.333 22.667 -34 34 -62 34c-24 0 -42.167 -8.5 -54.5 -25.5s-18.5 -37.5 -18.5 -61.5s6.16699 -44.5 18.5 -61.5
s30.5 -25.5 54.5 -25.5c28 0 48.667 11.333 62 34v106z" />
    <glyph glyph-name="h" unicode="h" 
d="M41 700l211 -0.000976562v-246c36 28 76.333 42 121 42c62 0 108.5 -18.167 139.5 -54.5s46.5 -80.166 46.5 -131.499v-310h-211v274c0 30.667 -15.333 46 -46 46c-20 0 -36.667 -8 -50 -24v-296h-211v700z" />
    <glyph glyph-name="i" unicode="i" horiz-adv-x="293" 
d="M252 0h-211v480h211v-480zM256 635c0 -34.667 -10.5 -61 -31.5 -79s-47.167 -27 -78.5 -27s-57.5 9 -78.5 27s-31.5 44.333 -31.5 79c0 34 10.5 60 31.5 78s47.167 27 78.5 27s57.5 -9 78.5 -27s31.5 -44 31.5 -78z" />
    <glyph glyph-name="j" unicode="j" horiz-adv-x="293" 
d="M252 -51c0 -63.333 -19 -110 -57 -140s-86.667 -45 -146 -45c-40 0 -73.333 5 -100 15v171c13.333 -3.33301 27 -5 41 -5c34 0 51 17.667 51 53v482h211v-531zM257 635c0 -34.667 -10.5 -61 -31.5 -79s-47.167 -27 -78.5 -27s-57.5 9 -78.5 27s-31.5 44.333 -31.5 79
c0 34 10.5 60 31.5 78s47.167 27 78.5 27s57.5 -9 78.5 -27s31.5 -44 31.5 -78z" />
    <glyph glyph-name="k" unicode="k" horiz-adv-x="596" 
d="M602 0h-229l-91 162h-30v-162h-211v700h211v-374h31l85 154h229l-148 -237z" />
    <glyph glyph-name="l" unicode="l" horiz-adv-x="293" 
d="M41 730h211v-730h-211v730z" />
    <glyph glyph-name="m" unicode="m" horiz-adv-x="865" 
d="M249 0h-208.001v480h185v-45c15.333 16.667 36.5 31 63.5 43s54.833 18 83.5 18c62.667 0 108.334 -21.333 137.001 -64c42.667 42.667 92.667 64 150 64c59.333 0 102.333 -18.167 129 -54.5s40 -82.833 40 -139.5v-302h-208v285c0 23.333 -12 35 -36 35
c-15.333 0 -30 -6 -44 -18v-14v-288h-208v285c0 11.333 -3.33301 20 -10 26s-15 9 -25 9c-18.667 0 -35 -7.66699 -49 -23v-297z" />
    <glyph glyph-name="n" unicode="n" 
d="M226 432c42.667 42.667 91.667 63.999 147 63.999c62 0 108.5 -18.167 139.5 -54.5s46.5 -80.166 46.5 -131.499v-310h-211v274c0 30.667 -15.333 46 -46 46c-20 0 -36.667 -8 -50 -24v-296h-211v480h185v-48z" />
    <glyph glyph-name="o" unicode="o" 
d="M21 240c0 82.667 26.167 146 78.5 190s118.166 66 197.499 66c80 0 146.167 -22 198.5 -66s78.5 -107.333 78.5 -190s-26.167 -146 -78.5 -190s-118.5 -66 -198.5 -66c-79.333 0 -145.166 22 -197.499 66s-78.5 107.333 -78.5 190zM368 240c0 54.667 -23.667 82 -71 82
c-46.667 0 -70 -27.333 -70 -82s23.333 -82 70 -82c47.333 0 71 27.333 71 82z" />
    <glyph glyph-name="p" unicode="p" horiz-adv-x="625" 
d="M226 422c39.333 49.333 91.667 74 157 74c72 0 126.667 -24.667 164 -74s56 -110 56 -182s-18.667 -132.667 -56 -182s-92 -74 -164 -74c-54 0 -97.667 15 -131 45v-249h-211v700h185v-58zM386.001 240c0 24 -6.16699 44.5 -18.5 61.5s-30.5 25.5 -54.5 25.5
c-28 0 -48.667 -11.333 -62 -34v-106c4.66699 -9.33301 12.667 -17.333 24 -24s24 -10 38 -10c24 0 42.167 8.5 54.5 25.5s18.5 37.5 18.5 61.5z" />
    <glyph glyph-name="q" unicode="q" horiz-adv-x="625" 
d="M22 240c0 72 18.667 132.667 56 182s92.333 74 165 74c66 0 118 -24.667 156 -74v58h185v-700h-210v249c-33.333 -30 -77 -45 -131 -45c-72.667 0 -127.667 24.667 -165 74s-56 110 -56 182zM375 293c-13.333 22.667 -34 34 -62 34c-24 0 -42.167 -8.5 -54.5 -25.5
s-18.5 -37.5 -18.5 -61.5s6.16699 -44.5 18.5 -61.5s30.5 -25.5 54.5 -25.5c28 0 48.667 11.333 62 34v106z" />
    <glyph glyph-name="r" unicode="r" horiz-adv-x="419" 
d="M226 424c40 52.667 99.667 74.667 179 66v-198c-26.667 8.66699 -55.167 10.667 -85.5 6s-52.833 -15 -67.5 -31v-267h-211v480h185v-56z" />
    <glyph glyph-name="s" unicode="s" horiz-adv-x="491" 
d="M28 342c0 54.667 20.501 94.002 61.501 118.002s92.833 36 155.5 36c68 0 131 -13.667 189 -41v-148c-48 29.333 -98.667 44 -152 44c-23.333 0 -35 -5.66699 -35 -17c0 -6.66699 4.16699 -12.667 12.5 -18s19.166 -9.83301 32.499 -13.5l44 -12.5
c16 -4.66699 31.833 -10.667 47.5 -18s30.167 -16.333 43.5 -27s24.166 -24.834 32.499 -42.501s12.5 -37.834 12.5 -60.501c0 -105.333 -79 -158 -237 -158c-82.667 0 -149.667 14 -201 42v161c48.667 -35.333 106.334 -53 173.001 -53c31.333 0 47 6 47 18
c0 8.66699 -7.83301 16 -23.5 22s-34.5 12.333 -56.5 19s-44 15 -66 25s-40.833 25.667 -56.5 47s-23.5 47 -23.5 77z" />
    <glyph glyph-name="t" unicode="t" horiz-adv-x="435" 
d="M84 609l211 49v-178h107v-168h-107v-111c0 -30 19 -45 57 -45c22.667 0 41.667 2.66699 57 8v-162c-47.333 -12.667 -92.333 -19 -135 -19c-54.667 0 -100 13.833 -136 41.5s-54 75.167 -54 142.5v145h-67v168h67v129z" />
    <glyph glyph-name="u" unicode="u" 
d="M343 480l211 0.000976562v-480h-185v48c-42.667 -42.667 -92 -64 -148 -64c-61.333 0 -107.5 18.167 -138.5 54.5s-46.5 80.166 -46.5 131.499v310h211v-274c0 -30.667 15.333 -46 46 -46c20 0 36.667 8 50 24v296z" />
    <glyph glyph-name="v" unicode="v" horiz-adv-x="599" 
d="M376 480h221l-186 -480h-223l-186 480h222l76 -279z" />
    <glyph glyph-name="w" unicode="w" horiz-adv-x="844" 
d="M622 480h215l-148 -480h-205l-62 237l-62 -237h-205l-148 480h215l55 -267l65 267h160l65 -267z" />
    <glyph glyph-name="x" unicode="x" horiz-adv-x="571" 
d="M351 480h222l-160 -241l166 -239h-226l-67 110l-67 -110h-227l166 239l-159 241h221l66 -115z" />
    <glyph glyph-name="y" unicode="y" horiz-adv-x="604" 
d="M313 217l72.998 263h214l-183 -509c-49.333 -137.333 -134.666 -206 -255.999 -206c-31.333 0 -66.333 5.66699 -105 17v170c25.333 -6.66699 49 -10 71 -10c40.667 0 70.334 18.333 89.001 55l-220 483h218z" />
    <glyph glyph-name="z" unicode="z" horiz-adv-x="505" 
d="M42 480h421v-124l-164 -188h178v-168h-450v124l165 188h-150v168z" />
    <glyph glyph-name="braceleft" unicode="{" horiz-adv-x="411" 
d="M383 56l0.000976562 -165.999c-88.667 -20.667 -159.334 -15 -212.001 17s-79 84 -79 156v142c0 23.333 -6.5 38.666 -19.5 45.999s-31.167 11 -54.5 11v177c11.333 0 20.666 0.5 27.999 1.5s14.833 3.33301 22.5 7s13.5 9.33398 17.5 17.001s6 17.834 6 30.501v142
c0 72 26.333 124 79 156s123.334 37.667 212.001 17v-166c-30 6 -51.167 2.16699 -63.5 -11.5s-18.5 -36.5 -18.5 -68.5v-98c0 -34.667 -9.66699 -62.334 -29 -83.001s-43.666 -31.667 -72.999 -33c29.333 -1.33301 53.666 -12.333 72.999 -33s29 -48.334 29 -83.001v-98
c0 -32 6.16699 -54.833 18.5 -68.5s33.5 -17.5 63.5 -11.5z" />
    <glyph glyph-name="bar" unicode="|" horiz-adv-x="309" 
d="M259 -100h-209v910h209v-910z" />
    <glyph glyph-name="braceright" unicode="}" horiz-adv-x="411" 
d="M319 63c0 -72 -26.333 -124.003 -79 -156.003s-123.334 -37.667 -212.001 -17v166c30 -6 51.167 -2.16699 63.5 11.5s18.5 36.5 18.5 68.5v98c0 34.667 9.66699 62.334 29 83.001s43.666 31.667 72.999 33c-29.333 1.33301 -53.666 12.333 -72.999 33
s-29 48.334 -29 83.001v98c0 32 -6.16699 54.833 -18.5 68.5s-33.5 17.5 -63.5 11.5v166c88.667 20.667 159.334 15 212.001 -17s79 -84 79 -156v-142c0 -23.333 6.5 -38.5 19.5 -45.5s31.167 -10.5 54.5 -10.5v-177c-23.333 0 -41.5 -3.66699 -54.5 -11
s-19.5 -22.666 -19.5 -45.999v-142z" />
    <glyph glyph-name="asciitilde" unicode="~" horiz-adv-x="605" 
d="M566 432c9.33301 -68 0.666016 -119.167 -26.001 -153.5s-65.334 -51.5 -116.001 -51.5c-27.333 0 -64.166 8 -110.499 24s-73.5 24 -81.5 24c-18 0 -25 -13.667 -21 -41h-166c-9.33301 68.667 -0.5 120.167 26.5 154.5s64.833 51.5 113.5 51.5
c29.333 0 66.833 -8 112.5 -24s72.834 -24 81.501 -24c18 0 25 13.333 21 40h166z" />
    <glyph glyph-name="exclamdown" unicode="&#xa1;" horiz-adv-x="300" 
d="M262 -220h-225l24 425h177zM267 383c0 -36.667 -11.168 -64.667 -33.501 -84s-50.166 -29 -83.499 -29s-61.166 9.66699 -83.499 29s-33.5 47.333 -33.5 84s11.167 64.667 33.5 84s50.166 29 83.499 29c34 0 62 -9.5 84 -28.5s33 -47.167 33 -84.5z" />
    <glyph glyph-name="cent" unicode="&#xa2;" horiz-adv-x="510" 
d="M395 163c25.333 4 48 10.666 68 19.999v-172c-23.333 -7.33301 -46 -13.333 -68 -18v-113h-93v104h-6c-76 0 -140.167 20.333 -192.5 61s-78.5 101.334 -78.5 182.001c0 88.667 26.833 155.667 80.5 201s119.167 68.666 196.5 69.999v102h93v-112
c24 -5.33301 45 -11.666 63 -18.999v-173c-19.333 10 -40.333 17.333 -63 22v-155zM302 316.999c-40 -11.333 -60 -37.001 -60 -77.001c0 -39.333 20 -64.666 60 -75.999v153z" />
    <glyph glyph-name="sterling" unicode="&#xa3;" horiz-adv-x="609" 
d="M577 0h-544v180h21c19.333 0 34.333 6 45 18s16 28 16 48v22h-67v150h68v32c0 82 24.333 143.5 73 184.5s111.667 61.5 189 61.5c62 0 120.333 -11.667 175 -35v-174c-36 24.667 -77 37 -123 37c-29.333 0 -52.5 -7.16699 -69.5 -21.5s-25.5 -34.833 -25.5 -61.5v-23h165
v-150h-165v-19c0 -29.333 -9.66699 -52.333 -29 -69h271v-180z" />
    <glyph glyph-name="currency" unicode="&#xa4;" horiz-adv-x="560" 
d="M180 166l-60 -60l-85 85l54 54c-18 30.667 -27 65.667 -27 105c0 40 9 75.333 27 106l-54 55l84 85l62 -62c30.667 13.333 63.667 20 99 20c34.667 0 68 -6.66699 100 -20l61 63l84 -86l-55 -56c18 -30.667 27 -65.667 27 -105s-8.66699 -74.333 -26 -105l54 -54l-85 -85
l-60 60c-30.667 -13.333 -64 -20 -100 -20s-69.333 6.66699 -100 20zM229 350c0 -13.333 4.33301 -24.833 13 -34.5s21.334 -14.5 38.001 -14.5s29.167 4.83301 37.5 14.5s12.5 21.167 12.5 34.5s-4.33301 25 -13 35s-21 15 -37 15c-16.667 0 -29.334 -5 -38.001 -15
s-13 -21.667 -13 -35z" />
    <glyph glyph-name="yen" unicode="&#xa5;" horiz-adv-x="761" 
d="M494 680h246l-185 -320h93v-110h-153v-39h153v-110h-153v-101h-229v101h-152v110h152v39h-152v110h92l-185 320h246l113 -249z" />
    <glyph glyph-name="brokenbar" unicode="&#xa6;" horiz-adv-x="317" 
d="M263 420h-209v390h209v-390zM263 -100h-209v390h209v-390z" />
    <glyph glyph-name="section" unicode="&#xa7;" horiz-adv-x="530" 
d="M491 122c0 -55.333 -22.498 -95.501 -67.498 -120.501s-103.5 -37.5 -175.5 -37.5c-75.333 0 -139 14 -191 42v159c50 -34.667 106.333 -52 169 -52c31.333 0 47 6 47 18c0 2.66699 -0.833008 5.33398 -2.5 8.00098s-4.33398 5 -8.00098 7l-11.5 6c-4 2 -9.33301 4 -16 6
s-12.5 3.83301 -17.5 5.5s-11.833 3.66699 -20.5 6s-16 4.5 -22 6.5c-41.333 14 -74.5 31.833 -99.5 53.5s-37.5 52.5 -37.5 92.5c0 53.333 24.333 94 73 122c-46 32 -69 71.333 -69 118c0 52.667 21.167 91.5 63.5 116.5s96.166 37.5 161.499 37.5
c66 0 128 -13.667 186 -41v-146c-50 28 -102.667 42 -158 42c-22 0 -33 -5.66699 -33 -17c0 -7.33301 4.5 -13.5 13.5 -18.5s25.667 -11.167 50 -18.5s41.833 -13 52.5 -17c78.667 -27.333 118 -73.333 118 -138c0 -52 -22 -94 -66 -126c40.667 -29.333 61 -67.333 61 -114z
M249.002 310.999c8.66699 -4 24.999 -9.33203 48.999 -15.999c15.333 11.333 23.333 22.666 24 33.999c0.666992 14 -10 26 -32 36c-11.333 5.33301 -30 12.333 -56 21c-15.333 -10 -23.666 -22.333 -24.999 -37c-1.33301 -16 12 -28.667 40 -38z" />
    <glyph glyph-name="dieresis" unicode="&#xa8;" horiz-adv-x="437" 
d="M431 834c0 -28.667 -9.16699 -51.834 -27.5 -69.501s-41.5 -26.5 -69.5 -26.5c-27.333 0 -50.166 8.83301 -68.499 26.5s-27.5 40.834 -27.5 69.501s9.16699 51.834 27.5 69.501s41.166 26.5 68.499 26.5c28 0 51.167 -8.83301 69.5 -26.5s27.5 -40.834 27.5 -69.501z
M200 834c0 -28.667 -9.16699 -51.834 -27.5 -69.501s-41.5 -26.5 -69.5 -26.5c-27.333 0 -50.166 8.83301 -68.499 26.5s-27.5 40.834 -27.5 69.501s9.16699 51.834 27.5 69.501s41.166 26.5 68.499 26.5c28 0 51.167 -8.83301 69.5 -26.5s27.5 -40.834 27.5 -69.501z" />
    <glyph glyph-name="copyright" unicode="&#xa9;" horiz-adv-x="829" 
d="M799 350c0 -59.333 -10.333 -112.666 -31 -159.999s-48.834 -85.666 -84.501 -114.999s-76.5 -51.833 -122.5 -67.5s-95 -23.5 -147 -23.5s-100.833 7.83301 -146.5 23.5s-86.334 38.167 -122.001 67.5s-63.834 67.666 -84.501 114.999s-31 100.666 -31 159.999
s10.333 112.666 31 159.999s48.834 85.666 84.501 114.999s76.334 51.833 122.001 67.5s94.5 23.5 146.5 23.5s101 -7.83301 147 -23.5s86.833 -38.167 122.5 -67.5s63.834 -67.666 84.501 -114.999s31 -100.666 31 -159.999zM578 178
c-24.667 -12.667 -47.499 -21.5 -68.499 -26.5s-48.167 -7.5 -81.5 -7.5c-56.667 0 -106.834 16.667 -150.501 50s-65.5 82.666 -65.5 147.999c0 71.333 21.667 124.833 65 160.5s97.666 53.5 162.999 53.5c54.667 0 100.667 -11.333 138 -34v-123
c-30.667 18 -64.667 27 -102 27c-26 0 -47.667 -6 -65 -18s-26 -30.667 -26 -56c0 -27.333 8.83301 -47.166 26.5 -59.499s39.834 -18.5 66.501 -18.5c38 0 71.333 9.33301 100 28v-124zM103.001 350c0 -94.667 30.167 -168.334 90.5 -221.001s133.833 -79 220.5 -79
s160.334 26.333 221.001 79s91 126.334 91 221.001s-30.333 168.334 -91 221.001s-134.334 79 -221.001 79s-160.167 -26.333 -220.5 -79s-90.5 -126.334 -90.5 -221.001z" />
    <glyph glyph-name="guillemotleft" unicode="&#xab;" horiz-adv-x="672" 
d="M650 32h-210l-137 190v36l137 190h210l-147 -208zM370 32h-210l-136 190v36l136 190h210l-146 -208z" />
    <glyph glyph-name="logicalnot" unicode="&#xac;" horiz-adv-x="579" 
d="M531 197h-174v114h-321v169h495v-283z" />
    <glyph glyph-name="registered" unicode="&#xae;" horiz-adv-x="825" 
d="M795 350c0 -58.667 -10.333 -111.5 -31 -158.5s-48.667 -85.5 -84 -115.5s-75.833 -52.833 -121.5 -68.5s-94.5 -23.5 -146.5 -23.5c-51.333 0 -99.833 7.83301 -145.5 23.5s-86.167 38.5 -121.5 68.5s-63.333 68.5 -84 115.5s-31 99.833 -31 158.5
s10.333 111.5 31 158.5s48.667 85.5 84 115.5s75.833 52.833 121.5 68.5s94.167 23.5 145.5 23.5c52 0 100.833 -7.83301 146.5 -23.5s86.167 -38.5 121.5 -68.5s63.333 -68.5 84 -115.5s31 -99.833 31 -158.5zM103 350c0 -94.667 29.667 -168.167 89 -220.5
s132.666 -78.5 219.999 -78.5s160.666 26 219.999 78s89 125.667 89 221s-29.667 169 -89 221s-132.666 78 -219.999 78s-160.666 -26.167 -219.999 -78.5s-89 -125.833 -89 -220.5zM382 158l-134 0.000976562v390h196c47.333 0 86.833 -11.333 118.5 -34
s47.5 -58.334 47.5 -107.001c0 -58 -23 -97.667 -69 -119l99 -130h-148l-80 111h-7h-23v-111zM382 435.001v-67h51c26 0 39 11.333 39 34c0 22 -13 33 -39 33h-51z" />
    <glyph glyph-name="macron" unicode="&#xaf;" horiz-adv-x="360" 
d="M-3 892h363v-145h-363v145z" />
    <glyph glyph-name="degree" unicode="&#xb0;" horiz-adv-x="445" 
d="M425 529c0 -62 -18.5 -109.5 -55.5 -142.5s-85.833 -49.5 -146.5 -49.5c-60 0 -108.833 16.5 -146.5 49.5s-56.5 80.5 -56.5 142.5c0 58.667 19 104.5 57 137.5s86.667 49.5 146 49.5c60 0 108.667 -16.5 146 -49.5s56 -78.833 56 -137.5zM171 527
c0 -16 4.5 -28.667 13.5 -38s21.833 -14 38.5 -14s29.334 4.66699 38.001 14s13 22 13 38c0 15.333 -4.33301 27.666 -13 36.999s-21.334 14 -38.001 14s-29.5 -4.66699 -38.5 -14s-13.5 -21.666 -13.5 -36.999z" />
    <glyph glyph-name="plusminus" unicode="&#xb1;" horiz-adv-x="582" 
d="M375 687v-152h164v-168h-164v-153h-168v153h-164v168h164v152h168zM539 0h-496v168h496v-168z" />
    <glyph glyph-name="acute" unicode="&#xb4;" horiz-adv-x="347" 
d="M205 752h-183l98 164h207z" />
    <glyph glyph-name="paragraph" unicode="&#xb6;" horiz-adv-x="831" 
d="M479 -220l-216 -0.000976562v469c-75.333 0 -134.166 19.833 -176.499 59.5s-63.5 94.834 -63.5 165.501s21.167 126 63.5 166s101.166 60 176.499 60h505v-920h-216v718h-73v-718z" />
    <glyph glyph-name="periodcentered" unicode="&#xb7;" horiz-adv-x="290" 
d="M262 238c0 -36.667 -11.167 -64.667 -33.5 -84s-50.166 -29 -83.499 -29s-61.166 9.66699 -83.499 29s-33.5 47.333 -33.5 84s11.167 64.667 33.5 84s50.166 29 83.499 29s61.166 -9.66699 83.499 -29s33.5 -47.333 33.5 -84z" />
    <glyph glyph-name="cedilla" unicode="&#xb8;" horiz-adv-x="230" 
d="M50 0h127l-14 -43c61.333 -8.66699 92 -38.667 92 -90c0 -34.667 -15.167 -60.667 -45.5 -78s-67.5 -26 -111.5 -26c-46.667 0 -86 6.33301 -118 19v105c24 -10 50 -15 78 -15c38 0 57 8.33301 57 25c0 22 -29.333 30 -88 24z" />
    <glyph glyph-name="guillemotright" unicode="&#xbb;" horiz-adv-x="670" 
d="M511 32h-211l147 208l-147 208h211l135 -190v-36zM233 32h-211l147 208l-147 208h211l135 -190v-36z" />
    <glyph glyph-name="onequarter" unicode="&#xbc;" horiz-adv-x="915" 
d="M704 408h136v-246h50v-107h-50v-55h-125v55h-203v110zM715 162v96l-76 -96h76zM250 -16h-60l462 732h60zM147 680h101v-295h69v-113h-281v113h78v164l-74 -25v118z" />
    <glyph glyph-name="onehalf" unicode="&#xbd;" horiz-adv-x="884" 
d="M247 -16h-60l462 732h60zM542 374c46 29.333 96.998 44.002 152.998 44.002c46.667 0 85.167 -10.833 115.5 -32.5s45.5 -55.167 45.5 -100.5c0 -26.667 -6.66699 -48.834 -20 -66.501s-32 -34.834 -56 -51.501c-5.33301 -3.33301 -12.666 -8.16602 -21.999 -14.499
l-21.5 -14.5c-5 -3.33301 -10.333 -7.33301 -16 -12s-10.167 -9 -13.5 -13h149v-113h-327l1 56c0 20.667 3 39.334 9 56.001s15.833 31.667 29.5 45s25.167 23.666 34.5 30.999s23.333 16.666 42 27.999c6 4 14.5 9.16699 25.5 15.5s18.833 11 23.5 14s9.16699 7 13.5 12
s6.5 10.5 6.5 16.5c0 17.333 -13 26 -39 26c-43.333 0 -87.666 -17.333 -132.999 -52v126zM143.998 680.002h101v-295h69v-113h-281v113h78v164l-74 -25v118z" />
    <glyph glyph-name="threequarters" unicode="&#xbe;" horiz-adv-x="965" 
d="M300 -16h-60l462 732h60zM754 408h136v-246h50v-107h-50v-55h-125v55h-203v110zM765 162v96l-76 -96h76zM338 580c0 -44.667 -21.666 -73.998 -64.999 -87.998c24 -6.66699 43.667 -18.334 59 -35.001s23 -38.334 23 -65.001c0 -42.667 -16.5 -73.834 -49.5 -93.501
s-74.5 -29.5 -124.5 -29.5c-48 0 -97.333 9.33301 -148 28v119c43.333 -23.333 89 -34.333 137 -33c35.333 0 53 9.66699 53 29c0 15.333 -12 23 -36 23h-72l1 103l58 -1c22 0 33 6.66699 33 20c0 16.667 -16 25 -48 25c-42.667 0 -82.334 -12.333 -119.001 -37v116
c40.667 24 87.667 36 141 36c45.333 0 82.833 -9.66699 112.5 -29s44.5 -48.666 44.5 -87.999z" />
    <glyph glyph-name="questiondown" unicode="&#xbf;" horiz-adv-x="501" 
d="M471 -192c-62 -29.333 -129 -44.001 -201 -44.001c-34 0 -64.833 2.83301 -92.5 8.5s-53.834 15 -78.501 28s-43.834 31.833 -57.501 56.5s-20.5 54.334 -20.5 89.001c0 30.667 8.5 60.667 25.5 90s35.667 53.5 56 72.5s39 39 56 60s25.5 39.167 25.5 54.5h196
c0 -27.333 -6.66699 -53.5 -20 -78.5s-28.166 -44.833 -44.499 -59.5s-31.166 -29.5 -44.499 -44.5s-20 -27.833 -20 -38.5c0 -28 21.333 -42 64 -42c52 0 104 14.667 156 44v-196zM398 382.999c0 -36.667 -11.168 -64.667 -33.501 -84s-50.166 -29 -83.499 -29
s-61.166 9.66699 -83.499 29s-33.5 47.333 -33.5 84c0 37.333 11 65.5 33 84.5s50 28.5 84 28.5c33.333 0 61.166 -9.66699 83.499 -29s33.5 -47.333 33.5 -84z" />
    <glyph glyph-name="Agrave" unicode="&#xc0;" horiz-adv-x="765" 
d="M231 0h-234l262 700h248l261 -700h-234l-30 93h-242zM364 409l-49 -149h137l-49 149c-9.33301 29.333 -16 59.333 -20 90c-4 -26.667 -10.333 -56.667 -19 -90zM496 752h-183l-122 164h206z" />
    <glyph glyph-name="Aacute" unicode="&#xc1;" horiz-adv-x="765" 
d="M231 0h-234l262 700h248l261 -700h-234l-30 93h-242zM364 409l-49 -149h137l-49 149c-9.33301 29.333 -16 59.333 -20 90c-4 -26.667 -10.333 -56.667 -19 -90zM453 752h-183l98 164h207z" />
    <glyph glyph-name="Acircumflex" unicode="&#xc2;" horiz-adv-x="765" 
d="M231 0h-234l262 700h248l261 -700h-234l-30 93h-242zM364 409l-49 -149h137l-49 149c-9.33301 29.333 -16 59.333 -20 90c-4 -26.667 -10.333 -56.667 -19 -90zM290 918h185l128 -171h-175l-45 57l-45 -57h-176z" />
    <glyph glyph-name="Atilde" unicode="&#xc3;" horiz-adv-x="765" 
d="M231 0h-234l262 700h248l261 -700h-234l-30 93h-242zM364 409l-49 -149h137l-49 149c-9.33301 29.333 -16 59.333 -20 90c-4 -26.667 -10.333 -56.667 -19 -90zM583 914c12.667 -48.667 7.83301 -90.833 -14.5 -126.5s-55.5 -53.5 -99.5 -53.5
c-25.333 0 -52.666 7 -81.999 21s-47.333 21 -54 21c-9.33301 0 -15.5 -4 -18.5 -12s-3.16699 -16 -0.5 -24h-133c-13.333 49.333 -8.83301 91.666 13.5 126.999s55.833 53 100.5 53c25.333 0 52.666 -7 81.999 -21s47 -21 53 -21c10 0 16.333 3.83301 19 11.5
s3 15.834 1 24.501h133z" />
    <glyph glyph-name="Adieresis" unicode="&#xc4;" horiz-adv-x="765" 
d="M231 0h-234l262 700h248l261 -700h-234l-30 93h-242zM364 409l-49 -149h137l-49 149c-9.33301 29.333 -16 59.333 -20 90c-4 -26.667 -10.333 -56.667 -19 -90zM596 834c0 -28.667 -9.16699 -51.834 -27.5 -69.501s-41.5 -26.5 -69.5 -26.5
c-27.333 0 -50.166 8.83301 -68.499 26.5s-27.5 40.834 -27.5 69.501s9.16699 51.834 27.5 69.501s41.166 26.5 68.499 26.5c28 0 51.167 -8.83301 69.5 -26.5s27.5 -40.834 27.5 -69.501zM365 834c0 -28.667 -9.16699 -51.834 -27.5 -69.501s-41.5 -26.5 -69.5 -26.5
c-27.333 0 -50.166 8.83301 -68.499 26.5s-27.5 40.834 -27.5 69.501s9.16699 51.834 27.5 69.501s41.166 26.5 68.499 26.5c28 0 51.167 -8.83301 69.5 -26.5s27.5 -40.834 27.5 -69.501z" />
    <glyph glyph-name="Aring" unicode="&#xc5;" horiz-adv-x="765" 
d="M231 0h-234l262 700h248l261 -700h-234l-30 93h-242zM364 409l-49 -149h137l-49 149c-9.33301 29.333 -16 59.333 -20 90c-4 -26.667 -10.333 -56.667 -19 -90zM527 857c0 -42 -13.499 -74.498 -40.499 -97.498s-60.833 -34.5 -101.5 -34.5c-40 0 -73.5 11.667 -100.5 35
s-40.5 55.666 -40.5 96.999c0 39.333 13.667 70.666 41 93.999s60.666 35 99.999 35c40.667 0 74.5 -11.5 101.5 -34.5s40.5 -54.5 40.5 -94.5zM352.001 856.002c0 -10 3 -18.333 9 -25s14.333 -10 25 -10s19 3.33301 25 10s9 15 9 25c0 22.667 -11.333 34 -34 34
s-34 -11.333 -34 -34z" />
    <glyph glyph-name="AE" unicode="&#xc6;" horiz-adv-x="1028" 
d="M715 267v-83h280v-184h-505v95h-215l-57 -95h-233l429 700h575v-182h-274v-81h238v-170h-238zM370 260h121v206z" />
    <glyph glyph-name="Ccedilla" unicode="&#xc7;" horiz-adv-x="651" 
d="M619 237l0.00292969 -211.002c-42.667 -19.333 -87.334 -32 -134.001 -38l-10 -31c61.333 -8.66699 92 -38.667 92 -90c0 -35.333 -15.167 -61.5 -45.5 -78.5s-67.833 -25.5 -112.5 -25.5c-46 0 -85 6.33301 -117 19v105c24 -10 50 -15 78 -15c38 0 57 8.33301 57 25
c0 22 -29.333 30 -88 24l19 65c-96.667 10.667 -176.334 45.834 -239.001 105.501s-94 143.5 -94 251.5c0 64 10.667 120.667 32 170s50.5 88.333 87.5 117s77.667 50.167 122 64.5s91.5 21.5 141.5 21.5c75.333 0 144 -14 206 -42v-206c-46 32 -101 48 -165 48
c-53.333 0 -97.833 -14.167 -133.5 -42.5s-53.5 -71.833 -53.5 -130.5c0 -51.333 17.667 -90.166 53 -116.499s78.333 -39.5 129 -39.5c79.333 0 137.666 16.667 174.999 50z" />
    <glyph glyph-name="Egrave" unicode="&#xc8;" horiz-adv-x="622" 
d="M53 700h530v-182h-299v-81h263v-170h-263v-83h305v-184h-536v700zM433 752h-183l-122 164h206z" />
    <glyph glyph-name="Eacute" unicode="&#xc9;" horiz-adv-x="622" 
d="M53 700h530v-182h-299v-81h263v-170h-263v-83h305v-184h-536v700zM390 752h-183l98 164h207z" />
    <glyph glyph-name="Ecircumflex" unicode="&#xca;" horiz-adv-x="622" 
d="M53 700h530v-182h-299v-81h263v-170h-263v-83h305v-184h-536v700zM227 918h185l128 -171h-175l-45 57l-45 -57h-176z" />
    <glyph glyph-name="Edieresis" unicode="&#xcb;" horiz-adv-x="622" 
d="M53 700h530v-182h-299v-81h263v-170h-263v-83h305v-184h-536v700zM533 834c0 -28.667 -9.16699 -51.834 -27.5 -69.501s-41.5 -26.5 -69.5 -26.5c-27.333 0 -50.166 8.83301 -68.499 26.5s-27.5 40.834 -27.5 69.501s9.16699 51.834 27.5 69.501s41.166 26.5 68.499 26.5
c28 0 51.167 -8.83301 69.5 -26.5s27.5 -40.834 27.5 -69.501zM302 834c0 -28.667 -9.16699 -51.834 -27.5 -69.501s-41.5 -26.5 -69.5 -26.5c-27.333 0 -50.166 8.83301 -68.499 26.5s-27.5 40.834 -27.5 69.501s9.16699 51.834 27.5 69.501s41.166 26.5 68.499 26.5
c28 0 51.167 -8.83301 69.5 -26.5s27.5 -40.834 27.5 -69.501z" />
    <glyph glyph-name="Igrave" unicode="&#xcc;" horiz-adv-x="337" 
d="M53 700h231v-700h-231v700zM281 752h-183l-122 164h206z" />
    <glyph glyph-name="Iacute" unicode="&#xcd;" horiz-adv-x="337" 
d="M53 700h231v-700h-231v700zM238 752h-183l98 164h207z" />
    <glyph glyph-name="Icircumflex" unicode="&#xce;" horiz-adv-x="337" 
d="M53 700h231v-700h-231v700zM75 918h185l128 -171h-175l-45 57l-45 -57h-176z" />
    <glyph glyph-name="Idieresis" unicode="&#xcf;" horiz-adv-x="337" 
d="M53 700h231v-700h-231v700zM381 834c0 -28.667 -9.16699 -51.834 -27.5 -69.501s-41.5 -26.5 -69.5 -26.5c-27.333 0 -50.166 8.83301 -68.499 26.5s-27.5 40.834 -27.5 69.501s9.16699 51.834 27.5 69.501s41.166 26.5 68.499 26.5c28 0 51.167 -8.83301 69.5 -26.5
s27.5 -40.834 27.5 -69.501zM150 834c0 -28.667 -9.16699 -51.834 -27.5 -69.501s-41.5 -26.5 -69.5 -26.5c-27.333 0 -50.166 8.83301 -68.499 26.5s-27.5 40.834 -27.5 69.501s9.16699 51.834 27.5 69.501s41.166 26.5 68.499 26.5c28 0 51.167 -8.83301 69.5 -26.5
s27.5 -40.834 27.5 -69.501z" />
    <glyph glyph-name="Eth" unicode="&#xd0;" horiz-adv-x="759" 
d="M67 700h302c121.333 0 212.333 -31.5 273 -94.5s91 -148.167 91 -255.5s-30.333 -192.5 -91 -255.5s-151.667 -94.5 -273 -94.5h-302v281h-59v136h59v283zM298 194h65c88 0 132 52 132 156s-44 156 -132 156h-65v-89h101v-136h-101v-87z" />
    <glyph glyph-name="Ntilde" unicode="&#xd1;" horiz-adv-x="763" 
d="M284 0l-231 -0.000976562v700h195l237 -329c-4 33.333 -6 73.333 -6 120v209h231v-700h-195l-237 328c4 -33.333 6 -72.666 6 -117.999v-210zM576 913.999c12.667 -48.667 7.83301 -90.833 -14.5 -126.5s-55.5 -53.5 -99.5 -53.5c-25.333 0 -52.666 7 -81.999 21
s-47.333 21 -54 21c-9.33301 0 -15.5 -4 -18.5 -12s-3.16699 -16 -0.5 -24h-133c-13.333 49.333 -8.83301 91.666 13.5 126.999s55.833 53 100.5 53c25.333 0 52.666 -7 81.999 -21s47 -21 53 -21c10 0 16.333 3.83301 19 11.5s3 15.834 1 24.501h133z" />
    <glyph glyph-name="Ograve" unicode="&#xd2;" horiz-adv-x="806" 
d="M24 350c0 106 33 193.5 99 262.5s159.333 103.5 280 103.5s214 -34.5 280 -103.5s99 -156.5 99 -262.5s-33 -193.5 -99 -262.5s-159.333 -103.5 -280 -103.5s-214 34.5 -280 103.5s-99 156.5 -99 262.5zM545 350c0 48.667 -12.5 87 -37.5 115s-59.833 42 -104.5 42
s-79.5 -14 -104.5 -42s-37.5 -66.333 -37.5 -115s12.5 -87 37.5 -115s59.833 -42 104.5 -42s79.5 14 104.5 42s37.5 66.333 37.5 115zM515 752h-183l-122 164h206z" />
    <glyph glyph-name="Oacute" unicode="&#xd3;" horiz-adv-x="806" 
d="M24 350c0 106 33 193.5 99 262.5s159.333 103.5 280 103.5s214 -34.5 280 -103.5s99 -156.5 99 -262.5s-33 -193.5 -99 -262.5s-159.333 -103.5 -280 -103.5s-214 34.5 -280 103.5s-99 156.5 -99 262.5zM545 350c0 48.667 -12.5 87 -37.5 115s-59.833 42 -104.5 42
s-79.5 -14 -104.5 -42s-37.5 -66.333 -37.5 -115s12.5 -87 37.5 -115s59.833 -42 104.5 -42s79.5 14 104.5 42s37.5 66.333 37.5 115zM472 752h-183l98 164h207z" />
    <glyph glyph-name="Ocircumflex" unicode="&#xd4;" horiz-adv-x="806" 
d="M24 350c0 106 33 193.5 99 262.5s159.333 103.5 280 103.5s214 -34.5 280 -103.5s99 -156.5 99 -262.5s-33 -193.5 -99 -262.5s-159.333 -103.5 -280 -103.5s-214 34.5 -280 103.5s-99 156.5 -99 262.5zM545 350c0 48.667 -12.5 87 -37.5 115s-59.833 42 -104.5 42
s-79.5 -14 -104.5 -42s-37.5 -66.333 -37.5 -115s12.5 -87 37.5 -115s59.833 -42 104.5 -42s79.5 14 104.5 42s37.5 66.333 37.5 115zM309 918h185l128 -171h-175l-45 57l-45 -57h-176z" />
    <glyph glyph-name="Otilde" unicode="&#xd5;" horiz-adv-x="806" 
d="M24 350c0 106 33 193.5 99 262.5s159.333 103.5 280 103.5s214 -34.5 280 -103.5s99 -156.5 99 -262.5s-33 -193.5 -99 -262.5s-159.333 -103.5 -280 -103.5s-214 34.5 -280 103.5s-99 156.5 -99 262.5zM545 350c0 48.667 -12.5 87 -37.5 115s-59.833 42 -104.5 42
s-79.5 -14 -104.5 -42s-37.5 -66.333 -37.5 -115s12.5 -87 37.5 -115s59.833 -42 104.5 -42s79.5 14 104.5 42s37.5 66.333 37.5 115zM602 914c12.667 -48.667 7.83301 -90.833 -14.5 -126.5s-55.5 -53.5 -99.5 -53.5c-25.333 0 -52.666 7 -81.999 21s-47.333 21 -54 21
c-9.33301 0 -15.5 -4 -18.5 -12s-3.16699 -16 -0.5 -24h-133c-13.333 49.333 -8.83301 91.666 13.5 126.999s55.833 53 100.5 53c25.333 0 52.666 -7 81.999 -21s47 -21 53 -21c10 0 16.333 3.83301 19 11.5s3 15.834 1 24.501h133z" />
    <glyph glyph-name="Odieresis" unicode="&#xd6;" horiz-adv-x="806" 
d="M24 350c0 106 33 193.5 99 262.5s159.333 103.5 280 103.5s214 -34.5 280 -103.5s99 -156.5 99 -262.5s-33 -193.5 -99 -262.5s-159.333 -103.5 -280 -103.5s-214 34.5 -280 103.5s-99 156.5 -99 262.5zM545 350c0 48.667 -12.5 87 -37.5 115s-59.833 42 -104.5 42
s-79.5 -14 -104.5 -42s-37.5 -66.333 -37.5 -115s12.5 -87 37.5 -115s59.833 -42 104.5 -42s79.5 14 104.5 42s37.5 66.333 37.5 115zM615 834c0 -28.667 -9.16699 -51.834 -27.5 -69.501s-41.5 -26.5 -69.5 -26.5c-27.333 0 -50.166 8.83301 -68.499 26.5
s-27.5 40.834 -27.5 69.501s9.16699 51.834 27.5 69.501s41.166 26.5 68.499 26.5c28 0 51.167 -8.83301 69.5 -26.5s27.5 -40.834 27.5 -69.501zM384 834c0 -28.667 -9.16699 -51.834 -27.5 -69.501s-41.5 -26.5 -69.5 -26.5c-27.333 0 -50.166 8.83301 -68.499 26.5
s-27.5 40.834 -27.5 69.501s9.16699 51.834 27.5 69.501s41.166 26.5 68.499 26.5c28 0 51.167 -8.83301 69.5 -26.5s27.5 -40.834 27.5 -69.501z" />
    <glyph glyph-name="multiply" unicode="&#xd7;" horiz-adv-x="526" 
d="M263 239l-123 -122l-110 110l122 122l-122 123l110 110l123 -122l122 122l111 -110l-123 -123l123 -122l-111 -110z" />
    <glyph glyph-name="Oslash" unicode="&#xd8;" horiz-adv-x="806" 
d="M743 748l-82.002 -115c80.667 -66.667 121 -161 121 -283c0 -106 -33 -193.5 -99 -262.5s-159.333 -103.5 -280 -103.5c-67.333 0 -127.666 12 -180.999 36l-48 -68h-110l82 114c-81.333 68 -122 162.667 -122 284c0 106 33 193.5 99 262.5s159.333 103.5 280 103.5
c70.667 0 131.334 -12 182.001 -36l48 68h110zM402.998 507c-44.667 0 -79.501 -14 -104.501 -42s-37.5 -66.333 -37.5 -115c0 -35.333 7.33301 -66 22 -92l172 241c-17.333 5.33301 -34.666 8 -51.999 8zM351.997 202c14.667 -6 31.333 -9 50 -9c44.667 0 79.5 14 104.5 42
s37.5 66.333 37.5 115c0 36.667 -7.33301 66.667 -22 90z" />
    <glyph glyph-name="Ugrave" unicode="&#xd9;" horiz-adv-x="740" 
d="M465 700h230v-428c0 -52 -9 -97.167 -27 -135.5s-42.667 -68.333 -74 -90s-65.5 -37.5 -102.5 -47.5s-77.5 -15 -121.5 -15s-84.5 5 -121.5 15s-71.167 25.833 -102.5 47.5s-56 51.667 -74 90s-27 83.5 -27 135.5v428h231v-417c0 -61.333 31.333 -92 94 -92
c63.333 0 95 30.667 95 92v417zM483 752h-183l-122 164h206z" />
    <glyph glyph-name="Uacute" unicode="&#xda;" horiz-adv-x="740" 
d="M465 700h230v-428c0 -52 -9 -97.167 -27 -135.5s-42.667 -68.333 -74 -90s-65.5 -37.5 -102.5 -47.5s-77.5 -15 -121.5 -15s-84.5 5 -121.5 15s-71.167 25.833 -102.5 47.5s-56 51.667 -74 90s-27 83.5 -27 135.5v428h231v-417c0 -61.333 31.333 -92 94 -92
c63.333 0 95 30.667 95 92v417zM440 752h-183l98 164h207z" />
    <glyph glyph-name="Ucircumflex" unicode="&#xdb;" horiz-adv-x="740" 
d="M465 700h230v-428c0 -52 -9 -97.167 -27 -135.5s-42.667 -68.333 -74 -90s-65.5 -37.5 -102.5 -47.5s-77.5 -15 -121.5 -15s-84.5 5 -121.5 15s-71.167 25.833 -102.5 47.5s-56 51.667 -74 90s-27 83.5 -27 135.5v428h231v-417c0 -61.333 31.333 -92 94 -92
c63.333 0 95 30.667 95 92v417zM277 918h185l128 -171h-175l-45 57l-45 -57h-176z" />
    <glyph glyph-name="Udieresis" unicode="&#xdc;" horiz-adv-x="740" 
d="M465 700h230v-428c0 -52 -9 -97.167 -27 -135.5s-42.667 -68.333 -74 -90s-65.5 -37.5 -102.5 -47.5s-77.5 -15 -121.5 -15s-84.5 5 -121.5 15s-71.167 25.833 -102.5 47.5s-56 51.667 -74 90s-27 83.5 -27 135.5v428h231v-417c0 -61.333 31.333 -92 94 -92
c63.333 0 95 30.667 95 92v417zM583 834c0 -28.667 -9.16699 -51.834 -27.5 -69.501s-41.5 -26.5 -69.5 -26.5c-27.333 0 -50.166 8.83301 -68.499 26.5s-27.5 40.834 -27.5 69.501s9.16699 51.834 27.5 69.501s41.166 26.5 68.499 26.5c28 0 51.167 -8.83301 69.5 -26.5
s27.5 -40.834 27.5 -69.501zM352 834c0 -28.667 -9.16699 -51.834 -27.5 -69.501s-41.5 -26.5 -69.5 -26.5c-27.333 0 -50.166 8.83301 -68.499 26.5s-27.5 40.834 -27.5 69.501s9.16699 51.834 27.5 69.501s41.166 26.5 68.499 26.5c28 0 51.167 -8.83301 69.5 -26.5
s27.5 -40.834 27.5 -69.501z" />
    <glyph glyph-name="Yacute" unicode="&#xdd;" horiz-adv-x="753" 
d="M491 0h-229v239l-266 461h261l120 -265l120 265h261l-267 -461v-239zM442 752h-183l98 164h207z" />
    <glyph glyph-name="Thorn" unicode="&#xde;" horiz-adv-x="690" 
d="M284 609l75 -0.000976562c209.333 0 314 -86.333 314 -259c0 -171.333 -104.667 -257.666 -314 -258.999h-75v-91h-231v700h231v-91zM284 281.999h73c58 0 87 22.667 87 68s-29 68 -87 68h-73v-136z" />
    <glyph glyph-name="germandbls" unicode="&#xdf;" horiz-adv-x="618" 
d="M606 138c0 -51.333 -17.167 -89.834 -51.5 -115.501s-77.833 -38.5 -130.5 -38.5c-40 0 -82.333 8 -127 24v163c18 -10 37 -15 57 -15c30.667 0 46 11.333 46 34c0 12 -9.16699 27.5 -27.5 46.5s-36.666 39.833 -54.999 62.5s-27.5 44.334 -27.5 65.001
c0 21.333 8.5 45 25.5 71s25.5 49 25.5 69c0 13.333 -3.83301 23.833 -11.5 31.5s-18.167 11.5 -31.5 11.5c-14.667 0 -26 -4.16699 -34 -12.5s-12 -19.833 -12 -34.5v-500h-211v475c0 74 22 132.5 66 175.5s107 64.833 189 65.5c40.667 0 77 -5.16699 109 -15.5
s57 -24.166 75 -41.499s31.5 -35.5 40.5 -54.5s13.5 -37.833 13.5 -56.5c0 -22 -5.83301 -43.167 -17.5 -63.5s-23.334 -38.833 -35.001 -55.5s-17.5 -31.667 -17.5 -45s7.33301 -29 22 -47s31 -35.333 49 -52s34.333 -38.334 49 -65.001s22 -54 22 -82z" />
    <glyph glyph-name="agrave" unicode="&#xe0;" horiz-adv-x="575" 
d="M524 152c0 -17.333 9.33496 -26 28.002 -26c4.66699 0 11 0.666992 19 2v-123c-28.667 -12 -64 -18 -106 -18c-56 0 -96 17 -120 51c-44 -36 -97.333 -54 -160 -54c-47.333 0 -87 12.667 -119 38s-48 61 -48 107c0 29.333 6.16699 54.5 18.5 75.5
s29.166 37.167 50.499 48.5s43.666 19.5 66.999 24.5s48.333 7.5 75 7.5c35.333 0 67 -3 95 -9v11c0 35.333 -31.667 53 -95 53c-53.333 0 -111 -11.333 -173 -34v158c71.333 21.333 137 32 197 32c89.333 0 156.833 -16.833 202.5 -50.5s68.5 -94.5 68.5 -182.5v-111z
M282.002 189c-16.667 0 -30.833 -3.5 -42.5 -10.5s-17.5 -17.833 -17.5 -32.5c0 -11.333 4.5 -20.5 13.5 -27.5s20.167 -10.5 33.5 -10.5c20 0 38.333 5.33301 55 16v59c-10.667 4 -24.667 6 -42 6zM384.003 542h-183l-122 164h206z" />
    <glyph glyph-name="aacute" unicode="&#xe1;" horiz-adv-x="575" 
d="M524 152c0 -17.333 9.33496 -26 28.002 -26c4.66699 0 11 0.666992 19 2v-123c-28.667 -12 -64 -18 -106 -18c-56 0 -96 17 -120 51c-44 -36 -97.333 -54 -160 -54c-47.333 0 -87 12.667 -119 38s-48 61 -48 107c0 29.333 6.16699 54.5 18.5 75.5
s29.166 37.167 50.499 48.5s43.666 19.5 66.999 24.5s48.333 7.5 75 7.5c35.333 0 67 -3 95 -9v11c0 35.333 -31.667 53 -95 53c-53.333 0 -111 -11.333 -173 -34v158c71.333 21.333 137 32 197 32c89.333 0 156.833 -16.833 202.5 -50.5s68.5 -94.5 68.5 -182.5v-111z
M282.002 189c-16.667 0 -30.833 -3.5 -42.5 -10.5s-17.5 -17.833 -17.5 -32.5c0 -11.333 4.5 -20.5 13.5 -27.5s20.167 -10.5 33.5 -10.5c20 0 38.333 5.33301 55 16v59c-10.667 4 -24.667 6 -42 6zM341.003 542h-183l98 164h207z" />
    <glyph glyph-name="acircumflex" unicode="&#xe2;" horiz-adv-x="575" 
d="M524 152c0 -17.333 9.33496 -26 28.002 -26c4.66699 0 11 0.666992 19 2v-123c-28.667 -12 -64 -18 -106 -18c-56 0 -96 17 -120 51c-44 -36 -97.333 -54 -160 -54c-47.333 0 -87 12.667 -119 38s-48 61 -48 107c0 29.333 6.16699 54.5 18.5 75.5
s29.166 37.167 50.499 48.5s43.666 19.5 66.999 24.5s48.333 7.5 75 7.5c35.333 0 67 -3 95 -9v11c0 35.333 -31.667 53 -95 53c-53.333 0 -111 -11.333 -173 -34v158c71.333 21.333 137 32 197 32c89.333 0 156.833 -16.833 202.5 -50.5s68.5 -94.5 68.5 -182.5v-111z
M282.002 189c-16.667 0 -30.833 -3.5 -42.5 -10.5s-17.5 -17.833 -17.5 -32.5c0 -11.333 4.5 -20.5 13.5 -27.5s20.167 -10.5 33.5 -10.5c20 0 38.333 5.33301 55 16v59c-10.667 4 -24.667 6 -42 6zM178.003 708h185l128 -171h-175l-45 57l-45 -57h-176z" />
    <glyph glyph-name="atilde" unicode="&#xe3;" horiz-adv-x="575" 
d="M524 152c0 -17.333 9.33496 -26 28.002 -26c4.66699 0 11 0.666992 19 2v-123c-28.667 -12 -64 -18 -106 -18c-56 0 -96 17 -120 51c-44 -36 -97.333 -54 -160 -54c-47.333 0 -87 12.667 -119 38s-48 61 -48 107c0 29.333 6.16699 54.5 18.5 75.5
s29.166 37.167 50.499 48.5s43.666 19.5 66.999 24.5s48.333 7.5 75 7.5c35.333 0 67 -3 95 -9v11c0 35.333 -31.667 53 -95 53c-53.333 0 -111 -11.333 -173 -34v158c71.333 21.333 137 32 197 32c89.333 0 156.833 -16.833 202.5 -50.5s68.5 -94.5 68.5 -182.5v-111z
M282.002 189c-16.667 0 -30.833 -3.5 -42.5 -10.5s-17.5 -17.833 -17.5 -32.5c0 -11.333 4.5 -20.5 13.5 -27.5s20.167 -10.5 33.5 -10.5c20 0 38.333 5.33301 55 16v59c-10.667 4 -24.667 6 -42 6zM471.003 704c12.667 -48.667 7.83301 -90.833 -14.5 -126.5
s-55.5 -53.5 -99.5 -53.5c-25.333 0 -52.666 7 -81.999 21s-47.333 21 -54 21c-9.33301 0 -15.5 -4 -18.5 -12s-3.16699 -16 -0.5 -24h-133c-13.333 49.333 -8.83301 91.666 13.5 126.999s55.833 53 100.5 53c25.333 0 52.666 -7 81.999 -21s47 -21 53 -21
c10 0 16.333 3.83301 19 11.5s3 15.834 1 24.501h133z" />
    <glyph glyph-name="adieresis" unicode="&#xe4;" horiz-adv-x="575" 
d="M524 152c0 -17.333 9.33496 -26 28.002 -26c4.66699 0 11 0.666992 19 2v-123c-28.667 -12 -64 -18 -106 -18c-56 0 -96 17 -120 51c-44 -36 -97.333 -54 -160 -54c-47.333 0 -87 12.667 -119 38s-48 61 -48 107c0 29.333 6.16699 54.5 18.5 75.5
s29.166 37.167 50.499 48.5s43.666 19.5 66.999 24.5s48.333 7.5 75 7.5c35.333 0 67 -3 95 -9v11c0 35.333 -31.667 53 -95 53c-53.333 0 -111 -11.333 -173 -34v158c71.333 21.333 137 32 197 32c89.333 0 156.833 -16.833 202.5 -50.5s68.5 -94.5 68.5 -182.5v-111z
M282.002 189c-16.667 0 -30.833 -3.5 -42.5 -10.5s-17.5 -17.833 -17.5 -32.5c0 -11.333 4.5 -20.5 13.5 -27.5s20.167 -10.5 33.5 -10.5c20 0 38.333 5.33301 55 16v59c-10.667 4 -24.667 6 -42 6zM484.003 624c0 -28.667 -9.16699 -51.834 -27.5 -69.501
s-41.5 -26.5 -69.5 -26.5c-27.333 0 -50.166 8.83301 -68.499 26.5s-27.5 40.834 -27.5 69.501s9.16699 51.834 27.5 69.501s41.166 26.5 68.499 26.5c28 0 51.167 -8.83301 69.5 -26.5s27.5 -40.834 27.5 -69.501zM253.003 624c0 -28.667 -9.16699 -51.834 -27.5 -69.501
s-41.5 -26.5 -69.5 -26.5c-27.333 0 -50.166 8.83301 -68.499 26.5s-27.5 40.834 -27.5 69.501s9.16699 51.834 27.5 69.501s41.166 26.5 68.499 26.5c28 0 51.167 -8.83301 69.5 -26.5s27.5 -40.834 27.5 -69.501z" />
    <glyph glyph-name="aring" unicode="&#xe5;" horiz-adv-x="575" 
d="M524 152c0 -17.333 9.33496 -26 28.002 -26c4.66699 0 11 0.666992 19 2v-123c-28.667 -12 -64 -18 -106 -18c-56 0 -96 17 -120 51c-44 -36 -97.333 -54 -160 -54c-47.333 0 -87 12.667 -119 38s-48 61 -48 107c0 29.333 6.16699 54.5 18.5 75.5
s29.166 37.167 50.499 48.5s43.666 19.5 66.999 24.5s48.333 7.5 75 7.5c35.333 0 67 -3 95 -9v11c0 35.333 -31.667 53 -95 53c-53.333 0 -111 -11.333 -173 -34v158c71.333 21.333 137 32 197 32c89.333 0 156.833 -16.833 202.5 -50.5s68.5 -94.5 68.5 -182.5v-111z
M282.002 189c-16.667 0 -30.833 -3.5 -42.5 -10.5s-17.5 -17.833 -17.5 -32.5c0 -11.333 4.5 -20.5 13.5 -27.5s20.167 -10.5 33.5 -10.5c20 0 38.333 5.33301 55 16v59c-10.667 4 -24.667 6 -42 6zM415.003 647c0 -42 -13.499 -74.498 -40.499 -97.498
s-60.833 -34.5 -101.5 -34.5c-40 0 -73.5 11.667 -100.5 35s-40.5 55.666 -40.5 96.999c0 39.333 13.667 70.666 41 93.999s60.666 35 99.999 35c40.667 0 74.5 -11.5 101.5 -34.5s40.5 -54.5 40.5 -94.5zM240.004 646.002c0 -10 3 -18.333 9 -25s14.333 -10 25 -10
s19 3.33301 25 10s9 15 9 25c0 22.667 -11.333 34 -34 34s-34 -11.333 -34 -34z" />
    <glyph glyph-name="ae" unicode="&#xe6;" horiz-adv-x="835" 
d="M411 51c-61.333 -44.667 -133.997 -67.001 -217.997 -67.001c-49.333 0 -91 12.667 -125 38s-51 61 -51 107c0 30 6.16699 55.5 18.5 76.5s29.166 37.167 50.499 48.5s44.166 19.5 68.499 24.5s50.833 7.5 79.5 7.5c35.333 0 68.666 -3.33301 99.999 -10v11
c0 34.667 -33.333 52 -100 52c-54.667 0 -113.334 -11.333 -176.001 -34v159c70 21.333 136 32 198 32c80.667 0 137 -18 169 -54c44.667 36 97.667 54 159 54c46.667 0 87.167 -9.5 121.5 -28.5s59.333 -43.167 75 -72.5s26.5 -62 32.5 -98s4.33301 -71 -5 -105h-296
c8 -19.333 24.667 -34.166 50 -44.499s54.333 -15.5 87 -15.5c54 0 99.667 6 137 18v-142c-50 -16 -107.667 -24 -173 -24c-87.333 0 -154.666 22.333 -201.999 67zM227.003 145.999c0 -12 4.33398 -21.167 13.001 -27.5s19.667 -9.5 33 -9.5c27.333 0 54.333 9 81 27
c-5.33301 17.333 -9.33301 33.333 -12 48c-18.667 4 -35.334 6 -50.001 6c-43.333 0 -65 -14.667 -65 -44zM578.004 357.999c-20.667 0 -37.333 -6.5 -50 -19.5s-19 -29.167 -19 -48.5h127c2.66699 16 -0.833008 31.333 -10.5 46s-25.5 22 -47.5 22z" />
    <glyph glyph-name="ccedilla" unicode="&#xe7;" horiz-adv-x="489" 
d="M459 183l0.000976562 -172.001c-39.333 -12 -70.666 -19.333 -93.999 -22l-10 -32c62 -8.66699 93 -38.667 93 -90c0 -34.667 -15.333 -60.667 -46 -78s-68 -26 -112 -26c-46 0 -85.333 6.33301 -118 19v105c24 -10 50.333 -15 79 -15c37.333 0 56 8.33301 56 25
c0 22 -29.333 30 -88 24l20 66c-64 9.33301 -116.333 34 -157 74s-61 95.333 -61 166c0 46.667 8 87.834 24 123.501s37.667 64 65 85s57.5 36.667 90.5 47s68.167 15.5 105.5 15.5c49.333 0 98.666 -9.66699 147.999 -29v-173c-36 18 -72.667 27 -110 27
c-30.667 0 -56 -6.66699 -76 -20s-30 -34.333 -30 -63c0 -28 9.66699 -48.5 29 -61.5s43.666 -19.5 72.999 -19.5c45.333 0 85 8 119 24z" />
    <glyph glyph-name="egrave" unicode="&#xe8;" horiz-adv-x="547" 
d="M21 243c0 44.667 8.33496 84.166 25.002 118.499s38.167 60.833 64.5 79.5s53.833 32.5 82.5 41.5s57.334 13.5 86.001 13.5c41.333 0 78.166 -6.16699 110.499 -18.5s57.666 -28.5 75.999 -48.5s33.166 -43.167 44.499 -69.5s16.833 -53.833 16.5 -82.5
s-2.83301 -57 -7.5 -85h-296c8 -19.333 24.667 -34.166 50 -44.499s54.333 -15.5 87 -15.5c52 0 98 6.33301 138 19v-142c-48.667 -16.667 -107 -25 -175 -25c-54 0 -103 8.33301 -147 25s-80.833 45.167 -110.5 85.5s-44.5 89.833 -44.5 148.5zM348.002 288.999
c2.66699 16.667 -0.666016 32.167 -9.99902 46.5s-25.333 21.5 -48 21.5c-20.667 0 -37.334 -6.33301 -50.001 -19s-19 -29 -19 -49h127zM389.002 531.999h-183l-122 164h206z" />
    <glyph glyph-name="eacute" unicode="&#xe9;" horiz-adv-x="547" 
d="M21 243c0 44.667 8.33496 84.166 25.002 118.499s38.167 60.833 64.5 79.5s53.833 32.5 82.5 41.5s57.334 13.5 86.001 13.5c41.333 0 78.166 -6.16699 110.499 -18.5s57.666 -28.5 75.999 -48.5s33.166 -43.167 44.499 -69.5s16.833 -53.833 16.5 -82.5
s-2.83301 -57 -7.5 -85h-296c8 -19.333 24.667 -34.166 50 -44.499s54.333 -15.5 87 -15.5c52 0 98 6.33301 138 19v-142c-48.667 -16.667 -107 -25 -175 -25c-54 0 -103 8.33301 -147 25s-80.833 45.167 -110.5 85.5s-44.5 89.833 -44.5 148.5zM348.002 288.999
c2.66699 16.667 -0.666016 32.167 -9.99902 46.5s-25.333 21.5 -48 21.5c-20.667 0 -37.334 -6.33301 -50.001 -19s-19 -29 -19 -49h127zM346.002 531.999h-183l98 164h207z" />
    <glyph glyph-name="ecircumflex" unicode="&#xea;" horiz-adv-x="547" 
d="M21 243c0 44.667 8.33496 84.166 25.002 118.499s38.167 60.833 64.5 79.5s53.833 32.5 82.5 41.5s57.334 13.5 86.001 13.5c41.333 0 78.166 -6.16699 110.499 -18.5s57.666 -28.5 75.999 -48.5s33.166 -43.167 44.499 -69.5s16.833 -53.833 16.5 -82.5
s-2.83301 -57 -7.5 -85h-296c8 -19.333 24.667 -34.166 50 -44.499s54.333 -15.5 87 -15.5c52 0 98 6.33301 138 19v-142c-48.667 -16.667 -107 -25 -175 -25c-54 0 -103 8.33301 -147 25s-80.833 45.167 -110.5 85.5s-44.5 89.833 -44.5 148.5zM348.002 288.999
c2.66699 16.667 -0.666016 32.167 -9.99902 46.5s-25.333 21.5 -48 21.5c-20.667 0 -37.334 -6.33301 -50.001 -19s-19 -29 -19 -49h127zM183.002 697.999h185l128 -171h-175l-45 57l-45 -57h-176z" />
    <glyph glyph-name="edieresis" unicode="&#xeb;" horiz-adv-x="547" 
d="M21 243c0 44.667 8.33496 84.166 25.002 118.499s38.167 60.833 64.5 79.5s53.833 32.5 82.5 41.5s57.334 13.5 86.001 13.5c41.333 0 78.166 -6.16699 110.499 -18.5s57.666 -28.5 75.999 -48.5s33.166 -43.167 44.499 -69.5s16.833 -53.833 16.5 -82.5
s-2.83301 -57 -7.5 -85h-296c8 -19.333 24.667 -34.166 50 -44.499s54.333 -15.5 87 -15.5c52 0 98 6.33301 138 19v-142c-48.667 -16.667 -107 -25 -175 -25c-54 0 -103 8.33301 -147 25s-80.833 45.167 -110.5 85.5s-44.5 89.833 -44.5 148.5zM348.002 288.999
c2.66699 16.667 -0.666016 32.167 -9.99902 46.5s-25.333 21.5 -48 21.5c-20.667 0 -37.334 -6.33301 -50.001 -19s-19 -29 -19 -49h127zM489.002 613.999c0 -28.667 -9.16699 -51.834 -27.5 -69.501s-41.5 -26.5 -69.5 -26.5c-27.333 0 -50.166 8.83301 -68.499 26.5
s-27.5 40.834 -27.5 69.501s9.16699 51.834 27.5 69.501s41.166 26.5 68.499 26.5c28 0 51.167 -8.83301 69.5 -26.5s27.5 -40.834 27.5 -69.501zM258.002 613.999c0 -28.667 -9.16699 -51.834 -27.5 -69.501s-41.5 -26.5 -69.5 -26.5
c-27.333 0 -50.166 8.83301 -68.499 26.5s-27.5 40.834 -27.5 69.501s9.16699 51.834 27.5 69.501s41.166 26.5 68.499 26.5c28 0 51.167 -8.83301 69.5 -26.5s27.5 -40.834 27.5 -69.501z" />
    <glyph glyph-name="igrave" unicode="&#xec;" horiz-adv-x="293" 
d="M252 0h-211v480h211v-480zM249 532h-183l-81 164h206z" />
    <glyph glyph-name="iacute" unicode="&#xed;" horiz-adv-x="293" 
d="M41 480h211v-480h-211v480zM215 532h-183l98 164h207z" />
    <glyph glyph-name="icircumflex" unicode="&#xee;" horiz-adv-x="293" 
d="M54 698h185l107 -171h-165l-35 62l-35 -62h-165zM41 480h211v-480h-211v480z" />
    <glyph glyph-name="idieresis" unicode="&#xef;" horiz-adv-x="293" 
d="M339 614c0 -27.333 -8.66699 -49.333 -26 -66s-39.333 -25 -66 -25c-26 0 -47.667 8.33301 -65 25s-26 38.667 -26 66s8.66699 49.333 26 66s39 25 65 25c26.667 0 48.667 -8.33301 66 -25s26 -38.667 26 -66zM128 614c0 -27.333 -8.66699 -49.333 -26 -66
s-39 -25 -65 -25s-47.667 8.33301 -65 25s-26 38.667 -26 66s8.66699 49.333 26 66s39 25 65 25s47.667 -8.33301 65 -25s26 -38.667 26 -66zM41 480h211v-480h-211v480z" />
    <glyph glyph-name="eth" unicode="&#xf0;" horiz-adv-x="576" 
d="M550 290c0 -55.333 -7 -103.334 -21 -144.001s-33.5 -72.5 -58.5 -95.5s-52.667 -39.833 -83 -50.5s-64.166 -16 -101.499 -16c-78 0 -141.667 19.5 -191 58.5s-74 96.5 -74 172.5c0 67.333 19.167 119.5 57.5 156.5s85.5 55.5 141.5 55.5
c61.333 0 106.666 -18 135.999 -54c0 12.667 -2 25.334 -6 38.001c-10.667 41.333 -36.667 76 -78 104l-67 -67l-67 69l39 38c-26 6.66699 -56 10 -90 10v162c84 0 157 -14.333 219 -43l66 66l67 -68l-47 -47c105.333 -80 158 -195 158 -345zM223 211.999
c0 -19.333 5.16699 -35.5 15.5 -48.5s26.166 -19.5 47.499 -19.5c20.667 0 36.167 6.5 46.5 19.5s15.5 29.167 15.5 48.5c0 18.667 -5.16699 34.5 -15.5 47.5s-25.833 19.5 -46.5 19.5c-21.333 0 -37.166 -6.5 -47.499 -19.5s-15.5 -28.833 -15.5 -47.5z" />
    <glyph glyph-name="ntilde" unicode="&#xf1;" 
d="M226 432c42.667 42.667 91.667 63.999 147 63.999c62 0 108.5 -18.167 139.5 -54.5s46.5 -80.166 46.5 -131.499v-310h-211v274c0 30.667 -15.333 46 -46 46c-20 0 -36.667 -8 -50 -24v-296h-211v480h185v-48zM486 693.999c12.667 -48.667 7.83301 -90.833 -14.5 -126.5
s-55.5 -53.5 -99.5 -53.5c-25.333 0 -52.666 7 -81.999 21s-47.333 21 -54 21c-9.33301 0 -15.5 -4 -18.5 -12s-3.16699 -16 -0.5 -24h-133c-13.333 49.333 -8.83301 91.666 13.5 126.999s55.833 53 100.5 53c25.333 0 52.666 -7 81.999 -21s47 -21 53 -21
c10 0 16.333 3.83301 19 11.5s3 15.834 1 24.501h133z" />
    <glyph glyph-name="ograve" unicode="&#xf2;" 
d="M21 240c0 82.667 26.167 146 78.5 190s118.166 66 197.499 66c80 0 146.167 -22 198.5 -66s78.5 -107.333 78.5 -190s-26.167 -146 -78.5 -190s-118.5 -66 -198.5 -66c-79.333 0 -145.166 22 -197.499 66s-78.5 107.333 -78.5 190zM368 240c0 54.667 -23.667 82 -71 82
c-46.667 0 -70 -27.333 -70 -82s23.333 -82 70 -82c47.333 0 71 27.333 71 82zM410 528h-183l-122 164h206z" />
    <glyph glyph-name="oacute" unicode="&#xf3;" 
d="M21 240c0 82.667 26.167 146 78.5 190s118.166 66 197.499 66c80 0 146.167 -22 198.5 -66s78.5 -107.333 78.5 -190s-26.167 -146 -78.5 -190s-118.5 -66 -198.5 -66c-79.333 0 -145.166 22 -197.499 66s-78.5 107.333 -78.5 190zM368 240c0 54.667 -23.667 82 -71 82
c-46.667 0 -70 -27.333 -70 -82s23.333 -82 70 -82c47.333 0 71 27.333 71 82zM367 528h-183l98 164h207z" />
    <glyph glyph-name="ocircumflex" unicode="&#xf4;" 
d="M21 240c0 82.667 26.167 146 78.5 190s118.166 66 197.499 66c80 0 146.167 -22 198.5 -66s78.5 -107.333 78.5 -190s-26.167 -146 -78.5 -190s-118.5 -66 -198.5 -66c-79.333 0 -145.166 22 -197.499 66s-78.5 107.333 -78.5 190zM368 240c0 54.667 -23.667 82 -71 82
c-46.667 0 -70 -27.333 -70 -82s23.333 -82 70 -82c47.333 0 71 27.333 71 82zM204 694h185l128 -171h-175l-45 57l-45 -57h-176z" />
    <glyph glyph-name="otilde" unicode="&#xf5;" 
d="M21 240c0 82.667 26.167 146 78.5 190s118.166 66 197.499 66c80 0 146.167 -22 198.5 -66s78.5 -107.333 78.5 -190s-26.167 -146 -78.5 -190s-118.5 -66 -198.5 -66c-79.333 0 -145.166 22 -197.499 66s-78.5 107.333 -78.5 190zM368 240c0 54.667 -23.667 82 -71 82
c-46.667 0 -70 -27.333 -70 -82s23.333 -82 70 -82c47.333 0 71 27.333 71 82zM497 690c12.667 -48.667 7.83301 -90.833 -14.5 -126.5s-55.5 -53.5 -99.5 -53.5c-25.333 0 -52.666 7 -81.999 21s-47.333 21 -54 21c-9.33301 0 -15.5 -4 -18.5 -12s-3.16699 -16 -0.5 -24
h-133c-13.333 49.333 -8.83301 91.666 13.5 126.999s55.833 53 100.5 53c25.333 0 52.666 -7 81.999 -21s47 -21 53 -21c10 0 16.333 3.83301 19 11.5s3 15.834 1 24.501h133z" />
    <glyph glyph-name="odieresis" unicode="&#xf6;" 
d="M21 240c0 82.667 26.167 146 78.5 190s118.166 66 197.499 66c80 0 146.167 -22 198.5 -66s78.5 -107.333 78.5 -190s-26.167 -146 -78.5 -190s-118.5 -66 -198.5 -66c-79.333 0 -145.166 22 -197.499 66s-78.5 107.333 -78.5 190zM368 240c0 54.667 -23.667 82 -71 82
c-46.667 0 -70 -27.333 -70 -82s23.333 -82 70 -82c47.333 0 71 27.333 71 82zM510 610c0 -28.667 -9.16699 -51.834 -27.5 -69.501s-41.5 -26.5 -69.5 -26.5c-27.333 0 -50.166 8.83301 -68.499 26.5s-27.5 40.834 -27.5 69.501s9.16699 51.834 27.5 69.501
s41.166 26.5 68.499 26.5c28 0 51.167 -8.83301 69.5 -26.5s27.5 -40.834 27.5 -69.501zM279 610c0 -28.667 -9.16699 -51.834 -27.5 -69.501s-41.5 -26.5 -69.5 -26.5c-27.333 0 -50.166 8.83301 -68.499 26.5s-27.5 40.834 -27.5 69.501s9.16699 51.834 27.5 69.501
s41.166 26.5 68.499 26.5c28 0 51.167 -8.83301 69.5 -26.5s27.5 -40.834 27.5 -69.501z" />
    <glyph glyph-name="divide" unicode="&#xf7;" horiz-adv-x="557" 
d="M530 269h-503v163h503v-163zM396 116c0 -37.333 -11 -65.5 -33 -84.5s-50 -28.5 -84 -28.5c-33.333 0 -61.166 9.66699 -83.499 29s-33.5 47.333 -33.5 84s11.167 64.5 33.5 83.5s50.166 28.5 83.499 28.5c34 0 62 -9.5 84 -28.5s33 -46.833 33 -83.5zM396 586
c0 -37.333 -11 -65.5 -33 -84.5s-50 -28.5 -84 -28.5c-33.333 0 -61.166 9.66699 -83.499 29s-33.5 47.333 -33.5 84s11.167 64.5 33.5 83.5s50.166 28.5 83.499 28.5c34 0 62 -9.5 84 -28.5s33 -46.833 33 -83.5z" />
    <glyph glyph-name="oslash" unicode="&#xf8;" 
d="M515 543l-55.999 -87c76.667 -45.333 115 -117.333 115 -216c0 -82.667 -26.167 -146 -78.5 -190s-118.5 -66 -198.5 -66c-46.667 0 -88 7.33301 -124 22l-44 -70h-49l56 88c-76.667 44.667 -115 116.667 -115 216c0 82.667 26.167 146 78.5 190s118.166 66 197.499 66
c46.667 0 88.667 -7.33301 126 -22l44 69h48zM297.001 322c-46.667 0 -70 -27.333 -70 -82c0 -21.333 4.33301 -39.333 13 -54l83 132c-6 2.66699 -14.667 4 -26 4zM273.001 161c14 -2 22.333 -3 25 -3c47.333 0 71 27.333 71 82c0 19.333 -4.33301 37 -13 53z" />
    <glyph glyph-name="ugrave" unicode="&#xf9;" 
d="M343 480l211 0.000976562v-480h-185v48c-42.667 -42.667 -92 -64 -148 -64c-61.333 0 -107.5 18.167 -138.5 54.5s-46.5 80.166 -46.5 131.499v310h211v-274c0 -30.667 15.333 -46 46 -46c20 0 36.667 8 50 24v296zM408 532.001h-183l-122 164h206z" />
    <glyph glyph-name="uacute" unicode="&#xfa;" 
d="M343 480l211 0.000976562v-480h-185v48c-42.667 -42.667 -92 -64 -148 -64c-61.333 0 -107.5 18.167 -138.5 54.5s-46.5 80.166 -46.5 131.499v310h211v-274c0 -30.667 15.333 -46 46 -46c20 0 36.667 8 50 24v296zM365 532.001h-183l98 164h207z" />
    <glyph glyph-name="ucircumflex" unicode="&#xfb;" 
d="M343 480l211 0.000976562v-480h-185v48c-42.667 -42.667 -92 -64 -148 -64c-61.333 0 -107.5 18.167 -138.5 54.5s-46.5 80.166 -46.5 131.499v310h211v-274c0 -30.667 15.333 -46 46 -46c20 0 36.667 8 50 24v296zM202 698.001h185l128 -171h-175l-45 57l-45 -57h-176z
" />
    <glyph glyph-name="udieresis" unicode="&#xfc;" 
d="M343 480l211 0.000976562v-480h-185v48c-42.667 -42.667 -92 -64 -148 -64c-61.333 0 -107.5 18.167 -138.5 54.5s-46.5 80.166 -46.5 131.499v310h211v-274c0 -30.667 15.333 -46 46 -46c20 0 36.667 8 50 24v296zM508 614.001
c0 -28.667 -9.16699 -51.834 -27.5 -69.501s-41.5 -26.5 -69.5 -26.5c-27.333 0 -50.166 8.83301 -68.499 26.5s-27.5 40.834 -27.5 69.501s9.16699 51.834 27.5 69.501s41.166 26.5 68.499 26.5c28 0 51.167 -8.83301 69.5 -26.5s27.5 -40.834 27.5 -69.501zM277 614.001
c0 -28.667 -9.16699 -51.834 -27.5 -69.501s-41.5 -26.5 -69.5 -26.5c-27.333 0 -50.166 8.83301 -68.499 26.5s-27.5 40.834 -27.5 69.501s9.16699 51.834 27.5 69.501s41.166 26.5 68.499 26.5c28 0 51.167 -8.83301 69.5 -26.5s27.5 -40.834 27.5 -69.501z" />
    <glyph glyph-name="yacute" unicode="&#xfd;" horiz-adv-x="604" 
d="M313 217l72.998 263h214l-183 -509c-49.333 -137.333 -134.666 -206 -255.999 -206c-31.333 0 -66.333 5.66699 -105 17v170c25.333 -6.66699 49 -10 71 -10c40.667 0 70.334 18.333 89.001 55l-220 483h218zM363.998 532h-183l98 164h207z" />
    <glyph glyph-name="thorn" unicode="&#xfe;" horiz-adv-x="625" 
d="M41 700h211v-254c34.667 33.333 79 50 133 50c72 0 126.333 -24.833 163 -74.5s55 -110.167 55 -181.5c0 -72 -18.667 -132.667 -56 -182s-91.333 -74 -162 -74c-54 0 -98.333 16 -133 48v-252h-211v920zM386 240c0 24 -5.99902 44.5 -17.999 61.5s-30 25.5 -54 25.5
c-14.667 0 -27.667 -3.5 -39 -10.5s-19.333 -15.5 -24 -25.5v-102c15.333 -22 36.333 -33.333 63 -34c23.333 -0.666992 41.166 7.5 53.499 24.5s18.5 37.167 18.5 60.5z" />
    <glyph glyph-name="ydieresis" unicode="&#xff;" horiz-adv-x="604" 
d="M313 217l72.998 263h214l-183 -509c-49.333 -137.333 -134.666 -206 -255.999 -206c-31.333 0 -66.333 5.66699 -105 17v170c25.333 -6.66699 49 -10 71 -10c40.667 0 70.334 18.333 89.001 55l-220 483h218zM506.998 614c0 -28.667 -9.16699 -51.834 -27.5 -69.501
s-41.5 -26.5 -69.5 -26.5c-27.333 0 -50.166 8.83301 -68.499 26.5s-27.5 40.834 -27.5 69.501s9.16699 51.834 27.5 69.501s41.166 26.5 68.499 26.5c28 0 51.167 -8.83301 69.5 -26.5s27.5 -40.834 27.5 -69.501zM275.998 614c0 -28.667 -9.16699 -51.834 -27.5 -69.501
s-41.5 -26.5 -69.5 -26.5c-27.333 0 -50.166 8.83301 -68.499 26.5s-27.5 40.834 -27.5 69.501s9.16699 51.834 27.5 69.501s41.166 26.5 68.499 26.5c28 0 51.167 -8.83301 69.5 -26.5s27.5 -40.834 27.5 -69.501z" />
    <glyph glyph-name="Amacron" unicode="&#x100;" horiz-adv-x="765" 
d="M231 0h-234l262 700h248l261 -700h-234l-30 93h-242zM364 409l-49 -149h137l-49 149c-9.33301 29.333 -16 59.333 -20 90c-4 -26.667 -10.333 -56.667 -19 -90zM203 898h363v-145h-363v145z" />
    <glyph glyph-name="amacron" unicode="&#x101;" horiz-adv-x="575" 
d="M524 152c0 -17.333 9.33496 -26 28.002 -26c4.66699 0 11 0.666992 19 2v-123c-28.667 -12 -64 -18 -106 -18c-56 0 -96 17 -120 51c-44 -36 -97.333 -54 -160 -54c-47.333 0 -87 12.667 -119 38s-48 61 -48 107c0 29.333 6.16699 54.5 18.5 75.5
s29.166 37.167 50.499 48.5s43.666 19.5 66.999 24.5s48.333 7.5 75 7.5c35.333 0 67 -3 95 -9v11c0 35.333 -31.667 53 -95 53c-53.333 0 -111 -11.333 -173 -34v158c71.333 21.333 137 32 197 32c89.333 0 156.833 -16.833 202.5 -50.5s68.5 -94.5 68.5 -182.5v-111z
M282.002 189c-16.667 0 -30.833 -3.5 -42.5 -10.5s-17.5 -17.833 -17.5 -32.5c0 -11.333 4.5 -20.5 13.5 -27.5s20.167 -10.5 33.5 -10.5c20 0 38.333 5.33301 55 16v59c-10.667 4 -24.667 6 -42 6zM91.0029 688h363v-145h-363v145z" />
    <glyph glyph-name="Abreve" unicode="&#x102;" horiz-adv-x="765" 
d="M231 0h-234l262 700h248l261 -700h-234l-30 93h-242zM364 409l-49 -149h137l-49 149c-9.33301 29.333 -16 59.333 -20 90c-4 -26.667 -10.333 -56.667 -19 -90zM565 792c-51.333 -34 -111.668 -51 -181.001 -51s-129.666 17 -180.999 51v143
c50 -30.667 110.333 -46 181 -46s131 15.333 181 46v-143z" />
    <glyph glyph-name="abreve" unicode="&#x103;" horiz-adv-x="575" 
d="M524 152c0 -17.333 9.33496 -26 28.002 -26c4.66699 0 11 0.666992 19 2v-123c-28.667 -12 -64 -18 -106 -18c-56 0 -96 17 -120 51c-44 -36 -97.333 -54 -160 -54c-47.333 0 -87 12.667 -119 38s-48 61 -48 107c0 29.333 6.16699 54.5 18.5 75.5
s29.166 37.167 50.499 48.5s43.666 19.5 66.999 24.5s48.333 7.5 75 7.5c35.333 0 67 -3 95 -9v11c0 35.333 -31.667 53 -95 53c-53.333 0 -111 -11.333 -173 -34v158c71.333 21.333 137 32 197 32c89.333 0 156.833 -16.833 202.5 -50.5s68.5 -94.5 68.5 -182.5v-111z
M282.002 189c-16.667 0 -30.833 -3.5 -42.5 -10.5s-17.5 -17.833 -17.5 -32.5c0 -11.333 4.5 -20.5 13.5 -27.5s20.167 -10.5 33.5 -10.5c20 0 38.333 5.33301 55 16v59c-10.667 4 -24.667 6 -42 6zM453.003 582c-51.333 -34 -111.668 -51 -181.001 -51
s-129.666 17 -180.999 51v143c50 -30.667 110.333 -46 181 -46s131 15.333 181 46v-143z" />
    <glyph glyph-name="Aogonek" unicode="&#x104;" horiz-adv-x="765" 
d="M768 0c-36.667 -26 -54.999 -51 -54.999 -75c0 -16 8.66699 -24 26 -24c8.66699 1.33301 16.667 3.66602 24 6.99902v-120c-30.667 -17.333 -64.334 -25.333 -101.001 -24c-40 0.666992 -72.667 10.334 -98 29.001s-38 44.667 -38 78
c1.33301 51.333 28.333 94.333 81 129h-73l-30 93h-242l-31 -93h-234l262 700h248zM364.001 409l-49 -149h137l-49 149c-9.33301 29.333 -16 59.333 -20 90c-4 -26.667 -10.333 -56.667 -19 -90z" />
    <glyph glyph-name="aogonek" unicode="&#x105;" horiz-adv-x="575" 
d="M571 128l0.000976562 -122.999c-36.667 -26.667 -55 -52 -55 -76c0 -15.333 8.66699 -23 26 -23c8 0 16 1.66699 24 5v-124c-28 -12 -60.333 -18 -97 -18c-41.333 0 -73 10 -95 30s-32.667 45 -32 75c0 42.667 22.333 83 67 121
c-27.333 7.33301 -48.666 21.666 -63.999 42.999c-44 -36 -97.333 -54 -160 -54c-47.333 0 -87 12.667 -119 38s-48 61 -48 107c0 29.333 6.16699 54.5 18.5 75.5s29.166 37.167 50.499 48.5s43.666 19.5 66.999 24.5s48.333 7.5 75 7.5c35.333 0 67 -3 95 -9v11
c0 35.333 -31.667 53 -95 53c-53.333 0 -111 -11.333 -173 -34v158c71.333 21.333 137 32 197 32c89.333 0 156.833 -16.833 202.5 -50.5s68.5 -94.5 68.5 -182.5v-111c0 -17.333 9.33301 -26 28 -26c4.66699 0 11 0.666992 19 2zM269.001 108.001
c20 0 38.334 5.33301 55.001 16v59c-10.667 4 -24.667 6 -42 6c-16.667 0 -30.834 -3.5 -42.501 -10.5s-17.5 -17.833 -17.5 -32.5c0 -11.333 4.5 -20.5 13.5 -27.5s20.167 -10.5 33.5 -10.5z" />
    <glyph glyph-name="Cacute" unicode="&#x106;" horiz-adv-x="650" 
d="M25 343c0 64 10.667 120.667 32 170s50.5 88.333 87.5 117s77.667 50.167 122 64.5s91.5 21.5 141.5 21.5c75.333 0 144 -14 206 -42v-206c-46 32 -101 48 -165 48c-53.333 0 -97.833 -14.167 -133.5 -42.5s-53.5 -71.833 -53.5 -130.5
c0 -51.333 17.667 -90.166 53 -116.499s78.333 -39.5 129 -39.5c79.333 0 137.666 16.667 174.999 50v-211c-62 -28 -130.333 -42 -205 -42c-51.333 0 -99.666 7 -144.999 21s-86.5 34.833 -123.5 62.5s-66.333 65.167 -88 112.5s-32.5 101.666 -32.5 162.999zM474 752h-183
l98 164h207z" />
    <glyph glyph-name="cacute" unicode="&#x107;" horiz-adv-x="489" 
d="M21 227c0 46.667 8.00293 87.832 24.0029 123.499s37.667 64 65 85s57.5 36.667 90.5 47s68.167 15.5 105.5 15.5c49.333 0 98.666 -9.66699 147.999 -29v-173c-36 18 -72.667 27 -110 27c-30.667 0 -56 -6.66699 -76 -20s-30 -34.333 -30 -63
c0 -28 9.66699 -48.5 29 -61.5s43.666 -19.5 72.999 -19.5c45.333 0 85 8 119 24v-172c-52.667 -18 -108.334 -27 -167.001 -27c-76 0 -140.167 20.333 -192.5 61s-78.5 101.334 -78.5 182.001zM346.003 531.998h-183l98 164h207z" />
    <glyph glyph-name="Cdotaccent" unicode="&#x10a;" horiz-adv-x="650" 
d="M25 343c0 64 10.667 120.667 32 170s50.5 88.333 87.5 117s77.667 50.167 122 64.5s91.5 21.5 141.5 21.5c75.333 0 144 -14 206 -42v-206c-46 32 -101 48 -165 48c-53.333 0 -97.833 -14.167 -133.5 -42.5s-53.5 -71.833 -53.5 -130.5
c0 -51.333 17.667 -90.166 53 -116.499s78.333 -39.5 129 -39.5c79.333 0 137.666 16.667 174.999 50v-211c-62 -28 -130.333 -42 -205 -42c-51.333 0 -99.666 7 -144.999 21s-86.5 34.833 -123.5 62.5s-66.333 65.167 -88 112.5s-32.5 101.666 -32.5 162.999zM304 839
c0 32 9.66699 56.333 29 73s43.666 25 72.999 25s53.666 -8.33301 72.999 -25s29 -41 29 -73c0 -32.667 -9.66699 -57.334 -29 -74.001s-43.666 -25 -72.999 -25s-53.666 8.33301 -72.999 25s-29 41.334 -29 74.001z" />
    <glyph glyph-name="cdotaccent" unicode="&#x10b;" horiz-adv-x="489" 
d="M21 227c0 46.667 8.00293 87.832 24.0029 123.499s37.667 64 65 85s57.5 36.667 90.5 47s68.167 15.5 105.5 15.5c49.333 0 98.666 -9.66699 147.999 -29v-173c-36 18 -72.667 27 -110 27c-30.667 0 -56 -6.66699 -76 -20s-30 -34.333 -30 -63
c0 -28 9.66699 -48.5 29 -61.5s43.666 -19.5 72.999 -19.5c45.333 0 85 8 119 24v-172c-52.667 -18 -108.334 -27 -167.001 -27c-76 0 -140.167 20.333 -192.5 61s-78.5 101.334 -78.5 182.001zM176.003 618.998c0 32 9.66699 56.333 29 73s43.666 25 72.999 25
s53.666 -8.33301 72.999 -25s29 -41 29 -73c0 -32.667 -9.66699 -57.334 -29 -74.001s-43.666 -25 -72.999 -25s-53.666 8.33301 -72.999 25s-29 41.334 -29 74.001z" />
    <glyph glyph-name="Ccaron" unicode="&#x10c;" horiz-adv-x="650" 
d="M25 343c0 64 10.667 120.667 32 170s50.5 88.333 87.5 117s77.667 50.167 122 64.5s91.5 21.5 141.5 21.5c75.333 0 144 -14 206 -42v-206c-46 32 -101 48 -165 48c-53.333 0 -97.833 -14.167 -133.5 -42.5s-53.5 -71.833 -53.5 -130.5
c0 -51.333 17.667 -90.166 53 -116.499s78.333 -39.5 129 -39.5c79.333 0 137.666 16.667 174.999 50v-211c-62 -28 -130.333 -42 -205 -42c-51.333 0 -99.666 7 -144.999 21s-86.5 34.833 -123.5 62.5s-66.333 65.167 -88 112.5s-32.5 101.666 -32.5 162.999zM627 923
l-132 -171h-185l-132 171h175l49 -61l50 61h175z" />
    <glyph glyph-name="ccaron" unicode="&#x10d;" horiz-adv-x="489" 
d="M21 227c0 46.667 8.00293 87.832 24.0029 123.499s37.667 64 65 85s57.5 36.667 90.5 47s68.167 15.5 105.5 15.5c49.333 0 98.666 -9.66699 147.999 -29v-173c-36 18 -72.667 27 -110 27c-30.667 0 -56 -6.66699 -76 -20s-30 -34.333 -30 -63
c0 -28 9.66699 -48.5 29 -61.5s43.666 -19.5 72.999 -19.5c45.333 0 85 8 119 24v-172c-52.667 -18 -108.334 -27 -167.001 -27c-76 0 -140.167 20.333 -192.5 61s-78.5 101.334 -78.5 182.001zM499.003 702.998l-132 -171h-185l-132 171h175l49 -61l50 61h175z" />
    <glyph glyph-name="Dcaron" unicode="&#x10e;" horiz-adv-x="744" 
d="M53 700h302c120.667 0 211.334 -31.5 272.001 -94.5s91 -148.167 91 -255.5s-30.333 -192.5 -91 -255.5s-151.334 -94.5 -272.001 -94.5h-302v700zM481 350c0 104 -44 156 -132 156h-65v-312h65c88 0 132 52 132 156zM578 923l-132 -171h-185l-132 171h175l49 -61l50 61
h175z" />
    <glyph glyph-name="dcaron" unicode="&#x10f;" horiz-adv-x="625" 
d="M634 700h167l-39 -215h-144zM374 700h210v-700h-185v58c-38 -49.333 -90 -74 -156 -74c-72.667 0 -127.667 24.667 -165 74s-56 110 -56 182s18.667 132.667 56 182s92.333 74 165 74c54 0 97.667 -15 131 -45v249zM375 293c-13.333 22.667 -34 34 -62 34
c-24 0 -42.167 -8.5 -54.5 -25.5s-18.5 -37.5 -18.5 -61.5s6.16699 -44.5 18.5 -61.5s30.5 -25.5 54.5 -25.5c28 0 48.667 11.333 62 34v106z" />
    <glyph glyph-name="Dcroat" unicode="&#x110;" horiz-adv-x="759" 
d="M67 700h302c121.333 0 212.333 -31.5 273 -94.5s91 -148.167 91 -255.5s-30.333 -192.5 -91 -255.5s-151.667 -94.5 -273 -94.5h-302v281h-59v136h59v283zM298 194h65c88 0 132 52 132 156s-44 156 -132 156h-65v-89h101v-136h-101v-87z" />
    <glyph glyph-name="dcroat" unicode="&#x111;" horiz-adv-x="625" 
d="M584 638h65v-103h-65v-535h-185v58c-38 -49.333 -90 -74 -156 -74c-72.667 0 -127.667 24.667 -165 74s-56 110 -56 182s18.667 132.667 56 182s92.333 74 165 74c54 0 97.667 -15 131 -45v84h-120v103h120v62h210v-62zM313 153c28 0 48.667 11.333 62 34v106
c-13.333 22.667 -34 34 -62 34c-24 0 -42.167 -8.5 -54.5 -25.5s-18.5 -37.5 -18.5 -61.5s6.16699 -44.5 18.5 -61.5s30.5 -25.5 54.5 -25.5z" />
    <glyph glyph-name="Emacron" unicode="&#x112;" horiz-adv-x="622" 
d="M53 700h530v-182h-299v-81h263v-170h-263v-83h305v-184h-536v700zM140 898h363v-145h-363v145z" />
    <glyph glyph-name="emacron" unicode="&#x113;" horiz-adv-x="547" 
d="M21 243c0 44.667 8.33496 84.166 25.002 118.499s38.167 60.833 64.5 79.5s53.833 32.5 82.5 41.5s57.334 13.5 86.001 13.5c41.333 0 78.166 -6.16699 110.499 -18.5s57.666 -28.5 75.999 -48.5s33.166 -43.167 44.499 -69.5s16.833 -53.833 16.5 -82.5
s-2.83301 -57 -7.5 -85h-296c8 -19.333 24.667 -34.166 50 -44.499s54.333 -15.5 87 -15.5c52 0 98 6.33301 138 19v-142c-48.667 -16.667 -107 -25 -175 -25c-54 0 -103 8.33301 -147 25s-80.833 45.167 -110.5 85.5s-44.5 89.833 -44.5 148.5zM348.002 288.999
c2.66699 16.667 -0.666016 32.167 -9.99902 46.5s-25.333 21.5 -48 21.5c-20.667 0 -37.334 -6.33301 -50.001 -19s-19 -29 -19 -49h127zM96.002 677.999h363v-145h-363v145z" />
    <glyph glyph-name="Edotaccent" unicode="&#x116;" horiz-adv-x="622" 
d="M53 700h530v-182h-299v-81h263v-170h-263v-83h305v-184h-536v700zM220 839c0 32 9.66699 56.333 29 73s43.666 25 72.999 25s53.666 -8.33301 72.999 -25s29 -41 29 -73c0 -32.667 -9.66699 -57.334 -29 -74.001s-43.666 -25 -72.999 -25s-53.666 8.33301 -72.999 25
s-29 41.334 -29 74.001z" />
    <glyph glyph-name="edotaccent" unicode="&#x117;" horiz-adv-x="547" 
d="M21 243c0 44.667 8.33496 84.166 25.002 118.499s38.167 60.833 64.5 79.5s53.833 32.5 82.5 41.5s57.334 13.5 86.001 13.5c41.333 0 78.166 -6.16699 110.499 -18.5s57.666 -28.5 75.999 -48.5s33.166 -43.167 44.499 -69.5s16.833 -53.833 16.5 -82.5
s-2.83301 -57 -7.5 -85h-296c8 -19.333 24.667 -34.166 50 -44.499s54.333 -15.5 87 -15.5c52 0 98 6.33301 138 19v-142c-48.667 -16.667 -107 -25 -175 -25c-54 0 -103 8.33301 -147 25s-80.833 45.167 -110.5 85.5s-44.5 89.833 -44.5 148.5zM348.002 288.999
c2.66699 16.667 -0.666016 32.167 -9.99902 46.5s-25.333 21.5 -48 21.5c-20.667 0 -37.334 -6.33301 -50.001 -19s-19 -29 -19 -49h127zM176.002 618.999c0 32 9.66699 56.333 29 73s43.666 25 72.999 25s53.666 -8.33301 72.999 -25s29 -41 29 -73
c0 -32.667 -9.66699 -57.334 -29 -74.001s-43.666 -25 -72.999 -25s-53.666 8.33301 -72.999 25s-29 41.334 -29 74.001z" />
    <glyph glyph-name="Eogonek" unicode="&#x118;" horiz-adv-x="622" 
d="M589 184v-184.001c-36.667 -26.667 -55 -52 -55 -76c0 -15.333 8.66699 -23 26 -23c8 0 16 1.66699 24 5v-124c-28 -12 -60.333 -18 -97 -18c-41.333 0 -73 10 -95 30s-32.667 45 -32 75c0 22.667 7.33301 45.834 22 69.501s34 44.167 58 61.5h-387v700h530v-182h-299
v-81h263v-170h-263v-83h305z" />
    <glyph glyph-name="eogonek" unicode="&#x119;" horiz-adv-x="548" 
d="M479 -218c-28 -12 -60.332 -17.999 -96.999 -17.999c-41.333 0 -73 10 -95 30s-32.667 45 -32 75c0 43.333 22.333 81.666 67 114.999c-12.667 0 -26 1 -40 3c-75.333 5.33301 -137.666 29.666 -186.999 72.999s-74 104.333 -74 183c0 44.667 8.33301 84.167 25 118.5
s38.167 60.833 64.5 79.5s53.833 32.5 82.5 41.5s57.334 13.5 86.001 13.5c41.333 0 78.166 -6.16699 110.499 -18.5s57.666 -28.5 75.999 -48.5s33.166 -43.167 44.499 -69.5s16.833 -53.833 16.5 -82.5s-2.83301 -57 -7.5 -85h-296c8 -19.333 24.667 -34.166 50 -44.499
s54.333 -15.5 87 -15.5c52 0 98 6.33301 138 19v-142c-22.667 -12.667 -40 -26.667 -52 -42s-18 -29.333 -18 -42c0 -16 9 -24 27 -24c8 0 16 1.66699 24 5v-124zM290.001 357.001c-20.667 0 -37.334 -6.33301 -50.001 -19s-19 -29 -19 -49h127
c2.66699 16.667 -0.666016 32.167 -9.99902 46.5s-25.333 21.5 -48 21.5z" />
    <glyph glyph-name="Ecaron" unicode="&#x11a;" horiz-adv-x="622" 
d="M53 700h530v-182h-299v-81h263v-170h-263v-83h305v-184h-536v700zM543 923l-132 -171h-185l-132 171h175l49 -61l50 61h175z" />
    <glyph glyph-name="ecaron" unicode="&#x11b;" horiz-adv-x="547" 
d="M21 243c0 44.667 8.33496 84.166 25.002 118.499s38.167 60.833 64.5 79.5s53.833 32.5 82.5 41.5s57.334 13.5 86.001 13.5c41.333 0 78.166 -6.16699 110.499 -18.5s57.666 -28.5 75.999 -48.5s33.166 -43.167 44.499 -69.5s16.833 -53.833 16.5 -82.5
s-2.83301 -57 -7.5 -85h-296c8 -19.333 24.667 -34.166 50 -44.499s54.333 -15.5 87 -15.5c52 0 98 6.33301 138 19v-142c-48.667 -16.667 -107 -25 -175 -25c-54 0 -103 8.33301 -147 25s-80.833 45.167 -110.5 85.5s-44.5 89.833 -44.5 148.5zM348.002 288.999
c2.66699 16.667 -0.666016 32.167 -9.99902 46.5s-25.333 21.5 -48 21.5c-20.667 0 -37.334 -6.33301 -50.001 -19s-19 -29 -19 -49h127zM499.002 702.999l-132 -171h-185l-132 171h175l49 -61l50 61h175z" />
    <glyph glyph-name="Gbreve" unicode="&#x11e;" horiz-adv-x="694" 
d="M24 350c0 62 10.832 117 32.499 165s51 86.333 88 115s78 50.167 123 64.5s92.833 21.5 143.5 21.5c82 0 157.333 -14 226 -42v-206c-50 31.333 -111.333 47 -184 47c-56 0 -102 -13.5 -138 -40.5s-54 -68.5 -54 -124.5c0 -31.333 5.16699 -58.166 15.5 -80.499
s23.833 -38.833 40.5 -49.5s32.667 -18.334 48 -23.001s30.333 -7 45 -7c8 0 17.333 0.666992 28 2v199h216v-360c-79.333 -31.333 -158.666 -47 -237.999 -47c-52 0 -101 7.5 -147 22.5s-87.5 37.167 -124.5 66.5s-66.333 67.833 -88 115.5s-32.5 101.5 -32.5 161.5z
M569.999 792c-51.333 -34 -111.668 -51 -181.001 -51s-129.666 17 -180.999 51v143c50 -30.667 110.333 -46 181 -46s131 15.333 181 46v-143z" />
    <glyph glyph-name="gbreve" unicode="&#x11f;" horiz-adv-x="625" 
d="M22 246c0 71.333 18.668 130.833 56.001 178.5s92.333 71.5 165 71.5c66 0 118 -24.667 156 -74v58h185v-449c0 -92 -27.833 -159.5 -83.5 -202.5s-125.5 -64.5 -209.5 -64.5c-80 0 -152.667 13.667 -218 41v174c53.333 -29.333 113.333 -44 180 -44
c80.667 0 121 27.333 121 82v24c-32.667 -30.667 -76.334 -46 -131.001 -46c-72.667 0 -127.667 24 -165 72s-56 107.667 -56 179zM375.001 296c-13.333 22.667 -34 34 -62 34c-24 0 -42.167 -8.5 -54.5 -25.5s-18.5 -37.5 -18.5 -61.5s6.16699 -44.5 18.5 -61.5
s30.5 -25.5 54.5 -25.5c28 0 48.667 11.333 62 34v106zM483.001 572c-51.333 -34 -111.668 -51 -181.001 -51s-129.666 17 -180.999 51v143c50 -30.667 110.333 -46 181 -46s131 15.333 181 46v-143z" />
    <glyph glyph-name="Gdotaccent" unicode="&#x120;" horiz-adv-x="694" 
d="M24 350c0 62 10.832 117 32.499 165s51 86.333 88 115s78 50.167 123 64.5s92.833 21.5 143.5 21.5c82 0 157.333 -14 226 -42v-206c-50 31.333 -111.333 47 -184 47c-56 0 -102 -13.5 -138 -40.5s-54 -68.5 -54 -124.5c0 -31.333 5.16699 -58.166 15.5 -80.499
s23.833 -38.833 40.5 -49.5s32.667 -18.334 48 -23.001s30.333 -7 45 -7c8 0 17.333 0.666992 28 2v199h216v-360c-79.333 -31.333 -158.666 -47 -237.999 -47c-52 0 -101 7.5 -147 22.5s-87.5 37.167 -124.5 66.5s-66.333 67.833 -88 115.5s-32.5 101.5 -32.5 161.5z
M287.999 839c0 32 9.66699 56.333 29 73s43.666 25 72.999 25s53.666 -8.33301 72.999 -25s29 -41 29 -73c0 -32.667 -9.66699 -57.334 -29 -74.001s-43.666 -25 -72.999 -25s-53.666 8.33301 -72.999 25s-29 41.334 -29 74.001z" />
    <glyph glyph-name="gdotaccent" unicode="&#x121;" horiz-adv-x="625" 
d="M22 246c0 71.333 18.668 130.833 56.001 178.5s92.333 71.5 165 71.5c66 0 118 -24.667 156 -74v58h185v-449c0 -92 -27.833 -159.5 -83.5 -202.5s-125.5 -64.5 -209.5 -64.5c-80 0 -152.667 13.667 -218 41v174c53.333 -29.333 113.333 -44 180 -44
c80.667 0 121 27.333 121 82v24c-32.667 -30.667 -76.334 -46 -131.001 -46c-72.667 0 -127.667 24 -165 72s-56 107.667 -56 179zM375.001 296c-13.333 22.667 -34 34 -62 34c-24 0 -42.167 -8.5 -54.5 -25.5s-18.5 -37.5 -18.5 -61.5s6.16699 -44.5 18.5 -61.5
s30.5 -25.5 54.5 -25.5c28 0 48.667 11.333 62 34v106zM201.001 619c0 32 9.66699 56.333 29 73s43.666 25 72.999 25s53.666 -8.33301 72.999 -25s29 -41 29 -73c0 -32.667 -9.66699 -57.334 -29 -74.001s-43.666 -25 -72.999 -25s-53.666 8.33301 -72.999 25
s-29 41.334 -29 74.001z" />
    <glyph glyph-name="Gcommaaccent" unicode="&#x122;" horiz-adv-x="694" 
d="M24 350c0 62 10.832 117 32.499 165s51 86.333 88 115s78 50.167 123 64.5s92.833 21.5 143.5 21.5c82 0 157.333 -14 226 -42v-206c-50 31.333 -111.333 47 -184 47c-56 0 -102 -13.5 -138 -40.5s-54 -68.5 -54 -124.5c0 -31.333 5.16699 -58.166 15.5 -80.499
s23.833 -38.833 40.5 -49.5s32.667 -18.334 48 -23.001s30.333 -7 45 -7c8 0 17.333 0.666992 28 2v199h216v-360c-79.333 -31.333 -158.666 -47 -237.999 -47c-52 0 -101 7.5 -147 22.5s-87.5 37.167 -124.5 66.5s-66.333 67.833 -88 115.5s-32.5 101.5 -32.5 161.5z
M436.999 -318h-162l40 254h191z" />
    <glyph glyph-name="gcommaaccent" unicode="&#x123;" horiz-adv-x="625" 
d="M393 532h-173l53 216h150zM22 246c0 71.333 18.668 130.833 56.001 178.5s92.333 71.5 165 71.5c66 0 118 -24.667 156 -74v58h185v-449c0 -92 -27.833 -159.5 -83.5 -202.5s-125.5 -64.5 -209.5 -64.5c-80 0 -152.667 13.667 -218 41v174
c53.333 -29.333 113.333 -44 180 -44c80.667 0 121 27.333 121 82v24c-32.667 -30.667 -76.334 -46 -131.001 -46c-72.667 0 -127.667 24 -165 72s-56 107.667 -56 179zM375.001 296c-13.333 22.667 -34 34 -62 34c-24 0 -42.167 -8.5 -54.5 -25.5s-18.5 -37.5 -18.5 -61.5
s6.16699 -44.5 18.5 -61.5s30.5 -25.5 54.5 -25.5c28 0 48.667 11.333 62 34v106z" />
    <glyph glyph-name="Hbar" unicode="&#x126;" horiz-adv-x="791" 
d="M300 0h-230v517h-66v105h66v78h230v-78h190v78h231v-78h66v-105h-66v-517h-231v253h-190v-253zM300 517v-71h190v71h-190z" />
    <glyph glyph-name="hbar" unicode="&#x127;" horiz-adv-x="594" 
d="M251 454c36 28 76.667 41.999 122 41.999c61.333 0 107.5 -18.167 138.5 -54.5s46.5 -80.166 46.5 -131.499v-310h-210v274c0 30.667 -15.333 46 -46 46c-19.333 0 -36.333 -8 -51 -24v-296h-210v535h-59v103h59v62h210v-62h122v-103h-122v-81z" />
    <glyph glyph-name="Imacron" unicode="&#x12a;" horiz-adv-x="337" 
d="M53 700h231v-700h-231v700zM-12 898h363v-145h-363v145z" />
    <glyph glyph-name="imacron" unicode="&#x12b;" horiz-adv-x="293" 
d="M-1 683h294v-132h-294v132zM41 480h211v-480h-211v480z" />
    <glyph glyph-name="Iogonek" unicode="&#x12e;" horiz-adv-x="337" 
d="M284 700v-700.001c-36.667 -26.667 -55 -52 -55 -76c0 -15.333 8.66699 -23 26 -23c8 0 16 1.66699 24 5v-124c-28 -12 -60.333 -18 -97 -18c-41.333 0 -73 10 -95 30s-32.667 45 -32 75c0 22.667 7.33301 45.834 22 69.501s34 44.167 58 61.5h-82v700h231z" />
    <glyph glyph-name="iogonek" unicode="&#x12f;" horiz-adv-x="293" 
d="M256 635c0 -34.667 -10.5 -61 -31.5 -79s-47.167 -27 -78.5 -27s-57.5 9 -78.5 27s-31.5 44.333 -31.5 79c0 34 10.5 60 31.5 78s47.167 27 78.5 27s57.5 -9 78.5 -27s31.5 -44 31.5 -78zM107 0l-66 -0.00195312v480h211v-480h-1c-36.667 -26.667 -55 -52 -55 -76
c0 -15.333 8.66699 -23 26 -23c8 0 16 1.66699 24 5v-119c-28 -15.333 -60.333 -23 -97 -23c-41.333 0 -72.833 9.83301 -94.5 29.5s-32.5 44.834 -32.5 75.501c0 23.333 7.66699 46.833 23 70.5s36 43.834 62 60.501z" />
    <glyph glyph-name="Idotaccent" unicode="&#x130;" horiz-adv-x="337" 
d="M53 700h231v-700h-231v700zM68 839c0 32 9.66699 56.333 29 73s43.666 25 72.999 25s53.666 -8.33301 72.999 -25s29 -41 29 -73c0 -32.667 -9.66699 -57.334 -29 -74.001s-43.666 -25 -72.999 -25s-53.666 8.33301 -72.999 25s-29 41.334 -29 74.001z" />
    <glyph glyph-name="dotlessi" unicode="&#x131;" horiz-adv-x="293" 
d="M41 480h211v-480h-211v480z" />
    <glyph glyph-name="IJ" unicode="&#x132;" horiz-adv-x="856" 
d="M53 700h231v-700h-231v700zM417 700l392.001 -0.000976562v-457c0 -47.333 -7.83301 -88.166 -23.5 -122.499s-37 -60.833 -64 -79.5s-56 -32.167 -87 -40.5s-64.5 -12.5 -100.5 -12.5c-72.667 0 -133.334 10 -182.001 30v204c38 -16.667 78.333 -25 121 -25
c70 0 105 25 105 75v226h-161v202z" />
    <glyph glyph-name="ij" unicode="&#x133;" horiz-adv-x="586" 
d="M252 0h-211v480h211v-480zM256 635c0 -34.667 -10.5 -61 -31.5 -79s-47.167 -27 -78.5 -27s-57.5 9 -78.5 27s-31.5 44.333 -31.5 79c0 34 10.5 60 31.5 78s47.167 27 78.5 27s57.5 -9 78.5 -27s31.5 -44 31.5 -78zM545 -51c0 -63.333 -19 -110 -57 -140
s-86.667 -45 -146 -45c-40 0 -73.333 5 -100 15v171c13.333 -3.33301 27 -5 41 -5c34 0 51 17.667 51 53v482h211v-531zM550 635c0 -34.667 -10.5 -61 -31.5 -79s-47.167 -27 -78.5 -27s-57.5 9 -78.5 27s-31.5 44.333 -31.5 79c0 34 10.5 60 31.5 78s47.167 27 78.5 27
s57.5 -9 78.5 -27s31.5 -44 31.5 -78z" />
    <glyph glyph-name="Kcommaaccent" unicode="&#x136;" horiz-adv-x="728" 
d="M284 0h-231v700h231v-248h58l140 248h254l-213 -347l217 -353h-254l-149 250h-53v-250zM407 -308h-162l40 254h191z" />
    <glyph glyph-name="kcommaaccent" unicode="&#x137;" horiz-adv-x="596" 
d="M602 0h-229l-91 162h-30v-162h-211v700h211v-374h31l85 154h229l-148 -237zM344 -308h-162l40 254h191z" />
    <glyph glyph-name="Lacute" unicode="&#x139;" 
d="M53 700h231v-498h299v-202h-530v700zM239 752h-183l98 164h207z" />
    <glyph glyph-name="lacute" unicode="&#x13a;" horiz-adv-x="293" 
d="M41 730h211v-730h-211v730zM222 780h-183l98 164h207z" />
    <glyph glyph-name="Lcommaaccent" unicode="&#x13b;" 
d="M53 700h231v-498h299v-202h-530v700zM353 -308h-162l40 254h191z" />
    <glyph glyph-name="lcommaaccent" unicode="&#x13c;" horiz-adv-x="293" 
d="M41 730h211v-730h-211v730zM170 -308h-162l40 254h191z" />
    <glyph glyph-name="Lcaron" unicode="&#x13d;" horiz-adv-x="598" 
d="M389 700h167l-39 -232h-144zM53 700h231v-498h299v-202h-530v700z" />
    <glyph glyph-name="lcaron" unicode="&#x13e;" horiz-adv-x="293" 
d="M302 730h167l-39 -232h-144zM41 730h211v-730h-211v730z" />
    <glyph glyph-name="Ldot" unicode="&#x13f;" horiz-adv-x="608" 
d="M550 416c0 -32.667 -10 -57.667 -30 -75s-45 -26 -75 -26c-29.333 0 -54 8.66699 -74 26s-30 42.333 -30 75c0 33.333 10 58.666 30 75.999s44.667 26 74 26c30 0 55 -8.66699 75 -26s30 -42.666 30 -75.999zM53 700h231v-498h299v-202h-530v700z" />
    <glyph glyph-name="ldot" unicode="&#x140;" horiz-adv-x="513" 
d="M41 730h211v-730h-211v730zM520 350c0 -36.667 -11.167 -64.667 -33.5 -84s-50.166 -29 -83.499 -29s-61.166 9.66699 -83.499 29s-33.5 47.333 -33.5 84s11.167 64.667 33.5 84s50.166 29 83.499 29s61.166 -9.66699 83.499 -29s33.5 -47.333 33.5 -84z" />
    <glyph glyph-name="Lslash" unicode="&#x141;" horiz-adv-x="649" 
d="M637 0h-530v219l-80 -28v186l80 28v295h231v-214l130 47v-186l-130 -47v-98h299v-202z" />
    <glyph glyph-name="lslash" unicode="&#x142;" horiz-adv-x="401" 
d="M95 730h211v-277l71 27v-157l-71 -26v-297h-211v214l-71 -27v157l71 27v359z" />
    <glyph glyph-name="Nacute" unicode="&#x143;" horiz-adv-x="763" 
d="M284 0l-231 -0.000976562v700h195l237 -329c-4 33.333 -6 73.333 -6 120v209h231v-700h-195l-237 328c4 -33.333 6 -72.666 6 -117.999v-210zM446 751.999h-183l98 164h207z" />
    <glyph glyph-name="nacute" unicode="&#x144;" 
d="M226 432c42.667 42.667 91.667 63.999 147 63.999c62 0 108.5 -18.167 139.5 -54.5s46.5 -80.166 46.5 -131.499v-310h-211v274c0 30.667 -15.333 46 -46 46c-20 0 -36.667 -8 -50 -24v-296h-211v480h185v-48zM356 531.999h-183l98 164h207z" />
    <glyph glyph-name="Ncommaaccent" unicode="&#x145;" horiz-adv-x="763" 
d="M284 0l-231 -0.000976562v700h195l237 -329c-4 33.333 -6 73.333 -6 120v209h231v-700h-195l-237 328c4 -33.333 6 -72.666 6 -117.999v-210zM437 -308.001h-162l40 254h191z" />
    <glyph glyph-name="ncommaaccent" unicode="&#x146;" 
d="M226 432c42.667 42.667 91.667 63.999 147 63.999c62 0 108.5 -18.167 139.5 -54.5s46.5 -80.166 46.5 -131.499v-310h-211v274c0 30.667 -15.333 46 -46 46c-20 0 -36.667 -8 -50 -24v-296h-211v480h185v-48zM333 -308.001h-162l40 254h191z" />
    <glyph glyph-name="Ncaron" unicode="&#x147;" horiz-adv-x="763" 
d="M284 0l-231 -0.000976562v700h195l237 -329c-4 33.333 -6 73.333 -6 120v209h231v-700h-195l-237 328c4 -33.333 6 -72.666 6 -117.999v-210zM599 922.999l-132 -171h-185l-132 171h175l49 -61l50 61h175z" />
    <glyph glyph-name="ncaron" unicode="&#x148;" 
d="M226 432c42.667 42.667 91.667 63.999 147 63.999c62 0 108.5 -18.167 139.5 -54.5s46.5 -80.166 46.5 -131.499v-310h-211v274c0 30.667 -15.333 46 -46 46c-20 0 -36.667 -8 -50 -24v-296h-211v480h185v-48zM509 702.999l-132 -171h-185l-132 171h175l49 -61l50 61h175
z" />
    <glyph glyph-name="Eng" unicode="&#x14a;" horiz-adv-x="763" 
d="M710 -11c0 -70 -18.166 -124.334 -54.499 -163.001s-87.166 -58 -152.499 -58c-20.667 0 -49.334 3.66699 -86.001 11v173c9.33301 -2.66699 17.666 -4 24.999 -4c15.333 0 27.333 4.33301 36 13s13 20.667 13 36v36l-213 295c4 -33.333 6 -72.666 6 -117.999v-210h-231
v700h195l237 -329c-4 33.333 -6 73.333 -6 120v209h231v-711z" />
    <glyph glyph-name="eng" unicode="&#x14b;" 
d="M559 -51c0 -34.667 -5.83301 -64.668 -17.5 -90.001s-27.167 -44.5 -46.5 -57.5s-39.5 -22.5 -60.5 -28.5s-43.167 -9 -66.5 -9c-36 0 -65 5 -87 15v158c8 -2 16.333 -3 25 -3c28 0 42 16.667 42 50v290c0 30.667 -15.333 46 -46 46c-20 0 -36.667 -8 -50 -24v-296h-211
v480h185v-48c42.667 42.667 91.667 64 147 64c62 0 108.5 -18.167 139.5 -54.5s46.5 -80.166 46.5 -131.499v-361z" />
    <glyph glyph-name="Omacron" unicode="&#x14c;" horiz-adv-x="806" 
d="M24 350c0 106 33 193.5 99 262.5s159.333 103.5 280 103.5s214 -34.5 280 -103.5s99 -156.5 99 -262.5s-33 -193.5 -99 -262.5s-159.333 -103.5 -280 -103.5s-214 34.5 -280 103.5s-99 156.5 -99 262.5zM545 350c0 48.667 -12.5 87 -37.5 115s-59.833 42 -104.5 42
s-79.5 -14 -104.5 -42s-37.5 -66.333 -37.5 -115s12.5 -87 37.5 -115s59.833 -42 104.5 -42s79.5 14 104.5 42s37.5 66.333 37.5 115zM222 898h363v-145h-363v145z" />
    <glyph glyph-name="omacron" unicode="&#x14d;" 
d="M21 240c0 82.667 26.167 146 78.5 190s118.166 66 197.499 66c80 0 146.167 -22 198.5 -66s78.5 -107.333 78.5 -190s-26.167 -146 -78.5 -190s-118.5 -66 -198.5 -66c-79.333 0 -145.166 22 -197.499 66s-78.5 107.333 -78.5 190zM368 240c0 54.667 -23.667 82 -71 82
c-46.667 0 -70 -27.333 -70 -82s23.333 -82 70 -82c47.333 0 71 27.333 71 82zM117 674h363v-145h-363v145z" />
    <glyph glyph-name="Ohungarumlaut" unicode="&#x150;" horiz-adv-x="806" 
d="M24 350c0 106 33 193.5 99 262.5s159.333 103.5 280 103.5s214 -34.5 280 -103.5s99 -156.5 99 -262.5s-33 -193.5 -99 -262.5s-159.333 -103.5 -280 -103.5s-214 34.5 -280 103.5s-99 156.5 -99 262.5zM545 350c0 48.667 -12.5 87 -37.5 115s-59.833 42 -104.5 42
s-79.5 -14 -104.5 -42s-37.5 -66.333 -37.5 -115s12.5 -87 37.5 -115s59.833 -42 104.5 -42s79.5 14 104.5 42s37.5 66.333 37.5 115zM581 753h-170l85 168h183zM363 753h-170l77 168h182z" />
    <glyph glyph-name="ohungarumlaut" unicode="&#x151;" 
d="M21 240c0 82.667 26.167 146 78.5 190s118.166 66 197.499 66c80 0 146.167 -22 198.5 -66s78.5 -107.333 78.5 -190s-26.167 -146 -78.5 -190s-118.5 -66 -198.5 -66c-79.333 0 -145.166 22 -197.499 66s-78.5 107.333 -78.5 190zM368 240c0 54.667 -23.667 82 -71 82
c-46.667 0 -70 -27.333 -70 -82s23.333 -82 70 -82c47.333 0 71 27.333 71 82zM476 529h-170l85 168h183zM258 529h-170l77 168h182z" />
    <glyph glyph-name="OE" unicode="&#x152;" horiz-adv-x="1026" 
d="M507 0c-36 -10.667 -76.333 -16.002 -121 -16.002c-111.333 0 -199.5 34.833 -264.5 104.5s-97.5 156.834 -97.5 261.501s32.5 191.834 97.5 261.501s153.167 104.5 264.5 104.5c44 0 84.333 -5.33301 121 -16h480v-182h-263v-81h227v-170h-227v-83h269v-184h-486z
M260 349.998c0 -52.667 15.167 -92.332 45.5 -118.999s65.833 -40 106.5 -40c30.667 0 60.334 5.66699 89.001 17v284c-28.667 11.333 -58.334 17 -89.001 17c-40.667 0 -76.167 -13.333 -106.5 -40s-45.5 -66.334 -45.5 -119.001z" />
    <glyph glyph-name="oe" unicode="&#x153;" horiz-adv-x="900" 
d="M469 64c-38.667 -53.333 -100.334 -80.001 -185.001 -80.001c-76 0 -138.667 22 -188 66s-74 107.333 -74 190s24.667 146 74 190s112 66 188 66c79.333 0 140 -25.667 182 -77c44.667 51.333 105 77 181 77c38.667 0 73.167 -6.16699 103.5 -18.5s54 -28.833 71 -49.5
s30.833 -44.167 41.5 -70.5s15.834 -53.5 15.501 -81.5s-2.83301 -56 -7.5 -84h-295c8 -19.333 24.5 -34.166 49.5 -44.499s53.833 -15.5 86.5 -15.5c56 0 102 6.33301 138 19v-142c-50 -16.667 -106 -25 -168 -25c-95.333 0 -166.333 26.667 -213 80zM228 239.999
c0 -54.667 23.333 -82 70 -82c47.333 0 71 27.333 71 82s-23.667 82 -71 82c-46.667 0 -70 -27.333 -70 -82zM642 356.999c-20.667 0 -37.334 -6.50098 -50.001 -19.501s-19 -29.5 -19 -49.5h127c2.66699 16.667 -0.666016 32.334 -9.99902 47.001s-25.333 22 -48 22z" />
    <glyph glyph-name="Racute" unicode="&#x154;" horiz-adv-x="729" 
d="M284 0h-230.999v700h325c40 0 76.667 -4 110 -12s64.666 -21 93.999 -39s52.333 -43.667 69 -77s25 -73 25 -119c0 -99.333 -40 -169 -120 -209l180 -244h-254l-144 207h-54v-207zM284.001 512v-132h89c22 0 39.333 6 52 18s19 28 19 48s-6.33301 36 -19 48
s-30 18 -52 18h-89zM420.001 752h-183l98 164h207z" />
    <glyph glyph-name="racute" unicode="&#x155;" horiz-adv-x="419" 
d="M226 424c40 52.667 99.667 74.667 179 66v-198c-26.667 8.66699 -55.167 10.667 -85.5 6s-52.833 -15 -67.5 -31v-267h-211v480h185v-56zM286 532h-183l98 164h207z" />
    <glyph glyph-name="Rcommaaccent" unicode="&#x156;" horiz-adv-x="729" 
d="M284 0h-230.999v700h325c40 0 76.667 -4 110 -12s64.666 -21 93.999 -39s52.333 -43.667 69 -77s25 -73 25 -119c0 -99.333 -40 -169 -120 -209l180 -244h-254l-144 207h-54v-207zM284.001 512v-132h89c22 0 39.333 6 52 18s19 28 19 48s-6.33301 36 -19 48
s-30 18 -52 18h-89zM405.001 -308h-162l40 254h191z" />
    <glyph glyph-name="rcommaaccent" unicode="&#x157;" horiz-adv-x="419" 
d="M226 424c40 52.667 99.667 74.667 179 66v-198c-26.667 8.66699 -55.167 10.667 -85.5 6s-52.833 -15 -67.5 -31v-267h-211v480h185v-56zM168 -308h-162l40 254h191z" />
    <glyph glyph-name="Rcaron" unicode="&#x158;" horiz-adv-x="729" 
d="M284 0h-230.999v700h325c40 0 76.667 -4 110 -12s64.666 -21 93.999 -39s52.333 -43.667 69 -77s25 -73 25 -119c0 -99.333 -40 -169 -120 -209l180 -244h-254l-144 207h-54v-207zM284.001 512v-132h89c22 0 39.333 6 52 18s19 28 19 48s-6.33301 36 -19 48
s-30 18 -52 18h-89zM573.001 923l-132 -171h-185l-132 171h175l49 -61l50 61h175z" />
    <glyph glyph-name="rcaron" unicode="&#x159;" horiz-adv-x="419" 
d="M226 424c40 52.667 99.667 74.667 179 66v-198c-26.667 8.66699 -55.167 10.667 -85.5 6s-52.833 -15 -67.5 -31v-267h-211v480h185v-56zM439 703l-132 -171h-185l-132 171h175l49 -61l50 61h175z" />
    <glyph glyph-name="Sacute" unicode="&#x15a;" horiz-adv-x="635" 
d="M34 499c0 70.667 25.8311 124.499 77.498 161.499s117.5 55.5 197.5 55.5c99.333 0 185 -19.333 257 -58v-200c-72 46 -149.333 68.333 -232 67c-41.333 0 -62 -10.333 -62 -31c0 -9.33301 6.33301 -17.833 19 -25.5s28.834 -14.5 48.501 -20.5l66 -19.5
c24.333 -7 48.666 -16.167 72.999 -27.5s46.333 -24.666 66 -39.999s35.834 -36 48.501 -62s19 -55.333 19 -88c0 -151.333 -98 -227 -294 -227c-106.667 0 -199.334 22 -278.001 66v209c83.333 -54.667 168.333 -82 255 -82c29.333 0 49.833 2.66699 61.5 8
s17.5 14 17.5 26c0 10.667 -8.33301 20.5 -25 29.5s-37.667 16.667 -63 23s-52.666 15.5 -81.999 27.5s-56.666 25.667 -81.999 41s-46.333 37.5 -63 66.5s-25 62.5 -25 100.5zM373.998 751.999h-183l98 164h207z" />
    <glyph glyph-name="sacute" unicode="&#x15b;" horiz-adv-x="491" 
d="M28 342c0 54.667 20.501 94.002 61.501 118.002s92.833 36 155.5 36c68 0 131 -13.667 189 -41v-148c-48 29.333 -98.667 44 -152 44c-23.333 0 -35 -5.66699 -35 -17c0 -6.66699 4.16699 -12.667 12.5 -18s19.166 -9.83301 32.499 -13.5l44 -12.5
c16 -4.66699 31.833 -10.667 47.5 -18s30.167 -16.333 43.5 -27s24.166 -24.834 32.499 -42.501s12.5 -37.834 12.5 -60.501c0 -105.333 -79 -158 -237 -158c-82.667 0 -149.667 14 -201 42v161c48.667 -35.333 106.334 -53 173.001 -53c31.333 0 47 6 47 18
c0 8.66699 -7.83301 16 -23.5 22s-34.5 12.333 -56.5 19s-44 15 -66 25s-40.833 25.667 -56.5 47s-23.5 47 -23.5 77zM311.001 532.002h-183l98 164h207z" />
    <glyph glyph-name="Scedilla" unicode="&#x15e;" horiz-adv-x="635" 
d="M272 494c0 -9.33301 6.33008 -17.833 18.9971 -25.5s28.834 -14.5 48.501 -20.5l66 -19.5c24.333 -7 48.666 -16.167 72.999 -27.5s46.333 -24.666 66 -39.999s35.834 -36 48.501 -62s19 -55.333 19 -88c0 -132.667 -74 -207 -222 -223l-10 -31
c61.333 -8.66699 92 -38.667 92 -90c0 -34.667 -15.333 -60.667 -46 -78s-68 -26 -112 -26c-46 0 -85.333 6.33301 -118 19v105c24 -10 50.333 -15 79 -15c38 0 57 8.33301 57 25c0 11.333 -9 18.833 -27 22.5s-38.667 4.16699 -62 1.5l19 65
c-86 7.33301 -160 28.666 -222 63.999v209c83.333 -54.667 168.333 -82 255 -82c29.333 0 49.833 2.66699 61.5 8s17.5 14 17.5 26c0 10.667 -8.33301 20.5 -25 29.5s-37.667 16.667 -63 23s-52.666 15.5 -81.999 27.5s-56.666 25.667 -81.999 41s-46.333 37.5 -63 66.5
s-25 62.5 -25 100.5c0 70.667 25.833 124.5 77.5 161.5s117.5 55.5 197.5 55.5c99.333 0 185 -19.333 257 -58v-200c-72 46 -149.333 68.333 -232 67c-41.333 0 -62 -10.333 -62 -31z" />
    <glyph glyph-name="scedilla" unicode="&#x15f;" horiz-adv-x="491" 
d="M247 334c0 -6.66699 4.16797 -12.666 12.501 -17.999s19.166 -9.83301 32.499 -13.5l44 -12.5c16 -4.66699 31.833 -10.667 47.5 -18s30.167 -16.333 43.5 -27s24.166 -24.834 32.499 -42.501s12.5 -37.834 12.5 -60.501c0 -82.667 -49.667 -133 -149 -151l-11 -34
c61.333 -8.66699 92 -38.667 92 -90c0 -34.667 -15.167 -60.667 -45.5 -78s-67.5 -26 -111.5 -26c-47.333 0 -86.666 6.33301 -117.999 19v105c24 -10 50 -15 78 -15c38 0 57 8.33301 57 25c0 22 -29.333 30 -88 24l19 64c-62.667 2.66699 -116.334 16.334 -161.001 41.001
v161c48.667 -35.333 106.334 -53 173.001 -53c31.333 0 47 6 47 18c0 8.66699 -7.83301 16 -23.5 22s-34.5 12.333 -56.5 19s-44 15 -66 25s-40.833 25.667 -56.5 47s-23.5 47 -23.5 77c0 54.667 20.5 94 61.5 118s92.833 36 155.5 36c68 0 131 -13.667 189 -41v-148
c-48 29.333 -98.667 44 -152 44c-23.333 0 -35 -5.66699 -35 -17z" />
    <glyph glyph-name="Scaron" unicode="&#x160;" horiz-adv-x="635" 
d="M34 499c0 70.667 25.8311 124.499 77.498 161.499s117.5 55.5 197.5 55.5c99.333 0 185 -19.333 257 -58v-200c-72 46 -149.333 68.333 -232 67c-41.333 0 -62 -10.333 -62 -31c0 -9.33301 6.33301 -17.833 19 -25.5s28.834 -14.5 48.501 -20.5l66 -19.5
c24.333 -7 48.666 -16.167 72.999 -27.5s46.333 -24.666 66 -39.999s35.834 -36 48.501 -62s19 -55.333 19 -88c0 -151.333 -98 -227 -294 -227c-106.667 0 -199.334 22 -278.001 66v209c83.333 -54.667 168.333 -82 255 -82c29.333 0 49.833 2.66699 61.5 8
s17.5 14 17.5 26c0 10.667 -8.33301 20.5 -25 29.5s-37.667 16.667 -63 23s-52.666 15.5 -81.999 27.5s-56.666 25.667 -81.999 41s-46.333 37.5 -63 66.5s-25 62.5 -25 100.5zM526.998 922.999l-132 -171h-185l-132 171h175l49 -61l50 61h175z" />
    <glyph glyph-name="scaron" unicode="&#x161;" horiz-adv-x="491" 
d="M28 342c0 54.667 20.501 94.002 61.501 118.002s92.833 36 155.5 36c68 0 131 -13.667 189 -41v-148c-48 29.333 -98.667 44 -152 44c-23.333 0 -35 -5.66699 -35 -17c0 -6.66699 4.16699 -12.667 12.5 -18s19.166 -9.83301 32.499 -13.5l44 -12.5
c16 -4.66699 31.833 -10.667 47.5 -18s30.167 -16.333 43.5 -27s24.166 -24.834 32.499 -42.501s12.5 -37.834 12.5 -60.501c0 -105.333 -79 -158 -237 -158c-82.667 0 -149.667 14 -201 42v161c48.667 -35.333 106.334 -53 173.001 -53c31.333 0 47 6 47 18
c0 8.66699 -7.83301 16 -23.5 22s-34.5 12.333 -56.5 19s-44 15 -66 25s-40.833 25.667 -56.5 47s-23.5 47 -23.5 77zM464.001 703.002l-132 -171h-185l-132 171h175l49 -61l50 61h175z" />
    <glyph glyph-name="Tcommaaccent" unicode="&#x162;" horiz-adv-x="630" 
d="M12 700h606v-202h-188v-498h-230v498h-188v202zM348 -308h-162l40 254h191z" />
    <glyph glyph-name="tcommaaccent" unicode="&#x163;" horiz-adv-x="435" 
d="M84 609l211 49v-178h107v-168h-107v-111c0 -30 19 -45 57 -45c22.667 0 41.667 2.66699 57 8v-162c-47.333 -12.667 -92.333 -19 -135 -19c-54.667 0 -100 13.833 -136 41.5s-54 75.167 -54 142.5v145h-67v168h67v129zM288 -308h-162l40 254h191z" />
    <glyph glyph-name="Tcaron" unicode="&#x164;" horiz-adv-x="630" 
d="M12 700h606v-202h-188v-498h-230v498h-188v202zM541 923l-132 -171h-185l-132 171h175l49 -61l50 61h175z" />
    <glyph glyph-name="tcaron" unicode="&#x165;" horiz-adv-x="435" 
d="M362 765h167l-39 -233h-144zM84 609l211 49v-178h107v-168h-107v-111c0 -30 19 -45 57 -45c22.667 0 41.667 2.66699 57 8v-162c-47.333 -12.667 -92.333 -19 -135 -19c-54.667 0 -100 13.833 -136 41.5s-54 75.167 -54 142.5v145h-67v168h67v129z" />
    <glyph glyph-name="Tbar" unicode="&#x166;" horiz-adv-x="642" 
d="M436 0h-230v238h-112l1 137h111v123h-188v202h606v-202h-188v-123h112v-137h-112v-238z" />
    <glyph glyph-name="tbar" unicode="&#x167;" horiz-adv-x="435" 
d="M295 197c0 -28 19 -42 57 -42c20 0 39 2.66699 57 8v-161c-52 -12.667 -97 -19 -135 -19c-54.667 0 -100 13.833 -136 41.5s-54 75.167 -54 142.5v41h-44v73h44v41h-67v158h67v129l211 49v-178h107v-158h-107v-41h86v-73h-86v-11z" />
    <glyph glyph-name="Umacron" unicode="&#x16a;" horiz-adv-x="740" 
d="M465 700h230v-428c0 -52 -9 -97.167 -27 -135.5s-42.667 -68.333 -74 -90s-65.5 -37.5 -102.5 -47.5s-77.5 -15 -121.5 -15s-84.5 5 -121.5 15s-71.167 25.833 -102.5 47.5s-56 51.667 -74 90s-27 83.5 -27 135.5v428h231v-417c0 -61.333 31.333 -92 94 -92
c63.333 0 95 30.667 95 92v417zM190 898h363v-145h-363v145z" />
    <glyph glyph-name="umacron" unicode="&#x16b;" 
d="M343 480l211 0.000976562v-480h-185v48c-42.667 -42.667 -92 -64 -148 -64c-61.333 0 -107.5 18.167 -138.5 54.5s-46.5 80.166 -46.5 131.499v310h211v-274c0 -30.667 15.333 -46 46 -46c20 0 36.667 8 50 24v296zM115 678.001h363v-145h-363v145z" />
    <glyph glyph-name="Uring" unicode="&#x16e;" horiz-adv-x="740" 
d="M465 700h230v-428c0 -52 -9 -97.167 -27 -135.5s-42.667 -68.333 -74 -90s-65.5 -37.5 -102.5 -47.5s-77.5 -15 -121.5 -15s-84.5 5 -121.5 15s-71.167 25.833 -102.5 47.5s-56 51.667 -74 90s-27 83.5 -27 135.5v428h231v-417c0 -61.333 31.333 -92 94 -92
c63.333 0 95 30.667 95 92v417zM514 857c0 -42 -13.499 -74.498 -40.499 -97.498s-60.833 -34.5 -101.5 -34.5c-40 0 -73.5 11.667 -100.5 35s-40.5 55.666 -40.5 96.999c0 39.333 13.667 70.666 41 93.999s60.666 35 99.999 35c40.667 0 74.5 -11.5 101.5 -34.5
s40.5 -54.5 40.5 -94.5zM339.001 856.002c0 -10 3 -18.333 9 -25s14.333 -10 25 -10s19 3.33301 25 10s9 15 9 25c0 22.667 -11.333 34 -34 34s-34 -11.333 -34 -34z" />
    <glyph glyph-name="uring" unicode="&#x16f;" 
d="M343 480l211 0.000976562v-480h-185v48c-42.667 -42.667 -92 -64 -148 -64c-61.333 0 -107.5 18.167 -138.5 54.5s-46.5 80.166 -46.5 131.499v310h211v-274c0 -30.667 15.333 -46 46 -46c20 0 36.667 8 50 24v296zM439 637.001c0 -42 -13.499 -74.498 -40.499 -97.498
s-60.833 -34.5 -101.5 -34.5c-40 0 -73.5 11.667 -100.5 35s-40.5 55.666 -40.5 96.999c0 39.333 13.667 70.666 41 93.999s60.666 35 99.999 35c40.667 0 74.5 -11.5 101.5 -34.5s40.5 -54.5 40.5 -94.5zM264.001 636.003c0 -10 3 -18.333 9 -25s14.333 -10 25 -10
s19 3.33301 25 10s9 15 9 25c0 22.667 -11.333 34 -34 34s-34 -11.333 -34 -34z" />
    <glyph glyph-name="Uhungarumlaut" unicode="&#x170;" horiz-adv-x="740" 
d="M465 700h230v-428c0 -52 -9 -97.167 -27 -135.5s-42.667 -68.333 -74 -90s-65.5 -37.5 -102.5 -47.5s-77.5 -15 -121.5 -15s-84.5 5 -121.5 15s-71.167 25.833 -102.5 47.5s-56 51.667 -74 90s-27 83.5 -27 135.5v428h231v-417c0 -61.333 31.333 -92 94 -92
c63.333 0 95 30.667 95 92v417zM549 753h-170l85 168h183zM331 753h-170l77 168h182z" />
    <glyph glyph-name="uhungarumlaut" unicode="&#x171;" 
d="M343 480l211 0.000976562v-480h-185v48c-42.667 -42.667 -92 -64 -148 -64c-61.333 0 -107.5 18.167 -138.5 54.5s-46.5 80.166 -46.5 131.499v310h211v-274c0 -30.667 15.333 -46 46 -46c20 0 36.667 8 50 24v296zM474 533.001h-170l85 168h183zM256 533.001h-170
l77 168h182z" />
    <glyph glyph-name="Uogonek" unicode="&#x172;" horiz-adv-x="741" 
d="M573 -213c-26.667 -15.333 -58.999 -22.999 -96.999 -22.999c-42.667 0 -75.5 10.167 -98.5 30.5s-34.5 46.166 -34.5 77.499c1.33301 38 17.666 75.333 48.999 112h-21c-44 0 -84.5 5 -121.5 15s-71.167 25.833 -102.5 47.5s-56 51.667 -74 90s-27 83.5 -27 135.5v428
h231v-417c0 -61.333 31.333 -92 94 -92c63.333 0 95 30.667 95 92v417h230v-428c0 -98 -31.333 -171.333 -94 -220c-30.667 -24 -52.667 -46.833 -66 -68.5s-20 -39.167 -20 -52.5c0 -17.333 9.66699 -26 29 -26c10 0 19.333 2 28 6v-124z" />
    <glyph glyph-name="uogonek" unicode="&#x173;" 
d="M554 480v-480c-36.667 -26.667 -55 -52 -55 -76c0 -15.333 8.66699 -23 26 -23c8.66699 0 16.667 1 24 3v-125c-28 -10 -60.333 -15 -97 -15c-41.333 0 -73 10 -95 30s-32.667 45 -32 75c0 22.667 7.33301 45.834 22 69.501s34 44.167 58 61.5h-36v48
c-42.667 -42.667 -92 -64 -148 -64c-61.333 0 -107.5 18.167 -138.5 54.5s-46.5 80.166 -46.5 131.499v310h211v-274c0 -30.667 15.333 -46 46 -46c20 0 36.667 8 50 24v296h211z" />
    <glyph glyph-name="Wcircumflex" unicode="&#x174;" horiz-adv-x="1112" 
d="M859 700h249l-211 -700h-248l-93 353l-92 -353h-249l-211 700h248l100 -422l109 422h190l108 -422zM461 918h185l128 -171h-175l-45 57l-45 -57h-176z" />
    <glyph glyph-name="wcircumflex" unicode="&#x175;" horiz-adv-x="844" 
d="M622 480h215l-148 -480h-205l-62 237l-62 -237h-205l-148 480h215l55 -267l65 267h160l65 -267zM328 698h185l128 -171h-175l-45 57l-45 -57h-176z" />
    <glyph glyph-name="Ycircumflex" unicode="&#x176;" horiz-adv-x="753" 
d="M491 0h-229v239l-266 461h261l120 -265l120 265h261l-267 -461v-239zM279 918h185l128 -171h-175l-45 57l-45 -57h-176z" />
    <glyph glyph-name="ycircumflex" unicode="&#x177;" horiz-adv-x="604" 
d="M313 217l72.998 263h214l-183 -509c-49.333 -137.333 -134.666 -206 -255.999 -206c-31.333 0 -66.333 5.66699 -105 17v170c25.333 -6.66699 49 -10 71 -10c40.667 0 70.334 18.333 89.001 55l-220 483h218zM200.998 698h185l128 -171h-175l-45 57l-45 -57h-176z" />
    <glyph glyph-name="Ydieresis" unicode="&#x178;" horiz-adv-x="753" 
d="M491 0h-229v239l-266 461h261l120 -265l120 265h261l-267 -461v-239zM585 834c0 -28.667 -9.16699 -51.834 -27.5 -69.501s-41.5 -26.5 -69.5 -26.5c-27.333 0 -50.166 8.83301 -68.499 26.5s-27.5 40.834 -27.5 69.501s9.16699 51.834 27.5 69.501
s41.166 26.5 68.499 26.5c28 0 51.167 -8.83301 69.5 -26.5s27.5 -40.834 27.5 -69.501zM354 834c0 -28.667 -9.16699 -51.834 -27.5 -69.501s-41.5 -26.5 -69.5 -26.5c-27.333 0 -50.166 8.83301 -68.499 26.5s-27.5 40.834 -27.5 69.501s9.16699 51.834 27.5 69.501
s41.166 26.5 68.499 26.5c28 0 51.167 -8.83301 69.5 -26.5s27.5 -40.834 27.5 -69.501z" />
    <glyph glyph-name="Zacute" unicode="&#x179;" horiz-adv-x="646" 
d="M616 0h-589v147l260 351h-244v202h561v-147l-260 -351h272v-202zM395 752h-183l98 164h207z" />
    <glyph glyph-name="zacute" unicode="&#x17a;" horiz-adv-x="505" 
d="M42 480h421v-124l-164 -188h178v-168h-450v124l165 188h-150v168zM332 532h-183l98 164h207z" />
    <glyph glyph-name="Zdotaccent" unicode="&#x17b;" horiz-adv-x="646" 
d="M616 0h-589v147l260 351h-244v202h561v-147l-260 -351h272v-202zM225 839c0 32 9.66699 56.333 29 73s43.666 25 72.999 25s53.666 -8.33301 72.999 -25s29 -41 29 -73c0 -32.667 -9.66699 -57.334 -29 -74.001s-43.666 -25 -72.999 -25s-53.666 8.33301 -72.999 25
s-29 41.334 -29 74.001z" />
    <glyph glyph-name="zdotaccent" unicode="&#x17c;" horiz-adv-x="505" 
d="M42 480h421v-124l-164 -188h178v-168h-450v124l165 188h-150v168zM162 619c0 32 9.66699 56.333 29 73s43.666 25 72.999 25s53.666 -8.33301 72.999 -25s29 -41 29 -73c0 -32.667 -9.66699 -57.334 -29 -74.001s-43.666 -25 -72.999 -25s-53.666 8.33301 -72.999 25
s-29 41.334 -29 74.001z" />
    <glyph glyph-name="Zcaron" unicode="&#x17d;" horiz-adv-x="646" 
d="M616 0h-589v147l260 351h-244v202h561v-147l-260 -351h272v-202zM548 923l-132 -171h-185l-132 171h175l49 -61l50 61h175z" />
    <glyph glyph-name="zcaron" unicode="&#x17e;" horiz-adv-x="505" 
d="M42 480h421v-124l-164 -188h178v-168h-450v124l165 188h-150v168zM485 703l-132 -171h-185l-132 171h175l49 -61l50 61h175z" />
    <glyph glyph-name="Scommaaccent" unicode="&#x218;" horiz-adv-x="635" 
d="M34 499c0 70.667 25.8311 124.499 77.498 161.499s117.5 55.5 197.5 55.5c99.333 0 185 -19.333 257 -58v-200c-72 46 -149.333 68.333 -232 67c-41.333 0 -62 -10.333 -62 -31c0 -9.33301 6.33301 -17.833 19 -25.5s28.834 -14.5 48.501 -20.5l66 -19.5
c24.333 -7 48.666 -16.167 72.999 -27.5s46.333 -24.666 66 -39.999s35.834 -36 48.501 -62s19 -55.333 19 -88c0 -151.333 -98 -227 -294 -227c-106.667 0 -199.334 22 -278.001 66v209c83.333 -54.667 168.333 -82 255 -82c29.333 0 49.833 2.66699 61.5 8
s17.5 14 17.5 26c0 10.667 -8.33301 20.5 -25 29.5s-37.667 16.667 -63 23s-52.666 15.5 -81.999 27.5s-56.666 25.667 -81.999 41s-46.333 37.5 -63 66.5s-25 62.5 -25 100.5zM352.998 -308.001h-162l40 254h191z" />
    <glyph glyph-name="scommaaccent" unicode="&#x219;" horiz-adv-x="491" 
d="M28 342c0 54.667 20.501 94.002 61.501 118.002s92.833 36 155.5 36c68 0 131 -13.667 189 -41v-148c-48 29.333 -98.667 44 -152 44c-23.333 0 -35 -5.66699 -35 -17c0 -6.66699 4.16699 -12.667 12.5 -18s19.166 -9.83301 32.499 -13.5l44 -12.5
c16 -4.66699 31.833 -10.667 47.5 -18s30.167 -16.333 43.5 -27s24.166 -24.834 32.499 -42.501s12.5 -37.834 12.5 -60.501c0 -105.333 -79 -158 -237 -158c-82.667 0 -149.667 14 -201 42v161c48.667 -35.333 106.334 -53 173.001 -53c31.333 0 47 6 47 18
c0 8.66699 -7.83301 16 -23.5 22s-34.5 12.333 -56.5 19s-44 15 -66 25s-40.833 25.667 -56.5 47s-23.5 47 -23.5 77zM284.001 -307.998h-162l40 254h191z" />
    <glyph glyph-name="uni021A" unicode="&#x21a;" horiz-adv-x="630" 
d="M12 700h606v-202h-188v-498h-230v498h-188v202zM348 -308h-162l40 254h191z" />
    <glyph glyph-name="uni021B" unicode="&#x21b;" horiz-adv-x="435" 
d="M84 609l211 49v-178h107v-168h-107v-111c0 -30 19 -45 57 -45c22.667 0 41.667 2.66699 57 8v-162c-47.333 -12.667 -92.333 -19 -135 -19c-54.667 0 -100 13.833 -136 41.5s-54 75.167 -54 142.5v145h-67v168h67v129zM288 -308h-162l40 254h191z" />
    <glyph glyph-name="circumflex" unicode="&#x2c6;" horiz-adv-x="418" 
d="M116 918h185l128 -171h-175l-45 57l-45 -57h-176z" />
    <glyph glyph-name="caron" unicode="&#x2c7;" horiz-adv-x="418" 
d="M434 923l-132 -171h-185l-132 171h175l49 -61l50 61h175z" />
    <glyph glyph-name="breve" unicode="&#x2d8;" horiz-adv-x="427" 
d="M394 790c-51.333 -34 -111.668 -51 -181.001 -51s-129.666 17 -180.999 51v143c50 -30.667 110.333 -46 181 -46s131 15.333 181 46v-143z" />
    <glyph glyph-name="dotaccent" unicode="&#x2d9;" horiz-adv-x="211" 
d="M5 841c0 32 9.66699 56.333 29 73s43.666 25 72.999 25s53.666 -8.33301 72.999 -25s29 -41 29 -73c0 -32.667 -9.66699 -57.334 -29 -74.001s-43.666 -25 -72.999 -25s-53.666 8.33301 -72.999 25s-29 41.334 -29 74.001z" />
    <glyph glyph-name="ring" unicode="&#x2da;" horiz-adv-x="277" 
d="M280 857c0 -42 -13.499 -74.498 -40.499 -97.498s-60.833 -34.5 -101.5 -34.5c-40 0 -73.5 11.667 -100.5 35s-40.5 55.666 -40.5 96.999c0 39.333 13.667 70.666 41 93.999s60.666 35 99.999 35c40.667 0 74.5 -11.5 101.5 -34.5s40.5 -54.5 40.5 -94.5z
M105.001 856.002c0 -10 3 -18.333 9 -25s14.333 -10 25 -10s19 3.33301 25 10s9 15 9 25c0 22.667 -11.333 34 -34 34s-34 -11.333 -34 -34z" />
    <glyph glyph-name="ogonek" unicode="&#x2db;" horiz-adv-x="237" 
d="M82 0l149 -0.000976562c-36.667 -26.667 -55 -52 -55 -76c0 -15.333 8.66699 -23 26 -23c8 0 16 1.66699 24 5v-124c-28 -12 -60.333 -18 -97 -18c-41.333 0 -73 10 -95 30s-32.667 45 -32 75c0 22.667 7.33301 45.834 22 69.501s34 44.167 58 61.5z" />
    <glyph glyph-name="tilde" unicode="&#x2dc;" horiz-adv-x="450" 
d="M426 914c12.667 -48.667 7.83301 -90.833 -14.5 -126.5s-55.5 -53.5 -99.5 -53.5c-25.333 0 -52.666 7 -81.999 21s-47.333 21 -54 21c-9.33301 0 -15.5 -4 -18.5 -12s-3.16699 -16 -0.5 -24h-133c-13.333 49.333 -8.83301 91.666 13.5 126.999s55.833 53 100.5 53
c25.333 0 52.666 -7 81.999 -21s47 -21 53 -21c10 0 16.333 3.83301 19 11.5s3 15.834 1 24.501h133z" />
    <glyph glyph-name="hungarumlaut" unicode="&#x2dd;" horiz-adv-x="504" 
d="M411 753h-170l85 168h183zM193 753h-170l77 168h182z" />
    <glyph glyph-name="uni0326" unicode="&#x326;" horiz-adv-x="250" 
d="M188 -308h-162l40 254h191z" />
    <glyph glyph-name="uni0401" unicode="&#x401;" horiz-adv-x="622" 
d="M533 834c0 -28.667 -9.16699 -51.834 -27.5 -69.501s-41.5 -26.5 -69.5 -26.5c-27.333 0 -50.166 8.83301 -68.499 26.5s-27.5 40.834 -27.5 69.501s9.16699 51.834 27.5 69.501s41.166 26.5 68.499 26.5c28 0 51.167 -8.83301 69.5 -26.5s27.5 -40.834 27.5 -69.501z
M302 834c0 -28.667 -9.16699 -51.834 -27.5 -69.501s-41.5 -26.5 -69.5 -26.5c-27.333 0 -50.166 8.83301 -68.499 26.5s-27.5 40.834 -27.5 69.501s9.16699 51.834 27.5 69.501s41.166 26.5 68.499 26.5c28 0 51.167 -8.83301 69.5 -26.5s27.5 -40.834 27.5 -69.501z
M53 700h530v-182h-299v-81h263v-170h-263v-83h305v-184h-536v700z" />
    <glyph glyph-name="uni0410" unicode="&#x410;" horiz-adv-x="765" 
d="M231 0h-234l262 700h248l261 -700h-234l-30 93h-242zM364 409l-49 -149h137l-49 149c-9.33301 29.333 -16 59.333 -20 90c-4 -26.667 -10.333 -56.667 -19 -90z" />
    <glyph glyph-name="uni0411" unicode="&#x411;" horiz-adv-x="683" 
d="M284 449h112c179.333 0 269 -75 269 -225c0 -149.333 -89.667 -224 -269 -224h-343v700h553v-185h-322v-66zM284 168h83c46 0 69 18.667 69 56c0 38 -23 57 -69 57h-83v-113z" />
    <glyph glyph-name="uni0412" unicode="&#x412;" horiz-adv-x="699" 
d="M53 700h350c165.333 0 248 -59 248 -177c0 -74.667 -33.333 -125 -100 -151c85.333 -26 128 -83.333 128 -172c0 -133.333 -95 -200 -285 -200h-341v700zM449 227c0 38 -22.333 57 -67 57h-98v-114h98c44.667 0 67 19 67 57zM429 478c0 15.333 -5 27.833 -15 37.5
s-24.333 14.5 -43 14.5h-87v-103l87 -1c18.667 0 33 5 43 15s15 22.333 15 37z" />
    <glyph glyph-name="uni0413" unicode="&#x413;" horiz-adv-x="588" 
d="M284 0h-231v700h525v-202h-294v-498z" />
    <glyph glyph-name="uni0414" unicode="&#x414;" horiz-adv-x="850" 
d="M223 -136h-205v330h83c40 74 67.167 151.833 81.5 233.5s21.5 172.5 21.5 272.5h532v-506h91v-330h-205v136h-399v-136zM408 504c-11.333 -137.333 -34.667 -240.667 -70 -310h170v310h-100z" />
    <glyph glyph-name="uni0415" unicode="&#x415;" horiz-adv-x="622" 
d="M53 700h530v-182h-299v-81h263v-170h-263v-83h305v-184h-536v700z" />
    <glyph glyph-name="uni0416" unicode="&#x416;" horiz-adv-x="1045" 
d="M249 0h-254l187 353l-183 347h254l115 -248h39v248h231v-248h39l114 248h254l-182 -347l187 -353h-254l-124 250h-34v-250h-231v250h-35z" />
    <glyph glyph-name="uni0417" unicode="&#x417;" horiz-adv-x="631" 
d="M607 192c0 -39.333 -8.49902 -73 -25.499 -101s-40.667 -49.5 -71 -64.5s-62.5 -25.833 -96.5 -32.5s-71 -10 -111 -10c-88.667 0 -179.334 15.333 -272.001 46v205c75.333 -36.667 156.666 -55 243.999 -55c67.333 0 101 17 101 51c0 26.667 -20 40 -60 40h-167v168h148
c34.667 0 52 11.667 52 35c0 30 -29 45 -87 45c-74 0 -147 -18 -219 -54v205c77.333 30.667 157.333 46 240 46c94 0 166.833 -16.5 218.5 -49.5s77.5 -82.5 77.5 -148.5c0 -34.667 -9.16699 -65.167 -27.5 -91.5s-45.166 -45.5 -80.499 -57.5
c90.667 -30.667 136 -89.667 136 -177z" />
    <glyph glyph-name="uni0418" unicode="&#x418;" horiz-adv-x="763" 
d="M710 0l-231 0.000976562v210c0 45.333 2 84.666 6 117.999l-237 -328h-195v700h231v-209c0 -46.667 -2 -86.667 -6 -120l237 329h195v-700z" />
    <glyph glyph-name="uni0419" unicode="&#x419;" horiz-adv-x="763" 
d="M479 0l231 -0.000976562v700h-195l-237 -329c4 33.333 6 73.333 6 120v209h-231v-700h195l237 328c-4 -33.333 -6 -72.666 -6 -117.999v-210zM567 791.999c-51.333 -34 -111.668 -51 -181.001 -51s-129.666 17 -180.999 51v143c50 -30.667 110.333 -46 181 -46
s131 15.333 181 46v-143z" />
    <glyph glyph-name="uni041A" unicode="&#x41a;" horiz-adv-x="728" 
d="M284 0h-231v700h231v-248h58l140 248h254l-213 -347l217 -353h-254l-149 250h-53v-250z" />
    <glyph glyph-name="uni041B" unicode="&#x41b;" horiz-adv-x="760" 
d="M168 700l538.997 0.00390625v-700h-231v498h-97c-3.33301 -40.667 -6.66602 -76.834 -9.99902 -108.501s-8.33301 -65.834 -15 -102.501s-14.334 -68.834 -23.001 -96.501s-20 -54.834 -34 -81.501s-29.667 -48.5 -47 -65.5s-38.166 -30.667 -62.499 -41
s-51.166 -15.5 -80.499 -15.5c-36.667 0 -71.667 5 -105 15v200c26 -8.66699 49.333 -6.66699 70 6c14.667 6.66699 27.334 20 38.001 40s18.834 41.667 24.501 65s10.667 53.333 15 90s7.16602 68.667 8.49902 96l5 105c2 42.667 3.66699 74.667 5 96z" />
    <glyph glyph-name="uni041C" unicode="&#x41c;" horiz-adv-x="907" 
d="M649 700h205v-700h-225v320l-115 -178h-121l-115 179v-321h-225v700h205l195 -306z" />
    <glyph glyph-name="uni041D" unicode="&#x41d;" horiz-adv-x="757" 
d="M474 700h230v-700h-230v249h-190v-249h-231v700h231v-249h190v249z" />
    <glyph glyph-name="uni041E" unicode="&#x41e;" horiz-adv-x="806" 
d="M24 350c0 106 33 193.5 99 262.5s159.333 103.5 280 103.5s214 -34.5 280 -103.5s99 -156.5 99 -262.5s-33 -193.5 -99 -262.5s-159.333 -103.5 -280 -103.5s-214 34.5 -280 103.5s-99 156.5 -99 262.5zM545 350c0 48.667 -12.5 87 -37.5 115s-59.833 42 -104.5 42
s-79.5 -14 -104.5 -42s-37.5 -66.333 -37.5 -115s12.5 -87 37.5 -115s59.833 -42 104.5 -42s79.5 14 104.5 42s37.5 66.333 37.5 115z" />
    <glyph glyph-name="uni041F" unicode="&#x41f;" horiz-adv-x="762" 
d="M283 0h-230v700h656v-700h-230v498h-196v-498z" />
    <glyph glyph-name="uni0420" unicode="&#x420;" horiz-adv-x="691" 
d="M53 700h306c209.333 0 314 -86.333 314 -259c0 -172 -104.667 -258 -314 -258h-75v-183h-231v700zM444 441c0 46 -29 69 -87 69h-73v-137h73c58 0 87 22.667 87 68z" />
    <glyph glyph-name="uni0421" unicode="&#x421;" horiz-adv-x="650" 
d="M25 343c0 64 10.667 120.667 32 170s50.5 88.333 87.5 117s77.667 50.167 122 64.5s91.5 21.5 141.5 21.5c75.333 0 144 -14 206 -42v-206c-46 32 -101 48 -165 48c-53.333 0 -97.833 -14.167 -133.5 -42.5s-53.5 -71.833 -53.5 -130.5
c0 -51.333 17.667 -90.166 53 -116.499s78.333 -39.5 129 -39.5c79.333 0 137.666 16.667 174.999 50v-211c-62 -28 -130.333 -42 -205 -42c-51.333 0 -99.666 7 -144.999 21s-86.5 34.833 -123.5 62.5s-66.333 65.167 -88 112.5s-32.5 101.666 -32.5 162.999z" />
    <glyph glyph-name="uni0422" unicode="&#x422;" horiz-adv-x="630" 
d="M12 700h606v-202h-188v-498h-230v498h-188v202z" />
    <glyph glyph-name="uni0423" unicode="&#x423;" horiz-adv-x="713" 
d="M466 161c-29.333 -64 -64.001 -109.5 -104.001 -136.5s-89.667 -40.5 -149 -40.5c-35.333 0 -77.666 7 -126.999 21v186c26 -9.33301 53.333 -14 82 -14c42.667 0 69.667 13.333 81 40l11 22l-266 461h247l128 -275l103 275h246z" />
    <glyph glyph-name="uni0424" unicode="&#x424;" horiz-adv-x="891" 
d="M551 -47h-209v90c-104.667 7.33301 -186.667 37.833 -246 91.5s-89 125.5 -89 215.5s29.667 161.833 89 215.5s141.333 84.167 246 91.5v90h209v-90c104 -7.33301 185.5 -37.833 244.5 -91.5s88.5 -125.5 88.5 -215.5s-29.5 -161.833 -88.5 -215.5
s-140.5 -84.167 -244.5 -91.5v-90zM234 350c0 -74 37 -115.667 111 -125v250c-74 -9.33301 -111 -51 -111 -125zM548 475v-250c72 10 108 51.667 108 125s-36 115 -108 125z" />
    <glyph glyph-name="uni0425" unicode="&#x425;" horiz-adv-x="731" 
d="M250 0h-269l240 361l-228 339h269l104 -181l103 181h269l-228 -339l240 -361h-269l-115 197z" />
    <glyph glyph-name="uni0426" unicode="&#x426;" horiz-adv-x="816" 
d="M791 -136h-205v136h-533v700h231v-498h191v498h231v-498h85v-338z" />
    <glyph glyph-name="uni0427" unicode="&#x427;" horiz-adv-x="710" 
d="M657 0h-231.001v222c-46 -14.667 -93.333 -22 -142 -22c-77.333 0 -139 20.167 -185 60.5s-69 99.5 -69 177.5v262h231v-234c0 -22 7.83301 -38.333 23.5 -49s36.167 -16 61.5 -16c28.667 0 55.334 5.66699 80.001 17v282h231v-700z" />
    <glyph glyph-name="uni0428" unicode="&#x428;" horiz-adv-x="1038" 
d="M985 0h-932v700h231v-498h120v498h231v-498h120v498h230v-700z" />
    <glyph glyph-name="uni0429" unicode="&#x429;" horiz-adv-x="1096" 
d="M1071 -136h-205v136h-813v700h231v-498h120v498h231v-498h120v498h230v-498h86v-338z" />
    <glyph glyph-name="uni042A" unicode="&#x42a;" horiz-adv-x="791" 
d="M472 0h-306v498h-152v202h383v-200h75c202 0 303 -83.333 303 -250s-101 -250 -303 -250zM397 310v-120h73c22 0 40.167 5 54.5 15s21.5 25 21.5 45s-7.16699 35 -21.5 45s-32.5 15 -54.5 15h-73z" />
    <glyph glyph-name="uni042B" unicode="&#x42b;" horiz-adv-x="988" 
d="M359 0h-306v700h231v-200h75c201.333 0 302 -83.333 302 -250s-100.667 -250 -302 -250zM284 310v-120h73c22 0 40.167 5 54.5 15s21.5 25 21.5 45s-7.16699 35 -21.5 45s-32.5 15 -54.5 15h-73zM935 0h-231v700h231v-700z" />
    <glyph glyph-name="uni042C" unicode="&#x42c;" horiz-adv-x="677" 
d="M359 0h-306v700h231v-200h75c201.333 0 302 -83.333 302 -250s-100.667 -250 -302 -250zM284 310v-120h73c22 0 40.167 5 54.5 15s21.5 25 21.5 45s-7.16699 35 -21.5 45s-32.5 15 -54.5 15h-73z" />
    <glyph glyph-name="uni042D" unicode="&#x42d;" horiz-adv-x="650" 
d="M37 674c62 28 130.667 41.999 206 41.999c50 0 97.167 -7.16699 141.5 -21.5s85 -35.833 122 -64.5s66.167 -67.667 87.5 -117s32 -106 32 -170c0 -61.333 -10.833 -115.666 -32.5 -162.999s-51 -84.833 -88 -112.5s-78.167 -48.5 -123.5 -62.5s-93.666 -21 -144.999 -21
c-71.333 0 -138 14 -200 42v199c38.667 -32.667 96.667 -49 174 -49c98.667 0 159.667 29 183 87h-256v175h254c-14 32 -36.333 54.5 -67 67.5s-69 19.833 -115 20.5c-68.667 0 -126.334 -15.667 -173.001 -47v195z" />
    <glyph glyph-name="uni042E" unicode="&#x42e;" horiz-adv-x="1120" 
d="M1096 350c0 -68.667 -13.833 -130.169 -41.5 -184.502s-70.667 -98.166 -129 -131.499s-128.166 -50 -209.499 -50c-97.333 0 -176.833 24.5 -238.5 73.5s-101.5 112.833 -119.5 191.5h-74v-249h-231v700h231v-249h74c18 78.667 57.833 142.5 119.5 191.5
s141.167 73.5 238.5 73.5c81.333 0 151.166 -16.667 209.499 -50s101.333 -77.166 129 -131.499s41.5 -115.833 41.5 -184.5zM575 349.998c0 -48.667 12.5 -87 37.5 -115s59.833 -42 104.5 -42s79.5 14 104.5 42s37.5 66.333 37.5 115s-12.5 87 -37.5 115
s-59.833 42 -104.5 42s-79.5 -14 -104.5 -42s-37.5 -66.333 -37.5 -115z" />
    <glyph glyph-name="uni042F" unicode="&#x42f;" horiz-adv-x="725" 
d="M259 0l-260 -0.000976562l178 247c-85.333 41.333 -128 109.333 -128 204c0 44.667 8.16699 83.667 24.5 117s38.833 59.333 67.5 78s60.167 32.334 94.5 41.001s71.5 13 111.5 13h325v-700h-230v207h-39zM282 445.999c0 -20 6.66699 -36 20 -48s32.666 -18 57.999 -18
h82v132h-82c-25.333 0 -44.666 -6 -57.999 -18s-20 -28 -20 -48z" />
    <glyph glyph-name="uni0430" unicode="&#x430;" horiz-adv-x="584" 
d="M524 152c0 -17.333 9.33496 -26 28.002 -26c4.66699 0 11 0.666992 19 2v-123c-28.667 -12 -64 -18 -106 -18c-56 0 -96 17 -120 51c-44 -36 -97.333 -54 -160 -54c-47.333 0 -87 12.667 -119 38s-48 61 -48 107c0 29.333 6.16699 54.5 18.5 75.5
s29.166 37.167 50.499 48.5s43.666 19.5 66.999 24.5s48.333 7.5 75 7.5c35.333 0 67 -3 95 -9v11c0 35.333 -31.667 53 -95 53c-53.333 0 -111 -11.333 -173 -34v158c71.333 21.333 137 32 197 32c89.333 0 156.833 -16.833 202.5 -50.5s68.5 -94.5 68.5 -182.5v-111z
M282.002 189c-16.667 0 -30.833 -3.5 -42.5 -10.5s-17.5 -17.833 -17.5 -32.5c0 -11.333 4.5 -20.5 13.5 -27.5s20.167 -10.5 33.5 -10.5c20 0 38.333 5.33301 55 16v59c-10.667 4 -24.667 6 -42 6z" />
    <glyph glyph-name="uni0431" unicode="&#x431;" horiz-adv-x="587" 
d="M564 208c0 -72.667 -24.999 -128.17 -74.999 -166.503s-112 -57.5 -186 -57.5c-37.333 0 -71.5 4.83301 -102.5 14.5s-60 25.334 -87 47.001s-48.167 52.834 -63.5 93.501s-23 89.334 -23 146.001c0 84.667 12.833 152.334 38.5 203.001s61.834 90.667 108.501 120
c38.667 24.667 82.667 42 132 52s92.666 17.833 129.999 23.5s64.333 16.5 81 32.5v-185c-22 -19.333 -58.333 -32.333 -109 -39s-84.667 -13.667 -102 -21c-20.667 -8.66699 -37.667 -22.5 -51 -41.5s-20.333 -38.833 -21 -59.5c35.333 38 81.333 57 138 57
c55.333 0 101.166 -18.833 137.499 -56.5s54.5 -91.834 54.5 -162.501zM233.001 216.997c0 -19.333 4.83203 -36 14.499 -50s25.834 -21 48.501 -21s38.667 7 48 21s14 30.667 14 50c0 46.667 -20.667 70 -62 70c-42 0 -63 -23.333 -63 -70z" />
    <glyph glyph-name="uni0432" unicode="&#x432;" horiz-adv-x="559" 
d="M360 0h-319.002v480h308c34.667 0 64.334 -4.16699 89.001 -12.5s42.834 -19.333 54.501 -33s20 -27.167 25 -40.5s7.5 -27 7.5 -41c0 -54.667 -24.333 -92 -73 -112c59.333 -20.667 89 -59 89 -115c0 -34 -13.667 -63.5 -41 -88.5s-74 -37.5 -140 -37.5zM238.998 188
v-68h58c28 0 42 11.333 42 34s-14.333 34 -43 34h-57zM238.998 359v-68h51c28 0 42 11.333 42 34s-14 34 -42 34h-51z" />
    <glyph glyph-name="uni0433" unicode="&#x433;" horiz-adv-x="439" 
d="M252 0h-211v480h384v-168h-173v-312z" />
    <glyph glyph-name="uni0434" unicode="&#x434;" horiz-adv-x="673" 
d="M205 -123h-189v271h66c44 79.333 65 190 63 332h438v-332h68v-271h-189v123h-257v-123zM321 331c-2 -68 -15.333 -129 -40 -183h106v183h-66z" />
    <glyph glyph-name="uni0435" unicode="&#x435;" horiz-adv-x="547" 
d="M21 243c0 44.667 8.33496 84.166 25.002 118.499s38.167 60.833 64.5 79.5s53.833 32.5 82.5 41.5s57.334 13.5 86.001 13.5c41.333 0 78.166 -6.16699 110.499 -18.5s57.666 -28.5 75.999 -48.5s33.166 -43.167 44.499 -69.5s16.833 -53.833 16.5 -82.5
s-2.83301 -57 -7.5 -85h-296c8 -19.333 24.667 -34.166 50 -44.499s54.333 -15.5 87 -15.5c52 0 98 6.33301 138 19v-142c-48.667 -16.667 -107 -25 -175 -25c-54 0 -103 8.33301 -147 25s-80.833 45.167 -110.5 85.5s-44.5 89.833 -44.5 148.5zM348.002 288.999
c2.66699 16.667 -0.666016 32.167 -9.99902 46.5s-25.333 21.5 -48 21.5c-20.667 0 -37.334 -6.33301 -50.001 -19s-19 -29 -19 -49h127z" />
    <glyph glyph-name="uni0436" unicode="&#x436;" horiz-adv-x="859" 
d="M855 0h-219l-74 153h-31v-153h-203v153h-31l-74 -153h-219l125 238l-120 242h219l74 -163h26v163h203v-163h26l74 163h219l-120 -242z" />
    <glyph glyph-name="uni0437" unicode="&#x437;" horiz-adv-x="498" 
d="M476 134c0 -42 -19.832 -77.5 -59.499 -106.5s-104.834 -43.5 -195.501 -43.5c-76 0 -141.333 13 -196 39v143c50.667 -24.667 106 -37 166 -37c44.667 0 67 10.333 67 31c0 17.333 -18 26 -54 26h-96v113h88c34.667 0 52 8.33301 52 25c0 18.667 -20 28 -60 28
c-23.333 0 -50 -3.5 -80 -10.5s-54 -15.167 -72 -24.5v144c52 24 119 36 201 36c45.333 -0.666992 84 -5.5 116 -14.5s55.667 -21 71 -36s26.166 -29.833 32.499 -44.5s9.5 -30.667 9.5 -48c0 -26.667 -7.16699 -49.5 -21.5 -68.5s-33.166 -32.167 -56.499 -39.5
c58.667 -18 88 -55.333 88 -112z" />
    <glyph glyph-name="uni0438" unicode="&#x438;" horiz-adv-x="605" 
d="M206 0h-165v480h198v-194l160 194h165v-480h-198v194z" />
    <glyph glyph-name="uni0439" unicode="&#x439;" horiz-adv-x="605" 
d="M470 567c-46 -27.333 -102 -41 -168 -41c-65.333 0 -121 13.667 -167 41v135c44 -24 99.667 -36 167 -36c66.667 0 122.667 12 168 36v-135zM206 0h-165v480h198v-194l160 194h165v-480h-198v194z" />
    <glyph glyph-name="uni043A" unicode="&#x43a;" horiz-adv-x="597" 
d="M252 0h-211v480h211v-154h31l85 154h229l-148 -237l153 -243h-229l-91 162h-30v-162z" />
    <glyph glyph-name="uni043B" unicode="&#x43b;" horiz-adv-x="614" 
d="M305 316c-10 -111.333 -29.8311 -194 -59.498 -248s-76.834 -81 -141.501 -81c-33.333 0 -65.666 5 -96.999 15v170c16 -4 29.667 -5 41 -3c10 2 18.667 6.33301 26 13s13.333 16.5 18 29.5s8.66699 26.667 12 41s6 32.5 8 54.5s3.66699 42.5 5 61.5
s2.66602 42.833 3.99902 71.5c0 6 0.166992 10.667 0.5 14s0.666016 7.5 0.999023 12.5s0.5 9.5 0.5 13.5h450v-480h-211v316h-57z" />
    <glyph glyph-name="uni043C" unicode="&#x43c;" horiz-adv-x="685" 
d="M232 0h-191v480h172l129 -206l130 206h172v-480h-191v202l-74 -118h-73l-74 118v-202z" />
    <glyph glyph-name="uni043D" unicode="&#x43d;" horiz-adv-x="601" 
d="M252 0h-211v480h211v-159h97v159h211v-480h-211v159h-97v-159z" />
    <glyph glyph-name="uni043E" unicode="&#x43e;" 
d="M21 240c0 82.667 26.167 146 78.5 190s118.166 66 197.499 66c80 0 146.167 -22 198.5 -66s78.5 -107.333 78.5 -190s-26.167 -146 -78.5 -190s-118.5 -66 -198.5 -66c-79.333 0 -145.166 22 -197.499 66s-78.5 107.333 -78.5 190zM368 240c0 54.667 -23.667 82 -71 82
c-46.667 0 -70 -27.333 -70 -82s23.333 -82 70 -82c47.333 0 71 27.333 71 82z" />
    <glyph glyph-name="uni043F" unicode="&#x43f;" horiz-adv-x="597" 
d="M252 0h-211v480h515v-480h-210v312h-94v-312z" />
    <glyph glyph-name="uni0440" unicode="&#x440;" horiz-adv-x="625" 
d="M226 422c39.333 49.333 91.667 74 157 74c72 0 126.667 -24.667 164 -74s56 -110 56 -182s-18.667 -132.667 -56 -182s-92 -74 -164 -74c-54 0 -97.667 15 -131 45v-249h-211v700h185v-58zM386.001 240c0 24 -6.16699 44.5 -18.5 61.5s-30.5 25.5 -54.5 25.5
c-28 0 -48.667 -11.333 -62 -34v-106c4.66699 -9.33301 12.667 -17.333 24 -24s24 -10 38 -10c24 0 42.167 8.5 54.5 25.5s18.5 37.5 18.5 61.5z" />
    <glyph glyph-name="uni0441" unicode="&#x441;" horiz-adv-x="490" 
d="M21 227c0 46.667 8.00293 87.832 24.0029 123.499s37.667 64 65 85s57.5 36.667 90.5 47s68.167 15.5 105.5 15.5c49.333 0 98.666 -9.66699 147.999 -29v-173c-36 18 -72.667 27 -110 27c-30.667 0 -56 -6.66699 -76 -20s-30 -34.333 -30 -63
c0 -28 9.66699 -48.5 29 -61.5s43.666 -19.5 72.999 -19.5c45.333 0 85 8 119 24v-172c-52.667 -18 -108.334 -27 -167.001 -27c-76 0 -140.167 20.333 -192.5 61s-78.5 101.334 -78.5 182.001z" />
    <glyph glyph-name="uni0442" unicode="&#x442;" horiz-adv-x="488" 
d="M349 0h-210v312h-124v168h458v-168h-124v-312z" />
    <glyph glyph-name="uni0443" unicode="&#x443;" horiz-adv-x="604" 
d="M313 217l72.998 263h214l-183 -509c-49.333 -137.333 -134.666 -206 -255.999 -206c-31.333 0 -66.333 5.66699 -105 17v170c25.333 -6.66699 49 -10 71 -10c40.667 0 70.334 18.333 89.001 55l-220 483h218z" />
    <glyph glyph-name="uni0444" unicode="&#x444;" horiz-adv-x="800" 
d="M497 -220h-195v204c-84 4 -152 28.833 -204 74.5s-78 106.167 -78 181.5s26 135.833 78 181.5s120 70.5 204 74.5v204h195v-204c84 -4 152.167 -28.833 204.5 -74.5s78.5 -106.167 78.5 -181.5s-26.167 -135.833 -78.5 -181.5s-120.5 -70.5 -204.5 -74.5v-204zM224 240
c0 -24 6.66699 -44.332 20 -60.999s33.666 -26.334 60.999 -29.001v180c-27.333 -2.66699 -47.666 -12.167 -60.999 -28.5s-20 -36.833 -20 -61.5zM495 330.001v-180.001c27.333 2.66699 47.666 12.334 60.999 29.001s20 37 20 61c0 24.667 -6.66699 45.167 -20 61.5
s-33.666 25.833 -60.999 28.5z" />
    <glyph glyph-name="uni0445" unicode="&#x445;" horiz-adv-x="571" 
d="M351 480h222l-160 -241l166 -239h-226l-67 110l-67 -110h-227l166 239l-159 241h221l66 -115z" />
    <glyph glyph-name="uni0446" unicode="&#x446;" horiz-adv-x="649" 
d="M625 -123h-189v123h-395v480h211v-312h94v312h210v-314h69v-289z" />
    <glyph glyph-name="uni0447" unicode="&#x447;" horiz-adv-x="572" 
d="M531 0h-211.001v130c-29.333 -10 -65.666 -15 -108.999 -15c-50 0 -93.667 15 -131 45s-56 74.667 -56 134v186h211v-159c0 -25.333 14 -38 42 -38c14.667 0 29 2.66699 43 8v189h211v-480z" />
    <glyph glyph-name="uni0448" unicode="&#x448;" horiz-adv-x="857" 
d="M816 0h-775v480h211v-312h71v312h211v-312h72v312h210v-480z" />
    <glyph glyph-name="uni0449" unicode="&#x449;" horiz-adv-x="909" 
d="M885 -123h-189v123h-655v480h211v-312h71v312h211v-312h72v312h210v-314h69v-289z" />
    <glyph glyph-name="uni044A" unicode="&#x44a;" horiz-adv-x="652" 
d="M339 357h94c65.333 0 115.666 -16.5 150.999 -49.5s53 -75.833 53 -128.5s-17.667 -95.667 -53 -129s-85.666 -50 -150.999 -50h-304v323h-115v157h325v-123zM339 134l35 -0.000976562c17.333 0 30.833 4.16699 40.5 12.5s14.5 19.833 14.5 34.5
s-4.66699 26.334 -14 35.001s-23 13 -41 13h-35v-95z" />
    <glyph glyph-name="uni044B" unicode="&#x44b;" horiz-adv-x="852" 
d="M345 0h-304v480h211v-123h93c65.333 0 115.666 -16.5 150.999 -49.5s53 -75.833 53 -128.5s-17.667 -95.667 -53 -129s-85.666 -50 -150.999 -50zM251 229v-95.001h35c17.333 0 30.833 4.16699 40.5 12.5s14.5 19.833 14.5 34.5s-4.66699 26.334 -14 35.001
s-23 13 -41 13h-35zM811 -0.000976562h-211v480h211v-480z" />
    <glyph glyph-name="uni044C" unicode="&#x44c;" horiz-adv-x="564" 
d="M345 0h-304v480h211v-123h93c65.333 0 115.666 -16.5 150.999 -49.5s53 -75.833 53 -128.5s-17.667 -95.667 -53 -129s-85.666 -50 -150.999 -50zM251 229v-95.001h35c17.333 0 30.833 4.16699 40.5 12.5s14.5 19.833 14.5 34.5s-4.66699 26.334 -14 35.001
s-23 13 -41 13h-35z" />
    <glyph glyph-name="uni044D" unicode="&#x44d;" horiz-adv-x="516" 
d="M495 229c0 -41.333 -8.16797 -78.332 -24.501 -110.999s-38 -58.334 -65 -77.001s-56 -32.834 -87 -42.501s-63.167 -14.5 -96.5 -14.5c-42.667 0 -77.667 3 -105 9s-56.666 17 -87.999 33v149c38.667 -27.333 85.667 -41 141 -41c65.333 0 105.666 15.667 120.999 47
h-179v118h179c-15.333 31.333 -54.666 47 -117.999 47c-52 0 -98.333 -13.667 -139 -41v150c54 27.333 113.333 41 178 41c81.333 0 148.833 -22.667 202.5 -68s80.5 -111.666 80.5 -198.999z" />
    <glyph glyph-name="uni044E" unicode="&#x44e;" horiz-adv-x="852" 
d="M831 240c0 -82.667 -26.167 -145.998 -78.5 -189.998s-118.166 -66 -197.499 -66c-60.667 0 -114.167 15.167 -160.5 45.5s-77.5 74.166 -93.5 131.499h-51v-161h-209v480h209v-161h51c16 57.333 47.167 101.166 93.5 131.499s99.833 45.5 160.5 45.5
c79.333 0 145.166 -22 197.499 -66s78.5 -107.333 78.5 -190zM484 240.002c0 -23.333 5.5 -42.668 16.5 -58.001s28.833 -23 53.5 -23c47.333 0 71 27 71 81s-23.667 81 -71 81c-24.667 0 -42.5 -7.66699 -53.5 -23s-16.5 -34.666 -16.5 -57.999z" />
    <glyph glyph-name="uni044F" unicode="&#x44f;" horiz-adv-x="580" 
d="M228 0l-219.999 -0.000976562l111 153c-28.667 15.333 -50.334 36.333 -65.001 63s-22 55.334 -22 86.001c0 48.667 17.667 90.5 53 125.5s87.333 52.5 156 52.5h298v-480h-198v126h-29zM238.001 293.999c0 -28.667 17.333 -43 52 -43h51v87h-51
c-34.667 0 -52 -14.667 -52 -44z" />
    <glyph glyph-name="uni0451" unicode="&#x451;" horiz-adv-x="547" 
d="M489 614c0 -28.667 -9.16699 -51.834 -27.5 -69.501s-41.5 -26.5 -69.5 -26.5c-27.333 0 -50.166 8.83301 -68.499 26.5s-27.5 40.834 -27.5 69.501s9.16699 51.834 27.5 69.501s41.166 26.5 68.499 26.5c28 0 51.167 -8.83301 69.5 -26.5s27.5 -40.834 27.5 -69.501z
M258 614c0 -28.667 -9.16699 -51.834 -27.5 -69.501s-41.5 -26.5 -69.5 -26.5c-27.333 0 -50.166 8.83301 -68.499 26.5s-27.5 40.834 -27.5 69.501s9.16699 51.834 27.5 69.501s41.166 26.5 68.499 26.5c28 0 51.167 -8.83301 69.5 -26.5s27.5 -40.834 27.5 -69.501z
M21 243c0 44.667 8.33496 84.166 25.002 118.499s38.167 60.833 64.5 79.5s53.833 32.5 82.5 41.5s57.334 13.5 86.001 13.5c41.333 0 78.166 -6.16699 110.499 -18.5s57.666 -28.5 75.999 -48.5s33.166 -43.167 44.499 -69.5s16.833 -53.833 16.5 -82.5
s-2.83301 -57 -7.5 -85h-296c8 -19.333 24.667 -34.166 50 -44.499s54.333 -15.5 87 -15.5c52 0 98 6.33301 138 19v-142c-48.667 -16.667 -107 -25 -175 -25c-54 0 -103 8.33301 -147 25s-80.833 45.167 -110.5 85.5s-44.5 89.833 -44.5 148.5zM348.002 288.999
c2.66699 16.667 -0.666016 32.167 -9.99902 46.5s-25.333 21.5 -48 21.5c-20.667 0 -37.334 -6.33301 -50.001 -19s-19 -29 -19 -49h127z" />
    <glyph glyph-name="Wgrave" unicode="&#x1e80;" horiz-adv-x="1112" 
d="M859 700h249l-211 -700h-248l-93 353l-92 -353h-249l-211 700h248l100 -422l109 422h190l108 -422zM667 752h-183l-122 164h206z" />
    <glyph glyph-name="wgrave" unicode="&#x1e81;" horiz-adv-x="844" 
d="M622 480h215l-148 -480h-205l-62 237l-62 -237h-205l-148 480h215l55 -267l65 267h160l65 -267zM534 532h-183l-122 164h206z" />
    <glyph glyph-name="Wacute" unicode="&#x1e82;" horiz-adv-x="1112" 
d="M859 700h249l-211 -700h-248l-93 353l-92 -353h-249l-211 700h248l100 -422l109 422h190l108 -422zM624 752h-183l98 164h207z" />
    <glyph glyph-name="wacute" unicode="&#x1e83;" horiz-adv-x="844" 
d="M622 480h215l-148 -480h-205l-62 237l-62 -237h-205l-148 480h215l55 -267l65 267h160l65 -267zM491 532h-183l98 164h207z" />
    <glyph glyph-name="Wdieresis" unicode="&#x1e84;" horiz-adv-x="1112" 
d="M859 700h249l-211 -700h-248l-93 353l-92 -353h-249l-211 700h248l100 -422l109 422h190l108 -422zM767 834c0 -28.667 -9.16699 -51.834 -27.5 -69.501s-41.5 -26.5 -69.5 -26.5c-27.333 0 -50.166 8.83301 -68.499 26.5s-27.5 40.834 -27.5 69.501
s9.16699 51.834 27.5 69.501s41.166 26.5 68.499 26.5c28 0 51.167 -8.83301 69.5 -26.5s27.5 -40.834 27.5 -69.501zM536 834c0 -28.667 -9.16699 -51.834 -27.5 -69.501s-41.5 -26.5 -69.5 -26.5c-27.333 0 -50.166 8.83301 -68.499 26.5s-27.5 40.834 -27.5 69.501
s9.16699 51.834 27.5 69.501s41.166 26.5 68.499 26.5c28 0 51.167 -8.83301 69.5 -26.5s27.5 -40.834 27.5 -69.501z" />
    <glyph glyph-name="wdieresis" unicode="&#x1e85;" horiz-adv-x="844" 
d="M622 480h215l-148 -480h-205l-62 237l-62 -237h-205l-148 480h215l55 -267l65 267h160l65 -267zM634 614c0 -28.667 -9.16699 -51.834 -27.5 -69.501s-41.5 -26.5 -69.5 -26.5c-27.333 0 -50.166 8.83301 -68.499 26.5s-27.5 40.834 -27.5 69.501
s9.16699 51.834 27.5 69.501s41.166 26.5 68.499 26.5c28 0 51.167 -8.83301 69.5 -26.5s27.5 -40.834 27.5 -69.501zM403 614c0 -28.667 -9.16699 -51.834 -27.5 -69.501s-41.5 -26.5 -69.5 -26.5c-27.333 0 -50.166 8.83301 -68.499 26.5s-27.5 40.834 -27.5 69.501
s9.16699 51.834 27.5 69.501s41.166 26.5 68.499 26.5c28 0 51.167 -8.83301 69.5 -26.5s27.5 -40.834 27.5 -69.501z" />
    <glyph glyph-name="Ygrave" unicode="&#x1ef2;" horiz-adv-x="753" 
d="M491 0h-229v239l-266 461h261l120 -265l120 265h261l-267 -461v-239zM485 752h-183l-122 164h206z" />
    <glyph glyph-name="ygrave" unicode="&#x1ef3;" horiz-adv-x="604" 
d="M313 217l72.998 263h214l-183 -509c-49.333 -137.333 -134.666 -206 -255.999 -206c-31.333 0 -66.333 5.66699 -105 17v170c25.333 -6.66699 49 -10 71 -10c40.667 0 70.334 18.333 89.001 55l-220 483h218zM406.998 532h-183l-122 164h206z" />
    <glyph glyph-name="endash" unicode="&#x2013;" horiz-adv-x="585" 
d="M540 159h-495v163h495v-163z" />
    <glyph glyph-name="emdash" unicode="&#x2014;" horiz-adv-x="791" 
d="M746 159h-701v163h701v-163z" />
    <glyph glyph-name="quoteleft" unicode="&#x2018;" horiz-adv-x="297" 
d="M214 393h-203l116 307h157z" />
    <glyph glyph-name="quoteright" unicode="&#x2019;" horiz-adv-x="292" 
d="M178 393h-158l71 307h202z" />
    <glyph glyph-name="quotesinglbase" unicode="&#x201a;" horiz-adv-x="286" 
d="M146 -143h-158l71 307h202z" />
    <glyph glyph-name="quotedblleft" unicode="&#x201c;" horiz-adv-x="534" 
d="M451 393h-203l116 307h157zM214 393h-203l116 307h157z" />
    <glyph glyph-name="quotedblright" unicode="&#x201d;" horiz-adv-x="529" 
d="M415 393h-158l71 307h202zM178 393h-158l71 307h202z" />
    <glyph glyph-name="quotedblbase" unicode="&#x201e;" horiz-adv-x="523" 
d="M383 -143h-158l71 307h202zM146 -143h-158l71 307h202z" />
    <glyph glyph-name="dagger" unicode="&#x2020;" horiz-adv-x="573" 
d="M402 -220h-230v497h-147v203h147v220h230v-220h146v-203h-146v-497z" />
    <glyph glyph-name="daggerdbl" unicode="&#x2021;" horiz-adv-x="625" 
d="M428 -220h-231v187h-157v196h157v121h-157v196h157v220h231v-220h157v-196h-157v-121h157v-196h-157v-187z" />
    <glyph glyph-name="bullet" unicode="&#x2022;" horiz-adv-x="437" 
d="M48 350c0 54 16.333 94.668 49 122.001s73 41 121 41c49.333 0 90 -13.667 122 -41s48 -68 48 -122c0 -54.667 -16 -95.834 -48 -123.501s-72.667 -41.5 -122 -41.5c-48 0 -88.333 14 -121 42s-49 69 -49 123z" />
    <glyph glyph-name="ellipsis" unicode="&#x2026;" horiz-adv-x="886" 
d="M861 97c0 -36.667 -11.167 -64.667 -33.5 -84s-50.166 -29 -83.499 -29s-61.166 9.66699 -83.499 29s-33.5 47.333 -33.5 84s11.167 64.667 33.5 84s50.166 29 83.499 29s61.166 -9.66699 83.499 -29s33.5 -47.333 33.5 -84zM259 97c0 -36.667 -11.167 -64.667 -33.5 -84
s-50.166 -29 -83.499 -29s-61.166 9.66699 -83.499 29s-33.5 47.333 -33.5 84s11.167 64.667 33.5 84s50.166 29 83.499 29s61.166 -9.66699 83.499 -29s33.5 -47.333 33.5 -84zM560 97c0 -36.667 -11.167 -64.667 -33.5 -84s-50.166 -29 -83.499 -29
s-61.166 9.66699 -83.499 29s-33.5 47.333 -33.5 84s11.167 64.667 33.5 84s50.166 29 83.499 29s61.166 -9.66699 83.499 -29s33.5 -47.333 33.5 -84z" />
    <glyph glyph-name="perthousand" unicode="&#x2030;" horiz-adv-x="1401" 
d="M341 -60h-127l409 820h127zM428 526c0 -61.333 -19.167 -108.333 -57.5 -141s-86.5 -49 -144.5 -49c-58.667 0 -107.167 16.333 -145.5 49s-57.5 79.667 -57.5 141s19.167 108.333 57.5 141s86.833 49 145.5 49c58 0 106.167 -16.333 144.5 -49s57.5 -79.667 57.5 -141z
M176 526c0 -34.667 16.333 -52 49 -52s49 17.333 49 52s-16.333 52 -49 52s-49 -17.333 -49 -52zM938 174c0 -61.333 -19.167 -108.333 -57.5 -141s-86.833 -49 -145.5 -49c-58 0 -106.167 16.333 -144.5 49s-57.5 79.667 -57.5 141s19.167 108.5 57.5 141.5
s86.5 49.5 144.5 49.5s106.333 -16.5 145 -49.5s58 -80.167 58 -141.5zM686 174c0 -34.667 16.333 -52 49 -52s49 17.333 49 52c0 35.333 -16.333 53 -49 53s-49 -17.667 -49 -53zM1378 174c0 -60.667 -19.333 -107.5 -58 -140.5s-87 -49.5 -145 -49.5
c-57.333 0 -105.333 16.667 -144 50s-58 80 -58 140c0 60.667 19.333 107.667 58 141s86.667 50 144 50c58 0 106.333 -16.667 145 -50s58 -80.333 58 -141zM1125 174c0 -34.667 16.333 -52 49 -52s49 17.333 49 52c0 35.333 -16.333 53 -49 53s-49 -17.667 -49 -53z" />
    <glyph glyph-name="guilsinglleft" unicode="&#x2039;" horiz-adv-x="392" 
d="M370 32h-210l-136 190v36l136 190h210l-146 -208z" />
    <glyph glyph-name="guilsinglright" unicode="&#x203a;" horiz-adv-x="392" 
d="M233 32h-211l147 208l-147 208h211l135 -190v-36z" />
    <glyph glyph-name="fraction" unicode="&#x2044;" horiz-adv-x="194" 
d="M-105 -16h-60l462 732h60z" />
    <glyph glyph-name="Euro" unicode="&#x20ac;" horiz-adv-x="722" 
d="M673 26c-62 -28 -128.668 -42.001 -200.001 -42.001c-58 0 -111.333 8.33301 -160 25s-91.834 44.334 -129.501 83.001s-63.5 86 -77.5 142h-79v89h66v17v17h-66v89h79c20.667 82.667 64.334 145 131.001 187s143.334 63 230.001 63c75.333 0 144 -14 206 -42v-200
c-46 32 -101.333 48 -166 48c-62 0 -109.333 -18.667 -142 -56h189v-89h-222c-0.666992 -3.33301 -1 -9 -1 -17s0.333008 -13.667 1 -17h222v-89h-188c31.333 -35.333 77 -53 137 -53c76 0 132.667 16.667 170 50v-205z" />
    <glyph glyph-name="trademark" unicode="&#x2122;" horiz-adv-x="699" 
d="M408 437h-109v263h100l75 -108l74 108h101v-263h-110v112l-37 -55h-57l-37 55v-112zM210 437h-115v161h-66v102h247v-102h-66v-161z" />
    <glyph glyph-name="oneeighth" unicode="&#x215b;" horiz-adv-x="918" 
d="M543 296c0 32.667 14.168 61.167 42.501 85.5s70.166 36.5 125.499 36.5c53.333 0 94.5 -11.833 123.5 -35.5s43.5 -50.834 43.5 -81.501c-0.666992 -34 -17.667 -62 -51 -84c44 -24 66 -58 66 -102c0 -35.333 -15.333 -65 -46 -89s-76.667 -36 -138 -36
c-62 0 -107.667 11.667 -137 35s-44 52 -44 86c0 21.333 5.66699 40.833 17 58.5s25.333 30.834 42 39.501c-29.333 23.333 -44 52.333 -44 87zM718.001 154c-18.667 5.33301 -32.667 9.66699 -42 13c-8.66699 -10.667 -13 -23 -13 -37c1.33301 -26 19 -39 53 -39
c28 0 42 9.33301 42 28c0 8.66699 -3.33301 15.5 -10 20.5s-16.667 9.83301 -30 14.5zM750.001 288.001c-1.33301 19.333 -15.667 29 -43 29c-11.333 0 -20.333 -2.5 -27 -7.5s-10 -10.833 -10 -17.5c0 -13.333 14.333 -24.333 43 -33
c2 -0.666992 6.16699 -2.16699 12.5 -4.5s10.833 -3.83301 13.5 -4.5c8 13.333 11.667 26 11 38zM245 -15.999h-60l462 732h60zM148 680.001h101v-295h69v-113h-281v113h78v164l-74 -25v118z" />
    <glyph glyph-name="threeeighths" unicode="&#x215c;" horiz-adv-x="927" 
d="M552 296c0 32.667 14.168 61.167 42.501 85.5s70.166 36.5 125.499 36.5c53.333 0 94.5 -11.833 123.5 -35.5s43.5 -50.834 43.5 -81.501c-0.666992 -34 -17.667 -62 -51 -84c44 -24 66 -58 66 -102c0 -35.333 -15.333 -65 -46 -89s-76.667 -36 -138 -36
c-62 0 -107.667 11.667 -137 35s-44 52 -44 86c0 21.333 5.66699 40.833 17 58.5s25.333 30.834 42 39.501c-29.333 23.333 -44 52.333 -44 87zM727.001 154c-18.667 5.33301 -32.667 9.66699 -42 13c-8.66699 -10.667 -13 -23 -13 -37c1.33301 -26 19 -39 53 -39
c28 0 42 9.33301 42 28c0 8.66699 -3.33301 15.5 -10 20.5s-16.667 9.83301 -30 14.5zM759.001 288.001c-1.33301 19.333 -15.667 29 -43 29c-11.333 0 -20.333 -2.5 -27 -7.5s-10 -10.833 -10 -17.5c0 -13.333 14.333 -24.333 43 -33
c2 -0.666992 6.16699 -2.16699 12.5 -4.5s10.833 -3.83301 13.5 -4.5c8 13.333 11.667 26 11 38zM258 -15.999h-60l462 732h60zM339 580.001c0 -44.667 -21.666 -73.998 -64.999 -87.998c24 -6.66699 43.667 -18.334 59 -35.001s23 -38.334 23 -65.001
c0 -42.667 -16.5 -73.834 -49.5 -93.501s-74.5 -29.5 -124.5 -29.5c-48 0 -97.333 9.33301 -148 28v119c43.333 -23.333 89 -34.333 137 -33c35.333 0 53 9.66699 53 29c0 15.333 -12 23 -36 23h-72l1 103l58 -1c22 0 33 6.66699 33 20c0 16.667 -16 25 -48 25
c-42.667 0 -82.334 -12.333 -119.001 -37v116c40.667 24 87.667 36 141 36c45.333 0 82.833 -9.66699 112.5 -29s44.5 -48.666 44.5 -87.999z" />
    <glyph glyph-name="fiveeighths" unicode="&#x215d;" horiz-adv-x="926" 
d="M551 296c0 32.667 14.168 61.167 42.501 85.5s70.166 36.5 125.499 36.5c53.333 0 94.5 -11.833 123.5 -35.5s43.5 -50.834 43.5 -81.501c-0.666992 -34 -17.667 -62 -51 -84c44 -24 66 -58 66 -102c0 -35.333 -15.333 -65 -46 -89s-76.667 -36 -138 -36
c-62 0 -107.667 11.667 -137 35s-44 52 -44 86c0 21.333 5.66699 40.833 17 58.5s25.333 30.834 42 39.501c-29.333 23.333 -44 52.333 -44 87zM726.001 154c-18.667 5.33301 -32.667 9.66699 -42 13c-8.66699 -10.667 -13 -23 -13 -37c1.33301 -26 19 -39 53 -39
c28 0 42 9.33301 42 28c0 8.66699 -3.33301 15.5 -10 20.5s-16.667 9.83301 -30 14.5zM758.001 288.001c-1.33301 19.333 -15.667 29 -43 29c-11.333 0 -20.333 -2.5 -27 -7.5s-10 -10.833 -10 -17.5c0 -13.333 14.333 -24.333 43 -33
c2 -0.666992 6.16699 -2.16699 12.5 -4.5s10.833 -3.83301 13.5 -4.5c8 13.333 11.667 26 11 38zM257 -15.999h-60l462 732h60zM60 680.001l278 0.000976562v-114h-156l-4 -41c12 2 24 3 36 3c41.333 0 75.166 -10.167 101.499 -30.5s39.5 -52.5 39.5 -96.5
c0 -48.667 -18 -84.334 -54 -107.001s-80.333 -34 -133 -34c-51.333 0 -96.666 9.33301 -135.999 28v113c30 -19.333 67.667 -29 113 -29c48 0 72 12.333 72 37s-27 37 -81 37c-34 0 -64 -4 -90 -12z" />
    <glyph glyph-name="seveneighths" unicode="&#x215e;" horiz-adv-x="865" 
d="M186 -16h-60l462 732h60zM490 296c0 32.667 14.168 61.167 42.501 85.5s70.166 36.5 125.499 36.5c53.333 0 94.5 -11.833 123.5 -35.5s43.5 -50.834 43.5 -81.501c-0.666992 -34 -17.667 -62 -51 -84c44 -24 66 -58 66 -102c0 -35.333 -15.333 -65 -46 -89
s-76.667 -36 -138 -36c-62 0 -107.667 11.667 -137 35s-44 52 -44 86c0 21.333 5.66699 40.833 17 58.5s25.333 30.834 42 39.501c-29.333 23.333 -44 52.333 -44 87zM665.001 154c-18.667 5.33301 -32.667 9.66699 -42 13c-8.66699 -10.667 -13 -23 -13 -37
c1.33301 -26 19 -39 53 -39c28 0 42 9.33301 42 28c0 8.66699 -3.33301 15.5 -10 20.5s-16.667 9.83301 -30 14.5zM697.001 288.001c-1.33301 19.333 -15.667 29 -43 29c-11.333 0 -20.333 -2.5 -27 -7.5s-10 -10.833 -10 -17.5c0 -13.333 14.333 -24.333 43 -33
c2 -0.666992 6.16699 -2.16699 12.5 -4.5s10.833 -3.83301 13.5 -4.5c8 13.333 11.667 26 11 38zM209 270.001h-150l136 296h-167v114h328v-89z" />
    <glyph glyph-name="partialdiff" unicode="&#x2202;" horiz-adv-x="577" 
d="M551 302c0 -102.667 -23.832 -181.333 -71.499 -236s-116.5 -82 -206.5 -82c-75.333 0 -136 21.667 -182 65s-69 100 -69 170c0 71.333 18.833 126.5 56.5 165.5s84.167 58.5 139.5 58.5c58 0 103 -18 135 -54c0 12.667 -3.66699 25.667 -11 39
c-14 35.333 -41.833 63 -83.5 83s-94.834 27 -159.501 21v184c144.667 2.66699 256.167 -32.333 334.5 -105s117.5 -175.667 117.5 -309zM224.001 217.001c0 -46.667 21.001 -70 63.001 -70c41.333 0 62 23.333 62 70c0 19.333 -4.66699 36 -14 50s-25.333 21 -48 21
s-38.834 -7 -48.501 -21s-14.5 -30.667 -14.5 -50z" />
    <glyph glyph-name="emptyset" unicode="&#x2205;" horiz-adv-x="796" 
d="M754 700l-86 -101c64 -70.667 96 -153.667 96 -249c0 -101.333 -35.667 -187.666 -107 -258.999s-157.666 -107 -258.999 -107c-74.667 0 -142.667 20.667 -204 62l-40 -46h-111l86 101c-64.667 70 -97 153 -97 249c0 101.333 35.667 187.666 107 258.999
s157.666 107 258.999 107c74 0 142.333 -20.667 205 -62l40 46h111zM398 612c-72.667 0 -134.501 -25.501 -185.501 -76.501s-76.5 -112.833 -76.5 -185.5c0 -63.333 20.333 -119.666 61 -168.999l337 393c-41.333 25.333 -86.666 38 -135.999 38zM261.999 125.999
c42 -25.333 87.333 -37.999 136 -37.999c72.667 0 134.5 25.5 185.5 76.5s76.5 112.833 76.5 185.5c0 63.333 -20.333 119.666 -61 168.999z" />
    <glyph glyph-name="product" unicode="&#x220f;" horiz-adv-x="824" 
d="M339 -220h-230v727h-81v193h767v-193h-80v-727h-231v727h-145v-727z" />
    <glyph glyph-name="summation" unicode="&#x2211;" horiz-adv-x="597" 
d="M558 0h-525v124l200 226l-200 226v124h516v-202h-206l113 -128v-40l-113 -128h215v-202z" />
    <glyph glyph-name="minus" unicode="&#x2212;" horiz-adv-x="519" 
d="M471 267h-423v168h423v-168z" />
    <glyph glyph-name="radical" unicode="&#x221a;" horiz-adv-x="808" 
d="M447 0h-185l-132 277h-112v203h242l93 -227l233 527h240z" />
    <glyph glyph-name="infinity" unicode="&#x221e;" horiz-adv-x="894" 
d="M446 479c60 67.333 126.334 101 199.001 101c61.333 0 112.333 -19.833 153 -59.5s61 -93.834 61 -162.501s-20.333 -122.834 -61 -162.501s-91.667 -59.5 -153 -59.5c-72.667 0 -138.334 33.667 -197.001 101c-60 -67.333 -126.333 -101 -199 -101
c-61.333 0 -112.333 19.833 -153 59.5s-61 93.834 -61 162.501s20.333 122.834 61 162.501s91.667 59.5 153 59.5c73.333 0 139 -33.667 197 -101zM356.001 359c-26.667 34.667 -53.667 52 -81 52c-13.333 0 -25 -4.66699 -35 -14s-15 -22.333 -15 -39s5 -29.667 15 -39
s21.667 -14 35 -14c27.333 0 54.333 18 81 54zM669.001 358c0 16.667 -5 29.667 -15 39s-21.667 14 -35 14c-27.333 0 -54.333 -18 -81 -54c26.667 -34.667 53.667 -52 81 -52c13.333 0 25 4.66699 35 14s15 22.333 15 39z" />
    <glyph glyph-name="integral" unicode="&#x222b;" horiz-adv-x="503" 
d="M146 584c0 40 6.33301 74.333 19 103s30.167 50.667 52.5 66s45.833 26.333 70.5 33s51.334 10 80.001 10c49.333 0 92.333 -7 129 -21v-176c-28 9.33301 -53 14 -75 14c-18.667 0 -34.167 -5.5 -46.5 -16.5s-18.5 -27.833 -18.5 -50.5v-570
c0 -40 -6.33301 -74.333 -19 -103s-30.167 -50.667 -52.5 -66s-45.833 -26.333 -70.5 -33s-51.667 -10 -81 -10c-48.667 0 -91.334 7 -128.001 21v176c28 -9.33301 53 -14 75 -14c18 0 33.333 5.5 46 16.5s19 27.833 19 50.5v570z" />
    <glyph glyph-name="approxequal" unicode="&#x2248;" horiz-adv-x="620" 
d="M571 576c9.33301 -68 0.666016 -119.167 -26.001 -153.5s-65.334 -51.5 -116.001 -51.5c-27.333 0 -64.166 8 -110.499 24s-73.5 24 -81.5 24c-18 0 -25 -13.667 -21 -41h-166c-9.33301 68.667 -0.5 120.167 26.5 154.5s64.833 51.5 113.5 51.5
c29.333 0 66.833 -8 112.5 -24s72.834 -24 81.501 -24c18 0 25 13.333 21 40h166zM571 341c9.33301 -68 0.666016 -119.167 -26.001 -153.5s-65.334 -51.5 -116.001 -51.5c-27.333 0 -64.166 8 -110.499 24s-73.5 24 -81.5 24c-18 0 -25 -13.667 -21 -41h-166
c-9.33301 68.667 -0.5 120.167 26.5 154.5s64.833 51.5 113.5 51.5c29.333 0 66.833 -8 112.5 -24s72.834 -24 81.501 -24c18 0 25 13.333 21 40h166z" />
    <glyph glyph-name="notequal" unicode="&#x2260;" horiz-adv-x="627" 
d="M217 56h-120l53 100h-88v162h174l34 64h-208v162h294l53 100h120l-53 -100h89v-162h-175l-34 -64h209v-162h-295z" />
    <glyph glyph-name="lessequal" unicode="&#x2264;" horiz-adv-x="522" 
d="M469 363v-182l-425 128v211l425 129v-183l-260 -51zM469 0h-425v163h425v-163z" />
    <glyph glyph-name="greaterequal" unicode="&#x2265;" horiz-adv-x="524" 
d="M479 314l-425 -129v183l260 51l-260 51v183l425 -129v-210zM479 0h-425v163h425v-163z" />
    <glyph glyph-name="lozenge" unicode="&#x25ca;" horiz-adv-x="626" 
d="M431 0h-236l-170 350l170 350h236l170 -350zM231 350l82 -165l82 165l-82 165z" />
    <glyph glyph-name=".null" horiz-adv-x="0" 
 />
    <glyph glyph-name="nonmarkingreturn" horiz-adv-x="333" 
 />
    <glyph glyph-name="i.loclTRK" horiz-adv-x="293" 
d="M41 480h211v-480h-211v480zM45 619c0 32 9.66699 56.333 29 73s43.666 25 72.999 25s53.666 -8.33301 72.999 -25s29 -41 29 -73c0 -32.667 -9.66699 -57.334 -29 -74.001s-43.666 -25 -72.999 -25s-53.666 8.33301 -72.999 25s-29 41.334 -29 74.001z" />
    <glyph glyph-name="a.ss01" horiz-adv-x="625" 
d="M399 58c-38 -49.333 -90 -74 -156 -74c-72.667 0 -127.667 24.667 -165 74s-56 110 -56 182s18.667 132.667 56 182s92.333 74 165 74c66 0 118 -24.667 156 -74v58h185v-480h-185v58zM240 240c0 -24 6.16699 -44.5 18.5 -61.5s30.5 -25.5 54.5 -25.5
c28 0 48.667 11.333 62 34v106c-13.333 22.667 -34 34 -62 34c-24 0 -42.167 -8.5 -54.5 -25.5s-18.5 -37.5 -18.5 -61.5z" />
    <glyph glyph-name="aacute.ss01" horiz-adv-x="625" 
d="M399 58c-38 -49.333 -90 -74 -156 -74c-72.667 0 -127.667 24.667 -165 74s-56 110 -56 182s18.667 132.667 56 182s92.333 74 165 74c66 0 118 -24.667 156 -74v58h185v-480h-185v58zM240 240c0 -24 6.16699 -44.5 18.5 -61.5s30.5 -25.5 54.5 -25.5
c28 0 48.667 11.333 62 34v106c-13.333 22.667 -34 34 -62 34c-24 0 -42.167 -8.5 -54.5 -25.5s-18.5 -37.5 -18.5 -61.5zM384 532h-183l98 164h207z" />
    <glyph glyph-name="abreve.ss01" horiz-adv-x="625" 
d="M399 58c-38 -49.333 -90 -74 -156 -74c-72.667 0 -127.667 24.667 -165 74s-56 110 -56 182s18.667 132.667 56 182s92.333 74 165 74c66 0 118 -24.667 156 -74v58h185v-480h-185v58zM240 240c0 -24 6.16699 -44.5 18.5 -61.5s30.5 -25.5 54.5 -25.5
c28 0 48.667 11.333 62 34v106c-13.333 22.667 -34 34 -62 34c-24 0 -42.167 -8.5 -54.5 -25.5s-18.5 -37.5 -18.5 -61.5zM496 572c-51.333 -34 -111.668 -51 -181.001 -51s-129.666 17 -180.999 51v143c50 -30.667 110.333 -46 181 -46s131 15.333 181 46v-143z" />
    <glyph glyph-name="acircumflex.ss01" horiz-adv-x="625" 
d="M399 58c-38 -49.333 -90 -74 -156 -74c-72.667 0 -127.667 24.667 -165 74s-56 110 -56 182s18.667 132.667 56 182s92.333 74 165 74c66 0 118 -24.667 156 -74v58h185v-480h-185v58zM240 240c0 -24 6.16699 -44.5 18.5 -61.5s30.5 -25.5 54.5 -25.5
c28 0 48.667 11.333 62 34v106c-13.333 22.667 -34 34 -62 34c-24 0 -42.167 -8.5 -54.5 -25.5s-18.5 -37.5 -18.5 -61.5zM221 698h185l128 -171h-175l-45 57l-45 -57h-176z" />
    <glyph glyph-name="adieresis.ss01" horiz-adv-x="625" 
d="M399 58c-38 -49.333 -90 -74 -156 -74c-72.667 0 -127.667 24.667 -165 74s-56 110 -56 182s18.667 132.667 56 182s92.333 74 165 74c66 0 118 -24.667 156 -74v58h185v-480h-185v58zM240 240c0 -24 6.16699 -44.5 18.5 -61.5s30.5 -25.5 54.5 -25.5
c28 0 48.667 11.333 62 34v106c-13.333 22.667 -34 34 -62 34c-24 0 -42.167 -8.5 -54.5 -25.5s-18.5 -37.5 -18.5 -61.5zM527 614c0 -28.667 -9.16699 -51.834 -27.5 -69.501s-41.5 -26.5 -69.5 -26.5c-27.333 0 -50.166 8.83301 -68.499 26.5s-27.5 40.834 -27.5 69.501
s9.16699 51.834 27.5 69.501s41.166 26.5 68.499 26.5c28 0 51.167 -8.83301 69.5 -26.5s27.5 -40.834 27.5 -69.501zM296 614c0 -28.667 -9.16699 -51.834 -27.5 -69.501s-41.5 -26.5 -69.5 -26.5c-27.333 0 -50.166 8.83301 -68.499 26.5s-27.5 40.834 -27.5 69.501
s9.16699 51.834 27.5 69.501s41.166 26.5 68.499 26.5c28 0 51.167 -8.83301 69.5 -26.5s27.5 -40.834 27.5 -69.501z" />
    <glyph glyph-name="agrave.ss01" horiz-adv-x="625" 
d="M399 58c-38 -49.333 -90 -74 -156 -74c-72.667 0 -127.667 24.667 -165 74s-56 110 -56 182s18.667 132.667 56 182s92.333 74 165 74c66 0 118 -24.667 156 -74v58h185v-480h-185v58zM240 240c0 -24 6.16699 -44.5 18.5 -61.5s30.5 -25.5 54.5 -25.5
c28 0 48.667 11.333 62 34v106c-13.333 22.667 -34 34 -62 34c-24 0 -42.167 -8.5 -54.5 -25.5s-18.5 -37.5 -18.5 -61.5zM427 532h-183l-122 164h206z" />
    <glyph glyph-name="amacron.ss01" horiz-adv-x="625" 
d="M399 58c-38 -49.333 -90 -74 -156 -74c-72.667 0 -127.667 24.667 -165 74s-56 110 -56 182s18.667 132.667 56 182s92.333 74 165 74c66 0 118 -24.667 156 -74v58h185v-480h-185v58zM240 240c0 -24 6.16699 -44.5 18.5 -61.5s30.5 -25.5 54.5 -25.5
c28 0 48.667 11.333 62 34v106c-13.333 22.667 -34 34 -62 34c-24 0 -42.167 -8.5 -54.5 -25.5s-18.5 -37.5 -18.5 -61.5zM134 678h363v-145h-363v145z" />
    <glyph glyph-name="aogonek.ss01" horiz-adv-x="625" 
d="M584 480v-480.001c-36.667 -26.667 -55 -52 -55 -76c0 -15.333 8.66699 -23 26 -23c8 0 16.333 1.66699 25 5v-126c-28 -10.667 -60.667 -16 -98 -16c-41.333 0 -73 10 -95 30s-32.667 45 -32 75c0 22.667 7.33301 45.834 22 69.501s34 44.167 58 61.5h-36v58
c-38 -49.333 -90 -74 -156 -74c-72.667 0 -127.667 24.667 -165 74s-56 110 -56 182s18.667 132.667 56 182s92.333 74 165 74c66 0 118 -24.667 156 -74v58h185zM313 152.999c28 0 48.667 11.333 62 34v106c-13.333 22.667 -34 34 -62 34c-24 0 -42.167 -8.5 -54.5 -25.5
s-18.5 -37.5 -18.5 -61.5s6.16699 -44.5 18.5 -61.5s30.5 -25.5 54.5 -25.5z" />
    <glyph glyph-name="aring.ss01" horiz-adv-x="625" 
d="M399 58c-38 -49.333 -90 -74 -156 -74c-72.667 0 -127.667 24.667 -165 74s-56 110 -56 182s18.667 132.667 56 182s92.333 74 165 74c66 0 118 -24.667 156 -74v58h185v-480h-185v58zM240 240c0 -24 6.16699 -44.5 18.5 -61.5s30.5 -25.5 54.5 -25.5
c28 0 48.667 11.333 62 34v106c-13.333 22.667 -34 34 -62 34c-24 0 -42.167 -8.5 -54.5 -25.5s-18.5 -37.5 -18.5 -61.5zM458 637c0 -42 -13.499 -74.498 -40.499 -97.498s-60.833 -34.5 -101.5 -34.5c-40 0 -73.5 11.667 -100.5 35s-40.5 55.666 -40.5 96.999
c0 39.333 13.667 70.666 41 93.999s60.666 35 99.999 35c40.667 0 74.5 -11.5 101.5 -34.5s40.5 -54.5 40.5 -94.5zM283.001 636.002c0 -10 3 -18.333 9 -25s14.333 -10 25 -10s19 3.33301 25 10s9 15 9 25c0 22.667 -11.333 34 -34 34s-34 -11.333 -34 -34z" />
    <glyph glyph-name="atilde.ss01" horiz-adv-x="625" 
d="M399 58c-38 -49.333 -90 -74 -156 -74c-72.667 0 -127.667 24.667 -165 74s-56 110 -56 182s18.667 132.667 56 182s92.333 74 165 74c66 0 118 -24.667 156 -74v58h185v-480h-185v58zM240 240c0 -24 6.16699 -44.5 18.5 -61.5s30.5 -25.5 54.5 -25.5
c28 0 48.667 11.333 62 34v106c-13.333 22.667 -34 34 -62 34c-24 0 -42.167 -8.5 -54.5 -25.5s-18.5 -37.5 -18.5 -61.5zM514 694c12.667 -48.667 7.83301 -90.833 -14.5 -126.5s-55.5 -53.5 -99.5 -53.5c-25.333 0 -52.666 7 -81.999 21s-47.333 21 -54 21
c-9.33301 0 -15.5 -4 -18.5 -12s-3.16699 -16 -0.5 -24h-133c-13.333 49.333 -8.83301 91.666 13.5 126.999s55.833 53 100.5 53c25.333 0 52.666 -7 81.999 -21s47 -21 53 -21c10 0 16.333 3.83301 19 11.5s3 15.834 1 24.501h133z" />
    <glyph glyph-name="ae.ss01" horiz-adv-x="919" 
d="M399 58c-38 -49.333 -90 -74.001 -156 -74.001c-72.667 0 -127.667 24.667 -165 74s-56 110 -56 182s18.667 132.667 56 182s92.333 74 165 74c66 0 118 -24.667 156 -74v58h175v-53c34 46 80.333 69 139 69c33.333 0 62.5 -6.16699 87.5 -18.5
s44.5 -28.666 58.5 -48.999s24.5 -44 31.5 -71s10.167 -54.5 9.5 -82.5s-4 -56.333 -10 -85h-296c8 -18.667 24.667 -33 50 -43s54 -15 86 -15c50.667 0 91.667 6 123 18v-142c-34 -16 -73 -24 -117 -24c-68.667 0 -122.667 25 -162 75v-59h-175v58zM240 239.999
c0 -24 6.16699 -44.5 18.5 -61.5s30.5 -25.5 54.5 -25.5c28 0 48.667 11.333 62 34v106c-13.333 22.667 -34 34 -62 34c-24 0 -42.167 -8.5 -54.5 -25.5s-18.5 -37.5 -18.5 -61.5zM660 356.999c-20.667 0 -37.334 -6.50098 -50.001 -19.501s-19 -29.5 -19 -49.5h127
c2.66699 16.667 -0.666016 32.334 -9.99902 47.001s-25.333 22 -48 22z" />
    <glyph glyph-name="y.ss01" 
d="M554 22c0 -84.667 -27.167 -148.832 -81.5 -192.499s-122.5 -65.5 -204.5 -65.5c-80.667 0 -150 11.333 -208 34v177c44 -26.667 98.667 -40 164 -40c79.333 0 119 27.333 119 82v20c-36 -28 -76.667 -42 -122 -42c-61.333 0 -107.5 18.167 -138.5 54.5
s-46.5 80.166 -46.5 131.499v299h211v-274c0 -30.667 15.333 -46 46 -46c20 0 36.667 8 50 24v296h211v-458z" />
    <glyph glyph-name="yacute.ss01" 
d="M554 22c0 -84.667 -27.167 -148.832 -81.5 -192.499s-122.5 -65.5 -204.5 -65.5c-80.667 0 -150 11.333 -208 34v177c44 -26.667 98.667 -40 164 -40c79.333 0 119 27.333 119 82v20c-36 -28 -76.667 -42 -122 -42c-61.333 0 -107.5 18.167 -138.5 54.5
s-46.5 80.166 -46.5 131.499v299h211v-274c0 -30.667 15.333 -46 46 -46c20 0 36.667 8 50 24v296h211v-458zM365 532.002h-183l98 164h207z" />
    <glyph glyph-name="ycircumflex.ss01" 
d="M554 22c0 -84.667 -27.167 -148.832 -81.5 -192.499s-122.5 -65.5 -204.5 -65.5c-80.667 0 -150 11.333 -208 34v177c44 -26.667 98.667 -40 164 -40c79.333 0 119 27.333 119 82v20c-36 -28 -76.667 -42 -122 -42c-61.333 0 -107.5 18.167 -138.5 54.5
s-46.5 80.166 -46.5 131.499v299h211v-274c0 -30.667 15.333 -46 46 -46c20 0 36.667 8 50 24v296h211v-458zM202 698.002h185l128 -171h-175l-45 57l-45 -57h-176z" />
    <glyph glyph-name="ydieresis.ss01" 
d="M554 22c0 -84.667 -27.167 -148.832 -81.5 -192.499s-122.5 -65.5 -204.5 -65.5c-80.667 0 -150 11.333 -208 34v177c44 -26.667 98.667 -40 164 -40c79.333 0 119 27.333 119 82v20c-36 -28 -76.667 -42 -122 -42c-61.333 0 -107.5 18.167 -138.5 54.5
s-46.5 80.166 -46.5 131.499v299h211v-274c0 -30.667 15.333 -46 46 -46c20 0 36.667 8 50 24v296h211v-458zM508 614.002c0 -28.667 -9.16699 -51.834 -27.5 -69.501s-41.5 -26.5 -69.5 -26.5c-27.333 0 -50.166 8.83301 -68.499 26.5s-27.5 40.834 -27.5 69.501
s9.16699 51.834 27.5 69.501s41.166 26.5 68.499 26.5c28 0 51.167 -8.83301 69.5 -26.5s27.5 -40.834 27.5 -69.501zM277 614.002c0 -28.667 -9.16699 -51.834 -27.5 -69.501s-41.5 -26.5 -69.5 -26.5c-27.333 0 -50.166 8.83301 -68.499 26.5s-27.5 40.834 -27.5 69.501
s9.16699 51.834 27.5 69.501s41.166 26.5 68.499 26.5c28 0 51.167 -8.83301 69.5 -26.5s27.5 -40.834 27.5 -69.501z" />
    <glyph glyph-name="ygrave.ss01" 
d="M554 22c0 -84.667 -27.167 -148.832 -81.5 -192.499s-122.5 -65.5 -204.5 -65.5c-80.667 0 -150 11.333 -208 34v177c44 -26.667 98.667 -40 164 -40c79.333 0 119 27.333 119 82v20c-36 -28 -76.667 -42 -122 -42c-61.333 0 -107.5 18.167 -138.5 54.5
s-46.5 80.166 -46.5 131.499v299h211v-274c0 -30.667 15.333 -46 46 -46c20 0 36.667 8 50 24v296h211v-458zM408 532.002h-183l-122 164h206z" />
    <glyph glyph-name="f_b" horiz-adv-x="1028" 
d="M655 451c33.333 30 76.999 45 130.999 45c72 0 126.667 -24.667 164 -74s56 -110 56 -182s-18.667 -132.667 -56 -182s-92 -74 -164 -74c-65.333 0 -117.666 24.667 -156.999 74v-58h-185v538c-24.667 8.66699 -47.334 12.667 -68.001 12c-22 0 -39.667 -4.66699 -53 -14
s-20 -23.333 -20 -42v-14h89v-168h-89v-312h-211v312h-68v168h68v26c0 69.333 21.333 122.5 64 159.5s97.334 55.5 164.001 55.5c51.333 0 102.333 -9 153 -27l182 20v-263zM654.999 187c13.333 -22.667 34 -34 62 -34c24 0 42.167 8.5 54.5 25.5s18.5 37.5 18.5 61.5
s-6.16699 44.5 -18.5 61.5s-30.5 25.5 -54.5 25.5c-14 0 -26.667 -3.33301 -38 -10s-19.333 -14.667 -24 -24v-106z" />
    <glyph glyph-name="f_f_b" horiz-adv-x="1377" 
d="M1004 451c33.333 30 77.002 45 131.002 45c72 0 126.667 -24.667 164 -74s56 -110 56 -182s-18.667 -132.667 -56 -182s-92 -74 -164 -74c-65.333 0 -117.666 24.667 -156.999 74v-58h-185v548c-24.667 8.66699 -47.334 12.667 -68.001 12c-48.667 0 -73 -20.333 -73 -61
v-19h89v-168h-89v-312h-211v312h-138v-312h-211v312h-68v168h68v23c0 67.333 21.667 118.333 65 153s97.666 52 162.999 52c61.333 0 120.666 -13.333 177.999 -40c41.333 42 98.333 63 171 63c50.667 0 102 -9 154 -27l181 20v-273zM442.002 480l-0.000976562 30v23
c-21.333 10.667 -45.666 16 -72.999 16c-20 0 -36 -4.83301 -48 -14.5s-18 -23.167 -18 -40.5v-14h139zM1004 187c13.333 -22.667 34 -34 62 -34c24 0 42.167 8.5 54.5 25.5s18.5 37.5 18.5 61.5s-6.16699 44.5 -18.5 61.5s-30.5 25.5 -54.5 25.5
c-14 0 -26.667 -3.33301 -38 -10s-19.333 -14.667 -24 -24v-106z" />
    <glyph glyph-name="f_f_h" horiz-adv-x="1347" 
d="M1004 454c34.667 28 75.0029 41.999 121.003 41.999c62 0 108.5 -18.167 139.5 -54.5s46.5 -80.166 46.5 -131.499v-310h-211v274c0 30.667 -15.333 46 -46 46c-20 0 -36.667 -8 -50 -24v-296h-211v548c-24.667 8.66699 -47.334 12.667 -68.001 12
c-48.667 0 -73 -20.333 -73 -61v-19h89v-168h-89v-312h-211v312h-138v-312h-211v312h-68v168h68v23c0 67.333 21.667 118.333 65 153s97.666 52 162.999 52c61.333 0 120.666 -13.333 177.999 -40c41.333 42 98.333 63 171 63c50.667 0 102 -9 154 -27l181 20v-270z
M442.003 479.999l-0.000976562 30v23c-21.333 10.667 -45.666 16 -72.999 16c-20 0 -36 -4.83301 -48 -14.5s-18 -23.167 -18 -40.5v-14h139z" />
    <glyph glyph-name="f_f_j" horiz-adv-x="1031" 
d="M990 -57c0 -62 -18.665 -107.667 -55.998 -137s-82.666 -44 -135.999 -44c-33.333 0 -65.333 5.66699 -96 17v170c9.33301 -2.66699 18.666 -4 27.999 -4c33.333 0 50 17.667 50 53v314h-128v-312h-211v312h-138v-312h-211v312h-68v168h68v23
c0 67.333 21.667 118.333 65 153s97.666 52 162.999 52c62 0 121.667 -13.333 179 -40c46 45.333 114 68 204 68c59.333 0 123.666 -11 192.999 -33v-164c-54 18 -103.333 27 -148 27c-64 0 -96 -21.667 -96 -65v-21h338v-537zM303.002 494l-0.000976562 -14h139v30v23
c-21.333 10.667 -45.666 16 -72.999 16c-20 0 -36 -4.83301 -48 -14.5s-18 -23.167 -18 -40.5z" />
    <glyph glyph-name="f_f_k" horiz-adv-x="1348" 
d="M1349 480l-148.997 -238l154 -242h-227l-93 162h-30v-162h-211v548c-24.667 8.66699 -47.334 12.667 -68.001 12c-48.667 0 -73 -20.333 -73 -61v-19h89v-168h-89v-312h-211v312h-138v-312h-211v312h-68v168h68v23c0 67.333 21.667 118.333 65 153s97.666 52 162.999 52
c61.333 0 120.666 -13.333 177.999 -40c41.333 42 98.333 63 171 63c50.667 0 102 -9 154 -27l181 20v-398h33l85 154h227zM442.003 480l-0.000976562 30v23c-21.333 10.667 -45.666 16 -72.999 16c-20 0 -36 -4.83301 -48 -14.5s-18 -23.167 -18 -40.5v-14h139z" />
    <glyph glyph-name="f_h" horiz-adv-x="998" 
d="M655 454c35.333 28 75.668 41.999 121.001 41.999c61.333 0 107.666 -18.167 138.999 -54.5s47 -80.166 47 -131.499v-310h-211v274c0 30.667 -15.333 46 -46 46c-20 0 -36.667 -8 -50 -24v-296h-211v538c-24.667 8.66699 -47.334 12.667 -68.001 12
c-22 0 -39.667 -4.66699 -53 -14s-20 -23.333 -20 -42v-14h89v-168h-89v-312h-211v312h-68v168h68v26c0 69.333 21.333 122.5 64 159.5s97.334 55.5 164.001 55.5c51.333 0 102.333 -9 153 -27l182 20v-260z" />
    <glyph glyph-name="f_i" horiz-adv-x="673" 
d="M303 480h329.001v-480h-210v312h-119v-312h-211v312h-68v168h68v27c0 73.333 24 128.333 72 165s111.333 55 190 55c59.333 0 123.666 -11 192.999 -33v-164c-54 18 -103.333 27 -148 27c-64 0 -96 -21.667 -96 -65v-12z" />
    <glyph glyph-name="f_j" horiz-adv-x="673" 
d="M303 480h329.001v-537c0 -62 -18.667 -107.667 -56 -137s-82.666 -44 -135.999 -44c-33.333 0 -65.333 5.66699 -96 17v170c9.33301 -2.66699 18.666 -4 27.999 -4c33.333 0 50 17.667 50 53v314h-119v-312h-211v312h-68v168h68v27c0 73.333 24 128.333 72 165
s111.333 55 190 55c59.333 0 123.666 -11 192.999 -33v-164c-54 18 -103.333 27 -148 27c-64 0 -96 -21.667 -96 -65v-12z" />
    <glyph glyph-name="f_k" horiz-adv-x="999" 
d="M1000 480l-149 -238l154 -242h-227l-93 162h-30v-162h-211v538c-24.667 8.66699 -47.334 12.667 -68.001 12c-22 0 -39.667 -4.66699 -53 -14s-20 -23.333 -20 -42v-14h89v-168h-89v-312h-211v312h-68v168h68v26c0 69.333 21.333 122.5 64 159.5
s97.334 55.5 164.001 55.5c51.333 0 102.333 -9 153 -27l182 20v-388h33l85 154h227z" />
    <glyph glyph-name="f_l" horiz-adv-x="696" 
d="M320 727c51.333 0 102.332 -8.99902 152.999 -26.999l182 20v-720h-211v543c-21.333 8.66699 -44 13 -68 13c-48.667 -1.33301 -73 -22 -73 -62v-14h89v-168h-89v-312h-211v312h-68v168h68v31c0 69.333 21.333 122.666 64 159.999s97.334 56 164.001 56z" />
    <glyph glyph-name="uni0414.loclBGR" horiz-adv-x="877" 
d="M229 -136h-205v330h85l205 506h249l205 -506h85v-330h-205v136h-419v-136zM439 467l-97 -273h194z" />
    <glyph glyph-name="uni041B.loclBGR" horiz-adv-x="744" 
d="M254 700h236l256 -700h-245l-129 429l-130 -429h-245z" />
    <glyph glyph-name="uni0424.loclBGR" horiz-adv-x="903" 
d="M557 -90h-209v95c-106.667 10.667 -190.167 48 -250.5 112s-90.5 141.667 -90.5 233s30.167 169 90.5 233s143.833 101.333 250.5 112v95h209v-95c106 -11.333 188.833 -49 248.5 -113s89.5 -141.333 89.5 -232s-29.833 -168 -89.5 -232s-142.5 -101.667 -248.5 -113v-95
zM237 350c0 -23.333 2.5 -44.833 7.5 -64.5s16.5 -38.5 34.5 -56.5s41.667 -29 71 -33v308c-29.333 -4 -53 -15 -71 -33s-29.5 -36.833 -34.5 -56.5s-7.5 -41.167 -7.5 -64.5zM554 503v-306c74 9.33301 111 60.333 111 153s-37 143.667 -111 153z" />
    <glyph glyph-name="uni0432.loclBGR" horiz-adv-x="609" 
d="M544 530c0 -60.667 -26.333 -107.001 -79 -139.001c36.667 -13.333 66.5 -35.166 89.5 -65.499s34.5 -66.833 34.5 -109.5c0 -71.333 -24.833 -127.833 -74.5 -169.5s-115.5 -62.5 -197.5 -62.5c-91.333 0 -162 24.667 -212 74s-75 132 -75 248v68
c-0.666992 112 24 197 74 255s121 87 213 87c66.667 0 121.167 -18 163.5 -54s63.5 -80 63.5 -132zM353 500.999c0 32 -14.333 48.001 -43 48.001c-46.667 0 -72 -42.333 -76 -127l57 10c20 4 35.333 12.667 46 26s16 27.666 16 42.999zM234 275
c0.666992 -44 7.16699 -74.833 19.5 -92.5s31.833 -26.5 58.5 -26.5c22 0 39.5 6.5 52.5 19.5s19.5 30.167 19.5 51.5c0 20 -8 36 -24 48s-36.667 15.667 -62 11z" />
    <glyph glyph-name="uni0433.loclBGR" horiz-adv-x="498" 
d="M463 26c-52 -28 -119.002 -41.998 -201.002 -41.998c-71.333 0 -129.5 12.167 -174.5 36.5s-67.5 63.833 -67.5 118.5c0 34.667 8 63.167 24 85.5s35.333 38 58 47s45.334 16.167 68.001 21.5s42 10.5 58 15.5s24 12.167 24 21.5c0 14 -13 21 -39 21
c-56 0 -108 -14.333 -156 -43v147c56.667 27.333 122 41 196 41c63.333 0 115.5 -12 156.5 -36s61.5 -63.333 61.5 -118c0 -32 -8 -58.833 -24 -80.5s-35.5 -37.167 -58.5 -46.5s-45.833 -16.833 -68.5 -22.5s-42 -11.334 -58 -17.001s-24 -12.834 -24 -21.501
c0 -13.333 17.333 -20 52 -20c66.667 0 124.334 18 173.001 54v-162z" />
    <glyph glyph-name="uni0434.loclBGR" horiz-adv-x="625" 
d="M22 246c0 71.333 18.668 130.833 56.001 178.5s92.333 71.5 165 71.5c66 0 118 -24.667 156 -74v58h185v-449c0 -92 -27.833 -159.5 -83.5 -202.5s-125.5 -64.5 -209.5 -64.5c-80 0 -152.667 13.667 -218 41v174c53.333 -29.333 113.333 -44 180 -44
c80.667 0 121 27.333 121 82v24c-32.667 -30.667 -76.334 -46 -131.001 -46c-72.667 0 -127.667 24 -165 72s-56 107.667 -56 179zM375.001 296c-13.333 22.667 -34 34 -62 34c-24 0 -42.167 -8.5 -54.5 -25.5s-18.5 -37.5 -18.5 -61.5s6.16699 -44.5 18.5 -61.5
s30.5 -25.5 54.5 -25.5c28 0 48.667 11.333 62 34v106z" />
    <glyph glyph-name="uni0436.loclBGR" horiz-adv-x="859" 
d="M223 0h-219l126 238l-121 242h219l71 -157h29v377h203v-377h29l71 157h219l-121 -242l126 -238h-219l-78 160h-27v-160h-203v160h-27z" />
    <glyph glyph-name="uni0438.loclBGR" 
d="M343 480l211 0.000976562v-480h-185v48c-42.667 -42.667 -92 -64 -148 -64c-61.333 0 -107.5 18.167 -138.5 54.5s-46.5 80.166 -46.5 131.499v310h211v-274c0 -30.667 15.333 -46 46 -46c20 0 36.667 8 50 24v296z" />
    <glyph glyph-name="uni0439.loclBGR" 
d="M463 567c-46 -27.333 -102 -41 -168 -41c-65.333 0 -121 13.667 -167 41v135c44 -24 99.667 -36 167 -36c66.667 0 122.667 12 168 36v-135zM343 480l211 0.000976562v-480h-185v48c-42.667 -42.667 -92 -64 -148 -64c-61.333 0 -107.5 18.167 -138.5 54.5
s-46.5 80.166 -46.5 131.499v310h211v-274c0 -30.667 15.333 -46 46 -46c20 0 36.667 8 50 24v296z" />
    <glyph glyph-name="uni043A.loclBGR" horiz-adv-x="597" 
d="M602 0h-229l-91 162h-30v-162h-211v700h211v-374h31l85 154h229l-148 -237z" />
    <glyph glyph-name="uni043B.loclBGR" horiz-adv-x="599" 
d="M597 0h-221l-76 279l-76 -279h-222l186 480h223z" />
    <glyph glyph-name="uni043F.loclBGR" 
d="M226 432c42.667 42.667 91.667 63.999 147 63.999c62 0 108.5 -18.167 139.5 -54.5s46.5 -80.166 46.5 -131.499v-310h-211v274c0 30.667 -15.333 46 -46 46c-20 0 -36.667 -8 -50 -24v-296h-211v480h185v-48z" />
    <glyph glyph-name="uni0442.loclBGR" horiz-adv-x="865" 
d="M249 0h-208.001v480h185v-45c15.333 16.667 36.5 31 63.5 43s54.833 18 83.5 18c62.667 0 108.334 -21.333 137.001 -64c42.667 42.667 92.667 64 150 64c59.333 0 102.333 -18.167 129 -54.5s40 -82.833 40 -139.5v-302h-208v285c0 23.333 -12 35 -36 35
c-15.333 0 -30 -6 -44 -18v-14v-288h-208v285c0 11.333 -3.33301 20 -10 26s-15 9 -25 9c-18.667 0 -35 -7.66699 -49 -23v-297z" />
    <glyph glyph-name="uni0446.loclBGR" horiz-adv-x="640" 
d="M554 152c0 -16.667 8.33301 -24.999 25 -24.999h43v-250h-183v119c-30.667 6 -53.667 23.333 -69 52c-37.333 -42.667 -87 -64 -149 -64c-61.333 0 -107.5 18.167 -138.5 54.5s-46.5 80.166 -46.5 131.499v310h211v-274c0 -30.667 15.333 -46 46 -46c20 0 36.667 8 50 24
v296h211v-328z" />
    <glyph glyph-name="uni0448.loclBGR" horiz-adv-x="865" 
d="M616 480h208.001v-480h-185v45c-15.333 -16.667 -36.5 -31 -63.5 -43s-54.833 -18 -83.5 -18c-62.667 0 -108.334 21.333 -137.001 64c-42.667 -42.667 -92.667 -64 -150 -64c-59.333 0 -102.333 18.167 -129 54.5s-40 82.833 -40 139.5v302h208v-285
c0 -23.333 12 -35 36 -35c15.333 0 30 6 44 18v14v288h208v-285c0 -11.333 3.33301 -20 10 -26s15 -9 25 -9c18.667 0 35 7.66699 49 23v297z" />
    <glyph glyph-name="uni0449.loclBGR" horiz-adv-x="913" 
d="M826 152c0 -16.667 8.33203 -24.999 24.999 -24.999h44v-250h-183v118c-30.667 7.33301 -54 24.666 -70 51.999c-37.333 -42 -86.666 -63 -147.999 -63s-107 21 -137 63c-43.333 -42 -93.333 -63 -150 -63c-59.333 0 -102.666 18.167 -129.999 54.5s-41 82.833 -41 139.5
v302h211v-285c0 -11.333 3.33301 -20 10 -26s15 -9 25 -9c15.333 0 29 6 41 18v302h211v-285c0 -11.333 3.33301 -20 10 -26s15 -9 25 -9c17.333 0 32.666 7.66699 45.999 23v297h211v-328z" />
    <glyph glyph-name="uni044E.loclBGR" horiz-adv-x="852" 
d="M831 240c0 -82.667 -26.167 -145.998 -78.5 -189.998s-118.166 -66 -197.499 -66c-60.667 0 -114.167 15.167 -160.5 45.5s-77.5 74.166 -93.5 131.499h-51v-161h-209v700h209v-381h51c16 57.333 47.167 101.166 93.5 131.499s99.833 45.5 160.5 45.5
c79.333 0 145.166 -22 197.499 -66s78.5 -107.333 78.5 -190zM484 240.002c0 -23.333 5.5 -42.668 16.5 -58.001s28.833 -23 53.5 -23c47.333 0 71 27 71 81s-23.667 81 -71 81c-24.667 0 -42.5 -7.66699 -53.5 -23s-16.5 -34.666 -16.5 -57.999z" />
    <glyph glyph-name="uni0430.ss01" horiz-adv-x="625" 
d="M399 58c-38 -49.333 -90 -74 -156 -74c-72.667 0 -127.667 24.667 -165 74s-56 110 -56 182s18.667 132.667 56 182s92.333 74 165 74c66 0 118 -24.667 156 -74v58h185v-480h-185v58zM240 240c0 -24 6.16699 -44.5 18.5 -61.5s30.5 -25.5 54.5 -25.5
c28 0 48.667 11.333 62 34v106c-13.333 22.667 -34 34 -62 34c-24 0 -42.167 -8.5 -54.5 -25.5s-18.5 -37.5 -18.5 -61.5z" />
    <glyph glyph-name="uni0437.ss01" horiz-adv-x="483" 
d="M431 310c0 -61.333 -25.334 -107.667 -76.001 -139c36 -13.333 65.167 -35.333 87.5 -66s33.5 -67 33.5 -109c0 -74.667 -27.167 -132 -81.5 -172s-122.166 -60 -203.499 -60c-68.667 0 -129.334 12.667 -182.001 38v157c44.667 -24.667 94 -37 148 -37
c34.667 0 63 6.66699 85 20s33 34.666 33 63.999c0 24 -8.66699 42.333 -26 55s-43 15 -77 7l-55 -12v142l62 14c42 10 63 32.333 63 67c0 40.667 -29.333 61 -88 61c-47.333 0 -92.333 -12.667 -135 -38v154c54 26.667 113.333 40 178 40
c68.667 0 124.834 -15.667 168.501 -47s65.5 -77.666 65.5 -138.999z" />
    <glyph glyph-name="uni0443.ss01" 
d="M554 22c0 -84.667 -27.167 -148.832 -81.5 -192.499s-122.5 -65.5 -204.5 -65.5c-80.667 0 -150 11.333 -208 34v177c44 -26.667 98.667 -40 164 -40c79.333 0 119 27.333 119 82v20c-36 -28 -76.667 -42 -122 -42c-61.333 0 -107.5 18.167 -138.5 54.5
s-46.5 80.166 -46.5 131.499v299h211v-274c0 -30.667 15.333 -46 46 -46c20 0 36.667 8 50 24v296h211v-458z" />
    <glyph glyph-name="zero.osf" horiz-adv-x="679" 
d="M651 260c0 -36.667 -6.16699 -71.165 -18.5 -103.498s-30.833 -61.5 -55.5 -87.5s-57.334 -46.667 -98.001 -62s-87 -23 -139 -23c-102 0 -179.5 26.667 -232.5 80s-79.5 118.666 -79.5 195.999s26.5 142.666 79.5 195.999s130.5 80 232.5 80
c52 0 98.333 -7.66699 139 -23s73.334 -36 98.001 -62s43.167 -55.167 55.5 -87.5s18.5 -66.833 18.5 -103.5zM258 260.002c0 -26.667 7.16699 -48 21.5 -64s34.5 -24 60.5 -24c25.333 0 45.166 8 59.499 24s21.5 37.333 21.5 64s-7.16699 48 -21.5 64
s-34.166 24 -59.499 24c-26 0 -46.167 -8 -60.5 -24s-21.5 -37.333 -21.5 -64z" />
    <glyph glyph-name="one.osf" horiz-adv-x="506" 
d="M212 520h168v-337h105v-183h-444v183h116v130l-110 -41v185z" />
    <glyph glyph-name="two.osf" horiz-adv-x="570" 
d="M531 1l-501.001 0.00292969v78c0 13.333 1.83301 25.666 5.5 36.999s7.16699 21.166 10.5 29.499s10.333 17 21 26s18.5 15.833 23.5 20.5s15.5 11.167 31.5 19.5s26.5 13.666 31.5 15.999l36.5 17.5c52 23.333 82.333 39.666 91 48.999
c7.33301 7.33301 11 15.666 11 24.999c0 20 -16.667 30 -50 30c-22.667 0 -51 -5.83301 -85 -17.5s-67.333 -28.167 -100 -49.5v199c76.667 36.667 156.334 55 239.001 55c65.333 0 120.5 -15.167 165.5 -45.5s67.5 -73.833 67.5 -130.5
c0 -51.333 -23.333 -92.666 -70 -123.999c-28 -19.333 -64.667 -36.666 -110 -51.999h182v-183z" />
    <glyph glyph-name="three.osf" horiz-adv-x="564" 
d="M511 341c0 -34 -9.16309 -63.834 -27.4961 -89.501s-44.833 -44.5 -79.5 -56.5c39.333 -10 71.666 -29.167 96.999 -57.5s38 -64.833 38 -109.5c0 -36.667 -8 -68.5 -24 -95.5s-37.833 -48.167 -65.5 -63.5s-57.834 -26.666 -90.501 -33.999s-67.667 -11 -105 -11
c-78.667 0 -152.334 12.667 -221.001 38v193c60 -28 127.333 -42 202 -42c56.667 1.33301 85 17.666 85 48.999c0 12 -5 21.333 -15 28s-23.333 10 -40 10h-106l1 171h84c33.333 0 50 11 50 33c0 27.333 -25.333 41 -76 41c-58.667 0 -116.334 -13 -173.001 -39v188
c60 28 129.667 42 209 42c74 0 135.333 -16.167 184 -48.5s73 -81.166 73 -146.499z" />
    <glyph glyph-name="four.osf" horiz-adv-x="640" 
d="M311 520h226v-410h79v-179h-79v-91h-203v91h-319v173zM334 110v153l-110 -153h110z" />
    <glyph glyph-name="five.osf" horiz-adv-x="564" 
d="M78 520l431.999 -0.00292969v-188l-231 1l-5 -69c20 3.33301 37.667 5 53 5c63.333 -1.33301 114.333 -20.166 153 -56.499s58 -88.166 58 -155.499c0 -42 -8.83301 -78.667 -26.5 -110s-41.5 -55.666 -71.5 -72.999s-62 -30 -96 -38s-70.333 -12 -109 -12
c-76 0 -144 13 -204 39v186c48 -26.667 105.333 -40 172 -40c30.667 0 55.834 5.16699 75.501 15.5s29.5 25.833 29.5 46.5c0 20 -9.66699 35.167 -29 45.5s-45.666 15.5 -78.999 15.5c-56.667 0 -105.334 -6.66699 -146.001 -20z" />
    <glyph glyph-name="six.osf" horiz-adv-x="645" 
d="M265 415c40 19.333 83.335 29.001 130.002 29.001c60.667 0 113 -19.333 157 -58s66 -93 66 -163c0 -78.667 -26.333 -138.167 -79 -178.5s-117.334 -60.5 -194.001 -60.5c-104.667 0 -183 30.333 -235 91s-78 146.667 -78 258c0 61.333 9.5 115.833 28.5 163.5
s44.667 85.667 77 114s67.666 49.666 105.999 63.999s78.5 21.5 120.5 21.5c73.333 0 140.333 -14.667 201 -44v-175c-47.333 28 -97 42 -149 42c-80.667 0 -131 -34.667 -151 -104zM258.002 262.001c8 -72.667 34.332 -109 78.999 -109c17.333 0 32 5.66699 44 17
s18 27 18 47c0 22 -6.66699 38.5 -20 49.5s-29.666 16.5 -48.999 16.5c-26 0 -50 -7 -72 -21z" />
    <glyph glyph-name="seven.osf" horiz-adv-x="550" 
d="M19 520h521v-146l-240 -534h-249l221 492h-253v188z" />
    <glyph glyph-name="eight.osf" horiz-adv-x="638" 
d="M55 493c0 54.667 22.666 102.168 67.999 142.501s111 60.5 197 60.5c82.667 0 147.334 -19.833 194.001 -59.5s69.667 -84.834 69 -135.501c-0.666992 -32.667 -8 -59.667 -22 -81s-34.667 -41 -62 -59c72.667 -38.667 109 -95 109 -169c0 -58.667 -24.667 -108 -74 -148
s-121.666 -60 -216.999 -60c-96.667 0 -168.667 19.5 -216 58.5s-71 86.833 -71 143.5c0 35.333 9.66699 67.5 29 96.5s42.666 50.833 69.999 65.5c-49.333 38.667 -74 87 -74 145zM324.999 260.001l-22.501 7.50098c-13 4.33301 -22.833 7.83301 -29.5 10.5
c-14 -18 -21 -38.667 -21 -62c0.666992 -18 6.83398 -33 18.501 -45s28.834 -18 51.501 -18c20 0 35.5 4.5 46.5 13.5s16.5 20.167 16.5 33.5c0 16 -4.83301 28.167 -14.5 36.5s-24.834 16.166 -45.501 23.499zM373.998 480.002c0 14 -5.33398 25.668 -16.001 35.001
s-24 14 -40 14c-17.333 0 -30.666 -4.16699 -39.999 -12.5s-14 -18.833 -14 -31.5c0 -22.667 15.667 -40.334 47 -53.001c7.33301 -3.33301 22.333 -8.33301 45 -15c13.333 22.667 19.333 43.667 18 63z" />
    <glyph glyph-name="nine.osf" horiz-adv-x="634" 
d="M20 297c0 78.667 26.334 138.167 79.001 178.5s117 60.5 193 60.5c104.667 0 183.167 -30.333 235.5 -91s78.5 -146.667 78.5 -258c0 -61.333 -9.66699 -116 -29 -164s-45 -86 -77 -114s-67.167 -49.167 -105.5 -63.5s-78.5 -21.5 -120.5 -21.5
c-73.333 0 -140.333 14.667 -201 44v175c46 -28 95.333 -42 148 -42c81.333 0 132 34.667 152 104c-40 -19.333 -83.667 -29 -131 -29c-60.667 0 -112.834 19.333 -156.501 58s-65.5 93 -65.5 163zM300.001 367c-16.667 0 -30.999 -5.66699 -42.999 -17s-18 -27 -18 -47
c0 -22 6.66699 -38.5 20 -49.5s29.666 -16.5 48.999 -16.5c26 0 50 7 72 21c-8 72.667 -34.667 109 -80 109z" />
    <glyph glyph-name="zero.sinf" horiz-adv-x="430" 
d="M408 104c0 -62 -16 -113.167 -48 -153.5s-80.333 -60.5 -145 -60.5c-65.333 0 -113.833 20.167 -145.5 60.5s-47.5 91.5 -47.5 153.5s15.833 113.167 47.5 153.5s80.167 60.5 145.5 60.5c64.667 0 113 -20.167 145 -60.5s48 -91.5 48 -153.5zM160 104
c0 -62.667 18.333 -94 55 -94s55 31.333 55 94s-18.333 94 -55 94s-55 -31.333 -55 -94z" />
    <glyph glyph-name="one.sinf" horiz-adv-x="322" 
d="M139 308h101v-295h69v-113h-281v113h78v164l-74 -25v118z" />
    <glyph glyph-name="two.sinf" horiz-adv-x="378" 
d="M36 274c46 29.333 96.998 44.002 152.998 44.002c46.667 0 85.167 -10.833 115.5 -32.5s45.5 -55.167 45.5 -100.5c0 -26.667 -6.66699 -48.834 -20 -66.501s-32 -34.834 -56 -51.501c-5.33301 -3.33301 -12.666 -8.16602 -21.999 -14.499l-21.5 -14.5
c-5 -3.33301 -10.333 -7.33301 -16 -12s-10.167 -9 -13.5 -13h149v-113h-327l1 56c0 20.667 3 39.334 9 56.001s15.833 31.667 29.5 45s25.167 23.666 34.5 30.999s23.333 16.666 42 27.999c6 4 14.5 9.16699 25.5 15.5s18.833 11 23.5 14s9.16699 7 13.5 12
s6.5 10.5 6.5 16.5c0 17.333 -13 26 -39 26c-43.333 0 -87.666 -17.333 -132.999 -52v126z" />
    <glyph glyph-name="three.sinf" horiz-adv-x="370" 
d="M332 201c0 -44.667 -21.666 -73.998 -64.999 -87.998c24 -6.66699 43.667 -18.334 59 -35.001s23 -38.334 23 -65.001c0 -42.667 -16.5 -73.834 -49.5 -93.501s-74.5 -29.5 -124.5 -29.5c-48 0 -97.333 9.33301 -148 28v119c43.333 -23.333 89 -34.333 137 -33
c35.333 0 53 9.66699 53 29c0 15.333 -12 23 -36 23h-72l1 103l58 -1c22 0 33 6.66699 33 20c0 16.667 -16 25 -48 25c-42.667 0 -82.334 -12.333 -119.001 -37v116c40.667 24 87.667 36 141 36c45.333 0 82.833 -9.66699 112.5 -29s44.5 -48.666 44.5 -87.999z" />
    <glyph glyph-name="four.sinf" horiz-adv-x="413" 
d="M206 308h136v-246h50v-107h-50v-55h-125v55h-203v110zM217 62v96l-76 -96h76z" />
    <glyph glyph-name="five.sinf" horiz-adv-x="370" 
d="M53 310l278 0.000976562v-114h-156l-4 -41c12 2 24 3 36 3c41.333 0 75.166 -10.167 101.499 -30.5s39.5 -52.5 39.5 -96.5c0 -48.667 -18 -84.334 -54 -107.001s-80.333 -34 -133 -34c-51.333 0 -96.666 9.33301 -135.999 28v113c30 -19.333 67.667 -29 113 -29
c48 0 72 12.333 72 37s-27 37 -81 37c-34 0 -64 -4 -90 -12z" />
    <glyph glyph-name="six.sinf" horiz-adv-x="410" 
d="M158 143c28.667 15.333 59.667 23 93 23c38.667 0 71.5 -11.167 98.5 -33.5s40.5 -54.5 40.5 -96.5c0 -48 -16.167 -84.333 -48.5 -109s-72.5 -37 -120.5 -37c-132.667 0 -199 72 -199 216c0 70.667 19.667 123.667 59 159s88.666 53 147.999 53
c46.667 0 88.667 -9.33301 126 -28v-107c-31.333 18.667 -64 28 -98 28c-28 0 -50.167 -5 -66.5 -15s-27.166 -27.667 -32.499 -53zM157 55c6.66699 -42 26 -63.001 58 -63.001c12.667 0 23 3.33301 31 10s12 16.334 12 29.001c0 25.333 -16.667 38 -50 38
c-16.667 0 -33.667 -4.66699 -51 -14z" />
    <glyph glyph-name="seven.sinf" horiz-adv-x="353" 
d="M196 -100h-150l136 296h-167v114h328v-89z" />
    <glyph glyph-name="eight.sinf" horiz-adv-x="405" 
d="M35 198c0 32.667 14.168 61.167 42.501 85.5s70.166 36.5 125.499 36.5c53.333 0 94.5 -11.833 123.5 -35.5s43.5 -50.834 43.5 -81.501c-0.666992 -34 -17.667 -62 -51 -84c44 -24 66 -58 66 -102c0 -35.333 -15.333 -65 -46 -89s-76.667 -36 -138 -36
c-62 0 -107.667 11.667 -137 35s-44 52 -44 86c0 21.333 5.66699 40.833 17 58.5s25.333 30.834 42 39.501c-29.333 23.333 -44 52.333 -44 87zM210.001 56c-18.667 5.33301 -32.667 9.66699 -42 13c-8.66699 -10.667 -13 -23 -13 -37c1.33301 -26 19 -39 53 -39
c28 0 42 9.33301 42 28c0 8.66699 -3.33301 15.5 -10 20.5s-16.667 9.83301 -30 14.5zM242.001 190.001c-1.33301 19.333 -15.667 29 -43 29c-11.333 0 -20.333 -2.5 -27 -7.5s-10 -10.833 -10 -17.5c0 -13.333 14.333 -24.333 43 -33
c2 -0.666992 6.16699 -2.16699 12.5 -4.5s10.833 -3.83301 13.5 -4.5c8 13.333 11.667 26 11 38z" />
    <glyph glyph-name="nine.sinf" horiz-adv-x="410" 
d="M20 172c0 48 16 84.333 48 109s72 37 120 37c133.333 0 200 -72 200 -216c0 -70.667 -19.667 -123.667 -59 -159s-88.666 -53 -147.999 -53c-46.667 0 -88.667 9.33301 -126 28v107c32 -18.667 64.667 -28 98 -28c28 0 50.167 5 66.5 15s27.166 28 32.499 54
c-28 -16 -59 -24 -93 -24c-39.333 0 -72.333 11.167 -99 33.5s-40 54.5 -40 96.5zM195 216c-12.667 0 -23.166 -3.33203 -31.499 -9.99902s-12.5 -16.334 -12.5 -29.001c0 -25.333 16.667 -38 50 -38c17.333 0 34.666 4.66699 51.999 14c-6.66699 42 -26 63 -58 63z" />
    <glyph glyph-name="zero.sups" horiz-adv-x="430" 
d="M408 583c0 -62 -16 -113.167 -48 -153.5s-80.333 -60.5 -145 -60.5c-65.333 0 -113.833 20.167 -145.5 60.5s-47.5 91.5 -47.5 153.5s15.833 113.167 47.5 153.5s80.167 60.5 145.5 60.5c64.667 0 113 -20.167 145 -60.5s48 -91.5 48 -153.5zM160 583
c0 -62.667 18.333 -94 55 -94s55 31.333 55 94s-18.333 94 -55 94s-55 -31.333 -55 -94z" />
    <glyph glyph-name="one.sups" horiz-adv-x="322" 
d="M139 780h101v-295h69v-113h-281v113h78v164l-74 -25v118z" />
    <glyph glyph-name="two.sups" horiz-adv-x="378" 
d="M36 753c46 29.333 96.998 44.002 152.998 44.002c46.667 0 85.167 -10.833 115.5 -32.5s45.5 -55.167 45.5 -100.5c0 -26.667 -6.66699 -48.834 -20 -66.501s-32 -34.834 -56 -51.501c-5.33301 -3.33301 -12.666 -8.16602 -21.999 -14.499l-21.5 -14.5
c-5 -3.33301 -10.333 -7.33301 -16 -12s-10.167 -9 -13.5 -13h149v-113h-327l1 56c0 20.667 3 39.334 9 56.001s15.833 31.667 29.5 45s25.167 23.666 34.5 30.999s23.333 16.666 42 27.999c6 4 14.5 9.16699 25.5 15.5s18.833 11 23.5 14s9.16699 7 13.5 12
s6.5 10.5 6.5 16.5c0 17.333 -13 26 -39 26c-43.333 0 -87.666 -17.333 -132.999 -52v126z" />
    <glyph glyph-name="three.sups" horiz-adv-x="370" 
d="M332 680c0 -44.667 -21.666 -73.998 -64.999 -87.998c24 -6.66699 43.667 -18.334 59 -35.001s23 -38.334 23 -65.001c0 -42.667 -16.5 -73.834 -49.5 -93.501s-74.5 -29.5 -124.5 -29.5c-48 0 -97.333 9.33301 -148 28v119c43.333 -23.333 89 -34.333 137 -33
c35.333 0 53 9.66699 53 29c0 15.333 -12 23 -36 23h-72l1 103l58 -1c22 0 33 6.66699 33 20c0 16.667 -16 25 -48 25c-42.667 0 -82.334 -12.333 -119.001 -37v116c40.667 24 87.667 36 141 36c45.333 0 82.833 -9.66699 112.5 -29s44.5 -48.666 44.5 -87.999z" />
    <glyph glyph-name="four.sups" horiz-adv-x="413" 
d="M206 780h136v-246h50v-107h-50v-55h-125v55h-203v110zM217 534v96l-76 -96h76z" />
    <glyph glyph-name="five.sups" horiz-adv-x="370" 
d="M53 780l278 0.000976562v-114h-156l-4 -41c12 2 24 3 36 3c41.333 0 75.166 -10.167 101.499 -30.5s39.5 -52.5 39.5 -96.5c0 -48.667 -18 -84.334 -54 -107.001s-80.333 -34 -133 -34c-51.333 0 -96.666 9.33301 -135.999 28v113c30 -19.333 67.667 -29 113 -29
c48 0 72 12.333 72 37s-27 37 -81 37c-34 0 -64 -4 -90 -12z" />
    <glyph glyph-name="six.sups" horiz-adv-x="409" 
d="M158 622c28.667 15.333 59.667 23 93 23c38.667 0 71.5 -11.167 98.5 -33.5s40.5 -54.5 40.5 -96.5c0 -48 -16.167 -84.333 -48.5 -109s-72.5 -37 -120.5 -37c-132.667 0 -199 72 -199 216c0 70.667 19.667 123.667 59 159s88.666 53 147.999 53
c46.667 0 88.667 -9.33301 126 -28v-107c-31.333 18.667 -64 28 -98 28c-28 0 -50.167 -5 -66.5 -15s-27.166 -27.667 -32.499 -53zM157 534c6.66699 -42 26 -63.001 58 -63.001c12.667 0 23 3.33301 31 10s12 16.334 12 29.001c0 25.333 -16.667 38 -50 38
c-16.667 0 -33.667 -4.66699 -51 -14z" />
    <glyph glyph-name="seven.sups" horiz-adv-x="353" 
d="M196 370h-150l136 296h-167v114h328v-89z" />
    <glyph glyph-name="eight.sups" horiz-adv-x="407" 
d="M36 677c0 32.667 14.168 61.167 42.501 85.5s70.166 36.5 125.499 36.5c53.333 0 94.5 -11.833 123.5 -35.5s43.5 -50.834 43.5 -81.501c-0.666992 -34 -17.667 -62 -51 -84c44 -24 66 -58 66 -102c0 -35.333 -15.333 -65 -46 -89s-76.667 -36 -138 -36
c-62 0 -107.667 11.667 -137 35s-44 52 -44 86c0 21.333 5.66699 40.833 17 58.5s25.333 30.834 42 39.501c-29.333 23.333 -44 52.333 -44 87zM211.001 535c-18.667 5.33301 -32.667 9.66699 -42 13c-8.66699 -10.667 -13 -23 -13 -37c1.33301 -26 19 -39 53 -39
c28 0 42 9.33301 42 28c0 8.66699 -3.33301 15.5 -10 20.5s-16.667 9.83301 -30 14.5zM243.001 669.001c-1.33301 19.333 -15.667 29 -43 29c-11.333 0 -20.333 -2.5 -27 -7.5s-10 -10.833 -10 -17.5c0 -13.333 14.333 -24.333 43 -33
c2 -0.666992 6.16699 -2.16699 12.5 -4.5s10.833 -3.83301 13.5 -4.5c8 13.333 11.667 26 11 38z" />
    <glyph glyph-name="nine.sups" horiz-adv-x="410" 
d="M20 651c0 48 16 84.333 48 109s72 37 120 37c133.333 0 200 -72 200 -216c0 -70.667 -19.667 -123.667 -59 -159s-88.666 -53 -147.999 -53c-46.667 0 -88.667 9.33301 -126 28v107c32 -18.667 64.667 -28 98 -28c28 0 50.167 5 66.5 15s27.166 28 32.499 54
c-28 -16 -59 -24 -93 -24c-39.333 0 -72.333 11.167 -99 33.5s-40 54.5 -40 96.5zM195 695c-12.667 0 -23.166 -3.33203 -31.499 -9.99902s-12.5 -16.334 -12.5 -29.001c0 -25.333 16.667 -38 50 -38c17.333 0 34.666 4.66699 51.999 14c-6.66699 42 -26 63 -58 63z" />
    <glyph glyph-name="zero.tf" horiz-adv-x="661" 
d="M645 340c0 -103.333 -26.167 -188.5 -78.5 -255.5s-130.833 -100.5 -235.5 -100.5c-54 0 -101.667 9.5 -143 28.5s-74.166 45.167 -98.499 78.5s-42.666 70.833 -54.999 112.5s-18.5 87.167 -18.5 136.5s6.16699 94.833 18.5 136.5s30.666 79.167 54.999 112.5
s57.166 59.5 98.499 78.5s89 28.5 143 28.5c104.667 0 183.167 -33.5 235.5 -100.5s78.5 -152.167 78.5 -255.5zM246 340c0 -104.667 28.333 -157 85 -157c56 0 84 52.333 84 157s-28 157 -84 157c-56.667 0 -85 -52.333 -85 -157z" />
    <glyph glyph-name="one.tf" horiz-adv-x="661" 
d="M290 680h168v-491h175v-189h-589v189h190v273l-155 -60v196z" />
    <glyph glyph-name="two.tf" horiz-adv-x="661" 
d="M68 623c80.667 48.667 168.668 73.002 264.001 73.002c77.333 0 141.5 -18 192.5 -54s76.5 -91.333 76.5 -166c0 -44.667 -11.167 -82 -33.5 -112s-53.5 -58.333 -93.5 -85c-10.667 -7.33301 -26.667 -17.666 -48 -30.999s-38.333 -24.5 -51 -33.5s-23 -17.5 -31 -25.5
h268v-188h-565v94c0 16 1.16699 31 3.5 45s6.66602 27.5 12.999 40.5l16 34c4.33301 9.66699 12.166 20.167 23.499 31.5s19.5 20 24.5 26s15.167 14.333 30.5 25s25 17.5 29 20.5s14.667 10.167 32 21.5s27.333 17.666 30 18.999
c10.667 7.33301 24.834 16.166 42.501 26.499s30.667 18.166 39 23.499s16 12.333 23 21s10.5 18 10.5 28c0 28.667 -21.667 43 -65 43c-72.667 0 -149.667 -28.667 -231 -86v209z" />
    <glyph glyph-name="three.tf" horiz-adv-x="661" 
d="M585 501c0 -34 -9.16504 -63.8311 -27.498 -89.498s-44.833 -44.5 -79.5 -56.5c39.333 -10 71.666 -29.167 96.999 -57.5s38 -64.833 38 -109.5c0 -70.667 -28 -122.334 -84 -155.001s-127.667 -49 -215 -49c-90.667 0 -176.334 15.333 -257.001 46v198
c68.667 -36.667 147.667 -55 237 -55c66.667 1.33301 100 17.666 100 48.999c0 25.333 -20 38 -60 38h-132v171h111c36.667 -1.33301 55 9.66699 55 33c0 27.333 -30.333 41 -91 41c-34 0 -70.167 -5.5 -108.5 -16.5s-71.5 -25.833 -99.5 -44.5v193
c66 39.333 147.667 59 245 59c80 0 145.167 -16 195.5 -48s75.5 -81 75.5 -147z" />
    <glyph glyph-name="four.tf" horiz-adv-x="661" 
d="M330 680h226v-410h85v-179h-85v-91h-208v91h-338v184zM351 270v159l-127 -159h127z" />
    </font>
</defs>
</svg>
